<?xml version="1.0" encoding="UTF-8"?>
<svg width="80px" height="96px" viewBox="0 0 80 96" version="1.1" xmlns="http://www.w3.org/2000/svg" xmlns:xlink="http://www.w3.org/1999/xlink">
    <!-- Generator: sketchtool 54 (76480) - https://sketchapp.com -->
    <title>264AA9F3-21C4-4F7A-AE0C-061C3DB850F6</title>
    <desc>Created with sketchtool.</desc>
    <defs>
        <linearGradient x1="14.3728454%" y1="0%" x2="83.5546774%" y2="100%" id="linearGradient-1">
            <stop stop-color="#BBFCE3" offset="0%"></stop>
            <stop stop-color="#D3EFEF" offset="100%"></stop>
        </linearGradient>
        <linearGradient x1="0.405677837%" y1="8.00124545%" x2="118.193162%" y2="114.243798%" id="linearGradient-2">
            <stop stop-color="#05FA96" offset="0%"></stop>
            <stop stop-color="#00C977" offset="100%"></stop>
        </linearGradient>
        <linearGradient x1="15.8718824%" y1="8.00124545%" x2="96.9268286%" y2="114.243798%" id="linearGradient-3">
            <stop stop-color="#05FA96" offset="0%"></stop>
            <stop stop-color="#D8D8D8" stop-opacity="0" offset="100%"></stop>
        </linearGradient>
    </defs>
    <g id="Main-page" stroke="none" stroke-width="1" fill="none" fill-rule="evenodd">
        <g id="kyc-failed" transform="translate(-459.000000, -146.000000)">
            <g id="approved" transform="translate(459.000000, 146.000000)">
                <path d="M74.9608836,94.3163265 L13.8196042,94.3163265 C11.9642016,94.3163265 10.4601933,92.8087653 10.4601933,90.9489796 L10.4601933,14.8469388 C10.4601933,12.9871531 11.9642016,11.4795918 13.8196042,11.4795918 L74.9608836,11.4795918 C76.8162862,11.4795918 78.3202945,12.9871531 78.3202945,14.8469388 L78.3202945,90.9489796 C78.3202945,92.8087653 76.8162862,94.3163265 74.9608836,94.3163265 Z" id="Path" fill="url(#linearGradient-1)" fill-rule="nonzero"></path>
                <ellipse id="Oval" fill="#CAF5E8" fill-rule="nonzero" cx="44.3902439" cy="38.9234694" rx="20.6603774" ry="20.7091837"></ellipse>
                <path d="M10.4601933,42.2602041 C10.0184307,42.2602041 9.58506673,42.080051 9.27264151,41.7667194 C8.96004832,41.4537245 8.7804878,41.0193367 8.7804878,40.5765306 C8.7804878,40.1337245 8.96004832,39.6993367 9.27264151,39.3861735 C9.5852347,39.0730102 10.0184307,38.8928571 10.4601933,38.8928571 C10.9019558,38.8928571 11.3353198,39.0728418 11.6475771,39.3861735 C11.9601703,39.6993367 12.1398988,40.1337245 12.1398988,40.5765306 C12.1398988,41.0193367 11.9601703,41.4537245 11.6475771,41.7667194 C11.3353198,42.080051 10.9019558,42.2602041 10.4601933,42.2602041 Z" id="Path" fill="#1DB19D" fill-rule="nonzero"></path>
                <path d="M74.9608836,96 L13.8196042,96 C11.0410354,96 8.7804878,93.7341122 8.7804878,90.9489796 L8.7804878,45.8825969 C8.7804878,44.9528724 9.53265992,44.1989235 10.4601933,44.1989235 C11.3877266,44.1989235 12.1398988,44.9528724 12.1398988,45.8825969 L12.1398988,90.9489796 C12.1398988,91.8773571 12.8934146,92.6326531 13.8196042,92.6326531 L74.9608836,92.6326531 C75.8870732,92.6326531 76.640589,91.8773571 76.640589,90.9489796 L76.640589,14.8469388 C76.640589,13.9185612 75.8870732,13.1632653 74.9608836,13.1632653 L40.9748988,13.1632653 C40.0473654,13.1632653 39.2951933,12.4093163 39.2951933,11.4795918 C39.2951933,10.5498673 40.0473654,9.79591837 40.9748988,9.79591837 L74.9608836,9.79591837 C77.7394524,9.79591837 80,12.0618061 80,14.8469388 L80,90.9489796 C80,93.7341122 77.7394524,96 74.9608836,96 Z" id="Path" fill="#3F98C5" fill-rule="nonzero"></path>
                <path d="M50.9410953,36.271852 L50.9410953,37.9134337 C50.9410953,41.539898 48.0081615,44.4797602 44.3902439,44.4797602 L44.3902439,44.4797602 L44.3902439,44.4797602 C40.7723263,44.4797602 37.8393925,41.539898 37.8393925,37.9134337 L37.8393925,36.271852 C37.8393925,32.6453878 40.7723263,29.7055255 44.3902439,29.7055255 L44.3902439,29.7055255 C48.0081615,29.7053571 50.9410953,32.6452194 50.9410953,36.271852 Z" id="Path" fill="#FFFFFF" fill-rule="nonzero"></path>
                <path d="M44.3902439,44.4797602 L44.3902439,44.4797602 C37.9954372,44.4797602 32.5321951,48.461648 30.3228785,54.0851173 C34.0116797,57.5253673 38.9542131,59.6329898 44.3902439,59.6329898 C49.8262747,59.6329898 54.7688081,57.5255357 58.4576093,54.0851173 C56.2482927,48.461648 50.7850506,44.4797602 44.3902439,44.4797602 Z" id="Path" fill="#FFFFFF" fill-rule="nonzero"></path>
                <path d="M44.3902439,16.5306122 C43.2473723,16.5306122 42.0987897,16.6181633 40.9764105,16.7905714 C40.0594593,16.9316633 39.4300736,17.7908418 39.570665,18.7099592 C39.7112563,19.6290765 40.5689139,20.2591071 41.4855292,20.1190255 C42.4401058,19.9722092 43.4173585,19.8979592 44.3902439,19.8979592 C54.8563208,19.8979592 63.3710838,28.4328367 63.3710838,38.9236378 C63.3710838,43.5823622 61.6910423,47.8543469 58.9074344,51.1656276 C57.6757064,49.0425153 55.9933134,47.2111837 53.9512954,45.7906684 C52.7595444,44.9616276 51.4791049,44.2999439 50.1387,43.8101633 C51.6685757,42.3111888 52.6208007,40.2222551 52.6208007,37.913602 L52.6208007,36.2720204 C52.6208007,31.7227347 48.9286401,28.021852 44.3902439,28.021852 C39.8518477,28.021852 36.1596871,31.7227347 36.1596871,36.2720204 L36.1596871,37.913602 C36.1596871,40.2222551 37.1117441,42.3111888 38.6417879,43.8101633 C37.3015509,44.2999439 36.0211114,44.9616276 34.8291924,45.7906684 C32.7774321,47.2180867 31.0883203,49.0596888 29.8550805,51.1955969 C27.7341164,48.6692449 26.2516084,45.5618571 25.6716061,42.0953418 C25.518249,41.1785816 24.651353,40.56 23.7372572,40.7133827 C22.8223217,40.867102 22.2050299,41.7352041 22.358387,42.652301 C23.2220916,47.8144439 25.8956788,52.5395051 29.886827,55.9568571 C33.9233272,59.4132704 39.074144,61.3168316 44.3900759,61.3168316 C56.708532,61.3168316 66.7303267,51.2713622 66.7303267,38.9238061 C66.7303267,26.57625 56.7087,16.5306122 44.3902439,16.5306122 Z M39.519098,37.9134337 L39.519098,36.271852 C39.519098,33.5794898 41.7043948,31.3890306 44.3902439,31.3890306 C47.076093,31.3890306 49.2613898,33.5794898 49.2613898,36.271852 L49.2613898,37.9134337 C49.2613898,40.6056276 47.076093,42.7960867 44.3902439,42.7960867 C41.7043948,42.7960867 39.519098,40.6056276 39.519098,37.9134337 Z M32.3477635,53.6589796 C34.603272,49.0706327 39.2142315,46.1634337 44.3902439,46.1634337 C49.5555062,46.1634337 54.1577312,49.0586786 56.4182789,53.6303571 C53.1416774,56.3277704 48.9513162,57.9493163 44.3902439,57.9493163 C39.8426093,57.9493163 35.6383065,56.3575714 32.3477635,53.6589796 Z" id="Shape" fill="#428DFF" fill-rule="nonzero"></path>
                <path d="M59.9034998,80.1738061 L36.051682,80.1738061 C35.1241486,80.1738061 34.3719765,79.4198571 34.3719765,78.4901327 C34.3719765,77.5604082 35.1241486,76.8064592 36.051682,76.8064592 L59.9034998,76.8064592 C60.8310331,76.8064592 61.5832052,77.5604082 61.5832052,78.4901327 C61.5832052,79.4198571 60.8312011,80.1738061 59.9034998,80.1738061 Z" id="Path" fill="#1DB19D" fill-rule="nonzero"></path>
                <path d="M28.8764841,70.744898 C28.4347216,70.744898 28.0013576,70.5647449 27.6889324,70.2514133 C27.3766751,69.9384184 27.1967786,69.5055459 27.1967786,69.0612245 C27.1967786,68.6184184 27.3765071,68.1840306 27.6889324,67.8708673 C28.0013576,67.5577041 28.4347216,67.377551 28.8764841,67.377551 C29.3182467,67.377551 29.7516107,67.5575357 30.0640359,67.8708673 C30.3781408,68.1840306 30.5561896,68.6184184 30.5561896,69.0612245 C30.5561896,69.5040306 30.3781408,69.9384184 30.0640359,70.2514133 C29.7516107,70.5647449 29.3182467,70.744898 28.8764841,70.744898 Z" id="Path" fill="#1DB19D" fill-rule="nonzero"></path>
                <path d="M28.8764841,80.1734694 C28.4347216,80.1734694 28.0013576,79.9933163 27.6889324,79.6799847 C27.3766751,79.3669898 27.1967786,78.9341173 27.1967786,78.4897959 C27.1967786,78.0469898 27.3765071,77.612602 27.6889324,77.2994388 C28.0013576,76.9862755 28.4347216,76.8061224 28.8764841,76.8061224 C29.3199264,76.8061224 29.7516107,76.9861071 30.0640359,77.2994388 C30.3781408,77.612602 30.5561896,78.0469898 30.5561896,78.4897959 C30.5561896,78.9342857 30.3781408,79.3669898 30.0640359,79.6799847 C29.7516107,79.9933163 29.3182467,80.1734694 28.8764841,80.1734694 Z" id="Path" fill="#1DB19D" fill-rule="nonzero"></path>
                <path d="M59.9034998,70.7452347 L36.051682,70.7452347 C35.1241486,70.7452347 34.3719765,69.9912857 34.3719765,69.0615612 C34.3719765,68.1318367 35.1241486,67.3778878 36.051682,67.3778878 L59.9034998,67.3778878 C60.8310331,67.3778878 61.5832052,68.1318367 61.5832052,69.0615612 C61.5832052,69.9912857 60.8312011,70.7452347 59.9034998,70.7452347 Z" id="Path" fill="#1DB19D" fill-rule="nonzero"></path>
                <ellipse id="Oval" fill="#FEFEFE" fill-rule="nonzero" cx="19.0243902" cy="19.1020408" rx="18.0487805" ry="18.122449"></ellipse>
                <ellipse id="border" stroke="#428DFF" stroke-width="2.92682927" cx="19.5121951" cy="19.5918367" rx="18.0487805" ry="18.1284221"></ellipse>
                <ellipse id="overlay" fill="url(#linearGradient-2)" fill-rule="nonzero" style="mix-blend-mode: color;" cx="19.5121951" cy="19.5918367" rx="19.5121951" ry="19.5918367"></ellipse>
                <path d="M76.4742816,96 L12.3062062,96 C10.3589519,96 8.7804878,94.4311558 8.7804878,92.495769 L8.7804878,39.1836735 C8.7804878,38.1381383 23.902439,43.5918367 34.1463415,32.8163265 C43.0438553,23.4570759 37.1534724,9.79591837 38.0487805,9.79591837 L76.4742816,9.79591837 C78.4215359,9.79591837 80,11.3647626 80,13.3001493 L80,92.495769 C80,94.4311558 78.4215359,96 76.4742816,96 Z" id="Path-Copy" fill="url(#linearGradient-3)" fill-rule="nonzero" style="mix-blend-mode: color;"></path>
                <path d="M20.5855,19.99475 L27.6595,12.92075 C28.099,12.481625 28.099,11.769125 27.6595,11.33 C27.22,10.8905 26.50825,10.8905 26.06875,11.33 L18.99475,18.404 L11.920375,11.33 C11.480875,10.8905 10.769125,10.8905 10.329625,11.33 C9.890125,11.769125 9.890125,12.481625 10.329625,12.92075 L17.404,19.99475 L10.329625,27.06875 C9.890125,27.507875 9.890125,28.220375 10.329625,28.6595 C10.549375,28.878875 10.837375,28.98875 11.125,28.98875 C11.412625,28.98875 11.700625,28.878875 11.920375,28.659125 L18.99475,21.585125 L26.06875,28.659125 C26.2885,28.878875 26.5765,28.98875 26.864125,28.98875 C27.15175,28.98875 27.43975,28.878875 27.6595,28.659125 C28.099,28.22 28.099,27.5075 27.6595,27.068375 L20.5855,19.99475 Z" id="Path" stroke="#3F98C5" stroke-width="0.5" fill="#3F98C5" fill-rule="nonzero"></path>
            </g>
        </g>
    </g>
</svg>