<?xml version="1.0" encoding="UTF-8"?>
<svg width="82px" height="87px" viewBox="0 0 82 87" version="1.1" xmlns="http://www.w3.org/2000/svg" xmlns:xlink="http://www.w3.org/1999/xlink">
    <!-- Generator: sketchtool 54 (76480) - https://sketchapp.com -->
    <title>BBE0BCEE-87FF-4B9B-8C01-59D2D6E120D0</title>
    <desc>Created with sketchtool.</desc>
    <defs>
        <linearGradient x1="15.7550535%" y1="0%" x2="123.986512%" y2="132.533026%" id="linearGradient-1">
            <stop stop-color="#05FA96" offset="0%"></stop>
            <stop stop-color="#D8D8D8" stop-opacity="0" offset="100%"></stop>
        </linearGradient>
    </defs>
    <g id="Main-page" stroke="none" stroke-width="1" fill="none" fill-rule="evenodd">
        <g id="kyc-under-review" transform="translate(-468.000000, -155.000000)">
            <g id="review" transform="translate(468.000000, 155.000000)">
                <path d="M66.9504082,85.3007813 L5.0988457,85.3007813 C3.22188867,85.3007813 1.7004082,83.7793008 1.7004082,81.9023438 L1.7004082,5.09765625 C1.7004082,3.22069922 3.22188867,1.69921875 5.0988457,1.69921875 L66.9504082,1.69921875 C68.8273652,1.69921875 70.3488457,3.22069922 70.3488457,5.09765625 L70.3488457,81.9023438 C70.3488457,83.7793008 68.8273652,85.3007813 66.9504082,85.3007813 Z" id="Path" fill="#C5F6E8" fill-rule="nonzero"></path>
                <path d="M40.4425957,23.0244141 L40.4425957,24.1289062 C40.4425957,26.5688145 38.4645352,28.546875 36.024627,28.546875 L36.024627,28.546875 L36.024627,28.546875 C33.5847188,28.546875 31.6066582,26.5688145 31.6066582,24.1289062 L31.6066582,23.0244141 C31.6066582,20.5845059 33.5847188,18.6064453 36.024627,18.6064453 L36.024627,18.6064453 C38.4645352,18.6064453 40.4425957,20.5845059 40.4425957,23.0244141 Z" id="Path" fill="#FFFFFF" fill-rule="nonzero"></path>
                <path d="M36.024627,28.546875 L36.024627,28.546875 C31.7120098,28.546875 28.0274238,31.2260332 26.5375488,35.0095137 C29.0252051,37.3241895 32.3585625,38.7421875 36.024627,38.7421875 C39.6906914,38.7421875 43.0240488,37.3241895 45.5117051,35.0095137 C44.0218301,31.2260332 40.3372441,28.546875 36.024627,28.546875 Z" id="Path" fill="#FFFFFF" fill-rule="nonzero"></path>
                <path d="M70.3488457,67.6846406 C69.4105371,67.6846406 68.649627,68.4453809 68.649627,69.3838594 L68.649627,81.9023438 C68.649627,82.839293 67.8873574,83.6015625 66.9504082,83.6015625 L5.0988457,83.6015625 C4.16189648,83.6015625 3.39962695,82.839293 3.39962695,81.9023438 L3.39962695,5.09765625 C3.39962695,4.16070703 4.16189648,3.3984375 5.0988457,3.3984375 L66.9504082,3.3984375 C67.8873574,3.3984375 68.649627,4.16070703 68.649627,5.09765625 L68.649627,23.5766602 C68.649627,24.5151387 69.4105371,25.2758789 70.3488457,25.2758789 C71.2871543,25.2758789 72.0480645,24.5151387 72.0480645,23.5766602 L72.0480645,5.09765625 C72.0480645,2.28680859 69.7612559,0 66.9504082,0 L5.0988457,0 C2.28799805,0 0.00118945313,2.28680859 0.00118945313,5.09765625 L0.00118945313,81.9023438 C0.00118945313,84.7131914 2.28799805,87 5.0988457,87 L66.9504082,87 C69.7612559,87 72.0480645,84.7131914 72.0480645,81.9023438 L72.0480645,69.3838594 C72.0480645,68.4453809 71.2871543,67.6846406 70.3488457,67.6846406 Z" id="Path" fill="#3F98C5" fill-rule="nonzero"></path>
                <path d="M51.6574395,24.8085938 C51.6574395,16.188627 44.6445937,9.17578125 36.024627,9.17578125 C27.4046602,9.17578125 20.3918145,16.188627 20.3918145,24.8085938 C20.3918145,29.2804277 22.2796465,33.3191309 25.299498,36.1710996 C25.356082,36.2315918 25.4162344,36.2888555 25.4819941,36.3410215 C28.2637852,38.8862813 31.965873,40.4412363 36.024457,40.4412363 C40.083041,40.4412363 43.7851289,38.8861113 46.5669199,36.3410215 C46.6326797,36.2888555 46.692832,36.2314219 46.749416,36.1710996 C49.7696074,33.3191309 51.6574395,29.2804277 51.6574395,24.8085938 Z M36.024627,12.5742188 C42.7706953,12.5742188 48.259002,18.0625254 48.259002,24.8085938 C48.259002,27.5217363 47.3701406,30.030293 45.8699004,32.0613691 C44.6167266,30.2027637 42.8799551,28.7572383 40.8634922,27.8648086 C41.6638242,26.8304941 42.1418145,25.5348398 42.1418145,24.1289063 L42.1418145,23.0244141 C42.1418145,19.6512949 39.3977461,16.9072266 36.024627,16.9072266 C32.6515078,16.9072266 29.9074395,19.6512949 29.9074395,23.0244141 L29.9074395,24.1289063 C29.9074395,25.5348398 30.3854297,26.8304941 31.1857617,27.8648086 C29.1692988,28.7572383 27.4325273,30.2027637 26.1793535,32.0613691 C24.6791133,30.030293 23.790252,27.5217363 23.790252,24.8085938 C23.790252,18.0625254 29.2785586,12.5742188 36.024627,12.5742188 Z M33.305877,24.1289063 L33.305877,23.0244141 C33.305877,21.5253633 34.5255762,20.3056641 36.024627,20.3056641 C37.5236777,20.3056641 38.743377,21.5253633 38.743377,23.0244141 L38.743377,24.1289063 C38.743377,25.627957 37.5236777,26.8476563 36.024627,26.8476563 C34.5255762,26.8476563 33.305877,25.627957 33.305877,24.1289063 Z M28.6345547,34.5505547 C30.127998,31.9023223 32.9148867,30.2460938 36.024627,30.2460938 C39.1343672,30.2460938 41.9212559,31.9023223 43.4146992,34.5505547 C41.359834,36.1131563 38.7992813,37.0429688 36.024627,37.0429688 C33.2499727,37.0429688 30.68925,36.1131563 28.6345547,34.5505547 Z" id="Shape" fill="#3F98C5" fill-rule="nonzero"></path>
                <path d="M45.2004082,74.4257813 L36.024627,74.4257813 C35.0863184,74.4257813 34.3254082,75.1865215 34.3254082,76.125 C34.3254082,77.0634785 35.0863184,77.8242188 36.024627,77.8242188 L45.2004082,77.8242188 C46.1387168,77.8242188 46.899627,77.0634785 46.899627,76.125 C46.899627,75.1865215 46.1387168,74.4257813 45.2004082,74.4257813 Z" id="Path" fill="#3F98C5" fill-rule="nonzero"></path>
                <path d="M45.2004082,64.9101562 L21.071502,64.9101562 C20.1331934,64.9101562 19.3722832,65.6708965 19.3722832,66.609375 C19.3722832,67.5478535 20.1331934,68.3085938 21.071502,68.3085938 L45.2004082,68.3085938 C46.1387168,68.3085938 46.899627,67.5478535 46.899627,66.609375 C46.899627,65.6708965 46.1387168,64.9101562 45.2004082,64.9101562 Z" id="Path" fill="#3F98C5" fill-rule="nonzero"></path>
                <path d="M45.2004082,55.3945313 L21.071502,55.3945313 C20.1331934,55.3945313 19.3722832,56.1552715 19.3722832,57.09375 C19.3722832,58.0322285 20.1331934,58.7929688 21.071502,58.7929688 L45.2004082,58.7929688 C46.1387168,58.7929688 46.899627,58.0322285 46.899627,57.09375 C46.899627,56.1552715 46.1387168,55.3945313 45.2004082,55.3945313 Z" id="Path" fill="#3F98C5" fill-rule="nonzero"></path>
                <path d="M15.0153164,46.3767773 C14.6994316,46.0607227 14.2610332,45.8789063 13.8124395,45.8789063 C13.365375,45.8789063 12.9269766,46.0607227 12.6110918,46.3767773 C12.2950371,46.692832 12.1132207,47.1312305 12.1132207,47.578125 C12.1132207,48.0250195 12.2948672,48.463418 12.6110918,48.7794727 C12.9288457,49.0955273 13.365375,49.2773438 13.8124395,49.2773438 C14.2610332,49.2773438 14.6977324,49.0955273 15.0153164,48.7794727 C15.3313711,48.463418 15.5133574,48.0250195 15.5133574,47.578125 C15.5133574,47.1312305 15.331541,46.692832 15.0153164,46.3767773 Z" id="Path" fill="#3F98C5" fill-rule="nonzero"></path>
                <path d="M15.0153164,55.8924023 C14.6977324,55.5763477 14.2610332,55.3945313 13.8124395,55.3945313 C13.365375,55.3945313 12.9288457,55.5763477 12.6110918,55.8924023 C12.2950371,56.208457 12.1132207,56.6468555 12.1132207,57.09375 C12.1132207,57.5406445 12.2948672,57.979043 12.6110918,58.2950977 C12.9288457,58.6111523 13.365375,58.7929688 13.8124395,58.7929688 C14.2610332,58.7929688 14.6977324,58.6111523 15.0153164,58.2950977 C15.3313711,57.979043 15.5133574,57.5406445 15.5133574,57.09375 C15.5133574,56.6468555 15.331541,56.208457 15.0153164,55.8924023 Z" id="Path" fill="#3F98C5" fill-rule="nonzero"></path>
                <path d="M13.8124395,64.9101562 C13.365375,64.9101562 12.9288457,65.0919727 12.6110918,65.4080273 C12.2950371,65.724082 12.1132207,66.1624805 12.1132207,66.609375 C12.1132207,67.0562695 12.2948672,67.494668 12.6110918,67.8107227 C12.9269766,68.1267773 13.365375,68.3085938 13.8124395,68.3085938 C14.2610332,68.3085938 14.6994316,68.1267773 15.0153164,67.8107227 C15.3313711,67.494668 15.5133574,67.0562695 15.5133574,66.609375 C15.5133574,66.1624805 15.331541,65.724082 15.0153164,65.4080273 C14.6977324,65.0919727 14.2610332,64.9101562 13.8124395,64.9101562 Z" id="Path" fill="#3F98C5" fill-rule="nonzero"></path>
                <path d="M45.2004082,45.8789063 L21.071502,45.8789063 C20.1331934,45.8789063 19.3722832,46.6396465 19.3722832,47.578125 C19.3722832,48.5166035 20.1331934,49.2773438 21.071502,49.2773438 L45.2004082,49.2773438 C46.1387168,49.2773438 46.899627,48.5166035 46.899627,47.578125 C46.899627,46.6396465 46.1387168,45.8789063 45.2004082,45.8789063 Z" id="Path" fill="#3F98C5" fill-rule="nonzero"></path>
                <circle id="Oval" fill="#FFFFFF" cx="64" cy="45" r="11"></circle>
                <path d="M81.512,61.0398421 L73.7645714,52.8761053 C75.7565714,50.4769474 76.848,47.4583158 76.848,44.3157895 C76.848,36.9735789 70.952,31 63.7051429,31 C56.4582857,31 50.5622857,36.9735789 50.5622857,44.3157895 C50.5622857,51.658 56.4582857,57.6315789 63.7051429,57.6315789 C66.4257143,57.6315789 69.0182857,56.8002105 71.2348571,55.222 L79.0411429,63.4476842 C79.3674286,63.791 79.8062857,63.9803158 80.2765714,63.9803158 C80.7217143,63.9803158 81.144,63.8083684 81.4645714,63.4957368 C82.1457143,62.8316842 82.1674286,61.7305263 81.512,61.0398421 Z M63.7051429,34.4736842 C69.0617143,34.4736842 73.4194286,38.8887368 73.4194286,44.3157895 C73.4194286,49.7428421 69.0617143,54.1578947 63.7051429,54.1578947 C58.3485714,54.1578947 53.9908571,49.7428421 53.9908571,44.3157895 C53.9908571,38.8887368 58.3485714,34.4736842 63.7051429,34.4736842 Z" id="Shape" fill="#3F98C5" fill-rule="nonzero"></path>
                <path d="M4,0 L68,0 C70.209139,-4.05812251e-16 72,1.790861 72,4 L72,34.5 C68.3333333,31.8333333 64.3333333,30.8333333 60,31.5 C55.6666667,32.1666667 52.5,35.1666667 50.5,40.5 C49.1326675,41.396002 49.9660009,45.396002 53,52.5 C53.8081804,54.3923248 59.6022329,57.1367108 64,57 C67.8974924,56.8788409 70.5,53.7335438 70.5,57 C70.5,59.7419756 70.9176906,68.3316193 71.7530717,82.7689311 L71.7530765,82.7689308 C71.8806898,84.9743835 70.1962682,86.8657072 67.9908155,86.9933206 C67.9138745,86.9977726 67.8368209,87 67.7597511,87 L4,87 C1.790861,87 2.705415e-16,85.209139 0,83 L0,4 C-2.705415e-16,1.790861 1.790861,4.05812251e-16 4,0 Z" id="Rectangle" fill="url(#linearGradient-1)" fill-rule="nonzero" style="mix-blend-mode: color;"></path>
            </g>
        </g>
    </g>
</svg>