<?xml version="1.0" encoding="UTF-8"?>
<svg width="88px" height="85px" viewBox="0 0 88 85" version="1.1" xmlns="http://www.w3.org/2000/svg" xmlns:xlink="http://www.w3.org/1999/xlink">
    <!-- Generator: sketchtool 54 (76480) - https://sketchapp.com -->
    <title>3F167CE5-FAE7-4AE4-BEB5-3C9291A0B48E@1x</title>
    <desc>Created with sketchtool.</desc>
    <defs>
        <linearGradient x1="0.501966405%" y1="0%" x2="99.4980336%" y2="100%" id="linearGradient-1">
            <stop stop-color="#38DAB2" offset="0%"></stop>
            <stop stop-color="#228A68" stop-opacity="0" offset="100%"></stop>
        </linearGradient>
    </defs>
    <g id="Main-page" stroke="none" stroke-width="1" fill="none" fill-rule="evenodd">
        <g id="web-email-activation" transform="translate(-458.000000, -149.000000)">
            <g transform="translate(458.000000, 149.000000)">
                <g id="Group-2">
                    <path d="M17.9412253,71.8193218 L17.9412253,73.1344112 C7.94847273,65.9277212 1.49450594,54.47395 1.49450594,41.5729229 C1.49450594,19.7827134 19.9014687,2.12089822 42.610619,2.12089822 C65.3178849,2.12089822 83.7267321,19.7827134 83.7267321,41.5729229 C83.7267321,47.2261635 82.4933995,52.6053724 80.2441393,57.4708744 C74.3524447,53.354809 66.0466801,53.8543785 60.7417566,58.9574186 C59.5908288,60.0617649 58.6718684,61.297949 57.9732255,62.6123808 L50.8339787,62.6123808 L50.8339787,56.8922351 C57.3153567,53.9332839 61.7984583,47.5948817 61.7984583,40.2565184 L61.7984583,25.7905349 C61.7984583,21.4246025 58.1224452,17.900656 53.5750986,17.900656 L53.5750986,11.325209 L39.8694991,11.325209 C30.7814875,11.325209 23.4227798,18.3739238 23.4227798,27.1056244 L23.4227798,40.2552034 C23.4227798,47.5935666 27.9045108,53.9319688 34.3872594,56.89092 L34.3872594,62.6110658 L27.5344596,62.6110658 C22.229536,62.6136959 17.9412253,66.7297614 17.9412253,71.8193218 Z" id="Fill-1" fill="#A0C0F7"></path>
                    <path d="M42.040088,2.12089822 C41.1119857,2.12089822 40.1971421,2.1607285 39.2850535,2.21734673 C60.8221911,3.57322188 77.8548473,20.6916805 77.8548473,41.6213366 C77.8548473,62.5496759 60.8221911,79.6668178 39.2850535,81.022693 C40.1971421,81.0812863 41.1119857,81.1204582 42.040088,81.1204582 C64.8626213,81.1204582 83.3649162,63.4343359 83.3649162,41.6200198 C83.3649162,19.8070205 64.8626213,2.12089822 42.040088,2.12089822 Z" id="Fill-2" fill="#2287FF"></path>
                    <path d="M79.7455699,57.157091 C80.3837301,57.5967238 80.9912629,58.0741363 81.5726671,58.6170981 C87.5268687,64.1576338 87.5268687,73.1609842 81.5726671,78.7008741 C75.6326544,84.2564249 65.9858441,84.2564249 60.0463506,78.7008741 C59.4786164,78.1724429 58.9541414,77.6028416 58.4836539,77.008861 C55.0905722,72.6559635 54.6768409,66.9086082 57.2500734,62.2069752 C57.9557181,60.9160079 58.8838884,59.7018916 60.0463506,58.6170981 C65.4058243,53.605155 73.7948289,53.1145035 79.7455699,57.157091 Z" id="Fill-4" fill="#D7E9FF"></path>
                    <path d="M57.3038882,63.4233389 L57.3180174,63.4233389 C54.7556359,68.0425681 55.1662441,73.6891916 58.5463961,77.9657974 C53.4445498,80.0340688 47.8068278,81.1889951 41.8668789,81.1889951 C32.5455719,81.1889951 23.9603616,78.3591798 17.0553197,73.5751424 L17.0553197,72.306167 C17.0553197,67.3950734 21.3683432,63.4233389 26.7038382,63.4233389 L33.5961294,63.4233389 L37.7315042,65.9612898 L41.8668789,64.6923143 L46.0022537,65.9612898 L50.1376284,63.4233389 L57.3038882,63.4233389 Z" id="Fill-6" fill="#FFFFFF"></path>
                    <path d="M50.9264848,57.442613 L50.9264848,62.6359265 L46.7193925,65.0238627 L42.5123002,63.8298946 L38.3052079,65.0238627 L34.0981156,62.6359265 L34.0981156,57.442613 C36.6474382,58.4803205 39.4973927,59.0546192 42.5123002,59.0546192 C45.5245783,59.0546192 48.3745327,58.4803205 50.9264848,57.442613 Z" id="Fill-7" fill="#FFFFFF"></path>
                    <path d="M61.6133577,33.4586174 L61.6133577,39.9252882 C61.6133577,47.1420928 57.1005332,53.3758017 50.5761837,56.2858036 C48.0655715,57.4098726 45.2617844,58.0319664 42.2983032,58.0319664 C39.3322351,58.0319664 36.528448,57.411166 34.0204227,56.2858036 C27.4946936,53.3758017 22.9832487,47.1420928 22.9832487,39.9252882 L22.9832487,33.4338824 L28.5018357,28.2865741 C28.5018357,28.2865741 34.8038896,30.8732424 42.2983032,30.8732424 C49.79013,30.8732424 56.0947707,28.2865741 56.0947707,28.2865741 L61.6133577,33.4586174 Z" id="Fill-8" fill="#D7E9FF"></path>
                    <path d="M55.9941566,28.2865741 L55.9941566,39.9265815 C55.9941566,47.1433861 51.4395336,53.3770951 44.8547545,56.2870969 C43.1224035,57.0556608 41.2487212,57.5665277 39.2850535,57.8272962 C40.1955256,57.9478997 41.120096,58.0319664 42.069904,58.0319664 C45.0608335,58.0319664 47.8905897,57.411166 50.4244556,56.2858036 C57.0092346,53.3758017 61.5638576,47.1422544 61.5638576,39.9252882 L61.5638576,33.4586174 L55.9941566,28.2865741 Z" id="Fill-9" fill="#94C1FF"></path>
                    <path d="M61.6133577,25.1709069 L61.6133577,32.8506668 L56.0947707,27.7308269 C56.0947707,27.7308269 49.79013,30.2907468 42.2983032,30.2907468 C34.8038896,30.2907468 28.5018357,27.7308269 28.5018357,27.7308269 L22.9832487,32.8250676 L22.9832487,26.4508669 C22.9832487,17.9524126 30.3907445,11.0919871 39.5390097,11.0919871 L53.3354772,11.0919871 L53.3354772,17.491787 C57.9129727,17.491787 61.6133577,20.9215998 61.6133577,25.1709069 Z" id="Fill-10" fill="#94C1FF"></path>
                    <path d="M53.0772166,17.491787 L53.0772166,11.0919871 L47.4359559,11.0919871 L47.4359559,20.051707 C52.1152054,20.051707 55.8978469,22.2015597 55.8978469,26.4508669 L55.8978469,27.7308269 L61.5391076,32.8506668 L61.5391076,25.1709069 C61.5391076,20.9215998 57.756466,17.491787 53.0772166,17.491787 Z" id="Fill-11" fill="#5C9EFF"></path>
                    <path d="M57.7758888,63.7183916 L50.3468128,63.7183916 C49.5562879,63.7183916 48.9179382,63.318398 48.9179382,62.8230507 C48.9179382,62.328151 49.5562879,61.9281574 50.3468128,61.9281574 L57.7758888,61.9281574 C58.5656993,61.9281574 59.2047634,62.328151 59.2047634,62.8230507 C59.2047634,63.318398 58.5656993,63.7183916 57.7758888,63.7183916 Z" id="Fill-12" fill="#116FFF"></path>
                    <path d="M17.7299473,73.0369995 C16.9467562,73.0369995 16.3143285,72.4855383 16.3143285,71.8026151 C16.3143285,66.3575914 21.3948075,61.9281574 27.6385713,61.9281574 C28.4217624,61.9281574 29.0541901,62.4796186 29.0541901,63.1619246 C29.0541901,63.8448477 28.4217624,64.3963089 27.6385713,64.3963089 C22.9541117,64.3963089 19.1455662,67.7180373 19.1455662,71.8026151 C19.1455662,72.4855383 18.5131385,73.0369995 17.7299473,73.0369995 Z" id="Fill-13" fill="#116FFF"></path>
                    <path d="M34.5317778,63.7183916 L27.377974,63.7183916 C26.5864056,63.7183916 25.9472132,63.318398 25.9472132,62.8230507 C25.9472132,62.328151 26.5864056,61.9281574 27.377974,61.9281574 L34.5317778,61.9281574 C35.3233462,61.9281574 35.9625386,62.328151 35.9625386,62.8230507 C35.9625386,63.318398 35.3233462,63.7183916 34.5317778,63.7183916 Z" id="Fill-14" fill="#116FFF"></path>
                    <path d="M17.9154694,73.8323411 C17.0296382,73.8323411 16.3143285,73.3737244 16.3143285,72.8060658 L16.3143285,71.9255216 C16.3143285,71.3578631 17.0296382,70.8992463 17.9154694,70.8992463 C18.8013006,70.8992463 19.5166102,71.3578631 19.5166102,71.9255216 L19.5166102,72.8060658 C19.5166102,73.3737244 18.8013006,73.8323411 17.9154694,73.8323411 Z" id="Fill-15" fill="#116FFF"></path>
                    <path d="M34.2172742,63.5260188 C33.331443,63.5260188 32.6161334,62.9926329 32.6161334,62.3320939 L32.6161334,57.1413564 C32.6161334,56.4814144 33.331443,55.9474315 34.2172742,55.9474315 C35.1031054,55.9474315 35.8184151,56.4814144 35.8184151,57.1413564 L35.8184151,62.3320939 C35.8184151,62.9926329 35.1031054,63.5260188 34.2172742,63.5260188 Z" id="Fill-16" fill="#116FFF"></path>
                    <path d="M50.519079,63.5260188 C49.6332479,63.5260188 48.9179382,62.9926329 48.9179382,62.3320939 L48.9179382,57.1413564 C48.9179382,56.4814144 49.6332479,55.9474315 50.519079,55.9474315 C51.4049102,55.9474315 52.1202199,56.4814144 52.1202199,57.1413564 L52.1202199,62.3320939 C52.1202199,62.9926329 51.4049102,63.5260188 50.519079,63.5260188 Z" id="Fill-17" fill="#116FFF"></path>
                    <path d="M42.1782444,59.1809601 C30.7765787,59.1809601 21.5012664,50.5896607 21.5012664,40.0296017 C21.5012664,39.3251509 22.116427,38.7528445 22.8790883,38.7528445 C23.6417496,38.7528445 24.2575995,39.3251509 24.2575995,40.0296017 C24.2575995,49.1813975 32.2970765,56.6274456 42.1782444,56.6274456 C52.0594123,56.6274456 60.0988893,49.1813975 60.0988893,40.0296017 C60.0988893,39.3251509 60.7147392,38.7528445 61.4774005,38.7528445 C62.2400618,38.7528445 62.8559116,39.3251509 62.8559116,40.0296017 C62.8559116,50.5896607 53.5799101,59.1809601 42.1782444,59.1809601 Z" id="Fill-18" fill="#116FFF"></path>
                    <path d="M23.1016663,41.1163804 C22.2158021,41.1163804 21.5012664,40.5524329 21.5012664,39.8579201 L21.5012664,27.3022622 C21.5012664,26.6079067 22.2158021,26.0438019 23.1016663,26.0438019 C23.9875305,26.0438019 24.7028668,26.6079067 24.7028668,27.3022622 L24.7028668,39.8579201 C24.7028668,40.5524329 23.9875305,41.1163804 23.1016663,41.1163804 Z" id="Fill-19" fill="#116FFF"></path>
                    <path d="M60.8725664,40.9863625 C59.9980151,40.9863625 59.291814,40.4202088 59.291814,39.7219208 L59.291814,25.8130621 C59.291814,25.1154064 59.9980151,24.5486204 60.8725664,24.5486204 C61.7471176,24.5486204 62.4533187,25.1154064 62.4533187,25.8130621 L62.4533187,39.7219208 C62.4533187,40.4202088 61.7471176,40.9863625 60.8725664,40.9863625 Z" id="Fill-20" fill="#116FFF"></path>
                    <path d="M61.8375951,26.1027346 C61.0507398,26.1027346 60.4153533,25.5548486 60.4153533,24.8804567 C60.4153533,21.5107892 57.2250873,18.7696782 53.3041445,18.7696782 C52.5172892,18.7696782 51.8819027,18.2217921 51.8819027,17.5474002 C51.8819027,16.8730084 52.5172892,16.3251223 53.3041445,16.3251223 C58.7923977,16.3251223 63.2598369,20.1632278 63.2598369,24.8804567 C63.2598369,25.5548486 62.6244504,26.1027346 61.8375951,26.1027346 Z" id="Fill-21" fill="#116FFF"></path>
                    <path d="M53.4626551,18.1666833 C52.5881038,18.1666833 51.8819027,17.6179051 51.8819027,16.9424151 L51.8819027,10.8210739 C51.8819027,10.1455839 52.5881038,9.59680562 53.4626551,9.59680562 C54.3372063,9.59680562 55.0434075,10.1455839 55.0434075,10.8210739 L55.0434075,16.9424151 C55.0434075,17.6179051 54.3372063,18.1666833 53.4626551,18.1666833 Z" id="Fill-22" fill="#116FFF"></path>
                    <path d="M22.8972541,27.3617962 C22.1245375,27.3617962 21.5012664,26.7929789 21.5012664,26.092823 C21.5012664,16.9974574 29.6460407,9.59680562 39.6574858,9.59680562 C40.4302023,9.59680562 41.0541717,10.1656229 41.0541717,10.8657788 C41.0541717,11.5659348 40.4302023,12.1347521 39.6574858,12.1347521 C31.1865853,12.1347521 24.29394,18.3971349 24.29394,26.092823 C24.29394,26.7929789 23.6699706,27.3617962 22.8972541,27.3617962 Z" id="Fill-23" fill="#116FFF"></path>
                    <path d="M61.3159235,34.6552596 C60.9469235,34.6552596 60.5772025,34.5388855 60.2963515,34.307768 L54.5279102,29.5638556 C53.9638647,29.09999 53.9638647,28.3507483 54.5279102,27.8868826 C55.0919556,27.423017 56.0030088,27.423017 56.5670542,27.8868826 L62.3354955,32.630795 C62.8995409,33.0946606 62.8995409,33.8439023 62.3354955,34.307768 C62.0546445,34.5388855 61.6849235,34.6552596 61.3159235,34.6552596 Z" id="Fill-24" fill="#116FFF"></path>
                    <path d="M42.6557206,31.9930503 C34.9379383,31.9930503 28.5274482,29.7674262 28.257857,29.6727898 C27.5589619,29.4265962 27.2398822,28.7709611 27.5447728,28.2077357 C27.8508747,27.6428403 28.6688192,27.3867654 29.36633,27.6319849 C29.427239,27.6542523 35.5375104,29.7663128 42.6557206,29.7663128 C49.7974638,29.7663128 55.8842023,27.6542523 55.9451112,27.6330983 C56.6453906,27.3867654 57.4617777,27.6445103 57.7666684,28.2066224 C58.0741546,28.7698478 57.7545558,29.4265962 57.0521999,29.6727898 C56.78382,29.7674262 50.3707343,31.9930503 42.6557206,31.9930503 Z" id="Fill-25" fill="#116FFF"></path>
                    <path d="M22.943181,34.6384542 C22.5727372,34.6384542 22.2030146,34.522703 21.9228834,34.2900149 C21.3602776,33.8268618 21.3602776,33.0758869 21.9255874,32.6133267 L27.6933333,27.8851638 C28.2588233,27.4226036 29.1700608,27.4237892 29.7326666,27.8875351 C30.2952724,28.351281 30.2952724,29.1015149 29.7297824,29.5640751 L23.9613154,34.292238 C23.6804632,34.5238887 23.3121826,34.6384542 22.943181,34.6384542 Z" id="Fill-26" fill="#116FFF"></path>
                    <path d="M38.4476405,66.3808059 C38.1708035,66.3808059 37.8895925,66.3194347 37.6395462,66.1937697 L33.2655581,63.9671483 C32.5950622,63.6252228 32.4142707,62.934831 32.8620577,62.4234038 C33.3083867,61.9123942 34.2103395,61.7743437 34.8844804,62.1151559 L39.2584686,64.3412207 C39.9291467,64.6831463 40.1099382,65.3735381 39.6621512,65.885661 C39.3823982,66.2074078 38.9182087,66.3808059 38.4476405,66.3808059 Z" id="Fill-27" fill="#116FFF"></path>
                    <path d="M37.7785695,66.5471505 C37.1676626,66.5471505 36.5988558,66.2711999 36.3967389,65.8352213 C36.1412223,65.2898253 36.5540219,64.6998035 37.3180201,64.5183084 L41.6920554,63.4774763 C42.4600631,63.29455 43.2823817,63.5904066 43.5366225,64.1356725 C43.7914101,64.6809385 43.3784282,65.2710903 42.6146123,65.4524553 L38.240577,66.4932874 C38.0860278,66.5293262 37.9302028,66.5471505 37.7785695,66.5471505 Z" id="Fill-28" fill="#116FFF"></path>
                    <path d="M46.6734176,66.3808059 C46.2028494,66.3808059 45.7386599,66.2074078 45.4589069,65.885661 C45.0111198,65.3735381 45.1919114,64.6831463 45.8624073,64.3412207 L50.2363954,62.1151559 C50.9070736,61.7743437 51.8126714,61.9123942 52.2590004,62.4234038 C52.7067874,62.934831 52.5259959,63.6252228 51.8553177,63.9671483 L47.4813296,66.1937697 C47.2314656,66.3194347 46.9502546,66.3808059 46.6734176,66.3808059 Z" id="Fill-29" fill="#116FFF"></path>
                    <path d="M46.5984247,66.5470381 C46.4467912,66.5470381 46.2907835,66.529214 46.1378742,66.4931755 L41.7638286,65.4523515 C41.0012866,65.2709879 40.587028,64.6818816 40.8425452,64.1355791 C41.0973334,63.5912282 41.9154621,63.2944632 42.6863877,63.477388 L47.0604333,64.518212 C47.8229753,64.6997057 48.2372338,65.2886819 47.9824457,65.8351145 C47.7781413,66.2710897 47.2091509,66.5470381 46.5984247,66.5470381 Z" id="Fill-30" fill="#116FFF"></path>
                    <path d="M42.3753994,71.1949646 C41.4906893,71.1949646 40.7670358,70.7949223 40.7670358,70.2995147 C40.7670358,69.804107 41.4742836,69.4040648 42.3581933,69.4040648 L42.3753994,69.4040648 C43.2593091,69.4040648 43.9759602,69.804107 43.9759602,70.2995147 C43.9759602,70.7949223 43.2593091,71.1949646 42.3753994,71.1949646 Z" id="Fill-31" fill="#116FFF"></path>
                    <path d="M42.3753994,76.4280998 C41.4906893,76.4280998 40.7670358,76.0280575 40.7670358,75.5326499 C40.7670358,75.0372422 41.4742836,74.6372 42.3581933,74.6372 L42.3753994,74.6372 C43.2593091,74.6372 43.9759602,75.0372422 43.9759602,75.5326499 C43.9759602,76.0280575 43.2593091,76.4280998 42.3753994,76.4280998 Z" id="Fill-32" fill="#116FFF"></path>
                    <path d="M53.2290763,11.3877054 L39.2054354,11.3877054 C38.4295774,11.3877054 37.8030713,10.98632 37.8030713,10.4922555 C37.8030713,9.99819103 38.4295774,9.59680562 39.2054354,9.59680562 L53.2290763,9.59680562 C54.0049342,9.59680562 54.6314404,9.99819103 54.6314404,10.4922555 C54.6314404,10.98632 54.0049342,11.3877054 53.2290763,11.3877054 Z" id="Fill-33" fill="#116FFF"></path>
                    <path d="M42.4912455,82.2890673 C19.0683061,82.2890673 0.0125236862,63.9728019 0.0125236862,41.457392 C0.0125236862,18.9439579 19.0683061,0.625716743 42.4912455,0.625716743 C65.9114444,0.625716743 84.9672267,18.9419821 84.9699674,41.457392 C84.9699674,47.1846208 83.7589617,52.7272808 81.3715505,57.928464 C81.0658015,58.595447 80.2574938,58.8970794 79.5656618,58.6031854 C78.8717744,58.3092914 78.5593452,57.5323245 78.8638952,56.8673173 C81.0973185,51.9998726 82.2293605,46.8154833 82.2293605,41.457392 C82.2266198,20.3948229 64.4006848,3.26006086 42.4912455,3.26006086 C20.5811211,3.26006086 2.75313059,20.3948229 2.75313059,41.457392 C2.75313059,62.518644 20.5811211,79.6547232 42.4912455,79.6547232 C48.0654687,79.6547232 53.4576128,78.5678916 58.5154028,76.4222183 C59.2091189,76.1316172 60.0174267,76.4319325 60.3219766,77.0969397 C60.6256701,77.761947 60.3132409,78.540231 59.6200387,78.8328078 C54.2143628,81.1263337 48.4508665,82.2890673 42.4912455,82.2890673 Z" id="Fill-35" fill="#116FFF"></path>
                    <path d="M70.6940268,84.7832781 C66.2629837,84.7832781 62.0973781,83.1672236 58.9658726,80.2314883 C55.8302197,77.2976955 54.1048761,73.3946584 54.1048761,69.2429975 C54.1048761,65.0927934 55.8316022,61.1902419 58.9658726,58.2577439 C62.0973781,55.3220087 66.2629837,53.7046593 70.6940268,53.7046593 C75.12507,53.7046593 79.2920581,55.3220087 82.4228723,58.2577439 C85.5571428,61.1902419 87.2838688,65.0927934 87.2838688,69.2429975 C87.2838688,73.3946584 85.5585253,77.2976955 82.4228723,80.2314883 C79.2920581,83.1672236 75.12507,84.7832781 70.6940268,84.7832781 Z M70.6940268,56.2944902 C67.0015773,56.2944902 63.5304985,57.6412023 60.920709,60.0889163 C58.3076361,62.5332311 56.8698498,65.7844401 56.8698498,69.2429975 C56.8698498,72.7015549 58.3076361,75.9547062 60.920709,78.400316 C63.531881,80.846735 67.0015773,82.1934471 70.6940268,82.1934471 C74.3864764,82.1934471 77.8582464,80.846735 80.4680359,78.400316 C83.0811089,75.9547062 84.5188952,72.7015549 84.5188952,69.2429975 C84.5188952,65.7844401 83.0811089,62.5332311 80.4680359,60.0889163 C77.8582464,57.6412023 74.3864764,56.2944902 70.6940268,56.2944902 Z" id="Fill-37" fill="#116FFF"></path>
                    <path d="M78.7518506,66.5943239 L70.2648024,75.9199459 C70.2036026,75.9720373 70.1298207,76.0032188 70.0526262,76.0096154 C69.9753015,76.0038612 69.9013549,75.97261 69.84045,75.9199459 L64.8592056,70.4465231 C64.7933243,70.390849 64.754717,70.3047064 64.754717,70.2133826 C64.754717,70.1220588 64.7933243,70.0359162 64.8592056,69.980242 L66.9124184,67.7277456 C66.9624148,67.6554278 67.0403112,67.6129596 67.1229625,67.6129596 C67.2056138,67.6129596 67.2835102,67.6554278 67.3335066,67.7277456 L70.0526262,70.7334654 L76.2873424,63.864786 C76.3373387,63.7924681 76.4152351,63.75 76.4978865,63.75 C76.5805378,63.75 76.6584342,63.7924681 76.7084305,63.864786 L78.7616434,66.1172824 C78.8302775,66.1742787 78.8697963,66.2640502 78.8678563,66.358557 C78.8659162,66.4530639 78.8227538,66.5407861 78.7518506,66.5943239 L78.7518506,66.5943239 Z" id="Shape" fill="#116FFF" fill-rule="nonzero"></path>
                </g>
                <ellipse id="Oval" fill="url(#linearGradient-1)" style="mix-blend-mode: color;" cx="40.9925224" cy="41.4374523" rx="40.7561194" ry="40.9622548"></ellipse>
            </g>
        </g>
    </g>
</svg>