<?xml version="1.0" encoding="UTF-8"?>
<svg width="40px" height="40px" viewBox="0 0 40 40" version="1.1" xmlns="http://www.w3.org/2000/svg" xmlns:xlink="http://www.w3.org/1999/xlink">
    <!-- Generator: sketchtool 52 (66869) - http://www.bohemiancoding.com/sketch -->
    <title>98A37CCF-28F0-43BA-B6EE-B09969458D38</title>
    <desc>Created with sketchtool.</desc>
    <g id="main-screens" stroke="none" stroke-width="1" fill="none" fill-rule="evenodd">
        <g id="Exchange" transform="translate(-18.000000, -163.000000)" fill-rule="nonzero">
            <g id="Group-26" transform="translate(18.000000, 130.000000)">
                <g id="btc-copy-3" transform="translate(0.000000, 33.000000)">
                    <circle id="Oval" stroke="#383838" stroke-width="1.45454545" fill="#121212" cx="20" cy="20" r="19.2727273"></circle>
                    <path d="M26.6282625,17.7724865 C26.9338289,15.7411733 25.379722,14.6489548 23.2563273,13.9201631 L23.9453115,11.1678113 L22.263723,10.7510819 L21.5922554,13.4307484 C21.1504492,13.3202667 20.6969653,13.2175381 20.2444545,13.1148094 L20.9207878,10.4176985 L19.2391994,10 L18.5502152,12.7513827 C18.184314,12.6680368 17.8242517,12.5866292 17.475867,12.4994068 L17.4778133,12.4906846 L15.1578441,11.9140475 L14.710199,13.7030762 C14.710199,13.7030762 15.9587395,13.9880027 15.9324647,14.0054472 C16.6136637,14.1750464 16.7362795,14.6237572 16.7158435,14.9804 L15.9314915,18.1155613 C15.9782023,18.127191 16.0385371,18.1446355 16.106657,18.1708022 L15.9285721,18.127191 L14.8289222,22.5193243 C14.7452321,22.7247815 14.5340604,23.0339365 14.0572211,22.9166708 C14.0747376,22.9408993 12.8349554,22.6133307 12.8349554,22.6133307 L12,24.5302856 L14.1895683,25.073972 C14.5963414,25.1757314 14.9953294,25.2823366 15.3875054,25.3821578 L14.6917093,28.1655221 L16.3723246,28.5822514 L17.0613088,25.8298996 C17.5206315,25.9529801 17.9663303,26.0673384 18.4022977,26.1758818 L17.7152598,28.916604 L19.3968483,29.3333333 L20.0926444,26.5557839 C22.9614655,27.0965629 25.117947,26.8785069 26.0258879,24.294785 C26.7576903,22.215015 25.9898817,21.014253 24.4805393,20.2321587 C25.5801892,19.9801828 26.4073594,19.2601133 26.6282625,17.7724865 Z M22.7843537,23.1395726 C22.2656693,25.2203118 18.7477629,24.0951426 17.6072411,23.8131235 L18.5317255,20.1255535 C19.6722473,20.4095109 23.3283398,20.9706418 22.7843537,23.1395726 Z M23.3049844,17.7424432 C22.8310645,19.6351697 19.903855,18.6728157 18.9550421,18.4373152 L19.7919437,15.0937892 C20.7407566,15.3292897 23.7993403,15.7683092 23.3049844,17.7424432 Z" id="Shape" fill="#FFB233"></path>
                </g>
            </g>
        </g>
    </g>
</svg>