<svg xmlns="http://www.w3.org/2000/svg" viewBox="0 0 102.5 102.5"><defs><style>.cls-1{fill:#121212;stroke:#424242;stroke-miterlimit:10;stroke-width:2.5px;}.cls-2{fill:#b5ff00;}</style></defs><title>BCH-1C-Icon</title><g id="Layer_2" data-name="Layer 2"><g id="Layer_1-2" data-name="Layer 1"><circle class="cls-1" cx="51.25" cy="51.25" r="50"/><path class="cls-2" d="M65.63,36.17c-2.14-5.44-7.51-5.93-13.76-4.72L49.65,23.7l-4.72,1.35,2.16,7.56c-1.24.35-2.5.74-3.76,1.13l-2.17-7.61-4.72,1.35,2.22,7.76c-1,.31-2,.62-3,.9v0L29.14,38,30.59,43S34.06,42,34,42a2.54,2.54,0,0,1,3.31,1.29l2.54,8.84a3.21,3.21,0,0,1,.5-.11l-.5.14,3.55,12.39a1.74,1.74,0,0,1-1.32,2.07c.07,0-3.44,1-3.44,1l.68,5.91,6.15-1.76c1.14-.33,2.27-.63,3.38-.94l2.25,7.85,4.72-1.36-2.23-7.76c1.27-.34,2.53-.68,3.79-1l2.21,7.73,4.72-1.35-2.24-7.83c7.81-2.74,12.79-6.33,11.34-14-1.16-6.16-4.75-8-9.57-7.82,2.34-2.18,3.34-5.12,1.77-9.1ZM63.84,54.84c1.68,5.87-8.55,8.08-11.75,9l-3-10.4c3.2-.92,13-4.71,14.72,1.4Zm-6.41-14c1.53,5.34-7,7.12-9.69,7.88L45,39.25c2.66-.76,10.8-4,12.39,1.56Z"/></g></g></svg>