<?xml version="1.0" encoding="UTF-8"?>
<svg width="103px" height="103px" viewBox="0 0 103 103" version="1.1" xmlns="http://www.w3.org/2000/svg" xmlns:xlink="http://www.w3.org/1999/xlink">
    <!-- Generator: Sketch 52 (66869) - http://www.bohemiancoding.com/sketch -->
    <title>BTC-1C-Icon</title>
    <desc>Created with Sketch.</desc>
    <g id="backup" stroke="none" stroke-width="1" fill="none" fill-rule="evenodd">
        <g id="Artboard" transform="translate(-121.000000, -68.000000)">
            <g id="BTC-1C-Icon" transform="translate(122.000000, 69.000000)">
                <circle id="Oval" stroke="#424242" stroke-width="2.5" fill="#121212" cx="50.25" cy="50.25" r="50"></circle>
                <path d="M64.63,35.17 C62.49,29.73 57.12,29.24 50.87,30.45 L48.65,22.7 L43.93,24.05 L46.09,31.61 C44.85,31.96 43.59,32.35 42.33,32.74 L40.16,25.13 L35.44,26.48 L37.66,34.24 C36.66,34.55 35.66,34.86 34.66,35.14 L28.14,37 L29.59,42 C29.59,42 33.06,41 33,41 C34.2705559,40.4586026 35.7408663,41.0316239 36.31,42.29 L38.85,51.13 C39.0134722,51.0800799 39.1806705,51.0432963 39.35,51.02 L38.85,51.16 L42.4,63.55 C42.6047544,64.4857054 42.0147521,65.4109364 41.08,65.62 C41.15,65.62 37.64,66.62 37.64,66.62 L38.32,72.53 L44.47,70.77 C45.61,70.44 46.74,70.14 47.85,69.83 L50.1,77.68 L54.82,76.32 L52.59,68.56 C53.86,68.22 55.12,67.88 56.38,67.56 L58.59,75.29 L63.31,73.94 L61.07,66.11 C68.88,63.37 73.86,59.78 72.41,52.11 C71.25,45.95 67.66,44.11 62.84,44.29 C65.18,42.11 66.18,39.17 64.61,35.19 L64.63,35.17 Z M62.84,53.84 C64.52,59.71 54.29,61.92 51.09,62.84 L48.09,52.44 C51.29,51.52 61.09,47.73 62.81,53.84 L62.84,53.84 Z M56.43,39.84 C57.96,45.18 49.43,46.96 46.74,47.72 L44,38.25 C46.66,37.49 54.8,34.25 56.39,39.81 L56.43,39.84 Z" id="Shape" fill="#FF8B00" fill-rule="nonzero" transform="translate(50.400329, 50.190000) rotate(40.000000) translate(-50.400329, -50.190000) "></path>
            </g>
        </g>
    </g>
</svg>