<?xml version="1.0" encoding="UTF-8"?>
<svg width="103px" height="103px" viewBox="0 0 142 64" version="1.1" xmlns="http://www.w3.org/2000/svg" xmlns:xlink="http://www.w3.org/1999/xlink">
    <!-- Generator: Sketch 58 (84663) - https://sketch.com -->
    <title>logo@2x</title>
    <desc>Created with Sketch.</desc>
    <defs>
        <polygon id="path-1" points="4.12903226e-05 0.191174194 38.7179768 0.191174194 38.7179768 51.0277192 4.12903226e-05 51.0277192"></polygon>
    </defs>
    <g id="Page-1" stroke="none" stroke-width="1" fill="none" fill-rule="evenodd">
        <g id="homepage" transform="translate(-432.000000, -36.000000)">
            <g id="logo-white" transform="translate(432.000000, 36.000000)">
                <g id="Group-12">
                    <g id="Group-3" transform="translate(0.000000, 0.221729)">
                        <mask id="mask-2" fill="white">
                            <use xlink:href="#path-1"></use>
                        </mask>
                        <g id="Clip-2"></g>
                        <path d="M38.7179768,24.6694813 C38.4082994,25.4250942 38.1357832,26.2013523 37.9045574,26.9941265 C37.3884284,28.7530942 37.0581058,30.5533523 36.8722994,32.3742555 C36.8103639,32.9729652 36.7814606,33.5716748 36.7608155,34.1827716 C36.4098477,34.3727071 36.0382348,34.5337394 35.6542348,34.6741265 C35.4023639,34.7649652 35.1504929,34.8599329 34.8903639,34.9259974 C34.6137187,34.9920619 34.4939768,35.1448361 34.4361703,35.4297394 C33.7424929,38.7866426 32.3179768,41.7967071 30.1584929,44.4599329 C29.0106219,45.876191 27.7017187,47.1231587 26.1822348,48.1430297 C24.2539768,49.4354168 22.1522994,50.3190297 19.8565574,50.7030297 C19.2372026,50.8103845 18.6137187,50.87232 17.9861058,50.9301265 C17.4162994,50.9796748 16.8423639,51.0498684 16.2766865,51.0209652 C14.2286865,50.9177394 12.2219768,50.61632 10.3143639,49.7946426 C8.89397677,49.1876748 7.61810581,48.3701265 6.43307355,47.3832877 C5.00442839,46.1899974 3.93500903,44.7159329 2.98533161,43.1345135 C2.34946065,42.0774813 1.87462194,40.9502555 1.46997677,39.7982555 C1.03642839,38.5554168 0.673073548,37.2878039 0.495525161,35.9747716 C0.34688,34.8640619 0.169331613,33.7533523 0.0702348387,32.6343845 C0.00417032258,31.932449 0.0578477419,31.2181265 0.0578477419,30.5079329 L4.12903226e-05,30.5079329 C0.0578477419,29.364191 0.0619767742,28.212191 0.18171871,27.0767071 C0.351009032,25.4250942 0.607009032,23.7899974 0.982750968,22.1714168 C1.46584774,20.0862555 2.09758968,18.0465135 2.91100903,16.060449 C3.96804129,13.4839329 5.31410581,11.068449 6.99462194,8.84290065 C7.91952516,7.6207071 8.9352671,6.47283613 10.070751,5.4447071 C11.3053316,4.32986839 12.639009,3.33890065 14.1172026,2.55025548 C15.7233961,1.69141677 17.3956542,0.98948129 19.1959123,0.642642581 C19.9226219,0.502255484 20.6658477,0.444449032 21.3966865,0.31232 C22.2720413,0.151287742 23.1515252,0.188449032 24.02688,0.213223226 C26.3473961,0.279287742 28.5729445,0.774771613 30.6457187,1.8359329 C32.8341058,2.96315871 34.5146219,4.62715871 35.6501058,6.81141677 C36.2281703,7.91799742 36.566751,9.10715871 36.7566865,10.3499974 C36.8970735,11.2666426 36.9053316,12.1874168 36.8351381,13.0958039 C36.6658477,15.2305135 35.9639123,17.204191 34.7045574,18.9425135 C33.8292026,20.148191 32.7432671,21.1474168 31.4137187,21.8369652 C30.5466219,22.2870297 29.6299768,22.58432 28.63488,22.6710297 C27.9164284,22.7329652 27.2351381,22.6834168 26.5621058,22.452191 C25.5257187,22.0970942 24.7494606,21.428191 24.159009,20.5115458 C23.4240413,19.38432 23.0648155,18.1249652 22.8212026,16.82432 C22.8170735,16.8036748 22.8170735,16.7830297 22.8129445,16.7665135 C22.7097187,15.9365781 22.742751,15.92832 23.510751,15.5897394 C24.8444284,14.9992877 26.0212026,14.2189006 26.8222348,12.9471587 C27.1484284,12.4269006 27.35488,11.8653523 27.3755252,11.2790297 C27.4002994,10.3912877 26.9584929,9.68109419 26.1698477,9.27644903 C25.2738477,8.80986839 24.3117832,8.66948129 23.2836542,8.80986839 C21.5288155,9.04935226 20.0753961,9.84625548 18.7623639,10.9899974 C17.3873961,12.1832877 16.3262348,13.6160619 15.4054606,15.1685781 C13.9272671,17.6583845 12.9693316,20.3505135 12.3004284,23.1499974 C11.9866219,24.4671587 11.7471381,25.8008361 11.6686865,27.1551587 C11.6273961,27.8983845 11.6273961,28.6457394 11.5406865,29.3848361 C11.4292026,30.3221265 11.5200413,31.2552877 11.5861058,32.180191 C11.73888,34.3231587 12.1517832,36.4207071 13.2542348,38.3159329 C13.8694606,39.3770942 14.6746219,40.244191 15.8018477,40.7974813 C17.4328155,41.6071845 19.6377187,41.3838039 21.1324284,40.124449 C22.3793961,39.0715458 23.1928155,37.7378684 23.7378477,36.2183845 C23.8410735,35.9297652 23.9360413,35.64032 24.0351381,35.3512877 C24.0970735,35.1530942 24.0186219,35.0581265 23.8162994,35.0622555 C23.6800413,35.0622555 23.5479123,35.0581265 23.4116542,35.0622555 C22.1894606,35.1076748 20.9713961,34.996191 19.7615897,34.8351587 C19.3858477,34.7814813 19.1339768,34.5750297 18.9192671,34.2901265 C18.4650735,33.6872877 18.26688,32.9729652 18.2297187,32.2545135 C18.1264929,30.1858684 18.5600413,28.2287071 19.6913961,26.4614813 C19.8648155,26.1930942 20.0960413,25.9453523 20.3437832,25.7430297 C20.6906219,25.4581265 21.078751,25.3342555 21.5701058,25.4374813 C22.2926865,25.5861265 23.0400413,25.6439329 23.775009,25.7223845 C24.5925574,25.8090942 25.4059768,25.916449 26.2235252,25.9329652 C27.2144929,25.9536103 28.2095897,26.0238039 29.2046865,25.8710297 C29.7497187,25.78432 30.3071381,25.8008361 30.8562994,25.7306426 C31.9876542,25.5778684 33.1231381,25.4374813 34.2462348,25.2269006 C35.5551381,24.9832877 36.8516542,24.6736103 38.1564284,24.3928361 C38.5032671,24.3143845 38.5899768,24.3391587 38.7179768,24.6694813" id="Fill-1" fill="#FFFFFF" mask="url(#mask-2)"></path>
                    </g>
                    <path d="M141.858477,19.6923871 C141.861368,20.0326194 141.851871,20.3720258 141.836594,20.7056516 C141.557058,26.9103484 140.453368,34.416929 139.644903,40.5753806 C139.098632,44.733729 138.433858,47.5278452 137.2864,51.5623226 C136.138529,55.5963871 133.893574,59.5251613 130.262503,61.6251871 C127.432465,63.2623484 124.049135,63.6356129 120.779768,63.6431721 C118.038916,63.6496516 115.214245,63.4014968 112.773161,62.1557677 C111.502245,61.5075097 110.312671,60.5252129 109.854348,59.1741935 C109.128052,57.0328774 110.413419,54.7751226 111.685161,52.9054968 C113.959845,54.2767484 116.301419,55.6740129 118.917987,56.1286194 C121.534555,56.5836387 124.526039,55.8907871 126.094658,53.7478194 C127.229316,52.1981935 127.451458,50.1815742 127.602994,48.2669419 C125.440206,49.3549419 123.243974,50.455329 120.868129,50.9202581 C118.492284,51.3856 115.872413,51.1428129 113.909884,49.7249032 C110.766452,47.4547613 110.211097,43.0094452 110.495587,39.1421935 C110.7776,35.312929 111.6096,31.3007484 112.286348,27.4273032 C112.648877,25.3524645 112.984155,23.2697806 113.174503,21.1709935 C113.333471,19.4165677 113.082839,17.384671 113.894606,15.7623742 C114.766658,14.0203355 118.112826,13.9943226 119.842477,14.1004387 C120.586942,14.1458581 121.349574,14.2664258 121.990813,14.6491871 C124.701523,16.2661161 123.603613,21.2849548 123.300129,23.8936774 C122.787716,28.2944 121.647277,31.7710452 121.011406,36.1531871 C120.716594,38.1875613 120.895794,40.7632516 122.772852,41.6010323 C124.149471,42.2150194 125.82751,41.4730323 126.759432,40.2884129 C127.690942,39.1033806 128.052232,37.5810065 128.388748,36.1118968 C129.810787,29.903071 131.240671,23.6327226 131.263794,17.2632774 C131.267097,16.386271 131.295587,15.3866323 131.960774,14.8147613 C132.386065,14.4493419 132.973626,14.3556129 133.528568,14.2759226 C136.031174,13.9166968 138.995406,13.7168516 140.657755,15.6215742 C141.611561,16.7149419 141.847329,18.2125419 141.858477,19.6923871" id="Fill-4" fill="#FFFFFF"></path>
                    <path d="M57.1871381,29.106911 C57.174751,29.8460077 57.046751,30.5851045 56.9889445,31.3242013 C56.9104929,32.3936206 56.671009,33.4341368 56.3902348,34.4622658 C55.8906219,36.3162013 55.1969445,38.0916852 53.9912671,39.6235561 C53.2934606,40.5112981 52.4552671,41.1967174 51.3197832,41.4816206 C49.9572026,41.8243303 48.8299768,41.2875561 48.1693316,40.0447174 C47.7770735,39.3056206 47.5871381,38.5091303 47.4756542,37.6952981 C47.3682994,36.9438142 47.3559123,36.1758142 47.3022348,35.4160723 C47.3311381,34.0534916 47.5252026,32.7198142 47.7564284,31.3861368 C48.0413316,29.7345239 48.5574606,28.1654916 49.2057187,26.6336206 C49.6846865,25.5022658 50.3494606,24.4658787 51.1959123,23.5740077 C51.7079123,23.0372335 52.310751,22.5747819 53.0622348,22.3972335 C54.5445574,22.0503948 55.4240413,22.3972335 56.1713961,23.5574916 C56.7205574,24.4080723 56.9600413,25.3783948 57.0673961,26.3652335 C57.1664929,27.2736206 57.1995252,28.1943948 57.1871381,29.106911 M67.5840413,26.7285884 C67.5757832,25.7128465 67.4106219,24.7136206 67.2248155,23.7226529 C66.8242994,21.554911 66.0645574,19.5275561 64.7845574,17.71904 C64.5326865,17.3598142 64.2642994,17.0088465 63.967009,16.6867819 C62.8645574,15.4893626 61.5597832,14.5768465 60.0402994,13.9698787 C58.8057187,13.4785239 57.5215897,13.1688465 56.2044284,13.0945239 C54.623009,13.0036852 53.0457187,13.0656206 51.4725574,13.4000723 C49.6722994,13.7840723 48.0041703,14.4612335 46.4392671,15.4067819 C44.8619768,16.3647174 43.4746219,17.5538787 42.2730735,18.9660077 C41.4142348,19.9776206 40.6586219,21.051169 40.0144929,22.203169 C39.5272671,23.0743948 39.0937187,23.9703948 38.7179768,24.891169 C38.4082994,25.6467819 38.1357832,26.42304 37.9045574,27.2158142 C37.3884284,28.9747819 37.0581058,30.77504 36.8722994,32.5959432 C36.8103639,33.1946529 36.7814606,33.7933626 36.7608155,34.4044594 C36.7442994,34.8214916 36.7277832,35.2426529 36.7071381,35.6720723 C36.7608155,36.5845884 36.7773316,37.5425239 36.8764284,38.4922013 C37.0002994,39.7020077 37.2026219,40.9076852 37.5535897,42.0803303 C38.230751,44.34304 39.2506219,46.4075561 41.0302348,48.0426529 C42.1657187,49.0872981 43.4498477,49.8594271 44.895009,50.3425239 C46.6993961,50.9453626 48.5533316,51.2059045 50.4650735,51.0568465 C51.2454606,50.994911 52.0217187,50.9577497 52.7979768,50.8256206 C54.7840413,50.48704 56.6297187,49.7892335 58.3184929,48.7074271 C59.6439123,47.8609755 60.8372026,46.8576206 61.8735897,45.6602013 C62.8315252,44.5536206 63.6614606,43.3685884 64.3716542,42.1009755 C65.4575897,40.1520723 66.2255897,38.075169 66.7623639,35.9156852 C67.1009445,34.5654916 67.3486865,33.1987819 67.4766865,31.8072981 C67.5922994,30.5520723 67.7079123,29.3009755 67.67488,28.0374916 C67.6666219,27.5998142 67.5881703,27.1662658 67.5840413,26.7285884" id="Fill-6" fill="#FFFFFF"></path>
                    <path d="M91.5613316,35.4186323 C91.6137703,36.1602065 91.6327639,36.9063226 91.7277316,37.642529 C91.8379768,38.4943484 92.0328671,39.3346065 92.4589832,40.0955871 C93.1423381,41.3165419 94.10688,41.7356387 95.3034735,41.5485935 C96.1949316,41.4086194 96.94848,40.9668129 97.6016929,40.3429161 C98.6046348,39.3849806 99.2656929,38.2003613 99.8032929,36.951329 C100.800454,34.6332903 101.263732,32.1806452 101.440454,29.6788645 C101.532532,28.3662452 101.490003,27.044129 101.225745,25.7438968 C101.073796,24.9940645 100.872299,24.2595097 100.458157,23.6021677 C99.7058477,22.4068129 98.800351,22.0459355 97.3159639,22.3985548 C96.5648929,22.5765161 95.9624671,23.0402065 95.4521187,23.5773935 C94.6048413,24.4688516 93.9433703,25.5056516 93.4635768,26.6378323 C92.8153187,28.1676387 92.297951,29.7391484 92.0138735,31.3874581 C91.7834735,32.7236129 91.5823897,34.0568774 91.5613316,35.4186323 M80.9637574,35.7200516 C81.0203252,34.6043871 81.0273445,33.5890581 81.1313961,32.5836387 C81.3217445,30.7429161 81.6603252,28.9282065 82.1855381,27.1477677 C82.7024929,25.3962323 83.4126865,23.7281032 84.3057961,22.1421419 C84.9437316,21.0103742 85.6914994,19.9516903 86.5412542,18.9574194 C87.7333058,17.5613935 89.10208,16.3846194 90.6624413,15.4332903 C92.2397316,14.4716387 93.9268542,13.7882839 95.74528,13.3989161 C97.315551,13.0632258 98.898209,12.9744516 100.477151,13.0979097 C102.899654,13.2878452 105.14048,14.0273548 107.064196,15.5992774 C108.256248,16.5729032 109.170828,17.7484387 109.892583,19.0945032 C110.796015,20.7808 111.344764,22.5789935 111.602828,24.4676129 C111.706054,25.2219871 111.777074,25.9813161 111.834467,26.7402323 C111.888557,27.4628129 111.948841,28.1899355 111.928609,28.9125161 C111.902183,29.8638452 111.820428,30.8151742 111.72257,31.7623742 C111.637925,32.5757935 111.528506,33.3896258 111.372015,34.1918968 C111.186209,35.1448774 110.973977,36.0953806 110.709719,37.0289548 C110.255525,38.6322581 109.647319,40.1798194 108.863215,41.6542968 C108.10719,43.0759226 107.212015,44.3972129 106.161177,45.6247742 C105.142957,46.8147613 103.965357,47.8044903 102.663886,48.6509419 C100.945796,49.7678452 99.0683252,50.4834065 97.0417961,50.8252903 C96.3047639,50.9495742 95.5735123,51.0523871 94.8249187,51.0470194 C94.5222606,51.0445419 94.2175381,51.1432258 93.9165316,51.1308387 C91.6079897,51.0342194 89.3477574,50.7080258 87.3125574,49.5168 C86.6733832,49.1422968 86.0631123,48.7004903 85.4994994,48.2190452 C83.4593445,46.4737032 82.3573058,44.1692903 81.6954219,41.6249806 C81.3638606,40.3499355 81.1466735,39.0546581 81.1008413,37.7325419 C81.07648,37.0273032 81.0066994,36.3237161 80.9637574,35.7200516" id="Fill-8" fill="#FFFFFF"></path>
                    <path d="M82.3000361,19.5676077 C82.3000361,25.1810271 81.4040361,31.4055432 80.38912,36.8682529 C79.0719587,43.9582142 78.4146168,50.8805368 75.0593652,57.4395045 C74.3673394,58.7917626 73.51552,60.0350142 72.406049,61.08544 C71.0393394,62.3794787 69.4302555,63.19744 67.5833394,63.5760723 C66.5428232,63.7891303 65.4944619,63.8576723 64.448991,63.7742658 C62.9968103,63.6590658 61.5751845,63.3861368 60.3137652,62.5760206 C59.2125523,61.8687174 58.5316748,60.8822916 58.2513135,59.6039432 C57.97632,58.3491303 58.236449,57.1376723 58.5172232,55.9278658 C58.69312,55.1693626 58.7042684,55.1908335 59.4776361,55.4088465 C60.0445523,55.5690529 60.62592,55.7759174 61.2031587,55.7833497 C62.3985135,55.7998658 63.6149265,55.8023432 64.666591,55.060769 C65.4663845,54.4971561 65.9346168,53.6977755 66.2967329,52.8220077 C66.9259974,51.2988077 67.3306426,49.7078916 67.6675716,48.1004594 C68.1093781,45.9938271 68.5301265,43.8830658 68.9409652,41.7706529 C69.2171974,40.3502658 69.4765006,38.9261626 69.71392,37.4987561 C69.9042684,36.3533626 70.0500232,35.2005368 70.2147716,34.0506013 C70.3609394,33.0332077 70.5178426,32.0170529 70.6487329,30.9980077 C70.75072,30.2044077 70.8163716,29.4066787 70.9047329,28.6110142 C71.0075458,27.6840465 71.1248103,26.7587303 71.2230813,25.8309368 C71.2808877,25.2813626 71.3102039,24.7284852 71.3601652,24.1780852 C71.4241652,23.4761497 71.4984877,22.7758658 71.5645523,22.0743432 C71.6107974,21.5809239 71.6566297,21.0875045 71.6913135,20.5928465 C71.7396232,19.90784 71.7697652,19.2211819 71.8213781,18.5361755 C71.8845523,17.7008723 71.9671329,16.8663948 72.0311329,16.0306787 C72.0542555,15.7255432 72.0567329,15.4179303 72.0530168,15.1115561 C72.0497135,14.8708335 72.1867974,14.76224 72.3907716,14.7201239 C72.5204232,14.6932852 72.6575071,14.6928723 72.7912877,14.6953497 C73.826849,14.7135174 74.8363974,14.4884852 75.8575071,14.3708077 C76.8418684,14.2576723 77.8159071,14.0664981 78.8180232,14.0929239 C80.2152877,14.1292594 81.1653781,14.7849497 81.7294039,16.0356335 C82.1113394,16.8824981 82.228191,17.7908852 82.2967329,18.7058787 C82.3182039,18.9916077 82.3000361,19.2802271 82.3000361,19.5676077" id="Fill-10" fill="#FFFFFF"></path>
                </g>
            </g>
        </g>
    </g>
</svg>