<svg xmlns="http://www.w3.org/2000/svg" viewBox="0 0 407.37 392.13"><defs><style>.cls-1{fill:#4285f4;}</style></defs><title>Asset 1</title><g id="Layer_2" data-name="Layer 2"><g id="Layer_1-2" data-name="Layer 1"><rect class="cls-1" width="95.01" height="95.01"/><rect class="cls-1" x="207.69" y="207.45" width="95.02" height="95.02"/><rect class="cls-1" y="103.72" width="95.01" height="95.01"/><rect class="cls-1" x="103.84" y="103.72" width="95.01" height="95.01"/><rect class="cls-1" x="207.69" y="103.72" width="95.01" height="95.01"/><rect class="cls-1" x="311.53" y="103.72" width="95.01" height="95.01"/><path class="cls-1" d="M1.25,355.66H15c3.27,0,5.75.79,7.44,2.35A8.8,8.8,0,0,1,25,364.79a9.25,9.25,0,0,1-1,4.45,8.16,8.16,0,0,1-2.95,3,11.11,11.11,0,0,1,3.37,1.16,7.29,7.29,0,0,1,2.26,1.9,7.08,7.08,0,0,1,1.24,2.54,11.71,11.71,0,0,1,.38,3,10.68,10.68,0,0,1-.87,4.43A9,9,0,0,1,25,388.5a10.47,10.47,0,0,1-3.83,2,18.13,18.13,0,0,1-5.08.66H1.25Zm9.22,13.93h1.69q4.34,0,4.33-3.44t-4.33-3.43H10.47Zm0,14.4h2a10.26,10.26,0,0,0,5-.9,3.5,3.5,0,0,0,0-5.74,10.4,10.4,0,0,0-5-.89h-2Z"/><polygon class="cls-1" points="57.14 355.66 57.14 383.33 68.2 383.33 68.2 391.14 47.92 391.14 47.92 355.66 57.14 355.66"/><path class="cls-1" d="M84.76,373.4a18.51,18.51,0,0,1,5.5-13.32,18.64,18.64,0,0,1,6.19-4,22.47,22.47,0,0,1,15.83,0,18.72,18.72,0,0,1,6.23,4,18.06,18.06,0,0,1,4.07,6,19.28,19.28,0,0,1,0,14.72,17.91,17.91,0,0,1-4.07,5.95,18.59,18.59,0,0,1-6.23,4,22.62,22.62,0,0,1-15.83,0,18.51,18.51,0,0,1-6.19-4,18.46,18.46,0,0,1-5.5-13.31m9.64,0a9.48,9.48,0,0,0,.8,3.9,9.94,9.94,0,0,0,2.17,3.11,9.78,9.78,0,0,0,3.17,2,10.44,10.44,0,0,0,7.67,0,10.13,10.13,0,0,0,3.2-2,9.68,9.68,0,0,0,2.19-3.11,9.93,9.93,0,0,0,0-7.81,9.75,9.75,0,0,0-2.19-3.1,10.13,10.13,0,0,0-3.2-2.05,10.44,10.44,0,0,0-7.67,0,9.78,9.78,0,0,0-3.17,2.05,10,10,0,0,0-2.17,3.1,9.56,9.56,0,0,0-.8,3.91"/><path class="cls-1" d="M169.54,367.52a9.86,9.86,0,0,0-7.91-3.91,9.7,9.7,0,0,0-3.83.76,9.19,9.19,0,0,0-3,2,9.31,9.31,0,0,0-2,3.09,10,10,0,0,0-.73,3.85,10.16,10.16,0,0,0,.73,3.91,9.44,9.44,0,0,0,8.82,5.93,10.69,10.69,0,0,0,7.95-3.77v10.92l-.94.33a26.78,26.78,0,0,1-3.95,1.1,18.85,18.85,0,0,1-3.63.36,18.52,18.52,0,0,1-13-5.3,19.46,19.46,0,0,1-4.12-6,19.18,19.18,0,0,1,0-15.06,18.76,18.76,0,0,1,17.15-11.13,19.28,19.28,0,0,1,4.16.45,25.23,25.23,0,0,1,4.31,1.39Z"/><polygon class="cls-1" points="200.22 370.3 211.46 355.66 222.84 355.66 208.78 372.46 224.16 391.14 212.21 391.14 200.22 375.75 200.22 391.14 190.99 391.14 190.99 355.66 200.22 355.66 200.22 370.3"/><path class="cls-1" d="M251.59,391.14h-9.22V355.66h14.68q6,0,9.15,3.11c2.12,2.07,3.17,5,3.17,8.75s-1.05,6.68-3.17,8.75-5.17,3.11-9.15,3.11h-5.46Zm0-19.2h3.06q5.09,0,5.08-4.42t-5.08-4.42h-3.06Z"/><path class="cls-1" d="M308.14,385H295l-2.12,6.17H283l13.5-35.48h10.07l13.5,35.48h-9.83Zm-2.44-7-4.14-11.81L297.42,378Z"/><path class="cls-1" d="M357.73,364.74a11.31,11.31,0,0,0-3-1.81,8,8,0,0,0-2.92-.59,4.74,4.74,0,0,0-2.91.85,2.63,2.63,0,0,0-1.13,2.21,2.24,2.24,0,0,0,.56,1.56,4.88,4.88,0,0,0,1.49,1.05,12.65,12.65,0,0,0,2.06.78c.77.22,1.53.45,2.29.71a14.21,14.21,0,0,1,6.61,4,9.94,9.94,0,0,1,2.09,6.56,12.61,12.61,0,0,1-.92,4.94,10.2,10.2,0,0,1-2.68,3.79,12.33,12.33,0,0,1-4.33,2.45,18,18,0,0,1-5.81.87,21.44,21.44,0,0,1-12.47-4l4-7.44a15.68,15.68,0,0,0,4.09,2.73,9.78,9.78,0,0,0,4,.9,4.74,4.74,0,0,0,3.36-1,3.14,3.14,0,0,0,1.11-2.35,3.31,3.31,0,0,0-.28-1.39,3.13,3.13,0,0,0-.94-1.08,7.59,7.59,0,0,0-1.72-.92c-.71-.28-1.56-.59-2.57-.94-1.19-.38-2.36-.79-3.5-1.25a10.86,10.86,0,0,1-3.06-1.81,8.41,8.41,0,0,1-2.16-2.85,10,10,0,0,1-.83-4.35,12.58,12.58,0,0,1,.87-4.77,10.61,10.61,0,0,1,2.45-3.67,11,11,0,0,1,3.86-2.38,14.66,14.66,0,0,1,5.1-.85,22.71,22.71,0,0,1,5.51.73,24.41,24.41,0,0,1,5.5,2.14Z"/><path class="cls-1" d="M402.24,364.74a11.47,11.47,0,0,0-3-1.81,8,8,0,0,0-2.92-.59,4.79,4.79,0,0,0-2.92.85,2.64,2.64,0,0,0-1.12,2.21,2.2,2.2,0,0,0,.56,1.56,5,5,0,0,0,1.48,1.05,12.43,12.43,0,0,0,2.07.78c.77.22,1.53.45,2.29.71a14.21,14.21,0,0,1,6.61,4,9.94,9.94,0,0,1,2.09,6.56,12.79,12.79,0,0,1-.92,4.94,10.2,10.2,0,0,1-2.68,3.79,12.42,12.42,0,0,1-4.33,2.45,18.05,18.05,0,0,1-5.81.87,21.44,21.44,0,0,1-12.47-4l3.95-7.44a15.72,15.72,0,0,0,4.1,2.73,9.78,9.78,0,0,0,4,.9,4.78,4.78,0,0,0,3.36-1,3.14,3.14,0,0,0,1.11-2.35,3.31,3.31,0,0,0-.28-1.39,3.06,3.06,0,0,0-.95-1.08,7.5,7.5,0,0,0-1.71-.92c-.71-.28-1.56-.59-2.57-.94-1.19-.38-2.36-.79-3.5-1.25a10.86,10.86,0,0,1-3.06-1.81,8.28,8.28,0,0,1-2.16-2.85,10,10,0,0,1-.83-4.35,12.58,12.58,0,0,1,.87-4.77,10.61,10.61,0,0,1,2.45-3.67,10.91,10.91,0,0,1,3.86-2.38,14.66,14.66,0,0,1,5.1-.85,22.71,22.71,0,0,1,5.51.73,24.59,24.59,0,0,1,5.5,2.14Z"/></g></g></svg>