<svg xmlns="http://www.w3.org/2000/svg" viewBox="0 0 102.5 102.5"><defs><style>.cls-1{fill:#121212;stroke:#424242;stroke-miterlimit:10;stroke-width:2.5px;}.cls-2{fill:#31ffe1;}.cls-3{fill:#fff;}</style></defs><title>TUSD-1C-Icon</title><g id="Layer_2" data-name="Layer 2"><g id="Layer_1-2" data-name="Layer 1"><g id="Layer_2-2" data-name="Layer 2"><g id="Layer_1-2-2" data-name="Layer 1-2"><circle class="cls-1" cx="51.25" cy="51.25" r="50"/><g id="AJfNhU.tif"><path class="cls-2" d="M27.17,65.82a32.57,32.57,0,0,0,15.17,7.59c12.5,2.23,25.44-5.8,28.34-17.41,1.57-6.47-.22-12.94-5.13-18.74,1.12-.45,1.56.44,2.23.89a21.86,21.86,0,0,1,4.47,30.13c-10.94,15-34.82,14.06-44.64-1.57C27.39,66.27,27.17,66,27.17,65.82Z"/><path class="cls-3" d="M35.65,66C22,58.23,20.92,39.93,33.41,30.11a27.06,27.06,0,0,1,37.72,3.35c.67.89,1.78,1.56,1.78,3.35a29.31,29.31,0,0,0-13.16-7.14c-10.27-2-19,.89-25.67,9.15-6,7.36-5.8,18.07.23,25.66A10.89,10.89,0,0,1,35.65,66Z"/><path class="cls-3" d="M47.47,55.11v-8c0-1.34-.22-1.79-1.56-1.79h-6c-.45,0-1.12.22-1.34-.22-.23-.67.22-.9.44-1.34a8,8,0,0,1,6.92-3.57c5.13-.23,10.27,0,15.4,0,1.34,0,1.12.67.67,1.34a6.84,6.84,0,0,1-6.47,3.79c-1.79,0-2.23.67-2,2.23.22,3.35,0,6.47,0,9.82a7.28,7.28,0,0,1-4,6.7c-1.11.67-1.78.67-1.78-.9C47.7,60.47,47.47,57.79,47.47,55.11Z"/></g></g></g></g></g></svg>