<?xml version="1.0" encoding="UTF-8"?>
<svg width="40px" height="37px" viewBox="0 0 40 37" version="1.1" xmlns="http://www.w3.org/2000/svg" xmlns:xlink="http://www.w3.org/1999/xlink">
    <!-- Generator: sketchtool 52 (66869) - http://www.bohemiancoding.com/sketch -->
    <title>98672CD4-286D-43BE-B23D-70CAAB0F6123</title>
    <desc>Created with sketchtool.</desc>
    <g id="Main-pages" stroke="none" stroke-width="1" fill="none" fill-rule="evenodd">
        <g id="Prices-Buy" transform="translate(-1361.000000, -605.000000)" fill-rule="nonzero">
            <g id="usd" transform="translate(1361.562500, 605.000000)">
                <ellipse id="Oval" stroke="#383838" stroke-width="2" fill="#121212" cx="19.35625" cy="18.5" rx="18.35625" ry="17.5"></ellipse>
                <path d="M22.3319152,22.2182617 C22.3319152,21.6492485 22.1287145,21.1699238 21.7223069,20.7802734 C21.3158992,20.3906231 20.6306872,20.0380875 19.6666504,19.7226562 C18.3245599,19.320636 17.3463608,18.7964713 16.7320237,18.1501465 C16.1176864,17.5038216 15.8105224,16.6827849 15.8105224,15.6870117 C15.8105224,14.6726837 16.1113857,13.8408236 16.7131211,13.1914062 C17.3148564,12.5419889 18.1418363,12.1554368 19.1940857,12.0317383 L19.1940857,10 L20.6023285,10 L20.6023285,12.0410156 C21.6608787,12.1832689 22.4847083,12.6192997 23.0738418,13.3491211 C23.6629755,14.0789425 23.9575379,15.0777931 23.9575379,16.3457031 L22.2184997,16.3457031 C22.2184997,15.4736285 22.007423,14.780927 21.5852631,14.2675781 C21.1631032,13.7542292 20.5928808,13.4975586 19.8745789,13.4975586 C19.1247725,13.4975586 18.5513997,13.6877422 18.1544434,14.0681152 C17.757487,14.4484882 17.5590118,14.9788377 17.5590118,15.6591797 C17.5590118,16.2900422 17.7685135,16.79256 18.1875229,17.166748 C18.6065323,17.5409361 19.29647,17.881102 20.2573563,18.1872559 C21.2182426,18.4934097 21.9680378,18.8304832 22.5067642,19.1984863 C23.0454906,19.5664895 23.4424411,19.9947892 23.6976272,20.4833984 C23.9528134,20.9720077 24.0804046,21.5441048 24.0804046,22.199707 C24.0804046,23.2449597 23.7606391,24.0860971 23.1210983,24.7231445 C22.4815576,25.360192 21.5852688,25.7374669 20.4322052,25.8549805 L20.4322052,27.6269531 L19.0334137,27.6269531 L19.0334137,25.8549805 C17.8614474,25.7498367 16.9431058,25.3400915 16.2783615,24.6257324 C15.6136172,23.9113734 15.28125,22.9419007 15.28125,21.7172852 L17.0297394,21.7172852 C17.0297394,22.57699 17.2597185,23.2387672 17.7196839,23.7026367 C18.1796491,24.1665062 18.8317819,24.3984375 19.6761016,24.3984375 C20.5015188,24.3984375 21.1505011,24.2036152 21.6230683,23.8139648 C22.0956353,23.4243145 22.3319152,22.8924187 22.3319152,22.2182617 Z" id="$" fill="#FFFFFF"></path>
            </g>
        </g>
    </g>
</svg>