<svg xmlns="http://www.w3.org/2000/svg" viewBox="0 0 102.5 102.5"><defs><style>.cls-1{fill:#121212;stroke:#424242;stroke-miterlimit:10;stroke-width:2.5px;}.cls-2{fill:#27d6ff;}</style></defs><title>XRP-1C-Icon</title><g id="Layer_2" data-name="Layer 2"><g id="Layer_1-2" data-name="Layer 1"><circle class="cls-1" cx="51.25" cy="51.25" r="50"/><path class="cls-2" d="M66.27,58.31a12.83,12.83,0,0,0-6.16-1.52,4.4,4.4,0,0,1-4.42-4.54,4.54,4.54,0,0,1,4.42-4.54,12.72,12.72,0,0,0,6.16-1.52A11.63,11.63,0,0,0,71.2,32.31a11.18,11.18,0,0,0-12.49-7.38,11.39,11.39,0,0,0-9.26,11.31,13.39,13.39,0,0,0,1.76,6.17,4.55,4.55,0,0,1-1.6,6.25A4.46,4.46,0,0,1,43.53,47a13.07,13.07,0,0,0-4.34-4.65A11,11,0,0,0,25,44.87a11.69,11.69,0,0,0,0,14.76A11,11,0,0,0,39.19,62.2a13,13,0,0,0,4.35-4.65c.91-1.5,3.19-3.41,6.07-1.71a4.69,4.69,0,0,1,1.6,6.25,13.39,13.39,0,0,0-1.76,6.17,11.39,11.39,0,0,0,9.26,11.31A11.18,11.18,0,0,0,71.2,72.19a11.63,11.63,0,0,0-4.93-13.88Z"/></g></g></svg>