<?xml version="1.0" encoding="UTF-8"?>
<svg width="101px" height="266px" viewBox="0 0 101 266" version="1.1" xmlns="http://www.w3.org/2000/svg" xmlns:xlink="http://www.w3.org/1999/xlink">
    <!-- Generator: Sketch 54 (76480) - https://sketchapp.com -->
    <title>p6</title>
    <desc>Created with Sketch.</desc>
    <defs>
        <linearGradient x1="50%" y1="0%" x2="50%" y2="100%" id="linearGradient-1">
            <stop stop-color="#FFDC00" offset="0%"></stop>
            <stop stop-color="#FFB600" offset="100%"></stop>
        </linearGradient>
        <polygon id="path-2" points="121.385364 83.5638191 121.401922 67.7175562 100.151964 75.5987087"></polygon>
        <linearGradient x1="50%" y1="0%" x2="50%" y2="100%" id="linearGradient-4">
            <stop stop-color="#FFDC00" offset="0%"></stop>
            <stop stop-color="#FFB600" offset="100%"></stop>
        </linearGradient>
        <linearGradient x1="50%" y1="0%" x2="50%" y2="100%" id="linearGradient-5">
            <stop stop-color="#FF6100" offset="0%"></stop>
            <stop stop-color="#FFB600" offset="100%"></stop>
        </linearGradient>
    </defs>
    <g id="adax" stroke="none" stroke-width="1" fill="none" fill-rule="evenodd">
        <g id="landing" transform="translate(0.000000, -1764.000000)">
            <g id="polys" transform="translate(-61.000000, 75.000000)">
                <g id="p6" transform="translate(0.000000, 1689.000000)">
                    <mask id="mask-3" fill="white">
                        <use xlink:href="#path-2"></use>
                    </mask>
                    <use id="Clip-74" fill="url(#linearGradient-1)" transform="translate(110.776943, 75.640688) rotate(10.000000) translate(-110.776943, -75.640688) " xlink:href="#path-2"></use>
                    <polygon id="Fill-73" fill="url(#linearGradient-4)" transform="translate(117.113753, 257.740880) rotate(-100.000000) translate(-117.113753, -257.740880) " points="107.231688 268.273633 126.995819 271.759875 121.830891 243.721884"></polygon>
                    <polygon id="Rectangle" fill="#FFB600" points="99.0388881 142.5 161 142.5 61.9611119 255.5 1.11716192e-15 255.5"></polygon>
                    <polygon id="Fill-47-Copy" fill="url(#linearGradient-5)" transform="translate(139.500000, 15.000000) scale(-1, 1) rotate(-90.000000) translate(-139.500000, -15.000000) " points="154 26.5558607 135.104599 37.5 125 -7.5"></polygon>
                </g>
            </g>
        </g>
    </g>
</svg>