<?xml version="1.0" encoding="UTF-8"?>
<svg width="170px" height="51px" viewBox="0 0 170 51" version="1.1" xmlns="http://www.w3.org/2000/svg" xmlns:xlink="http://www.w3.org/1999/xlink">
    <!-- Generator: sketchtool 52 (66869) - http://www.bohemiancoding.com/sketch -->
    <title>C60F2A3C-5FA0-41AD-AAE5-565108F6C348</title>
    <desc>Created with sketchtool.</desc>
    <g id="1080" stroke="none" stroke-width="1" fill="none" fill-rule="evenodd">
        <g id="landing-dark" transform="translate(-61.000000, -903.000000)">
            <g id="Group-22">
                <g id="Group-6" transform="translate(60.000000, 230.000000)">
                    <g id="Group-6-Copy" transform="translate(1.000000, 673.000000)">
                        <rect id="Rectangle-path" stroke="#FFFFFF" stroke-width="1.98863636" x="0.994318182" y="0.994318182" width="167.898924" height="48.4967637" rx="24.2483818"></rect>
                        <g id="Group-2" transform="translate(38.778409, 11.931818)" fill="#FFFFFF" fill-rule="nonzero">
                            <path d="M15.9090909,16.0393453 C15.5801111,16.8105753 15.1765509,17.5490558 14.7039521,18.2446458 C13.9230221,19.4111836 12.8215252,20.8640317 11.4597184,20.8758628 C10.2545795,20.8758628 9.93401262,20.1021146 8.29020326,20.1115794 C6.64639391,20.1210442 6.3017242,20.89006 5.08935455,20.8805952 C3.7251374,20.866398 2.6790769,19.5555219 1.90055722,18.386618 C-0.283154332,15.1236251 -0.509720431,11.2880112 0.835214497,9.25544346 C1.79932556,7.80969388 3.30333881,6.96259347 4.72299234,6.96259347 C6.14264588,6.96259347 7.07783361,7.74107402 8.27333132,7.74107402 C9.43267487,7.74107402 10.1388862,6.96022727 11.8116189,6.96022727 C13.0746044,6.96022727 14.4123085,7.63459492 15.3667784,8.80349883 C12.2430586,10.4858686 12.7516272,14.8728076 15.9090909,16.0393453 Z" id="Shape"></path>
                            <path d="M12.1260153,4.49544511 C12.8487573,3.5653827 13.4016117,2.24947397 13.2000502,0.904770735 C11.8831575,1.06053387 10.6747175,1.711074 9.8195757,2.72458325 C9.0853159,3.61721281 8.47775191,4.93888044 8.71386683,6.22599467 C10.0096194,6.26630698 11.3485637,5.49461433 12.1260153,4.49544511 Z" id="Shape"></path>
                        </g>
                        <text id="App-Store" fill="#FFFFFF" font-family="Helvetica-Bold, Helvetica" font-size="13.8698951" font-weight="bold">
                            <tspan x="64.6306818" y="28.9147727">App Store</tspan>
                        </text>
                    </g>
                </g>
            </g>
        </g>
    </g>
</svg>