<?xml version="1.0" encoding="UTF-8"?>
<svg width="6px" height="11px" viewBox="0 0 6 11" version="1.1" xmlns="http://www.w3.org/2000/svg" xmlns:xlink="http://www.w3.org/1999/xlink">
    <!-- Generator: sketchtool 52 (66869) - http://www.bohemiancoding.com/sketch -->
    <title>F988628C-6439-40FF-8250-8D389B67A052</title>
    <desc>Created with sketchtool.</desc>
    <g id="other-screens" stroke="none" stroke-width="1" fill="none" fill-rule="evenodd">
        <g id="2fa-2" transform="translate(-573.000000, -376.000000)" fill="#FFFFFF" fill-rule="nonzero">
            <g id="Group-3" transform="translate(532.000000, 339.000000)">
                <g id="arrow-down" transform="translate(43.720038, 42.569511) scale(-1, 1) translate(-43.720038, -42.569511) translate(40.651965, 37.583893)">
                    <path d="M3.06805725,7.73836156 C2.89943318,7.73836156 2.73082993,7.6724744 2.60226917,7.54097708 L-1.4432926,3.40095313 C-1.70064317,3.13759625 -1.70064317,2.7106082 -1.4432926,2.44735786 C-1.18604615,2.18410752 -0.768879605,2.18410752 -0.511508213,2.44735786 L3.06805725,6.11068006 L6.64764354,2.44748571 C6.9049941,2.18423537 7.322119,2.18423537 7.57934463,2.44748571 C7.83682014,2.71073605 7.83682014,3.1377241 7.57934463,3.40108099 L3.53384533,7.54110493 C3.4052221,7.67262356 3.23661885,7.73836156 3.06805725,7.73836156 Z" id="Shape" transform="translate(3.068073, 4.994141) rotate(-90.000000) translate(-3.068073, -4.994141) "></path>
                </g>
            </g>
        </g>
    </g>
</svg>