<?xml version="1.0" encoding="UTF-8"?>
<svg width="170px" height="51px" viewBox="0 0 170 51" version="1.1" xmlns="http://www.w3.org/2000/svg" xmlns:xlink="http://www.w3.org/1999/xlink">
    <!-- Generator: Sketch 52 (66869) - http://www.bohemiancoding.com/sketch -->
    <title>googleplay-hoverstate</title>
    <desc>Created with Sketch.</desc>
    <g id="Main-pages" stroke="none" stroke-width="1" fill="none" fill-rule="evenodd">
        <g id="googleplay-hoverstate">
            <g>
                <rect id="Rectangle-path" fill="#FFFFFF" x="0" y="5.68434189e-14" width="170" height="50.8058523" rx="25.2585913"></rect>
                <g id="Group-4" transform="translate(36.783626, 15.000000)" fill="#121212" fill-rule="nonzero">
                    <g id="Group-3">
                        <polygon id="Shape" points="0.408650786 0.647258523 0.408650786 9.06225852 0.408650786 17.4772585 8.62417406 9.06225852"></polygon>
                        <polygon id="Shape" points="11.0414945 6.5847017 7.72372746 4.60700284 0.619035505 0.369076705 0.619035505 0.429928977 8.83455878 8.84492898"></polygon>
                        <polygon id="Shape" points="0.619035505 17.6945881 0.619035505 17.7554403 7.72372746 13.5175142 11.0393906 11.5398153 8.83455878 9.27958807"></polygon>
                        <polygon id="Shape" points="11.2518792 6.80203125 9.04494349 9.06225852 11.2497753 11.3224858 15.040908 9.06225852"></polygon>
                    </g>
                    <path d="M76.7103499,13.4414489 C76.2849142,13.4467665 75.8632431,13.3586113 75.4732878,13.1828267 C75.0981498,13.0087146 74.7743858,12.7350042 74.534972,12.3895739 L74.4592335,12.3895739 C74.5082337,12.7838408 74.5335284,13.1808663 74.534972,13.5783665 L74.534972,16.5253551 L73.4830484,16.5253551 L73.4830484,6.15004261 L74.3372103,6.15004261 L74.4823758,7.13019886 L74.5328681,7.13019886 C74.7692683,6.76628244 75.0943678,6.47317988 75.4753916,6.28044034 C75.8624362,6.09960288 76.2835184,6.00978574 76.7082461,6.01747159 C77.6283286,6.01747159 78.3380264,6.34201705 78.8373395,6.99110795 C79.3366525,7.64019886 79.5863091,8.55080966 79.5863091,9.72294034 C79.5863091,10.8979688 79.3324448,11.8122017 78.8247164,12.4656392 C78.3094639,13.1186786 77.5250162,13.4807122 76.7103499,13.4414489 Z M76.5630806,6.93894886 C75.8540841,6.93894886 75.3428493,7.14323864 75.0251684,7.54747159 C74.7074874,7.95170455 74.5433873,8.60369318 74.534972,9.47301136 L74.534972,9.71424716 C74.534972,10.7197585 74.6969682,11.4398438 75.0209607,11.8745028 C75.347057,12.3091619 75.8624995,12.5264915 76.5841191,12.5264915 C77.1480317,12.5461453 77.681219,12.2612834 77.9915929,11.7745312 C78.329611,11.2746733 78.4993213,10.5842898 78.5007239,9.70338068 C78.5021265,8.82247159 78.3324161,8.13788352 77.9915929,7.64961648 C77.6600252,7.18136136 77.1242082,6.91479886 76.5630806,6.93894886 Z" id="Shape" stroke="#121212" stroke-width="0.5"></path>
                    <polygon id="Shape" stroke="#121212" stroke-width="0.5" points="82.0183564 13.3110511 80.9664328 13.3110511 80.9664328 3.144375 82.0183564 3.144375"></polygon>
                    <path d="M88.0563978,13.3110511 L87.8460131,12.2917756 L87.7955208,12.2917756 C87.5253066,12.6750068 87.171394,12.9869914 86.7625318,13.2023864 C86.3541359,13.3737915 85.9155924,13.4552166 85.4749773,13.4414489 C84.786318,13.4414489 84.2477331,13.2581676 83.8592227,12.8916051 C83.4679071,12.5264915 83.2743532,12.0070739 83.2743532,11.331179 C83.2743532,9.88231534 84.396405,9.12383523 86.6405087,9.05573864 L87.8186631,9.01661932 L87.8186631,8.58196023 C87.8186631,8.01835227 87.7015489,7.60325284 87.4673206,7.33666193 C87.2330923,7.07007102 86.8586075,6.93605114 86.3438662,6.93460227 C85.6586642,6.96392883 84.9885836,7.15183291 84.3830806,7.48444602 L84.0506728,6.64772727 C84.4061851,6.45142755 84.7834212,6.30036842 85.1741272,6.19785511 C85.5738542,6.08944902 85.9852952,6.03394777 86.3985663,6.03268466 C87.2253782,6.03268466 87.8375977,6.22393466 88.2352248,6.60208807 C88.632852,6.98024148 88.8327174,7.5887642 88.8327174,8.42548295 L88.8327174,13.3132244 L88.0563978,13.3110511 Z M85.6832582,12.5460511 C86.2474206,12.579536 86.8013614,12.3801948 87.2232744,11.9918608 C87.6134686,11.5776212 87.8166306,11.0127122 87.7828977,10.4357813 L87.7828977,9.78379261 L86.7309741,9.82943182 C85.8894352,9.85985795 85.2877349,9.99387784 84.9258732,10.2314915 C84.5575805,10.4671794 84.3448842,10.8932474 84.3725614,11.3398722 C84.3499957,11.6769737 84.4769378,12.006404 84.7175923,12.2352699 C84.9921101,12.4568727 85.3354749,12.5673782 85.6832582,12.5460511 Z" id="Shape" stroke="#121212" stroke-width="0.5"></path>
                    <path d="M89.4428331,6.15004261 L90.5683914,6.15004261 L92.0873691,10.2336648 C92.337283,10.8917282 92.5446175,11.5662093 92.708004,12.2526562 L92.762704,12.2526562 C92.817404,12.0353267 92.9310118,11.6506534 93.1056311,11.1116761 C93.2802504,10.5726989 93.8546007,8.91882102 94.8244742,6.15004261 L95.9500325,6.15004261 L92.9730887,14.3042472 C92.6764463,15.1105398 92.3419346,15.6821165 91.9379959,16.0189773 C91.5284534,16.3619516 91.0133234,16.5416434 90.4863413,16.5253551 C90.1670284,16.5254965 89.8487253,16.488314 89.5375063,16.414517 L89.5375063,15.5451989 C89.7935461,15.5998201 90.0544993,15.6260482 90.3159297,15.6234375 C91.0382506,15.6234375 91.5529919,15.2054403 91.8601536,14.369446 L92.2451576,13.3501705 L89.4428331,6.15004261 Z" id="Shape" stroke="#121212" stroke-width="0.5"></path>
                    <path d="M57.2602827,6.81507102 C57.8953339,7.28101102 58.2774274,8.03167979 58.289064,8.8362358 C58.289064,9.94461648 57.6810521,10.470554 57.0709364,10.963892 C56.883694,11.1573153 56.6648939,11.368125 56.6648939,11.6984659 C56.6806612,11.9665805 56.8219943,12.2099114 57.0435864,12.3504545 L57.5653405,12.7699006 C58.1964947,13.3240909 58.7813642,13.832642 58.7813642,14.8671307 C58.7813642,16.2754261 57.462252,17.6924148 54.9691931,17.6924148 C52.8653459,17.6924148 51.8512916,16.6600994 51.8512916,15.5517187 C51.8512916,15.0127415 52.1121686,14.2477415 52.9684344,13.7239773 C53.8667772,13.1545739 55.0849047,13.0719886 55.7370973,13.0350426 C55.5267126,12.765554 55.301601,12.4808523 55.301601,12.015767 C55.3070077,11.8121254 55.3566168,11.6123376 55.4467664,11.4311506 C55.286874,11.4463636 55.1290855,11.4615767 54.98392,11.4615767 C53.4460077,11.4615767 52.5771188,10.279304 52.5771188,9.11007102 C52.5922743,8.33459071 52.9304082,7.60352497 53.5049155,7.10411932 C54.3317274,6.39997159 55.3163279,6.28044034 56.1010629,6.28044034 L59.0864221,6.28044034 L58.1586254,6.81941761 L57.2602827,6.81507102 Z M56.2315014,13.4653551 C56.1204912,13.452052 56.0087021,13.446968 55.8969897,13.450142 C55.3811261,13.4601112 54.8688649,13.541241 54.3738043,13.6913778 C54.0561234,13.8087358 53.1283268,14.1695028 53.1283268,15.2322443 C53.1283268,16.2949858 54.1276542,17.0599858 55.6802935,17.0599858 C57.0709364,17.0599858 57.8114907,16.3710511 57.8114907,15.443054 C57.8114907,14.6889205 57.3318135,14.273821 56.2315014,13.4653551 Z M56.6522709,10.6183381 C56.9050177,10.3185871 57.0341482,9.92854874 57.0120287,9.53169034 C57.0120287,8.44504261 56.3808746,6.7759517 55.1858894,6.7759517 C54.7943809,6.78173965 54.4245051,6.96247714 54.171835,7.27146307 C53.9449886,7.59192355 53.8320463,7.98338359 53.8520502,8.37984375 C53.8520502,9.38173295 54.4179851,11.044304 55.6655665,11.044304 C56.0345177,11.0350475 56.3866565,10.8830271 56.6522709,10.6183381 Z" id="Shape" stroke="#121212" stroke-width="0.5"></path>
                    <path d="M48.1316897,13.2262926 C47.204564,13.2587495 46.3045159,12.9003778 45.6383276,12.233512 C44.9721392,11.5666462 44.5970844,10.6486182 44.5993303,9.69034091 C44.5993303,7.734375 46.1477618,6.05659091 48.3504898,6.05659091 C49.2664613,6.03596025 50.1514099,6.39975183 50.803206,7.0648727 C51.4550021,7.72999357 51.8179736,8.63963329 51.8092146,9.58602273 C51.8092146,11.3550852 50.4922063,13.2262926 48.1316897,13.2262926 Z M49.9409983,12.0135938 C50.2580064,11.5242051 50.4109816,10.9409632 50.3764947,10.353196 C50.3764947,9.04921875 49.7684829,6.52602273 47.9739012,6.52602273 C47.4944888,6.53041751 47.0321886,6.71065822 46.6695159,7.03457386 C46.1056849,7.55833807 46.0047002,8.21684659 46.0047002,8.86014205 C46.0047002,10.3401563 46.7136967,12.7720739 48.4662014,12.7720739 C49.0456879,12.7719087 49.5915924,12.491153 49.9409983,12.0135938 Z" id="Shape" stroke="#121212" stroke-width="0.5"></path>
                    <path d="M40.2864436,13.2262926 C39.3593178,13.2587495 38.4592697,12.9003778 37.7930814,12.233512 C37.1268931,11.5666462 36.7518382,10.6486182 36.7540841,9.69034091 C36.7540841,7.734375 38.3025157,6.05659091 40.5031398,6.05659091 C41.4187739,6.03830279 42.302511,6.4040352 42.9526547,7.07031654 C43.6027984,7.73659789 43.9638655,8.64656778 43.9534492,9.59254261 C43.9534492,11.3550852 42.6448563,13.2262926 40.2864436,13.2262926 Z M42.0957522,12.0135937 C42.4111656,11.5235405 42.5633177,10.940621 42.5291447,10.353196 C42.5291447,9.04921875 41.9211328,6.52602273 40.1265512,6.52602273 C39.6476926,6.52998371 39.1859144,6.71031171 38.8242698,7.03457386 C38.2583349,7.55833807 38.1573502,8.21684659 38.1573502,8.86014205 C38.1573502,10.3401562 38.8663467,12.7720739 40.6188514,12.7720739 C41.1990779,12.7725902 41.7459001,12.4917631 42.0957522,12.0135937 Z" id="Shape" stroke="#121212" stroke-width="0.5"></path>
                    <path d="M35.6474605,12.9915767 L33.5667557,13.4870881 C32.7736363,13.6371702 31.9702651,13.722194 31.1641622,13.7413636 C27.1479179,13.7413636 25.6205248,10.69875 25.6205248,8.308125 C25.6205248,5.3915625 27.7874874,2.68580966 31.5007777,2.68580966 C32.2530554,2.68729497 33.0017226,2.79328761 33.726648,3.0009375 C34.4179337,3.18430544 35.0695758,3.50060616 35.6474605,3.93328125 L34.4398522,5.12207386 L33.9307212,5.24160511 L34.2946868,4.63960227 C33.7981788,4.14409091 32.8956284,3.22696023 31.1788891,3.22696023 C28.8793841,3.22696023 27.1479179,5.03296875 27.1479179,7.66265625 C27.1479179,10.4879403 29.1276381,13.1502273 32.2981358,13.1502273 C32.9338049,13.1666278 33.5651748,13.0382631 34.1474175,12.7742472 L34.1474175,10.3423295 L31.9615202,10.4662074 L33.1249477,9.81421875 L36.2112916,9.81421875 L35.8325991,10.1901989 C35.7526732,10.2440994 35.6996208,10.3314676 35.6874336,10.4292614 C35.6706028,10.566179 35.6579798,11.0008381 35.6579798,11.1507955 L35.6474605,12.9915767 Z" id="Shape" stroke="#121212" stroke-width="0.5"></path>
                    <path d="M61.8613965,12.5590909 C61.3796155,12.5134517 61.2786308,12.4243466 61.2786308,11.8353835 L61.2786308,3.32693182 C61.2786308,3.29433239 61.2786308,3.26173295 61.2786308,3.22913352 C61.3375385,2.70319602 61.4890155,2.61409091 61.9350311,2.34242898 L59.8522224,2.34242898 L58.7603257,2.88357955 L59.8732609,2.88357955 L59.8732609,12.1678977 C59.8732609,12.4678125 59.8143532,12.5134517 59.4798415,12.9633239 L62.0570543,12.9633239 L62.5956392,12.632983 C62.3558006,12.6025568 62.1075466,12.5873438 61.8613965,12.5590909 Z" id="Shape" stroke="#121212" stroke-width="0.5"></path>
                    <path d="M67.7816225,12.6960085 C67.6238339,12.7872869 67.4660454,12.8916051 67.306153,12.9654972 C66.8635365,13.1631273 66.3849831,13.2602187 65.9028869,13.2501989 C65.2168803,13.2810911 64.5404089,13.0754263 63.9799706,12.6655824 C62.955397,11.920142 62.5072776,10.6357244 62.5072776,9.51647727 C62.5072776,7.20191761 64.3292092,6.06745739 65.8166292,6.06745739 C66.3410445,6.06071674 66.8568836,6.20522306 67.306153,6.48473011 C67.8114002,6.82832933 68.17273,7.35601112 68.3181035,7.96257102 L64.9224942,9.38173295 L63.8074551,9.47083807 C64.1693169,11.368125 65.4126905,12.4721591 66.7865028,12.4721591 C67.406888,12.4515648 68.0126445,12.2723516 68.5495267,11.9505682 L67.7816225,12.6960085 Z M66.424641,8.24727273 C66.6981412,8.14295455 66.8454105,8.05167614 66.8454105,7.84303977 C66.8454105,7.24755682 66.1953217,6.55862216 65.4147944,6.55862216 C64.8362364,6.55862216 63.7527551,7.02370739 63.7527551,8.63411932 C63.7527551,8.88839489 63.7801051,9.15788352 63.7969359,9.42737216 L66.424641,8.24727273 Z" id="Shape" stroke="#121212" stroke-width="0.5"></path>
                    <polygon id="Shape" stroke="#121212" stroke-width="0.5" points="69.178577 6.16960227 69.178577 7.15410511 69.0628654 7.15410511 69.0628654 6.16960227 68.7472883 6.16960227 68.7472883 6.06745739 69.4941541 6.06745739 69.4941541 6.16960227"></polygon>
                    <polygon id="Shape" stroke="#121212" stroke-width="0.5" points="70.4787546 7.15410511 70.4787546 6.16090909 70.4787546 6.16090909 70.184216 7.15410511 70.0937505 7.15410511 69.7992119 6.16090909 69.7992119 6.16090909 69.7992119 7.15410511 69.6940196 7.15410511 69.6940196 6.06745739 69.8749504 6.06745739 70.142139 6.93677557 70.142139 6.93677557 70.4051199 6.06745739 70.5881546 6.06745739 70.5881546 7.15410511"></polygon>
                </g>
            </g>
        </g>
    </g>
</svg>