<?xml version="1.0" encoding="UTF-8"?>
<svg width="108px" height="114px" viewBox="0 0 108 114" version="1.1" xmlns="http://www.w3.org/2000/svg" xmlns:xlink="http://www.w3.org/1999/xlink">
    <!-- Generator: sketchtool 54 (76480) - https://sketchapp.com -->
    <title>F782549F-2221-4627-8BC0-43C4537F61FB</title>
    <desc>Created with sketchtool.</desc>
    <g id="adax" stroke="none" stroke-width="1" fill="none" fill-rule="evenodd">
        <g id="landing" transform="translate(-596.000000, -1870.000000)">
            <g id="Group-24" transform="translate(597.000000, 1865.000000)">
                <g id="adax360" transform="translate(0.000000, 5.000000)">
                    <g id="Group-8" transform="translate(18.000000, 0.000000)">
                        <path d="M45.7195168,0.507053451 C45.3946859,0.18516969 44.9482605,1.77635684e-14 44.4914128,1.77635684e-14 C44.034565,1.77635684e-14 43.5864026,0.184996634 43.2633087,0.507053451 C42.9384778,0.828937211 42.7543491,1.27542114 42.7543491,1.73055785 C42.7543491,2.18569457 42.9384778,2.63217849 43.2633087,2.9538892 C43.5864026,3.27594601 44.034565,3.4611157 44.4914128,3.4611157 C44.9482605,3.4611157 45.3946859,3.27594601 45.7195168,2.9538892 C46.0424369,2.63217849 46.2284765,2.18569457 46.2284765,1.73055785 C46.2284765,1.27542114 46.0426107,0.828937211 45.7195168,0.507053451 Z" id="Path" fill="#000000" fill-rule="nonzero"></path>
                        <rect id="Rectangle" fill="#FFB600" x="15.1194025" y="78.8580602" width="57.8094802" height="7.97441058"></rect>
                        <rect id="Rectangle" fill="#FFB600" x="28.4600518" y="3.54418248" width="32.0175583" height="7.97441058"></rect>
                        <path d="M69.3713763,25.695323 C69.3713763,59.3650565 69.3713763,76.1999233 69.3713763,76.1999233 C69.3713763,76.1999233 70.5572117,76.7906204 72.9288827,77.9720146 L74.707636,86.8324708 L87.1589086,86.8324708 L87.1589086,42.5301898 L69.3713763,25.695323 Z" id="Path-3" fill="#FFB600"></path>
                        <path d="M88.4292233,41.3483918 L70.5247866,23.502187 L70.5247866,12.8061281 C70.5247866,10.8976689 68.966293,9.3450124 67.0506591,9.3450124 L63.5765317,9.3450124 L63.5765317,1.73055785 C63.5765317,0.774943806 62.7986746,-7.81597009e-14 61.839468,-7.81597009e-14 L51.0118288,-7.81597009e-14 C50.0526222,-7.81597009e-14 49.2747651,0.774943806 49.2747651,1.73055785 C49.2747651,2.6861719 50.0526222,3.4611157 51.0118288,3.4611157 L60.1024043,3.4611157 L60.1024043,9.3450124 L28.8352576,9.3450124 L28.8352576,3.4611157 L37.9836773,3.4611157 C38.9428839,3.4611157 39.720741,2.6861719 39.720741,1.73055785 C39.720741,0.774943806 38.9428839,-7.81597009e-14 37.9836773,-7.81597009e-14 L27.0981938,-7.81597009e-14 C26.1389873,-7.81597009e-14 25.3611301,0.774943806 25.3611301,1.73055785 L25.3611301,9.3450124 L21.8870027,9.3450124 C19.9713689,9.3450124 18.4128753,10.8976689 18.4128753,12.8061281 L18.4128753,75.7984339 L14.5913351,75.7984339 C13.6321286,75.7984339 12.8542714,76.5733777 12.8542714,77.5289918 L12.8542714,85.1434463 L3.47412742,85.1434463 L3.47412742,46.0328389 L14.5913351,46.0328389 C15.5505417,46.0328389 16.3283989,45.257895 16.3283989,44.302281 C16.3283989,43.346667 15.5505417,42.5717232 14.5913351,42.5717232 L1.73706371,42.5717232 C0.777857129,42.5717232 8.31335001e-13,43.346667 8.31335001e-13,44.302281 L8.31335001e-13,86.8740042 C8.31335001e-13,87.8296182 0.777857129,88.604562 1.73706371,88.604562 L87.2005982,88.604562 C88.1598047,88.604562 88.9376619,87.8296182 88.9376619,86.8740042 L88.9376619,42.5717232 C88.9376619,42.1129523 88.7547491,41.6728714 88.4292233,41.3483918 Z M54.3122498,12.8061281 L67.0506591,12.8061281 L67.0506591,25.9583678 L54.3122498,25.9583678 L54.3122498,12.8061281 L54.3122498,12.8061281 Z M54.3122498,29.4194835 L67.0506591,29.4194835 L67.0506591,42.5717232 L54.3122498,42.5717232 L54.3122498,29.4194835 L54.3122498,29.4194835 Z M54.3122498,46.0328389 L67.0506591,46.0328389 L67.0506591,59.1850785 L54.3122498,59.1850785 L54.3122498,46.0328389 L54.3122498,46.0328389 Z M54.3122498,62.6461942 L67.0506591,62.6461942 L67.0506591,75.7984339 L54.3122498,75.7984339 L54.3122498,62.6461942 L54.3122498,62.6461942 Z M38.0995394,12.8061281 L50.8381224,12.8061281 L50.8381224,25.9583678 L38.0995394,25.9583678 L38.0995394,12.8061281 L38.0995394,12.8061281 Z M38.0995394,29.4194835 L50.8381224,29.4194835 L50.8381224,42.5717232 L38.0995394,42.5717232 L38.0995394,29.4194835 L38.0995394,29.4194835 Z M38.0995394,46.0328389 L50.8381224,46.0328389 L50.8381224,59.1850785 L38.0995394,59.1850785 L38.0995394,46.0328389 L38.0995394,46.0328389 Z M38.0995394,62.6461942 L50.8381224,62.6461942 L50.8381224,75.7984339 L38.0995394,75.7984339 L38.0995394,62.6461942 L38.0995394,62.6461942 Z M21.8870027,12.8061281 L34.625412,12.8061281 L34.625412,25.9583678 L21.8870027,25.9583678 L21.8870027,12.8061281 Z M21.8870027,29.4194835 L34.625412,29.4194835 L34.625412,42.5717232 L21.8870027,42.5717232 L21.8870027,29.4194835 Z M21.8870027,46.0328389 L34.625412,46.0328389 L34.625412,59.1850785 L21.8870027,59.1850785 L21.8870027,46.0328389 Z M21.8870027,62.6461942 L34.625412,62.6461942 L34.625412,75.7984339 L21.8870027,75.7984339 L21.8870027,62.6461942 Z M72.609263,85.1434463 L16.3283989,85.1434463 L16.3283989,79.2595496 L68.7877228,79.2595496 L72.609263,79.2595496 L72.609263,85.1434463 Z M85.4635344,85.1434463 L76.0833904,85.1434463 L76.0833904,77.5289918 C76.0833904,76.5733777 75.3055333,75.7984339 74.3463267,75.7984339 L70.5247866,75.7984339 L70.5247866,70.9308938 L76.05525,70.9308938 C77.0144566,70.9308938 77.7923137,70.15595 77.7923137,69.200336 C77.7923137,68.2447219 77.0144566,67.4697781 76.05525,67.4697781 L70.5247866,67.4697781 L70.5247866,62.6314845 L76.05525,62.6314845 C77.0144566,62.6314845 77.7923137,61.8565407 77.7923137,60.9009266 C77.7923137,59.9453126 77.0144566,59.1703688 76.05525,59.1703688 L70.5247866,59.1703688 L70.5247866,54.3322482 L76.05525,54.3322482 C77.0144566,54.3322482 77.7923137,53.5573044 77.7923137,52.6016903 C77.7923137,51.6460763 77.0144566,50.8711325 76.05525,50.8711325 L70.5247866,50.8711325 L70.5247866,46.0328389 L76.05525,46.0328389 C77.0144566,46.0328389 77.7923137,45.257895 77.7923137,44.302281 C77.7923137,43.346667 77.0144566,42.5717232 76.05525,42.5717232 L70.5247866,42.5717232 L70.5247866,28.3982813 L85.4635344,43.2883472 L85.4635344,85.1434463 Z" id="Shape" fill="#000000" fill-rule="nonzero"></path>
                        <path d="M12.1714317,69.3261475 C11.8485116,69.0023602 11.4003491,68.8190941 10.9435014,68.8190941 C10.4866536,68.8190941 10.0384912,69.0025332 9.71539732,69.3261475 C9.39230347,69.6480313 9.20643765,70.0945152 9.20643765,70.5496519 C9.20643765,71.0047887 9.39212976,71.4512726 9.71539732,71.7731563 C10.0384912,72.094867 10.4866536,72.2802098 10.9435014,72.2802098 C11.4003491,72.2802098 11.8485116,72.0950401 12.1714317,71.7731563 C12.4945255,71.4512726 12.6805651,71.0047887 12.6805651,70.5496519 C12.6805651,70.0945152 12.4946993,69.6480313 12.1714317,69.3261475 Z" id="Path" fill="#000000" fill-rule="nonzero"></path>
                        <path d="M10.9435014,49.9653585 C9.98429478,49.9653585 9.20643765,50.7403023 9.20643765,51.6959164 L9.20643765,64.0306405 C9.20643765,64.9862546 9.98429478,65.7611984 10.9435014,65.7611984 C11.9027079,65.7611984 12.6805651,64.9862546 12.6805651,64.0306405 L12.6805651,51.6959164 C12.6805651,50.7403023 11.9027079,49.9653585 10.9435014,49.9653585 Z" id="Path" fill="#000000" fill-rule="nonzero"></path>
                    </g>
                    <g id="Group-9" transform="translate(-0.028212, 38.257170)">
                        <path d="M1.92998205,62.4027528 L16.7265111,66.2627169 L30.2363854,67.5493716 L48.8928785,66.2627169 L59.8294434,61.1160981 C58.1139038,54.6828247 57.2561341,51.4661879 57.2561341,51.4661879 C57.2561341,51.4661879 49.5362059,45.0329144 49.5362059,45.0329144 C49.5362059,45.0329144 46.748454,43.3173748 41.1729503,39.8862956 L29.593058,39.8862956 L18.0131658,42.459605 C16.2976262,44.1751446 15.0109715,45.0329144 14.1532017,45.0329144 C13.2954319,45.0329144 10.7221225,47.1773389 6.43327349,51.4661879 L1.92998205,62.4027528 Z" id="white" fill="#FFFFFF"></path>
                        <path d="M47.6062238,19.2998205 C49.7380231,19.2998205 51.4661879,21.0279853 51.4661879,23.1597846 C51.4661879,25.2915839 49.7380231,27.0197487 47.6062238,27.0197487 C47.5349177,27.0197487 47.4640632,27.0178151 47.3937098,27.0139977 C46.170984,34.3191414 39.818815,39.8862956 32.1663674,39.8862956 L29.593058,39.8862956 C21.0658608,39.8862956 14.1532017,32.9736365 14.1532017,24.4464393 L14.1532017,18.0131658 C14.1532017,9.48596855 21.0658608,2.5733094 29.593058,2.5733094 L32.1663674,2.5733094 C40.6935647,2.5733094 47.6062238,9.48596855 47.6062238,18.0131658 L47.6062238,19.2998205 Z" id="white" fill="#FFFFFF"></path>
                        <ellipse id="Oval" fill="#FFB600" cx="60.8778562" cy="59.2529553" rx="13.8844233" ry="13.8375165"></ellipse>
                        <path d="M27.056825,65.9943095 L25.6327815,61.0269958 L28.4808684,47.5442875 L26.3448032,41.1577414 L27.056825,40.4481251 C32.2783175,39.9750477 34.8890638,39.9750477 34.8890638,40.4481251 C34.8890638,40.9212026 34.6517232,42.5769738 34.1770421,45.4154388 C34.6517232,50.6192911 34.8890638,53.2212173 34.8890638,53.2212173 C34.8890638,53.2212173 35.6010855,56.5327597 37.0251289,63.1558445 L33.4650203,68.1231581 L27.056825,65.9943095 Z" id="Path-4" fill="#FFB600"></path>
                        <path d="M67.7876485,45.0870289 C65.6538696,44.0836062 63.3688473,43.5748664 60.9958125,43.5748664 C58.2855964,43.5748664 55.7320307,44.2539338 53.4967219,45.4489191 C50.0424543,42.4960748 45.6302616,40.2916851 40.7060641,39.0334438 C40.8260676,38.9574768 40.946822,38.8827061 41.0653235,38.8038978 C45.0197308,36.1779509 47.6483926,32.3695803 48.4257868,28.2872498 C50.0017523,27.8667394 51.3745079,26.7892937 52.2357092,25.2445311 C53.3674066,23.2145067 53.4024013,20.7947774 52.3268758,18.9296972 C52.0571309,18.4619317 51.5566909,18.1734664 51.0152484,18.1734664 C51.0146476,18.1734664 51.0141971,18.1734664 51.0135963,18.1734664 L48.7568101,18.1760086 C48.8939355,13.0033718 47.4238554,8.60655577 44.4632691,5.38692958 C41.3153933,1.96347848 36.5083457,-2.27373675e-13 31.2749027,-2.27373675e-13 C26.7263355,-2.27373675e-13 22.2229762,1.49302126 18.9196516,4.09638737 C15.1834735,7.04070784 13.1259922,11.2636072 13.1259922,15.9867226 L13.1259922,18.1778031 L10.9441518,18.1778031 C10.4028596,18.1778031 9.90271995,18.4658198 9.63282479,18.9331366 C8.53011454,20.8429298 8.55189239,23.3000444 9.68974759,25.3454715 C10.5164048,26.8316139 11.8386959,27.8721229 13.3620941,28.2871003 C13.9846403,31.6051247 15.8271967,34.7136416 18.7057781,37.2277315 C19.467252,37.8928916 20.281293,38.4947957 21.1340836,39.0295557 C18.3317998,39.7125113 15.742939,40.665389 13.4021954,41.8822074 C12.6615983,42.2672764 12.3747314,43.1769367 12.7613258,43.9141758 C13.031221,44.4288973 13.5580948,44.7236434 14.1034422,44.7236434 C14.3392438,44.7236434 14.57865,44.6684626 14.8021358,44.5522689 C17.7805949,43.0039173 21.2216456,41.9197422 25.0426823,41.3202308 L26.9529754,46.5025878 L23.9210479,62.2021909 C23.8696822,62.4679259 23.8913098,62.7424839 23.9833776,62.9971529 L25.0902932,66.0558725 C20.5568955,65.8059889 16.1046015,65.2437132 11.8567189,64.3863924 L11.8567189,58.4548331 C11.8567189,57.6230839 11.1795028,56.9489513 10.3441345,56.9489513 C9.50876613,56.9489513 8.83155004,57.6232334 8.83155004,58.4548331 L8.83155004,63.718391 C6.85982843,63.2438962 4.94052384,62.7047995 3.08805474,62.1021477 C3.38949024,58.2423348 4.51593084,54.8072195 6.44259483,51.8771054 C6.9000799,51.1811398 6.70452982,50.2477024 6.00568607,49.7921993 C5.30699252,49.3368458 4.36949356,49.5313991 3.9117081,50.2272152 C1.49466697,53.9027931 0.178984353,58.2369513 0.00100673946,63.1094585 C-0.0231741853,63.7716278 0.390304609,64.3717374 1.01930904,64.5878247 C8.87390421,67.2858505 17.9376958,68.8693443 27.2303801,69.1670812 C27.2323326,69.1670812 27.2342851,69.1670812 27.2362376,69.1670812 C28.3527656,69.2016253 29.4831111,69.2191216 30.5961846,69.2191216 L30.9596495,69.2185235 L31.3334776,69.2191216 C32.4465511,69.2191216 33.5770468,69.2016253 34.693725,69.1670812 C34.6955273,69.1670812 34.6971794,69.1670812 34.6991319,69.1670812 C39.0814364,69.0269609 43.4111736,68.6003193 47.5896675,67.9051014 C49.0188953,70.1356608 51.0123948,72.0133025 53.4402497,73.3183503 C55.7467495,74.562086 58.3594909,75.2193205 60.9959627,75.2193205 C69.7646268,75.2193205 76.8983,68.1205905 76.8983,59.3951494 C76.8983,53.3053752 73.3222266,47.6890492 67.7876485,45.0870289 Z M32.3561354,44.8707921 L29.5738272,44.8707921 L28.424257,41.7518073 C29.243705,41.8747303 30.0670579,41.9405285 30.8871067,41.9456129 C30.9213505,41.9457624 30.9552939,41.945912 30.9893875,41.945912 C31.8241551,41.945912 32.6661319,41.8793661 33.5063064,41.7516577 L32.3561354,44.8707921 Z M49.5906765,23.7826144 C49.4436385,24.0464055 49.1435547,24.4992168 48.667596,24.8700795 L48.667596,21.1880713 L49.9985982,21.1865759 C50.1896425,22.0074086 50.0507149,22.957445 49.5906765,23.7826144 Z M16.1510108,15.9867226 C16.1510108,7.55931739 23.9431261,3.01206273 31.2749027,3.01206273 C35.6620133,3.01206273 39.6557709,4.61903453 42.2321658,7.42084206 C44.6642261,10.0656311 45.8621582,13.7645375 45.7304397,18.1778031 L34.2590691,18.1778031 C28.9804183,18.1778031 24.8526893,16.6147964 21.63948,13.3996565 C21.3497595,13.1098453 20.9618133,12.9559672 20.5668082,12.9559672 C20.3700565,12.9559672 20.1715026,12.9942498 19.9827112,13.0730581 C19.4151353,13.3097821 19.048216,13.8653284 19.0546743,14.4779995 C19.067741,15.7063325 18.7730642,16.6321432 18.1790545,17.2300097 C17.6114786,17.8011083 16.8062989,18.0430663 16.1510108,18.1425113 L16.1510108,15.9867226 Z M12.336132,23.8862466 C11.8645289,23.038646 11.7343124,22.0489811 11.9516403,21.1898658 L13.125842,21.1898658 L13.125842,24.8454051 C12.7218253,24.5095352 12.4655976,24.1190826 12.336132,23.8862466 Z M16.1510108,25.7652342 L16.1510108,21.1767061 C17.3837874,21.0561758 19.0506191,20.6355158 20.3295047,19.3484131 C20.8885196,18.7859879 21.3149149,18.1209773 21.6067381,17.3584658 C25.0482394,19.9322227 29.2142673,21.1897162 34.2590691,21.1897162 L45.6425773,21.1897162 L45.6425773,25.7650847 C45.6425773,26.1293675 45.6226018,26.4932017 45.5843028,26.8555405 C45.5835519,26.8649616 45.5823503,26.8740837 45.5817496,26.8835048 C45.1911,30.484312 42.9374678,33.940064 39.3864765,36.2981822 C36.8260019,37.9993651 33.847693,38.9336997 30.9898381,38.9336997 C30.9620526,38.9336997 30.9339666,38.9335502 30.9061811,38.9334006 C29.4476658,38.9242786 28.0136318,38.6927885 26.6470341,38.2773625 C26.6255566,38.2679414 26.603929,38.2594176 26.5821511,38.2511928 C26.5820009,38.2510433 26.5817006,38.2510433 26.5815504,38.2508937 C26.539797,38.2348928 26.4974428,38.2209854 26.4541875,38.208723 C26.44833,38.2070781 26.4427729,38.2052836 26.4370656,38.2036386 C26.4053751,38.1949652 26.3733841,38.1879368 26.3410928,38.181357 C20.6181739,36.3134354 16.1510108,31.2194574 16.1510108,25.7652342 Z M30.9596495,66.2066103 L30.5961846,66.2072084 C29.852884,66.2072084 29.1013229,66.1991332 28.3518644,66.1832818 L26.9702475,62.365191 L29.7671244,47.8828548 L32.162688,47.8828548 L34.9595649,62.365191 L33.577948,66.1832818 C32.8283393,66.1992827 32.0769284,66.2072084 31.3336278,66.2072084 L30.9596495,66.2066103 Z M36.839369,66.0561716 L37.9464348,62.9971529 C38.0385026,62.7426334 38.0601302,62.4679259 38.0087645,62.2021909 L34.9766868,46.5030364 L36.8901339,41.3139501 C42.2863851,42.1875709 47.1559127,44.2413724 50.8782732,47.2010956 C47.3498107,50.1051894 45.0978307,54.4933321 45.0978307,59.3951494 C45.0978307,61.3758251 45.4686549,63.2996751 46.1595385,65.0857975 C43.1187496,65.5586474 39.9985092,65.8830027 36.839369,66.0561716 Z M60.9958125,72.2074073 C58.8609822,72.2074073 56.7462778,71.6756381 54.8789396,70.6687759 C52.656998,69.4743888 50.8839805,67.6885655 49.7127827,65.5671713 C49.706775,65.555507 49.7006171,65.5441419 49.6944593,65.5326272 C48.6808129,63.6836974 48.1228493,61.5820427 48.1228493,59.3951494 C48.1228493,52.3326085 53.8977348,46.5869291 60.9958125,46.5869291 C62.9185715,46.5869291 64.7689379,46.9986166 66.4958464,47.8107759 C70.9774279,49.9176645 73.8732813,54.4650687 73.8732813,59.3952989 C73.8732813,66.4597838 68.0964434,72.2074073 60.9958125,72.2074073 Z" id="Shape" fill="#000000" fill-rule="nonzero"></path>
                        <path d="M8.97498348,48.2006303 C9.26260131,48.2006303 9.55352337,48.1189807 9.81095259,47.9485035 L9.83648525,47.9316053 C10.532175,47.4711674 10.7212668,46.5363841 10.2588254,45.8437084 C9.79638396,45.1510327 8.85768347,44.96276 8.16184356,45.4233475 L8.13631091,45.4402457 C7.4406212,45.9005341 7.25152937,46.8354669 7.71397078,47.5281426 C8.00519322,47.9643549 8.4853573,48.2006303 8.97498348,48.2006303 Z" id="Path" fill="#000000" fill-rule="nonzero"></path>
                        <path d="M66.0903278,61.8301319 C66.0903278,63.0835878 65.7286653,64.0873097 65.0008345,64.8411478 C64.2773592,65.594986 63.3961823,66.0947533 62.3621098,66.3359636 L62.3621098,67.7548123 L62.3621098,67.8774362 C62.3621098,68.6608836 61.6939052,69.296285 60.9108037,69.296285 C60.1277022,69.296285 59.4850303,68.6608836 59.4850303,67.8774362 L59.4850303,66.348525 C58.8423584,66.2004791 58.2591626,65.9633064 57.7399486,65.6370071 C57.2079682,65.2981463 56.8377447,65.0019048 56.6249226,64.7434973 L56.3143253,64.3367447 C54.9948879,62.6216545 57.1654639,60.7921651 58.4294804,62.1135128 C58.5826763,62.2700826 58.7444332,62.4650846 58.9317227,62.6683114 C59.4594977,63.2528687 60.2341884,63.3457339 60.8639438,63.3457339 C62.055718,63.3457339 62.6557353,62.8588271 62.6557353,61.8764897 C62.6557353,61.5249179 62.4259414,61.2537993 61.9747644,61.0590965 C61.5235874,60.8685807 60.9744852,60.6949632 60.3319635,60.5422814 C59.6847858,60.3898987 59.0379085,60.1824848 58.3953868,59.9282644 C57.7485095,59.6700065 57.1995575,59.2294575 56.7483805,58.60258 C56.2972035,57.975852 56.0716149,57.1796936 56.0716149,56.218292 C56.0716149,55.2527033 56.3822122,54.3931393 56.9909407,53.6180663 C57.5911082,52.8515171 58.4592184,52.330814 59.510563,52.1274377 L59.510563,51.8014375 L59.510563,50.1835491 C59.510563,49.4044385 60.1532349,48.7648499 60.9363364,48.7648499 C61.7237935,48.7648499 62.3621098,49.4044385 62.3621098,50.1835491 L62.3621098,50.7806679 L62.3621098,52.148523 C62.8132868,52.246024 63.2261648,52.3815085 63.5963883,52.5593132 C63.9709674,52.7329308 64.2262939,52.8769392 64.3710791,52.9913383 L64.592312,53.1818541 C66.465057,54.5794679 64.6561436,57.0569202 63.0388753,55.7016265 C61.9450264,54.7868818 59.4594977,54.5836551 59.4594977,56.2649489 C59.4594977,56.6208575 59.6254599,56.9045375 59.953179,57.1206248 C60.2852537,57.336413 60.6937762,57.4849076 61.1790468,57.556837 C61.6599618,57.628916 62.1920924,57.7473528 62.775138,57.9167832 C63.3539783,58.0862136 63.890164,58.2809165 64.3712293,58.5055276 C64.8563497,58.7299893 65.2648721,59.128218 65.5969468,59.6999147 C65.9243655,60.2674243 66.0903278,60.9790918 66.0903278,61.8301319 L66.0903278,61.8301319 Z" id="Path" fill="#000000" fill-rule="nonzero"></path>
                    </g>
                </g>
            </g>
        </g>
    </g>
</svg>