<?xml version="1.0" encoding="UTF-8"?>
<svg width="170px" height="95px" viewBox="0 0 170 95" version="1.1" xmlns="http://www.w3.org/2000/svg" xmlns:xlink="http://www.w3.org/1999/xlink">
    <!-- Generator: sketchtool 54 (76480) - https://sketchapp.com -->
    <title>9EEC5375-204D-4430-9BFF-ACC7407F1FF6</title>
    <desc>Created with sketchtool.</desc>
    <g id="adax" stroke="none" stroke-width="1" fill="none" fill-rule="evenodd">
        <g id="landing" transform="translate(-566.000000, -2141.000000)">
            <g id="Group-22" transform="translate(567.000000, 2112.000000)">
                <g id="Group-4" transform="translate(0.000000, 23.000000)">
                    <path d="M68.2374963,21.7658112 C60.6875222,14.1981495 50.6493606,10.0303089 39.9720933,10.0303089 C29.2948259,10.0303089 19.2566644,14.1981495 11.7065341,21.7658112 C5.13762565,28.3504015 1.04238302,37.0739272 0.17483553,46.3294477 C-0.681001006,55.4631994 1.62449552,64.6756782 6.66723242,72.2694779 C7.1451955,72.9892909 8.11486251,73.1838391 8.83219749,72.705216 C9.55015706,72.2262797 9.74471505,71.254634 9.26675197,70.5349776 C-0.411649059,55.9598218 1.54314342,36.3802522 13.9149078,23.9794043 C28.2828433,9.57735421 51.6613432,9.57735421 66.0292788,23.9794043 C72.9894892,30.9559084 76.8225626,40.2317758 76.8225626,50.0981748 C76.8225626,59.9645737 72.9894892,69.2404412 66.0292788,76.2169453 C53.155661,89.1211458 33.1249325,90.73466 18.4014524,80.0532869 C17.702855,79.5466475 16.7264737,79.7031626 16.2210289,80.4035677 C15.715428,81.1038163 15.8718863,82.0823487 16.5703276,82.5891446 C23.3731429,87.5242222 31.5868939,90.1658841 39.9806813,90.1655711 C40.9798599,90.1655711 41.9829422,90.1280075 42.9852437,90.0525672 C52.5079671,89.3352585 61.4760598,85.2076422 68.2374963,78.4303818 C75.7874704,70.8625637 79.9453276,60.8006774 79.9453276,50.0980183 C79.9453276,39.3953591 75.7874704,29.3337859 68.2374963,21.7658112 Z" id="Path" stroke="#000000" stroke-width="0.998579917" fill="#000000" fill-rule="nonzero"></path>
                    <path d="M54.9627393,42.793928 C54.9627393,36.4677442 49.965597,31.2906942 43.7202232,31.0166362 L43.7202232,27.5600002 C43.7202232,26.6955673 43.0210012,25.9948492 42.1587626,25.9948492 C41.2965241,25.9948492 40.5973021,26.6955673 40.5973021,27.5600002 L40.5973021,31.0033324 L35.5993791,31.0033324 L35.5993791,27.5600002 C35.5993791,26.6955673 34.9001571,25.9948492 34.0379185,25.9948492 C33.17568,25.9948492 32.476458,26.6955673 32.476458,27.5600002 L32.476458,31.0033324 L26.5429078,31.0033324 C25.6806693,31.0033324 24.9814473,31.7040506 24.9814473,32.5684835 L24.9814473,38.8290875 C24.9814473,39.6935204 25.6806693,40.3942385 26.5429078,40.3942385 L28.7302018,40.3942385 L28.7302018,59.802111 L26.5429078,59.802111 C25.6806693,59.802111 24.9814473,60.5028291 24.9814473,61.367262 L24.9814473,67.6278661 C24.9814473,68.492299 25.6806693,69.1930171 26.5429078,69.1930171 L32.476458,69.1930171 L32.476458,72.6363493 C32.476458,73.5007822 33.17568,74.2015003 34.0379185,74.2015003 C34.9001571,74.2015003 35.5993791,73.5007822 35.5993791,72.6363493 L35.5993791,69.1930171 L40.5973021,69.1930171 L40.5973021,72.6363493 C40.5973021,73.5007822 41.2965241,74.2015003 42.1587626,74.2015003 C43.0210012,74.2015003 43.7202232,73.5007822 43.7202232,72.6363493 L43.7202232,69.1797133 C49.965597,68.9054989 54.9627393,63.7286054 54.9627393,57.4021085 C54.9627393,54.7163093 54.071926,52.1719999 52.4284888,50.0980183 C54.071926,48.0241932 54.9627393,45.4798837 54.9627393,42.793928 Z M43.1996323,66.0627151 L28.1043684,66.0627151 L28.1043684,62.9324131 L30.2916623,62.9324131 C31.1539009,62.9324131 31.8531229,62.2316949 31.8531229,61.367262 L31.8531229,38.8290875 C31.8531229,37.9646546 31.1539009,37.2639365 30.2916623,37.2639365 L28.1043684,37.2639365 L28.1043684,34.1336345 L43.1996323,34.1336345 C47.9639607,34.1336345 51.8398182,38.0188088 51.8398182,42.7940846 C51.8398182,45.1364896 50.9155897,47.333179 49.2373318,48.9795613 C48.937063,49.2739662 48.7679568,49.6773057 48.7679568,50.0981748 C48.7679568,50.5190439 48.937063,50.9223833 49.2373318,51.2167882 C50.9155897,52.8631705 51.8398182,55.05986 51.8398182,57.402265 C51.8398182,62.1776972 47.9639607,66.0627151 43.1996323,66.0627151 Z" id="Shape" fill="#000000" fill-rule="nonzero"></path>
                    <path d="M42.9296557,36.8465107 L36.0689103,36.8465107 C35.2066718,36.8465107 34.5074497,37.5472288 34.5074497,38.4116617 L34.5074497,47.1765074 C34.5074497,48.0409403 35.2066718,48.7416584 36.0689103,48.7416584 L42.9296557,48.7416584 C46.2013841,48.7416584 48.8632059,46.0735455 48.8632059,42.7940846 C48.8632059,39.5146236 46.2013841,36.8465107 42.9296557,36.8465107 Z M42.9296557,45.6113564 L37.6303709,45.6113564 L37.6303709,39.9768127 L42.9296557,39.9768127 C44.4794053,39.9768127 45.7402848,41.2406722 45.7402848,42.7940846 C45.7402848,44.3474969 44.4794053,45.6113564 42.9296557,45.6113564 Z" id="Shape" fill="#000000" fill-rule="nonzero"></path>
                    <path d="M42.9296557,51.4546912 L36.0689103,51.4546912 C35.2066718,51.4546912 34.5074497,52.1554093 34.5074497,53.0198422 L34.5074497,61.7846878 C34.5074497,62.6491207 35.2066718,63.3498388 36.0689103,63.3498388 L42.9296557,63.3498388 C46.2013841,63.3498388 48.8632059,60.6817259 48.8632059,57.402265 C48.8632059,54.1228041 46.2013841,51.4546912 42.9296557,51.4546912 Z M42.9296557,60.2195368 L37.6303709,60.2195368 L37.6303709,54.5849932 L42.9296557,54.5849932 C44.4794053,54.5849932 45.7402848,55.8488526 45.7402848,57.402265 C45.7402848,58.9556774 44.4794053,60.2195368 42.9296557,60.2195368 Z" id="Shape" fill="#000000" fill-rule="nonzero"></path>
                    <path d="M12.9752208,76.0302228 L12.9201013,75.9748164 C12.3126931,75.3609642 11.3239763,75.3570513 10.7117276,75.965582 C10.0994789,76.5742693 10.0954191,77.5653229 10.702515,78.1790186 L10.7576345,78.2344249 C11.0630562,78.5429162 11.4646639,78.6973966 11.8664277,78.6973966 C12.2639755,78.6973966 12.6615234,78.546203 12.9660082,78.2436593 C13.5782569,77.6349721 13.5823167,76.6439185 12.9752208,76.0302228 Z" id="Path" fill="#000000" fill-rule="nonzero"></path>
                    <path d="M156.180409,21.7662807 C148.630435,14.1986191 138.592273,10.0307785 127.915006,10.0307785 C117.237738,10.0307785 107.199577,14.1986191 99.6494466,21.7662807 C93.0805381,28.350871 88.9852955,37.0743967 88.117748,46.3299172 C87.2619114,55.4636689 89.567408,64.6761478 94.6101449,72.2699475 C95.088108,72.9897604 96.057775,73.1843087 96.7751099,72.7056855 C97.4930695,72.2267493 97.6876275,71.2551035 97.2096644,70.5354471 C87.5312634,55.9602914 89.4860559,36.3807218 101.85782,23.9798738 C116.225756,9.57782376 139.604256,9.57782376 153.972191,23.9798738 C160.932402,30.9563779 164.765475,40.2322454 164.765475,50.0986443 C164.765475,59.9650433 160.932402,69.2409107 153.972191,76.2174148 C141.098573,89.1216154 121.067845,90.7351295 106.344365,80.0537565 C105.645767,79.5471171 104.669386,79.7036322 104.163941,80.4040373 C103.65834,81.1042858 103.814799,82.0828182 104.51324,82.5896141 C111.316055,87.5246918 119.529806,90.1663537 127.923594,90.1660406 C128.922772,90.1660406 129.925855,90.128477 130.928156,90.0530367 C140.45088,89.335728 149.418972,85.2081118 156.180409,78.4308514 C163.730383,70.8630332 167.88824,60.8011469 167.88824,50.0984878 C167.88824,39.3958287 163.730383,29.3342554 156.180409,21.7662807 Z" id="Path" stroke="#000000" stroke-width="0.998579917" fill="#000000" fill-rule="nonzero" transform="translate(127.915576, 50.098410) rotate(180.000000) translate(-127.915576, -50.098410) "></path>
                    <path d="M156.18639,22.0173833 L156.131271,21.961977 C155.523863,21.3481248 154.535146,21.3442119 153.922897,21.9527426 C153.310648,22.5614298 153.306589,23.5524835 153.913685,24.1661792 L153.968804,24.2215855 C154.274226,24.5300768 154.675833,24.6845572 155.077597,24.6845572 C155.475145,24.6845572 155.872693,24.5333636 156.177178,24.2308199 C156.789426,23.6221327 156.793486,22.6310791 156.18639,22.0173833 Z" id="Path" fill="#000000" fill-rule="nonzero" transform="translate(155.050037, 23.091755) rotate(180.000000) translate(-155.050037, -23.091755) "></path>
                    <path d="M94.8788092,8.53423768 C94.1058451,8.15930621 93.1650321,8.46629511 92.7744189,9.24315001 L90.3304434,14.1269875 L85.4702849,11.7020309 C84.6973285,11.3240078 83.7565078,11.6340884 83.3658945,12.4109433 C82.978513,13.1876428 83.2894251,14.1290814 84.062504,14.5166738 L90.3215431,17.6415157 C90.5499513,17.754004 90.7880577,17.8068424 91.0230681,17.8062467 C91.5964934,17.8047933 92.1488447,17.4830361 92.4259413,16.9295117 L95.5752719,10.6399685 C95.9628006,9.86312146 95.6518885,8.9216828 94.8788092,8.53423768 Z" id="Path" fill="#000000" fill-rule="nonzero" transform="translate(89.470631, 13.090583) rotate(-40.000000) translate(-89.470631, -13.090583) "></path>
                    <path d="M91.0319343,21.1433184 C89.9504208,12.6879553 83.7020731,4.12334637 73.8599177,4.11678745 C73.1171655,4.16578143 72.2882825,4.81801884 72.282995,5.68797251 C72.2777152,6.55483448 72.9777254,7.25973022 73.8394713,7.26063764 C81.8861633,7.26541692 87.0130212,14.4604564 87.9225864,21.5625405 C88.0239867,22.3537539 88.6962765,22.9268081 89.4701951,22.9248465 C89.5390825,22.9246719 89.6081329,22.9181663 89.6739596,22.9085772 C90.5358525,22.7934726 91.1394752,22.003711 91.0319343,21.1433184 Z" id="Path" fill="#000000" fill-rule="nonzero" transform="translate(81.663650, 13.520819) rotate(-40.000000) translate(-81.663650, -13.520819) "></path>
                    <path d="M81.8271184,88.5596005 C81.0541543,88.184669 80.1133414,88.4916579 79.7227281,89.2685128 L77.2787526,94.1523503 L72.4185941,91.7273938 C71.6456378,91.3493706 70.704817,91.6594512 70.3142037,92.4363061 C69.9268222,93.2130056 70.2377343,94.1544442 71.0108133,94.5420366 L77.2698523,97.6668786 C77.4982605,97.7793668 77.7363669,97.8322052 77.9713773,97.8316096 C78.5448027,97.8301561 79.097154,97.508399 79.3742505,96.9548745 L82.5235811,90.6653314 C82.9111099,89.8884843 82.6001978,88.9470456 81.8271184,88.5596005 Z" id="Path" fill="#000000" fill-rule="nonzero" transform="translate(76.418940, 93.115946) scale(-1, -1) rotate(-40.000000) translate(-76.418940, -93.115946) "></path>
                    <path d="M93.5942055,100.308209 C92.512692,91.8528458 86.2643442,83.2882368 76.4221888,83.2816779 C75.6794367,83.3306719 74.8505537,83.9829093 74.8452661,84.8528629 C74.8399864,85.7197249 75.5399965,86.4246207 76.4017424,86.4255281 C84.4484345,86.4303074 89.5752924,93.6253468 90.4848576,100.727431 C90.5862578,101.518644 91.2585477,102.091699 92.0324663,102.089737 C92.1013537,102.089562 92.170404,102.083057 92.2362308,102.073468 C93.0981236,101.958363 93.7017464,101.168601 93.5942055,100.308209 Z" id="Path" fill="#000000" fill-rule="nonzero" transform="translate(84.225921, 92.685710) scale(-1, -1) rotate(-40.000000) translate(-84.225921, -92.685710) "></path>
                    <path d="M128.385125,27.7901197 C128.385125,27.7901197 125.093198,29.1752439 118.509346,31.9454924 L110.608723,34.0231787 L110.608723,52.7223556 L112.583879,59.9942577 L118.509346,66.2273166 L126.409969,72.4603756 L130.360281,72.4603756 C134.968977,68.3050029 137.602518,66.2273166 138.260904,66.2273166 C139.248481,66.2273166 145.173949,57.9165713 145.173949,57.9165713 C145.173949,57.9165713 147.149105,48.5669829 147.149105,47.5281398 C147.149105,46.8355776 147.149105,42.680205 147.149105,35.0620218 L145.173949,34.0231787 C133.981399,29.867806 128.385125,27.7901197 128.385125,27.7901197 Z" id="Path-2" fill="#FFB600"></path>
                    <path d="M147.162554,33.9986202 C140.879883,32.2649001 134.560289,29.5653374 128.886932,26.1918496 C128.585575,26.0126572 128.21162,26.0126572 127.910351,26.1918496 C122.07334,29.662254 116.095237,32.2157681 109.634195,33.9986202 C109.216807,34.1136806 108.927489,34.4957781 108.927489,34.9316782 L108.927489,44.8160926 C108.927489,54.9948497 113.590017,61.732484 117.501514,65.5921715 C121.712496,69.7477286 126.617697,72.0457925 128.398642,72.0457925 C130.179408,72.0457925 135.08461,69.7477286 139.295592,65.5921715 C143.206999,61.7325738 147.86926,54.9949395 147.86926,44.8160926 L147.86926,34.9315884 C147.86926,34.4957781 147.579942,34.1136806 147.162554,33.9986202 Z M145.948204,44.8160028 C145.948204,54.3229007 141.599431,60.6099042 137.951031,64.2100996 C133.81006,68.2964947 129.382625,70.1108739 128.398642,70.1108739 C127.414659,70.1108739 122.986956,68.2964947 118.845896,64.2100996 C115.197585,60.6098144 110.848634,54.3229007 110.848634,44.8160028 L110.848634,35.6659628 C117.027225,33.8991886 122.781294,31.4335192 128.39882,28.1458102 C133.876058,31.3463032 139.917215,33.934578 145.948204,35.6656035 L145.948204,44.8160028 Z" id="Shape" stroke="#000000" stroke-width="0.998579917" fill="#000000" fill-rule="nonzero"></path>
                    <path d="M119.88455,35.5577288 C119.690126,35.060571 119.132449,34.8163483 118.638718,35.0122474 C116.922789,35.6931785 115.161554,36.3199477 113.403976,36.8752196 C113.003444,37.0018669 112.730893,37.3755212 112.730893,37.7982177 L112.730893,41.5339526 C112.730893,42.0682064 113.161035,42.501322 113.691421,42.501322 C114.221807,42.501322 114.651948,42.0682064 114.651948,41.5339526 L114.651948,38.5051968 C116.228659,37.9914221 117.803674,37.4231262 119.342926,36.8122553 C119.836568,36.6165358 120.079063,36.0548867 119.88455,35.5577288 Z" id="Path" fill="#000000" fill-rule="nonzero"></path>
                    <path d="M139.842834,57.2506979 C139.398958,56.958511 138.803734,57.0841702 138.513257,57.5313878 C137.721736,58.7515128 136.793136,59.9199012 135.752877,61.0037682 C134.89741,61.8949697 133.970416,62.725632 132.99767,63.4724916 C132.575912,63.7963852 132.494753,64.4033938 132.816266,64.8283358 C133.005429,65.0779477 133.291447,65.2092656 133.580764,65.2092656 C133.783929,65.2092656 133.98861,65.1446845 134.162521,65.0110312 C135.211788,64.2052493 136.211558,63.3094669 137.133914,62.3485645 C138.258632,61.1769426 139.263753,59.9122664 140.121538,58.5896558 C140.411837,58.1423485 140.286888,57.5428848 139.842834,57.2506979 Z" id="Path" fill="#000000" fill-rule="nonzero"></path>
                    <path d="M136.3044,42.2328478 C136.531377,42.004254 136.833448,41.8784151 137.154694,41.8784151 C137.476119,41.8784151 137.777922,42.004254 138.005078,42.2328478 C138.473748,42.7048559 138.473748,43.4731826 138.004899,43.9453703 L126.164724,55.8699733 C125.937747,56.0985671 125.635676,56.224406 125.31443,56.224406 C124.993183,56.224406 124.691112,56.0985671 124.464046,55.8699733 L118.792384,50.158092 C118.323536,49.6859044 118.323536,48.9175776 118.792206,48.4455696 C119.019272,48.2169758 119.321344,48.0909573 119.642679,48.0909573 C119.964014,48.0909573 120.265907,48.2167961 120.492884,48.4453899 L124.635104,52.6172046 C124.815348,52.7985527 125.059537,52.9004992 125.31434,52.9004992 C125.569143,52.9004992 125.813333,52.7986425 125.993399,52.6172046 L136.3044,42.2328478 Z" id="Shape" fill="#000000" fill-rule="nonzero"></path>
                </g>
            </g>
        </g>
    </g>
</svg>