<?xml version="1.0" encoding="UTF-8"?>
<svg width="195px" height="59px" viewBox="0 0 195 59" version="1.1" xmlns="http://www.w3.org/2000/svg" xmlns:xlink="http://www.w3.org/1999/xlink">
    <!-- Generator: Sketch 54 (76480) - https://sketchapp.com -->
    <title>appstore</title>
    <desc>Created with Sketch.</desc>
    <g id="adax" stroke="none" stroke-width="1" fill="none" fill-rule="evenodd">
        <g id="landing" transform="translate(-836.000000, -2654.000000)">
            <g id="Group-20" transform="translate(567.000000, 2364.000000)">
                <g id="Group-6" transform="translate(269.000000, 0.000000)">
                    <g id="appstore" transform="translate(0.000000, 290.425532)">
                        <rect id="Rectangle-path" stroke="#FFB600" stroke-width="2" x="1" y="1" width="192.130594" height="55.7769626" rx="27.8884813"></rect>
                        <g id="apple-logo" transform="translate(44.809974, 14.787684)" fill="#FFB600" fill-rule="nonzero">
                            <path d="M18.383579,17.5340931 C18.0034299,18.4252796 17.5371002,19.2786228 16.9909938,20.0824044 C16.0885986,21.4303845 14.8157757,23.1092076 13.2421544,23.1228788 C11.8495692,23.1228788 11.4791415,22.2287825 9.57965527,22.2397194 C7.68016904,22.2506564 7.28188967,23.1392843 5.88094894,23.1283473 C4.30454248,23.1119419 3.09577851,21.5971731 2.19616846,20.2464588 C-0.327195945,16.4759424 -0.589001965,12.04374 0.965123135,9.69502821 C2.07919131,8.02440783 3.81713765,7.04555005 5.45760304,7.04555005 C7.09806842,7.04555005 8.17871455,7.94511488 9.56015908,7.94511488 C10.8998261,7.94511488 11.715881,7.04281581 13.6487893,7.04281581 C15.1082186,7.04281581 16.6539882,7.8220741 17.7569157,9.17278845 C14.1473348,11.1168328 14.7350057,16.186113 18.383579,17.5340931 Z" id="Shape"></path>
                            <path d="M14.0120866,4.19466328 C14.8472434,3.11993966 15.4860884,1.59935547 15.2531761,0.045498098 C13.731455,0.225488513 12.3350551,0.977213168 11.3469052,2.14836289 C10.4984391,3.17983138 9.7963751,4.70707021 10.0692152,6.19438123 C11.5665081,6.24096367 13.1137109,5.34924253 14.0120866,4.19466328 Z" id="Shape"></path>
                        </g>
                        <text id="App-Store" fill="#FFB600" font-family="Helvetica-Bold, Helvetica" font-size="16.0272081" font-weight="bold">
                            <tspan x="74.6832897" y="32.2346053">App Store</tspan>
                        </text>
                    </g>
                </g>
            </g>
        </g>
    </g>
</svg>