<?xml version="1.0" encoding="UTF-8"?>
<svg width="170px" height="95px" viewBox="0 0 170 95" version="1.1" xmlns="http://www.w3.org/2000/svg" xmlns:xlink="http://www.w3.org/1999/xlink">
    <!-- Generator: sketchtool 54 (76480) - https://sketchapp.com -->
    <title>AB2BDD3E-EDB3-4E74-A888-D12FCCEAF50E</title>
    <desc>Created with sketchtool.</desc>
    <g id="adax" stroke="none" stroke-width="1" fill="none" fill-rule="evenodd">
        <g id="landing" transform="translate(-566.000000, -2414.000000)">
            <g id="Group-20" transform="translate(567.000000, 2364.000000)">
                <g id="Group-5" transform="translate(0.000000, 44.000000)">
                    <path d="M68.2374963,21.7658112 C60.6875222,14.1981495 50.6493606,10.0303089 39.9720933,10.0303089 C29.2948259,10.0303089 19.2566644,14.1981495 11.7065341,21.7658112 C5.13762565,28.3504015 1.04238302,37.0739272 0.17483553,46.3294477 C-0.681001006,55.4631994 1.62449552,64.6756782 6.66723242,72.2694779 C7.1451955,72.9892909 8.11486251,73.1838391 8.83219749,72.705216 C9.55015706,72.2262797 9.74471505,71.254634 9.26675197,70.5349776 C-0.411649059,55.9598218 1.54314342,36.3802522 13.9149078,23.9794043 C28.2828433,9.57735421 51.6613432,9.57735421 66.0292788,23.9794043 C72.9894892,30.9559084 76.8225626,40.2317758 76.8225626,50.0981748 C76.8225626,59.9645737 72.9894892,69.2404412 66.0292788,76.2169453 C53.155661,89.1211458 33.1249325,90.73466 18.4014524,80.0532869 C17.702855,79.5466475 16.7264737,79.7031626 16.2210289,80.4035677 C15.715428,81.1038163 15.8718863,82.0823487 16.5703276,82.5891446 C23.3731429,87.5242222 31.5868939,90.1658841 39.9806813,90.1655711 C40.9798599,90.1655711 41.9829422,90.1280075 42.9852437,90.0525672 C52.5079671,89.3352585 61.4760598,85.2076422 68.2374963,78.4303818 C75.7874704,70.8625637 79.9453276,60.8006774 79.9453276,50.0980183 C79.9453276,39.3953591 75.7874704,29.3337859 68.2374963,21.7658112 Z" id="Path" stroke="#000000" stroke-width="1.10086607" fill="#000000" fill-rule="nonzero"></path>
                    <ellipse id="Oval" fill="#FFB600" cx="39.5330964" cy="50.7600111" rx="23.9249287" ry="24.0483466"></ellipse>
                    <path d="M39.5031153,48.3150072 C37.1260702,48.3150072 35.1922595,46.6336214 35.1922595,44.5670247 C35.1922595,42.5002311 37.1260702,40.8188453 39.5031153,40.8188453 C41.8801604,40.8188453 43.8139711,42.5002311 43.8139711,44.5670247 C43.8139711,45.6539612 44.6914263,46.5353995 45.7734511,46.5353995 C46.8554759,46.5353995 47.732931,45.6539612 47.732931,44.5670247 C47.732931,40.9599778 45.0574571,37.9271058 41.4625952,37.1039315 L41.4625952,36.0801797 C41.4625952,34.9932431 40.5851401,34.1118049 39.5031153,34.1118049 C38.4210905,34.1118049 37.5436354,34.9932431 37.5436354,36.0801797 L37.5436354,37.1039315 C33.9487735,37.9271058 31.2732996,40.9599778 31.2732996,44.5670247 C31.2732996,48.8043452 34.9651558,52.2517569 39.5031153,52.2517569 C41.8801604,52.2517569 43.8139711,53.9331427 43.8139711,55.9999362 C43.8139711,58.0667298 41.8801604,59.7481156 39.5031153,59.7481156 C37.1260702,59.7481156 35.1922595,58.0667298 35.1922595,55.9999362 C35.1922595,54.9129997 34.3148044,54.0315614 33.2327795,54.0315614 C32.1507547,54.0315614 31.2732996,54.9129997 31.2732996,55.9999362 C31.2732996,59.6069831 33.9487735,62.6398551 37.5436354,63.4630294 L37.5436354,64.3133674 C37.5436354,65.400304 38.4210905,66.2817422 39.5031153,66.2817422 C40.5851401,66.2817422 41.4625952,65.400304 41.4625952,64.3133674 L41.4625952,63.4630294 C45.0574571,62.6398551 47.732931,59.6069831 47.732931,55.9999362 C47.732931,51.7624189 44.0410749,48.3150072 39.5031153,48.3150072 Z" id="Path" fill="#000000" fill-rule="nonzero"></path>
                    <path d="M58.0652445,32.0795467 L57.9963457,32.0100978 C57.2370928,31.2406658 56.0012087,31.2357612 55.2359052,31.9985229 C54.4706018,32.7614808 54.4655271,34.0037152 55.2243896,34.772951 L55.2932884,34.8424 C55.6750618,35.229274 56.1770665,35.422711 56.6792664,35.422711 C57.1761964,35.422711 57.6731265,35.2331977 58.0537288,34.8539748 C58.8190323,34.0910169 58.824107,32.8487825 58.0652445,32.0795467 Z" id="Path" fill="#000000" fill-rule="nonzero"></path>
                    <path d="M60.6514024,37.6727574 C60.3121054,37.1025408 59.5770217,36.9166791 59.0098512,37.2580872 C58.4426807,37.5991345 58.2580122,38.3378898 58.5974288,38.9081064 C63.7267376,47.5247528 62.3687119,58.5090011 55.2945791,65.6195059 C46.8018618,74.1561536 32.9828401,74.1561536 24.4901228,65.6195059 C15.9972858,57.0829784 15.9972858,43.1927909 24.4901228,34.6561432 C31.5598273,27.5497286 42.4833951,26.1821712 51.0539053,31.33 C51.6213152,31.6706864 52.3560398,31.4847043 52.6952171,30.9143674 C53.0342747,30.3440305 52.8491275,29.6055158 52.2818373,29.2647092 C47.7436354,26.5388573 42.3361869,25.3812214 37.0571566,26.0041289 C31.6128462,26.6468857 26.682089,29.0503366 22.7975873,32.9548767 C13.3715938,42.4296149 13.3715938,57.8460341 22.7975873,67.3207723 C27.5106439,72.0581414 33.7015273,74.426826 39.8924108,74.426826 C46.0832942,74.426826 52.2741777,72.0581414 56.9872343,67.3207723 C60.8734115,63.414548 63.2647671,58.4559493 63.9029087,52.9810279 C64.5219013,47.6713971 63.3670948,42.2347308 60.6514024,37.6727574 Z" id="Path" stroke="#000000" stroke-width="0.875219781" fill="#000000" fill-rule="nonzero"></path>
                    <path d="M12.9752208,76.0302228 L12.9201013,75.9748164 C12.3126931,75.3609642 11.3239763,75.3570513 10.7117276,75.965582 C10.0994789,76.5742693 10.0954191,77.5653229 10.702515,78.1790186 L10.7576345,78.2344249 C11.0630562,78.5429162 11.4646639,78.6973966 11.8664277,78.6973966 C12.2639755,78.6973966 12.6615234,78.546203 12.9660082,78.2436593 C13.5782569,77.6349721 13.5823167,76.6439185 12.9752208,76.0302228 Z" id="Path" fill="#000000" fill-rule="nonzero"></path>
                    <path d="M156.180409,21.7662807 C148.630435,14.1986191 138.592273,10.0307785 127.915006,10.0307785 C117.237738,10.0307785 107.199577,14.1986191 99.6494466,21.7662807 C93.0805381,28.350871 88.9852955,37.0743967 88.117748,46.3299172 C87.2619114,55.4636689 89.567408,64.6761478 94.6101449,72.2699475 C95.088108,72.9897604 96.057775,73.1843087 96.7751099,72.7056855 C97.4930695,72.2267493 97.6876275,71.2551035 97.2096644,70.5354471 C87.5312634,55.9602914 89.4860559,36.3807218 101.85782,23.9798738 C116.225756,9.57782376 139.604256,9.57782376 153.972191,23.9798738 C160.932402,30.9563779 164.765475,40.2322454 164.765475,50.0986443 C164.765475,59.9650433 160.932402,69.2409107 153.972191,76.2174148 C141.098573,89.1216154 121.067845,90.7351295 106.344365,80.0537565 C105.645767,79.5471171 104.669386,79.7036322 104.163941,80.4040373 C103.65834,81.1042858 103.814799,82.0828182 104.51324,82.5896141 C111.316055,87.5246918 119.529806,90.1663537 127.923594,90.1660406 C128.922772,90.1660406 129.925855,90.128477 130.928156,90.0530367 C140.45088,89.335728 149.418972,85.2081118 156.180409,78.4308514 C163.730383,70.8630332 167.88824,60.8011469 167.88824,50.0984878 C167.88824,39.3958287 163.730383,29.3342554 156.180409,21.7662807 Z" id="Path" stroke="#000000" stroke-width="1.10086607" fill="#000000" fill-rule="nonzero" transform="translate(127.915576, 50.098410) rotate(180.000000) translate(-127.915576, -50.098410) "></path>
                    <path d="M156.18639,22.0173833 L156.131271,21.961977 C155.523863,21.3481248 154.535146,21.3442119 153.922897,21.9527426 C153.310648,22.5614298 153.306589,23.5524835 153.913685,24.1661792 L153.968804,24.2215855 C154.274226,24.5300768 154.675833,24.6845572 155.077597,24.6845572 C155.475145,24.6845572 155.872693,24.5333636 156.177178,24.2308199 C156.789426,23.6221327 156.793486,22.6310791 156.18639,22.0173833 Z" id="Path" fill="#000000" fill-rule="nonzero" transform="translate(155.050037, 23.091755) rotate(180.000000) translate(-155.050037, -23.091755) "></path>
                    <path d="M143.844749,42.793928 C143.844749,36.4677442 138.847606,31.2906942 132.602233,31.0166362 L132.602233,27.5600002 C132.602233,26.6955673 131.903011,25.9948492 131.040772,25.9948492 C130.178534,25.9948492 129.479312,26.6955673 129.479312,27.5600002 L129.479312,31.0033324 L124.481389,31.0033324 L124.481389,27.5600002 C124.481389,26.6955673 123.782167,25.9948492 122.919928,25.9948492 C122.057689,25.9948492 121.358467,26.6955673 121.358467,27.5600002 L121.358467,31.0033324 L115.424917,31.0033324 C114.562679,31.0033324 113.863457,31.7040506 113.863457,32.5684835 L113.863457,38.8290875 C113.863457,39.6935204 114.562679,40.3942385 115.424917,40.3942385 L117.612211,40.3942385 L117.612211,59.802111 L115.424917,59.802111 C114.562679,59.802111 113.863457,60.5028291 113.863457,61.367262 L113.863457,67.6278661 C113.863457,68.492299 114.562679,69.1930171 115.424917,69.1930171 L121.358467,69.1930171 L121.358467,72.6363493 C121.358467,73.5007822 122.057689,74.2015003 122.919928,74.2015003 C123.782167,74.2015003 124.481389,73.5007822 124.481389,72.6363493 L124.481389,69.1930171 L129.479312,69.1930171 L129.479312,72.6363493 C129.479312,73.5007822 130.178534,74.2015003 131.040772,74.2015003 C131.903011,74.2015003 132.602233,73.5007822 132.602233,72.6363493 L132.602233,69.1797133 C138.847606,68.9054989 143.844749,63.7286054 143.844749,57.4021085 C143.844749,54.7163093 142.953935,52.1719999 141.310498,50.0980183 C142.953935,48.0241932 143.844749,45.4798837 143.844749,42.793928 Z M132.081642,66.0627151 L116.986378,66.0627151 L116.986378,62.9324131 L119.173672,62.9324131 C120.03591,62.9324131 120.735132,62.2316949 120.735132,61.367262 L120.735132,38.8290875 C120.735132,37.9646546 120.03591,37.2639365 119.173672,37.2639365 L116.986378,37.2639365 L116.986378,34.1336345 L132.081642,34.1336345 C136.84597,34.1336345 140.721828,38.0188088 140.721828,42.7940846 C140.721828,45.1364896 139.797599,47.333179 138.119341,48.9795613 C137.819072,49.2739662 137.649966,49.6773057 137.649966,50.0981748 C137.649966,50.5190439 137.819072,50.9223833 138.119341,51.2167882 C139.797599,52.8631705 140.721828,55.05986 140.721828,57.402265 C140.721828,62.1776972 136.84597,66.0627151 132.081642,66.0627151 Z" id="Shape" fill="#000000" fill-rule="nonzero"></path>
                    <path d="M131.811665,36.8465107 L124.95092,36.8465107 C124.088681,36.8465107 123.389459,37.5472288 123.389459,38.4116617 L123.389459,47.1765074 C123.389459,48.0409403 124.088681,48.7416584 124.95092,48.7416584 L131.811665,48.7416584 C135.083394,48.7416584 137.745215,46.0735455 137.745215,42.7940846 C137.745215,39.5146236 135.083394,36.8465107 131.811665,36.8465107 Z M131.811665,45.6113564 L126.51238,45.6113564 L126.51238,39.9768127 L131.811665,39.9768127 C133.361415,39.9768127 134.622294,41.2406722 134.622294,42.7940846 C134.622294,44.3474969 133.361415,45.6113564 131.811665,45.6113564 Z" id="Shape" fill="#000000" fill-rule="nonzero"></path>
                    <path d="M131.811665,51.4546912 L124.95092,51.4546912 C124.088681,51.4546912 123.389459,52.1554093 123.389459,53.0198422 L123.389459,61.7846878 C123.389459,62.6491207 124.088681,63.3498388 124.95092,63.3498388 L131.811665,63.3498388 C135.083394,63.3498388 137.745215,60.6817259 137.745215,57.402265 C137.745215,54.1228041 135.083394,51.4546912 131.811665,51.4546912 Z M131.811665,60.2195368 L126.51238,60.2195368 L126.51238,54.5849932 L131.811665,54.5849932 C133.361415,54.5849932 134.622294,55.8488526 134.622294,57.402265 C134.622294,58.9556774 133.361415,60.2195368 131.811665,60.2195368 Z" id="Shape" fill="#000000" fill-rule="nonzero"></path>
                    <path d="M94.8788092,8.53423768 C94.1058451,8.15930621 93.1650321,8.46629511 92.7744189,9.24315001 L90.3304434,14.1269875 L85.4702849,11.7020309 C84.6973285,11.3240078 83.7565078,11.6340884 83.3658945,12.4109433 C82.978513,13.1876428 83.2894251,14.1290814 84.062504,14.5166738 L90.3215431,17.6415157 C90.5499513,17.754004 90.7880577,17.8068424 91.0230681,17.8062467 C91.5964934,17.8047933 92.1488447,17.4830361 92.4259413,16.9295117 L95.5752719,10.6399685 C95.9628006,9.86312146 95.6518885,8.9216828 94.8788092,8.53423768 Z" id="Path" fill="#000000" fill-rule="nonzero" transform="translate(89.470631, 13.090583) rotate(-40.000000) translate(-89.470631, -13.090583) "></path>
                    <path d="M91.0319343,21.1433184 C89.9504208,12.6879553 83.7020731,4.12334637 73.8599177,4.11678745 C73.1171655,4.16578143 72.2882825,4.81801884 72.282995,5.68797251 C72.2777152,6.55483448 72.9777254,7.25973022 73.8394713,7.26063764 C81.8861633,7.26541692 87.0130212,14.4604564 87.9225864,21.5625405 C88.0239867,22.3537539 88.6962765,22.9268081 89.4701951,22.9248465 C89.5390825,22.9246719 89.6081329,22.9181663 89.6739596,22.9085772 C90.5358525,22.7934726 91.1394752,22.003711 91.0319343,21.1433184 Z" id="Path" fill="#000000" fill-rule="nonzero" transform="translate(81.663650, 13.520819) rotate(-40.000000) translate(-81.663650, -13.520819) "></path>
                    <path d="M81.8271184,88.5596005 C81.0541543,88.184669 80.1133414,88.4916579 79.7227281,89.2685128 L77.2787526,94.1523503 L72.4185941,91.7273938 C71.6456378,91.3493706 70.704817,91.6594512 70.3142037,92.4363061 C69.9268222,93.2130056 70.2377343,94.1544442 71.0108133,94.5420366 L77.2698523,97.6668786 C77.4982605,97.7793668 77.7363669,97.8322052 77.9713773,97.8316096 C78.5448027,97.8301561 79.097154,97.508399 79.3742505,96.9548745 L82.5235811,90.6653314 C82.9111099,89.8884843 82.6001978,88.9470456 81.8271184,88.5596005 Z" id="Path" fill="#000000" fill-rule="nonzero" transform="translate(76.418940, 93.115946) scale(-1, -1) rotate(-40.000000) translate(-76.418940, -93.115946) "></path>
                    <path d="M93.5942055,100.308209 C92.512692,91.8528458 86.2643442,83.2882368 76.4221888,83.2816779 C75.6794367,83.3306719 74.8505537,83.9829093 74.8452661,84.8528629 C74.8399864,85.7197249 75.5399965,86.4246207 76.4017424,86.4255281 C84.4484345,86.4303074 89.5752924,93.6253468 90.4848576,100.727431 C90.5862578,101.518644 91.2585477,102.091699 92.0324663,102.089737 C92.1013537,102.089562 92.170404,102.083057 92.2362308,102.073468 C93.0981236,101.958363 93.7017464,101.168601 93.5942055,100.308209 Z" id="Path" fill="#000000" fill-rule="nonzero" transform="translate(84.225921, 92.685710) scale(-1, -1) rotate(-40.000000) translate(-84.225921, -92.685710) "></path>
                </g>
            </g>
        </g>
    </g>
</svg>