<?xml version="1.0" encoding="UTF-8"?>
<svg width="195px" height="59px" viewBox="0 0 195 59" version="1.1" xmlns="http://www.w3.org/2000/svg" xmlns:xlink="http://www.w3.org/1999/xlink">
    <!-- Generator: Sketch 54 (76480) - https://sketchapp.com -->
    <title>playstore</title>
    <desc>Created with Sketch.</desc>
    <g id="adax" stroke="none" stroke-width="1" fill="none" fill-rule="evenodd">
        <g id="landing" transform="translate(-1044.000000, -2654.000000)">
            <g id="Group-20" transform="translate(567.000000, 2364.000000)">
                <g id="Group-6" transform="translate(269.000000, 0.000000)">
                    <g id="playstore" transform="translate(208.510638, 290.425532)">
                        <rect id="Rectangle-path" stroke="#FFB600" stroke-width="2" x="1" y="1" width="191.617021" height="56.0851064" rx="28.0425532"></rect>
                        <g id="googleplay" transform="translate(42.392476, 17.425532)" fill="#FFB600" fill-rule="nonzero">
                            <polygon id="Shape" points="0.470962785 0.751921603 0.470962785 10.527645 0.470962785 20.3033684 9.93920769 10.527645"></polygon>
                            <polygon id="Shape" points="12.7251266 7.64946198 8.90145895 5.351965 0.713427443 0.428757193 0.713427443 0.499449408 10.1816723 10.2751728"></polygon>
                            <polygon id="Shape" points="0.713427443 20.5558406 0.713427443 20.6265328 8.90145895 15.703325 12.722702 13.405828 10.1816723 10.7801172"></polygon>
                            <polygon id="Shape" points="12.9675913 7.90193418 10.424137 10.527645 12.9651666 13.1533558 17.3343798 10.527645"></polygon>
                            <path d="M88.4073182,15.6149597 C87.9170111,15.6211372 87.4310426,15.5187271 86.981626,15.3145178 C86.5492862,15.1122514 86.1761538,14.7942815 85.9002336,14.3929943 L85.8129464,14.3929943 C85.8694183,14.8510151 85.89857,15.3122405 85.9002336,15.7740172 L85.9002336,19.1975402 L84.6879103,19.1975402 L84.6879103,7.14451759 L85.6723169,7.14451759 L85.8396175,8.28316719 L85.897809,8.28316719 C86.170256,7.8604047 86.5449274,7.51990684 86.9840507,7.29600091 C87.4301126,7.08592164 87.9154024,6.98158088 88.4048936,6.99050955 C89.4652723,6.99050955 90.2831864,7.3675347 90.8586359,8.12158499 C91.4340854,8.87563528 91.7218101,9.93349377 91.7218101,11.2951605 C91.7218101,12.6601935 91.4292361,13.7222599 90.844088,14.4813596 C90.2502687,15.2399969 89.3462066,15.6605721 88.4073182,15.6149597 L88.4073182,15.6149597 Z M88.2375929,8.06099166 C87.420487,8.06099166 86.8312979,8.29831552 86.4651763,8.76791381 C86.0990547,9.23751209 85.9099322,9.99492868 85.9002336,11.0048175 L85.9002336,11.2850616 C85.9002336,12.4531663 86.0869314,13.2896908 86.460327,13.7946352 C86.8361472,14.2995796 87.4301856,14.5520518 88.2618394,14.5520518 C88.9117386,14.5748837 89.5262276,14.243959 89.883928,13.678498 C90.2734879,13.097812 90.469076,12.2957919 90.4706924,11.272438 C90.4723089,10.249084 90.2767207,9.4537966 89.883928,8.88657574 C89.5018021,8.34260278 88.8842825,8.03293655 88.2375929,8.06099166 Z" id="Shape" stroke="#FFB600" stroke-width="0.744680851"></path>
                            <polygon id="Shape" stroke="#FFB600" stroke-width="0.744680851" points="94.5247015 15.4634764 93.3123782 15.4634764 93.3123782 3.65282713 94.5247015 3.65282713"></polygon>
                            <path d="M101.483437,15.4634764 L101.240973,14.2793818 L101.182781,14.2793818 C100.871364,14.7245824 100.463486,15.0870155 99.9922796,15.3372403 C99.5216105,15.536362 99.016197,15.6309538 98.5083959,15.6149597 C97.7147282,15.6149597 97.0940187,15.4020415 96.6462673,14.9762051 C96.195283,14.5520518 95.9722155,13.9486433 95.9722155,13.1634547 C95.9722155,11.4803068 97.2653604,10.5991788 99.8516501,10.5200708 L101.209452,10.4746258 L101.209452,9.96968146 C101.209452,9.3149369 101.07448,8.832715 100.804536,8.52301578 C100.534592,8.21331655 100.103005,8.05762536 99.5097749,8.05594221 C98.7200917,8.09001094 97.9478357,8.30829951 97.2500043,8.69469687 L96.8669101,7.72267892 C97.2766317,7.49463711 97.7113897,7.3191514 98.1616714,7.20006147 C98.6223497,7.07412589 99.0965281,7.00964996 99.5728157,7.0081826 C100.525702,7.0081826 101.231274,7.23035814 101.689532,7.66965976 C102.14779,8.10896138 102.378132,8.81588352 102.378132,9.78790147 L102.378132,15.4660011 L101.483437,15.4634764 Z M98.7484359,14.5747743 C99.398623,14.6136737 100.03703,14.3820986 100.523277,13.9309702 C100.972969,13.4497472 101.20711,12.7934912 101.168233,12.1232693 L101.168233,11.3658527 L99.9559099,11.4188719 C98.9860512,11.454218 98.2926023,11.6099092 97.8755631,11.8859454 C97.4511123,12.1597446 97.2059836,12.6547087 97.2378811,13.1735536 C97.2118745,13.5651652 97.358173,13.9478651 97.6355231,14.2137391 C97.9518999,14.4711756 98.3476218,14.59955 98.7484359,14.5747743 L98.7484359,14.5747743 Z" id="Shape" stroke="#FFB600" stroke-width="0.744680851"></path>
                            <path d="M103.081279,7.14451759 L104.378465,7.14451759 L106.12906,11.8884701 C106.417081,12.6529439 106.656031,13.43649 106.844331,14.2339368 L106.907372,14.2339368 C106.970412,13.9814646 107.101343,13.5345889 107.302589,12.9084578 C107.503835,12.2823268 108.165763,10.3610134 109.283525,7.14451759 L110.580711,7.14451759 L107.149836,16.6172744 C106.807961,17.5539462 106.422442,18.2179481 105.95691,18.60928 C105.48492,19.007714 104.891241,19.2164624 104.283904,19.1975402 C103.915902,19.1977045 103.549063,19.1545094 103.190388,19.0687794 L103.190388,18.0588906 C103.48547,18.1223442 103.786214,18.1528135 104.087508,18.1497806 C104.91997,18.1497806 105.5132,17.6641924 105.867198,16.693016 L106.310909,15.5089214 L103.081279,7.14451759 Z" id="Shape" stroke="#FFB600" stroke-width="0.744680851"></path>
                            <path d="M65.9914605,7.91708251 C66.7233458,8.458366 67.1637018,9.3304195 67.1771127,10.2650739 C67.1771127,11.5526821 66.4763899,12.1636648 65.7732424,12.7367767 C65.5574488,12.961477 65.3052856,13.206375 65.3052856,13.5901327 C65.323457,13.9016021 65.486341,14.1842801 65.7417219,14.3475493 L66.3430343,14.8348207 C67.0704283,15.4786248 67.74448,16.0694097 67.74448,17.2711773 C67.74448,18.9071972 66.2242266,20.5533159 63.3510204,20.5533159 C60.9263738,20.5533159 59.7576942,19.354073 59.7576942,18.0664648 C59.7576942,17.4403337 60.0583504,16.5516316 61.0451815,15.9431736 C62.0805056,15.2816964 63.484376,15.185757 64.2360164,15.1428367 C63.9935518,14.8297712 63.7341146,14.4990326 63.7341146,13.9587421 C63.7403458,13.7221712 63.7975193,13.4900774 63.9014152,13.2795919 C63.7171421,13.297265 63.5352936,13.314938 63.3679929,13.314938 C61.5955763,13.314938 60.5941973,11.9414893 60.5941973,10.5831889 C60.6116636,9.68231176 61.001357,8.83303114 61.6634664,8.25287053 C62.6163525,7.43486061 63.7510871,7.29600091 64.6554803,7.29600091 L68.0960538,7.29600091 L67.0267846,7.92213195 L65.9914605,7.91708251 Z M64.8058084,15.6427317 C64.6778711,15.6272774 64.5490361,15.6213713 64.4202896,15.6250586 C63.8257659,15.6366398 63.2353939,15.7308885 62.6648454,15.9053028 C62.2987238,16.0416378 61.2294547,16.4607416 61.2294547,17.6953306 C61.2294547,18.9299197 62.3811618,19.8186218 64.170551,19.8186218 C65.7732424,19.8186218 66.626718,19.0182849 66.626718,17.9402287 C66.626718,17.0641501 66.0738985,16.5819283 64.8058084,15.6427317 Z M65.2907377,12.3353459 C65.582024,11.9871245 65.7308446,11.5340162 65.7053523,11.0729849 C65.7053523,9.81062397 64.9779583,7.87163751 63.600759,7.87163751 C63.1495524,7.87836139 62.7232772,8.08832451 62.4320794,8.44727412 C62.1706428,8.81955374 62.0404789,9.2743137 62.0635331,9.73488231 C62.0635331,10.8987791 62.715763,12.8301914 64.1535784,12.8301914 C64.5787881,12.8194381 64.9846219,12.6428358 65.2907377,12.3353459 L65.2907377,12.3353459 Z" id="Shape" stroke="#FFB600" stroke-width="0.744680851"></path>
                            <path d="M55.470919,15.3650123 C54.4024231,15.4027175 53.3651335,14.9863964 52.5973633,14.211697 C51.8295931,13.4369975 51.3973491,12.3705224 51.3999374,11.2572897 C51.3999374,8.98503989 53.1844773,7.03595455 55.7230823,7.03595455 C56.7787231,7.01198786 57.7986106,7.43460532 58.5497941,8.20727765 C59.3009776,8.97994998 59.7192958,10.0366804 59.7092013,11.136103 C59.7092013,13.1912267 58.1913725,15.3650123 55.470919,15.3650123 Z M57.5561151,13.9562174 C57.9214612,13.3876936 58.0977625,12.7101403 58.0580169,12.0273298 C58.0580169,10.5124967 57.3572941,7.58129449 55.2890705,7.58129449 C54.7365563,7.58639991 54.2037634,7.79578593 53.7857897,8.17207942 C53.1359844,8.78053742 53.0196013,9.54552817 53.0196013,10.2928459 C53.0196013,12.0121815 53.8367072,14.8373454 55.8564378,14.8373454 C56.5242857,14.8371535 57.1534309,14.510999 57.5561151,13.9562174 L57.5561151,13.9562174 Z" id="Shape" stroke="#FFB600" stroke-width="0.744680851"></path>
                            <path d="M46.4294119,15.3650123 C45.360916,15.4027175 44.3236264,14.9863964 43.5558562,14.211697 C42.788086,13.4369975 42.3558419,12.3705224 42.3584303,11.2572897 C42.3584303,8.98503989 44.1429702,7.03595455 46.6791505,7.03595455 C47.7344025,7.0147092 48.7528939,7.43958132 49.502173,8.21360177 C50.2514521,8.98762222 50.6675755,10.0447362 50.6555709,11.1436772 C50.6555709,13.1912267 49.1474407,15.3650123 46.4294119,15.3650123 Z M48.514608,13.9562174 C48.8781164,13.3869215 49.053469,12.7097427 49.0140852,12.0273298 C49.0140852,10.5124967 48.3133623,7.58129449 46.2451388,7.58129449 C45.6932628,7.58589596 45.1610716,7.79538339 44.7442825,8.17207942 C44.0920526,8.78053742 43.9756696,9.54552817 43.9756696,10.2928459 C43.9756696,12.0121815 44.7927755,14.8373454 46.8125061,14.8373454 C47.4812068,14.8379453 48.1114097,14.5117078 48.514608,13.9562174 Z" id="Shape" stroke="#FFB600" stroke-width="0.744680851"></path>
                            <path d="M41.0830662,15.0923423 L38.6850907,15.6679789 C37.7710348,15.8423296 36.8451637,15.9411019 35.9161443,15.9633714 C31.287494,15.9633714 29.5272006,12.4287606 29.5272006,9.65156649 C29.5272006,6.26338963 32.0245866,3.1201108 36.3040878,3.1201108 C37.1710744,3.12183628 38.0339001,3.24496816 38.8693639,3.48619548 C39.6660584,3.69921441 40.4170643,4.06666163 41.0830662,4.5693012 L39.6913191,5.95032411 L39.1045546,6.08918381 L39.5240185,5.38983583 C38.9518019,4.81419923 37.9116285,3.74876656 35.9331169,3.74876656 C33.2829781,3.74876656 31.287494,5.84681051 31.287494,8.90172407 C31.287494,12.1838626 33.5690864,15.276647 37.2230288,15.276647 C37.9556263,15.2956996 38.6832688,15.146578 39.3542932,14.8398701 L39.3542932,12.0147062 L36.8350854,12.1586154 L38.175915,11.4011988 L41.7328715,11.4011988 L41.2964351,11.8379757 C41.204322,11.900592 41.14318,12.0020879 41.1291345,12.1156951 C41.1097373,12.2747526 41.0951894,12.779697 41.0951894,12.9539028 L41.0830662,15.0923423 Z" id="Shape" stroke="#FFB600" stroke-width="0.744680851"></path>
                            <path d="M71.2941626,14.5899226 C70.7389186,14.5369035 70.6225355,14.4333899 70.6225355,13.7491902 L70.6225355,3.86490377 C70.6225355,3.82703294 70.6225355,3.78916211 70.6225355,3.75129128 C70.6904256,3.14030857 70.8650002,3.03679497 71.3790253,2.72120473 L68.9786251,2.72120473 L67.7202336,3.34986049 L69.0028716,3.34986049 L69.0028716,14.1354727 C69.0028716,14.4838843 68.9349815,14.5369035 68.5494627,15.0595209 L71.5196548,15.0595209 L72.1403643,14.6757632 C71.8639546,14.6404171 71.5778463,14.622744 71.2941626,14.5899226 Z" id="Shape" stroke="#FFB600" stroke-width="0.744680851"></path>
                            <path d="M78.1171181,14.7489801 C77.9352696,14.8550184 77.7534211,14.9762051 77.569148,15.0620456 C77.0590403,15.291633 76.507516,15.4044243 75.9519087,15.3927842 C75.1612982,15.4286718 74.3816769,15.1897505 73.7357817,14.713634 C72.5549788,13.8476544 72.0385291,12.3555437 72.0385291,11.0553119 C72.0385291,8.36648301 74.1382731,7.04857816 75.8524982,7.04857816 C76.4568775,7.04074753 77.051373,7.20862083 77.569148,7.53332477 C78.1514364,7.93248471 78.5678625,8.54549377 78.735403,9.2501357 L74.8220234,10.8987791 L73.5369607,11.0022927 C73.9539999,13.206375 75.3869661,14.4889338 76.9702603,14.4889338 C77.6852432,14.4650093 78.3833668,14.256817 79.0021141,13.8830005 L78.1171181,14.7489801 Z M76.5532211,9.58087427 C76.8684251,9.45968762 77.0381504,9.3536493 77.0381504,9.11127599 C77.0381504,8.41950218 76.2889346,7.61916532 75.3893907,7.61916532 C74.7226129,7.61916532 73.4739199,8.15945581 73.4739199,10.0302748 C73.4739199,10.3256673 73.5054403,10.6387328 73.5248375,10.9517983 L76.5532211,9.58087427 Z" id="Shape" stroke="#FFB600" stroke-width="0.744680851"></path>
                            <polygon id="Shape" stroke="#FFB600" stroke-width="0.744680851" points="79.7270834 7.16724009 79.7270834 8.31093913 79.5937279 8.31093913 79.5937279 7.16724009 79.2300309 7.16724009 79.2300309 7.04857816 80.0907804 7.04857816 80.0907804 7.16724009"></polygon>
                            <polygon id="Shape" stroke="#FFB600" stroke-width="0.744680851" points="81.225515 8.31093913 81.225515 7.1571412 81.225515 7.1571412 80.8860645 8.31093913 80.7818047 8.31093913 80.4423542 7.1571412 80.4423542 7.1571412 80.4423542 8.31093913 80.3211219 8.31093913 80.3211219 7.04857816 80.5296415 7.04857816 80.8375716 8.05846694 80.8375716 8.05846694 81.1406524 7.04857816 81.3515966 7.04857816 81.3515966 8.31093913"></polygon>
                        </g>
                    </g>
                </g>
            </g>
        </g>
    </g>
</svg>