<?xml version="1.0" encoding="UTF-8"?>
<svg width="148px" height="43px" viewBox="0 0 148 43" version="1.1" xmlns="http://www.w3.org/2000/svg" xmlns:xlink="http://www.w3.org/1999/xlink">
    <!-- Generator: sketchtool 54 (76480) - https://sketchapp.com -->
    <title>3837E095-3804-499B-A586-EA8DA9FC0427</title>
    <desc>Created with sketchtool.</desc>
    <g id="Page-3" stroke="none" stroke-width="1" fill="none" fill-rule="evenodd">
        <g id="about-req-" transform="translate(-398.000000, -3625.000000)" fill="#FFB600" fill-rule="nonzero">
            <path d="M521.39282,3644.50289 L525.122523,3644.50289 L521.39282,3644.50289 L526.196604,3655.21692 L522.100644,3655.21692 L518.747359,3647.77118 L512.64843,3634.11304 L506.572006,3647.77118 L505.378106,3650.49528 L513.192797,3650.49528 L514.743631,3655.21692 L503.308741,3655.21692 L499.235287,3655.21692 L512.64843,3625 L521.39282,3644.50289 Z M533.742862,3655.21692 L532.048618,3651.28352 C532.15902,3651.2663 532.266064,3651.24847 532.369749,3651.23004 C533.93759,3650.95123 535.425416,3650.34185 536.833273,3649.40188 C538.241129,3648.46191 539.360999,3647.21527 540.192914,3645.66192 C541.024829,3644.10858 541.440781,3642.39992 541.440781,3640.53591 C541.440781,3638.19394 540.776858,3636.07505 539.448993,3634.17918 C538.121129,3632.2833 536.533314,3631.00878 534.685502,3630.35558 C532.83769,3629.70238 530.35398,3629.37578 527.234298,3629.37578 L525.122523,3629.37578 L525.122523,3635.20371 L520.946969,3625.50963 L520.946969,3625.31321 L528.362177,3625.31321 C534.23358,3625.31321 538.60107,3626.85856 541.464778,3629.94932 C544.328487,3633.04008 545.76032,3636.56891 545.76032,3640.53591 C545.76032,3644.53478 544.280492,3648.07157 541.320794,3651.1464 C539.375399,3653.16746 536.849434,3654.5243 533.742862,3655.21692 Z M398,3625 L419.236415,3644.6804 L419.236415,3626.16366 L423.159065,3626.16366 L423.159065,3656.5785 L401.92265,3637.01219 L401.92265,3655.23231 L398,3655.23231 L398,3625 Z M427.951268,3640.28035 C427.951268,3636.08394 429.488396,3632.48815 432.562698,3629.49288 C435.636999,3626.49761 439.332018,3625 443.647865,3625 C447.860249,3625 451.488758,3626.50901 454.533499,3629.52709 C457.57824,3632.54516 459.100587,3636.12955 459.100587,3640.28035 C459.100587,3644.67443 457.596715,3648.38805 454.588924,3651.42132 C451.581134,3654.4546 447.88981,3655.97122 443.514843,3655.97122 C439.198996,3655.97122 435.526148,3654.4432 432.496187,3651.38712 C429.466226,3648.33103 427.951268,3644.62881 427.951268,3640.28035 Z M454.90741,3640.50812 C454.90741,3637.34109 453.796319,3634.67317 451.574105,3632.50427 C449.351891,3630.33538 446.618023,3629.25095 443.37242,3629.25095 C440.287636,3629.25095 437.645141,3630.35414 435.444856,3632.56056 C433.244572,3634.76698 432.144446,3637.41614 432.144446,3640.50812 C432.144446,3643.64514 433.273811,3646.29805 435.532575,3648.46695 C437.791339,3650.63584 440.558101,3651.72027 443.832943,3651.72027 C446.844628,3651.72027 449.443264,3650.61332 451.628929,3648.3994 C453.814594,3646.18548 454.90741,3643.55508 454.90741,3640.50812 Z M487.81162,3625 L495.641135,3655.45397 L490.618321,3655.45397 L487.069166,3641.70017 L478.902172,3656.5785 L470.71268,3641.56247 L467.118528,3655.45397 L462.095714,3655.45397 L469.925229,3625 L478.902172,3645.58746 L487.81162,3625 Z M403.506241,3667.88355 L402.348924,3667.88355 L401.888873,3666.75499 L399.761135,3666.75499 L399.301083,3667.88355 L398.172519,3667.88355 L400.329011,3662.8158 L401.34975,3662.8158 L403.506241,3667.88355 Z M401.493516,3665.77738 L400.825004,3664.14563 L400.156491,3665.77738 L401.493516,3665.77738 Z M410.590315,3665.36765 C410.590315,3666.78374 409.497693,3667.88355 407.916266,3667.88355 L405.953859,3667.88355 L405.953859,3662.85174 L407.916266,3662.85174 C409.497693,3662.85174 410.590315,3663.93717 410.590315,3665.35327 L410.590315,3665.36765 Z M409.432998,3665.38202 L409.432998,3665.36765 C409.432998,3664.4763 408.821992,3663.85091 407.916266,3663.85091 L407.060858,3663.85091 L407.060858,3666.88438 L407.916266,3666.88438 C408.821992,3666.88438 409.432998,3666.27337 409.432998,3665.38202 Z M417.789402,3667.88355 L416.632085,3667.88355 L416.172034,3666.75499 L414.044296,3666.75499 L413.584244,3667.88355 L412.45568,3667.88355 L414.612172,3662.8158 L415.632911,3662.8158 L417.789402,3667.88355 Z M415.776677,3665.77738 L415.108165,3664.14563 L414.439652,3665.77738 L415.776677,3665.77738 Z M424.528438,3667.88355 L423.234543,3667.88355 L422.105979,3666.15836 L420.970227,3667.88355 L419.712274,3667.88355 L421.46622,3665.32452 L419.784157,3662.85174 L421.078052,3662.85174 L422.134732,3664.48348 L423.198601,3662.85174 L424.456555,3662.85174 L422.774491,3665.31014 L424.528438,3667.88355 Z M435.325271,3667.88355 L434.383603,3667.88355 L431.946768,3664.68476 L431.946768,3667.88355 L430.854146,3667.88355 L430.854146,3662.85174 L431.874885,3662.85174 L434.232649,3665.9499 L434.232649,3662.85174 L435.325271,3662.85174 L435.325271,3667.88355 Z M443.329448,3665.36765 C443.329448,3666.79812 442.200884,3667.96981 440.648211,3667.96981 C439.095537,3667.96981 437.98135,3666.81249 437.98135,3665.38202 L437.98135,3665.36765 C437.98135,3663.93717 439.109913,3662.76548 440.662587,3662.76548 C442.215261,3662.76548 443.329448,3663.9228 443.329448,3665.35327 L443.329448,3665.36765 Z M442.172131,3665.38202 L442.172131,3665.36765 C442.172131,3664.50505 441.53956,3663.78622 440.648211,3663.78622 C439.756861,3663.78622 439.138667,3664.49067 439.138667,3665.35327 L439.138667,3665.36765 C439.138667,3666.23024 439.771237,3666.94907 440.662587,3666.94907 C441.553937,3666.94907 442.172131,3666.24462 442.172131,3665.38202 Z M451.01734,3667.88355 L449.917529,3667.88355 L449.917529,3664.5985 L448.501433,3666.7478 L448.47268,3666.7478 L447.070961,3664.62006 L447.070961,3667.88355 L445.985527,3667.88355 L445.985527,3662.85174 L447.178785,3662.85174 L448.501433,3664.97948 L449.824081,3662.85174 L451.01734,3662.85174 L451.01734,3667.88355 Z M455.053573,3667.88355 L453.946574,3667.88355 L453.946574,3662.85174 L455.053573,3662.85174 L455.053573,3667.88355 Z M462.453932,3667.88355 L461.512264,3667.88355 L459.075429,3664.68476 L459.075429,3667.88355 L457.982807,3667.88355 L457.982807,3662.85174 L459.003546,3662.85174 L461.36131,3665.9499 L461.36131,3662.85174 L462.453932,3662.85174 L462.453932,3667.88355 Z M470.235272,3667.88355 L469.077955,3667.88355 L468.617903,3666.75499 L466.490165,3666.75499 L466.030114,3667.88355 L464.90155,3667.88355 L467.058041,3662.8158 L468.07878,3662.8158 L470.235272,3667.88355 Z M468.222547,3665.77738 L467.554034,3664.14563 L466.885522,3665.77738 L468.222547,3665.77738 Z M475.845743,3663.87248 L474.314635,3663.87248 L474.314635,3667.88355 L473.207636,3667.88355 L473.207636,3663.87248 L471.676527,3663.87248 L471.676527,3662.85174 L475.845743,3662.85174 L475.845743,3663.87248 Z M482.196611,3667.88355 L478.365244,3667.88355 L478.365244,3662.85174 L482.160669,3662.85174 L482.160669,3663.83654 L479.465055,3663.83654 L479.465055,3664.85728 L481.837195,3664.85728 L481.837195,3665.84207 L479.465055,3665.84207 L479.465055,3666.89875 L482.196611,3666.89875 L482.196611,3667.88355 Z M489.489145,3665.36765 C489.489145,3666.78374 488.396523,3667.88355 486.815096,3667.88355 L484.852689,3667.88355 L484.852689,3662.85174 L486.815096,3662.85174 C488.396523,3662.85174 489.489145,3663.93717 489.489145,3665.35327 L489.489145,3665.36765 Z M488.331828,3665.38202 L488.331828,3665.36765 C488.331828,3664.4763 487.720823,3663.85091 486.815096,3663.85091 L485.959688,3663.85091 L485.959688,3666.88438 L486.815096,3666.88438 C487.720823,3666.88438 488.331828,3666.27337 488.331828,3665.38202 Z M500.87542,3667.88355 L499.718103,3667.88355 L499.258051,3666.75499 L497.130313,3666.75499 L496.670262,3667.88355 L495.541698,3667.88355 L497.698189,3662.8158 L498.718928,3662.8158 L500.87542,3667.88355 Z M498.862694,3665.77738 L498.194182,3664.14563 L497.52567,3665.77738 L498.862694,3665.77738 Z M507.959494,3665.36765 C507.959494,3666.78374 506.866872,3667.88355 505.285445,3667.88355 L503.323037,3667.88355 L503.323037,3662.85174 L505.285445,3662.85174 C506.866872,3662.85174 507.959494,3663.93717 507.959494,3665.35327 L507.959494,3665.36765 Z M506.802177,3665.38202 L506.802177,3665.36765 C506.802177,3664.4763 506.191171,3663.85091 505.285445,3663.85091 L504.430036,3663.85091 L504.430036,3666.88438 L505.285445,3666.88438 C506.191171,3666.88438 506.802177,3666.27337 506.802177,3665.38202 Z M514.90699,3662.85174 L512.8727,3667.91949 L511.895091,3667.91949 L509.8608,3662.85174 L511.082812,3662.85174 L512.398272,3666.39557 L513.713732,3662.85174 L514.90699,3662.85174 Z M518.511925,3667.88355 L517.404926,3667.88355 L517.404926,3662.85174 L518.511925,3662.85174 L518.511925,3667.88355 Z M525.078441,3666.39557 C525.078441,3667.39475 524.316481,3667.95544 523.231047,3667.95544 C522.469086,3667.95544 521.699938,3667.68947 521.09612,3667.15035 L521.750256,3666.36682 C522.203119,3666.74061 522.677547,3666.97783 523.252612,3666.97783 C523.705475,3666.97783 523.97863,3666.79812 523.97863,3666.5034 L523.97863,3666.48902 C523.97863,3666.20868 523.806111,3666.06491 522.965079,3665.84926 C521.951529,3665.59048 521.297393,3665.31014 521.297393,3664.31096 L521.297393,3664.29659 C521.297393,3663.38367 522.0306,3662.77986 523.058527,3662.77986 C523.791734,3662.77986 524.417117,3663.00988 524.927487,3663.41962 L524.352422,3664.25346 C523.906747,3663.94436 523.468261,3663.75747 523.044151,3663.75747 C522.620041,3663.75747 522.397203,3663.95155 522.397203,3664.19595 L522.397203,3664.21033 C522.397203,3664.54099 522.612853,3664.64882 523.482637,3664.87165 C524.503377,3665.13762 525.078441,3665.50422 525.078441,3666.3812 L525.078441,3666.39557 Z M532.838216,3665.36765 C532.838216,3666.79812 531.709652,3667.96981 530.156978,3667.96981 C528.604304,3667.96981 527.490117,3666.81249 527.490117,3665.38202 L527.490117,3665.36765 C527.490117,3663.93717 528.618681,3662.76548 530.171355,3662.76548 C531.724028,3662.76548 532.838216,3663.9228 532.838216,3665.35327 L532.838216,3665.36765 Z M531.680899,3665.38202 L531.680899,3665.36765 C531.680899,3664.50505 531.048328,3663.78622 530.156978,3663.78622 C529.265628,3663.78622 528.647434,3664.49067 528.647434,3665.35327 L528.647434,3665.36765 C528.647434,3666.23024 529.280005,3666.94907 530.171355,3666.94907 C531.062704,3666.94907 531.680899,3666.24462 531.680899,3665.38202 Z M539.843218,3667.88355 L538.549324,3667.88355 L537.471078,3666.27337 L536.601293,3666.27337 L536.601293,3667.88355 L535.494294,3667.88355 L535.494294,3662.85174 L537.794552,3662.85174 C538.980622,3662.85174 539.692264,3663.47712 539.692264,3664.51224 L539.692264,3664.52661 C539.692264,3665.33889 539.253777,3665.84926 538.614018,3666.08648 L539.843218,3667.88355 Z M538.570889,3664.58412 L538.570889,3664.56974 C538.570889,3664.09532 538.240227,3663.85091 537.701104,3663.85091 L536.601293,3663.85091 L536.601293,3665.29576 L537.722669,3665.29576 C538.261791,3665.29576 538.570889,3665.00823 538.570889,3664.58412 Z M546.000001,3666.39557 C546.000001,3667.39475 545.238041,3667.95544 544.152607,3667.95544 C543.390647,3667.95544 542.621498,3667.68947 542.017681,3667.15035 L542.671816,3666.36682 C543.124679,3666.74061 543.599108,3666.97783 544.174172,3666.97783 C544.627035,3666.97783 544.900191,3666.79812 544.900191,3666.5034 L544.900191,3666.48902 C544.900191,3666.20868 544.727671,3666.06491 543.88664,3665.84926 C542.873089,3665.59048 542.218953,3665.31014 542.218953,3664.31096 L542.218953,3664.29659 C542.218953,3663.38367 542.95216,3662.77986 543.980088,3662.77986 C544.713295,3662.77986 545.338677,3663.00988 545.849047,3663.41962 L545.273982,3664.25346 C544.828308,3663.94436 544.389821,3663.75747 543.965711,3663.75747 C543.541601,3663.75747 543.318764,3663.95155 543.318764,3664.19595 L543.318764,3664.21033 C543.318764,3664.54099 543.534413,3664.64882 544.404198,3664.87165 C545.424937,3665.13762 546.000001,3665.50422 546.000001,3666.3812 L546.000001,3666.39557 Z" id="logo"></path>
        </g>
    </g>
</svg>