<?xml version="1.0" encoding="UTF-8"?>
<svg width="84px" height="84px" viewBox="0 0 84 84" version="1.1" xmlns="http://www.w3.org/2000/svg" xmlns:xlink="http://www.w3.org/1999/xlink">
    <!-- Generator: sketchtool 54 (76480) - https://sketchapp.com -->
    <title>0F9BABB7-495C-4FC3-8EF3-D5D86BFBBC74</title>
    <desc>Created with sketchtool.</desc>
    <g id="Page-3" stroke="none" stroke-width="1" fill="none" fill-rule="evenodd">
        <g id="Success" transform="translate(-918.000000, -185.000000)" fill="#F0AB00">
            <g id="success" transform="translate(918.208955, 185.000000)">
                <path d="M41.7910448,0 C18.7481056,0 0,18.7464983 0,41.7910448 C0,64.8355913 18.7481056,83.5820896 41.7910448,83.5820896 C64.8339839,83.5820896 83.5820896,64.8355913 83.5820896,41.7910448 C83.5820896,18.7464983 64.8339839,0 41.7910448,0 Z M41.7910448,80.3673938 C20.5210103,80.3673938 3.21469575,63.0610792 3.21469575,41.7910448 C3.21469575,20.5210103 20.5210103,3.21469575 41.7910448,3.21469575 C63.0610792,3.21469575 80.3673938,20.5210103 80.3673938,41.7910448 C80.3673938,63.0610792 63.0610792,80.3673938 41.7910448,80.3673938 Z" id="Shape"></path>
                <path d="M61.484271,24.650287 L36.7809414,52.4413318 L21.8985075,40.5357061 C21.2073479,39.9811711 20.1931114,40.0952928 19.6401837,40.7864524 C19.0856487,41.4808266 19.198163,42.4918485 19.89093,43.0463835 L35.9644087,55.9051665 C36.2601607,56.1414466 36.6153846,56.2571757 36.9690011,56.2571757 C37.4126292,56.2571757 37.8546498,56.073938 38.1712974,55.7171068 L63.8888634,26.784845 C64.47876,26.1226177 64.4192882,25.1051665 63.7554535,24.5168772 C63.0900115,23.9253731 62.075775,23.984845 61.484271,24.650287 Z" id="Path"></path>
            </g>
        </g>
    </g>
</svg>