<?xml version="1.0" encoding="UTF-8"?>
<svg width="158px" height="45px" viewBox="0 0 158 45" version="1.1" xmlns="http://www.w3.org/2000/svg" xmlns:xlink="http://www.w3.org/1999/xlink">
    <!-- Generator: sketchtool 53 (72520) - https://sketchapp.com -->
    <title>CDF10B15-734F-4FC2-8455-85659AED4F0F</title>
    <desc>Created with sketchtool.</desc>
    <g id="Page-1" stroke="none" stroke-width="1" fill="none" fill-rule="evenodd">
        <g id="1-ADAX-landing" transform="translate(-238.000000, -3796.000000)" fill="#FFB600">
            <g id="Group-2" transform="translate(0.000000, 3712.000000)">
                <g id="logo-(1)" transform="translate(238.000000, 84.000000)">
                    <polygon id="Combined-Shape-Copy-24" points="28.5235089 33.4520581 19.6078562 13.3875338 10.7251025 33.4520581 5.95473484 44.3902436 -2.06057393e-13 44.3902436 19.6078562 2.84217094e-13 39.4131069 44.3902436 33.4254729 44.3902436"></polygon>
                    <polygon id="Combined-Shape-Copy-27" points="99.3416942 33.4520581 90.4260415 13.3875338 81.5432876 33.4520581 76.7729202 44.3902436 70.8181852 44.3902436 90.4260415 2.84217094e-13 110.231292 44.3902436 104.243658 44.3902436"></polygon>
                    <path d="M50.444522,44.3902436 L47.9678097,38.6118692 C48.1292,38.586574 48.2856807,38.560383 48.4372519,38.5332965 C50.7291823,38.1237167 52.9041448,37.2285057 54.962205,35.8476367 C57.0202648,34.4667676 58.6573335,32.6353883 59.87346,30.3534437 C61.0895861,28.0714992 61.6976404,25.5613978 61.6976404,22.8230643 C61.6976404,19.382594 60.7270925,16.2698343 58.7859676,13.4846917 C56.8448431,10.699549 54.5237137,8.82721235 51.82251,7.8676254 C49.1213059,6.90803844 45.4905217,6.42825216 40.9300481,6.42825216 L37.8429734,6.42825216 L37.8429734,14.9897877 L31.7389851,0.748677731 L31.7389851,0.460119279 L42.5788263,0.460119279 C51.1618722,0.460119279 57.5464396,2.73032752 61.7327208,7.27081211 C65.9190017,11.8112967 68.0121109,16.9953289 68.0121109,22.8230643 C68.0121109,28.6976088 65.8488416,33.8933431 61.5222382,38.4104231 C58.6783841,41.3794767 54.9858298,43.3727438 50.444522,44.3902436 Z M31.7389851,28.6507705 L31.7389851,28.6507705 L37.8429734,28.6507705 L37.8429734,28.6507705 L31.7389851,28.6507705 Z" id="Combined-Shape-Copy-25" fill-rule="nonzero"></path>
                    <g id="Group" transform="translate(116.906211, 0.000000)">
                        <polygon id="x-copy-15" transform="translate(12.793426, 21.965062) scale(-1, 1) translate(-12.793426, -21.965062) " points="5.15499855 14.2148479 14.1480246 1.59872116e-13 24.3639516 1.59872116e-13 10.3476245 21.0835212 25.5868526 43.9301243 15.3709256 43.9301243 5.15499855 27.9154636 3.57819463e-07 21.0835212"></polygon>
                        <path d="M26.1182479,5.65146714 L29.6936496,1.49213975e-13 L39.9095767,1.49213975e-13 L31.0110435,13.3852762 L26.1182479,5.65146714 Z M31.0052042,28.7473477 L41.1324777,43.9301243 L30.9165506,43.9301243 L26.1182479,36.4082235 L31.0052042,28.7473477 Z M19.648961,26.5216905 L15.5456254,21.0835212 L19.6579376,15.6041537 L23.0120409,21.0835212 L19.648961,26.5216905 Z" id="Combined-Shape-Copy-26" fill-rule="nonzero"></path>
                    </g>
                </g>
            </g>
        </g>
    </g>
</svg>