<?xml version="1.0" encoding="UTF-8"?>
<svg width="140px" height="116px" viewBox="0 0 140 116" version="1.1" xmlns="http://www.w3.org/2000/svg" xmlns:xlink="http://www.w3.org/1999/xlink">
    <!-- Generator: Sketch 53 (72520) - https://sketchapp.com -->
    <title>image 3</title>
    <desc>Created with Sketch.</desc>
    <g id="Page-1" stroke="none" stroke-width="1" fill="none" fill-rule="evenodd">
        <g id="1-ADAX-landing" transform="translate(-1476.000000, -2316.000000)" fill-rule="nonzero">
            <g id="image-3" transform="translate(1476.000000, 2316.000000)">
                <g id="coin-(3)">
                    <path d="M47.0535714,85 C26.5154464,85 9.86607143,65.9721429 9.86607143,42.5 C9.86607143,19.0278571 26.5154464,0 47.0535714,0 C67.5916964,0 84.2410714,19.0278571 84.2410714,42.5 C84.2410714,65.9721429 67.5916964,85 47.0535714,85" id="XMLID_91_" fill="#FCC62D"></path>
                    <path d="M9.86607143,42.5 C9.86607143,20.7916071 24.1111607,2.89607143 42.5,0.329375 C41.0064286,0.119910714 39.4885714,0 37.9464286,0 C17.4083036,0 0.758928571,19.0278571 0.758928571,42.5 C0.758928571,65.9721429 17.4083036,85 37.9464286,85 C39.4885714,85 41.0064286,84.8800893 42.5,84.6721429 C24.1111607,82.1039286 9.86607143,64.2083929 9.86607143,42.5" id="XMLID_136_" fill="#E4AF18"></path>
                    <path d="M9.86455357,44.019375 L0.760446429,44.019375 C0.790803571,45.0408929 0.848482143,46.0533036 0.941071429,47.0550893 L10.0527679,47.0550893 C9.95866071,46.0548214 9.89491071,45.0424107 9.86455357,44.019375" id="XMLID_135_" fill="#CE9912"></path>
                    <path d="M10.210625,36.4300893 L1.10955357,36.4300893 C0.983571429,37.4303571 0.894017857,38.4442857 0.82875,39.4658036 L9.934375,39.4658036 C9.99964286,38.4458036 10.0876786,37.431875 10.210625,36.4300893" id="XMLID_134_" fill="#CE9912"></path>
                    <path d="M10.699375,51.6086607 L1.59071429,51.6086607 C1.78803571,52.6347321 2.01571429,53.6471429 2.27526786,54.644375 L11.3808929,54.644375 C11.1213393,53.6486607 10.8951786,52.63625 10.699375,51.6086607" id="XMLID_133_" fill="#CE9912"></path>
                    <path d="M12.8228571,59.1979464 L3.70964286,59.1979464 C4.09669643,60.233125 4.52321429,61.2425 4.98008929,62.2336607 L14.0902679,62.2336607 C13.6333929,61.2455357 13.2099107,60.233125 12.8228571,59.1979464" id="XMLID_132_" fill="#CE9912"></path>
                    <path d="M11.7983036,28.8408036 L2.69875,28.8408036 C2.40428571,29.8380357 2.12803571,30.8474107 1.89732143,31.8765179 L11.0150893,31.8765179 C11.2442857,30.8519643 11.5023214,29.8365179 11.7983036,28.8408036" id="XMLID_131_" fill="#CE9912"></path>
                    <path d="M14.8203571,21.2530357 L5.71169643,21.2530357 C5.21232143,22.2411607 4.74026786,23.2520536 4.30919643,24.28875 L13.4224107,24.28875 C13.8534821,23.2520536 14.3194643,22.2396429 14.8203571,21.2530357" id="XMLID_130_" fill="#CE9912"></path>
                    <path d="M21.0147321,12.1458929 L11.8969643,12.1458929 C11.0333036,13.11125 10.2121429,14.1236607 9.435,15.1816071 L18.5497321,15.1816071 C19.326875,14.1236607 20.1495536,13.11125 21.0147321,12.1458929" id="XMLID_129_" fill="#CE9912"></path>
                    <path d="M30.2949107,4.55508929 L21.1665179,4.55508929 C19.6167857,5.450625 18.1277679,6.46455357 16.7100893,7.59080357 L25.8308929,7.59080357 C27.2500893,6.46607143 28.740625,5.45214286 30.2949107,4.55508929" id="XMLID_128_" fill="#CE9912"></path>
                    <path d="M17.4841964,68.3050893 L8.37401786,68.3050893 C9.07830357,69.3569643 9.82205357,70.369375 10.6098214,71.3408036 L19.7275893,71.3408036 C18.9383036,70.369375 18.1915179,69.3569643 17.4841964,68.3050893" id="XMLID_127_" fill="#CE9912"></path>
                    <path d="M14.9266071,75.894375 C16.1454464,76.9917857 17.4234821,78.0117857 18.7576786,78.9300893 L27.8875893,78.9300893 C26.5442857,78.00875 25.255625,76.9963393 24.0291964,75.894375 L14.9266071,75.894375 Z" id="XMLID_126_" fill="#CE9912"></path>
                    <path d="M47.1825893,76.6882143 L47.0535714,76.6882143 C45.9910714,76.6882143 44.9209821,76.6244643 43.8736607,76.5 C43.041875,76.3998214 42.4453571,75.6454464 42.5470536,74.8121429 C42.6441964,73.9803571 43.3773214,73.4005357 44.2333929,73.4855357 C45.1592857,73.5963393 46.1094643,73.6525 47.0520536,73.6525 C47.8914286,73.6525 48.6336607,74.3325 48.6336607,75.1703571 C48.6351786,76.0082143 48.0219643,76.6882143 47.1825893,76.6882143 M56.0104464,75.0534821 C55.3972321,75.0534821 54.8189286,74.6785714 54.5882143,74.0699107 C54.2922321,73.2866964 54.6899107,72.4108929 55.473125,72.1149107 C56.3504464,71.7840179 57.2232143,71.3969643 58.0625893,70.9658929 C58.8108929,70.5803571 59.723125,70.8763393 60.1086607,71.6216071 C60.4911607,72.366875 60.1982143,73.2821429 59.4499107,73.6646429 C58.5073214,74.1503571 57.5298214,74.5829464 56.5432143,74.9548214 C56.3686607,75.0216071 56.1880357,75.0534821 56.0104464,75.0534821 M35.46625,73.8938393 C35.2340179,73.8938393 34.99875,73.8407143 34.7801786,73.7283929 C33.8421429,73.2533036 32.9177679,72.7175 32.034375,72.1376786 C31.3316071,71.6792857 31.1358036,70.7382143 31.5957143,70.0369643 C32.0571429,69.3372321 32.9951786,69.1399107 33.6979464,69.5998214 C34.48875,70.1174107 35.3144643,70.5970536 36.1538393,71.0220536 C36.9021429,71.4015179 37.198125,72.3152679 36.8186607,73.0620536 C36.5530357,73.5902679 36.0202679,73.8938393 35.46625,73.8938393 M65.991875,68.4933036 C65.6048214,68.4933036 65.2192857,68.3475893 64.9248214,68.0561607 C64.3283036,67.4657143 64.3222321,66.5049107 64.9111607,65.9083929 C65.5744643,65.2405357 66.2134821,64.5225893 66.8221429,63.7788393 C67.3503571,63.1291964 68.3050893,63.0305357 68.9547321,63.55875 C69.6074107,64.0884821 69.7030357,65.0447321 69.1763393,65.694375 C68.5084821,66.5140179 67.7996429,67.3048214 67.0710714,68.0425 C66.7735714,68.3430357 66.3819643,68.4933036 65.991875,68.4933036 M26.1936607,66.3576786 C25.7534821,66.3576786 25.319375,66.1679464 25.0203571,65.8021429 C24.3646429,65.0052679 23.7332143,64.1552679 23.14125,63.2764286 C22.6707143,62.5827679 22.8528571,61.6386607 23.5465179,61.168125 C24.2432143,60.700625 25.1842857,60.8827679 25.6563393,61.5779464 C26.1966964,62.3778571 26.7734821,63.1534821 27.37,63.8790179 C27.8997321,64.5271429 27.8071429,65.4833929 27.1559821,66.0146429 C26.8736607,66.2453571 26.5321429,66.3576786 26.1936607,66.3576786 M72.6598214,58.5574107 C72.4579464,58.5574107 72.2530357,58.5164286 72.0541964,58.4314286 C71.2861607,58.0959821 70.9355357,57.2019643 71.2694643,56.4324107 C71.6504464,55.558125 71.9965179,54.6534821 72.3046429,53.7473214 C72.5733036,52.9534821 73.4339286,52.5269643 74.2292857,52.7925893 C75.0216071,53.06125 75.4496429,53.921875 75.1825,54.7157143 C74.8470536,55.7053571 74.4675893,56.6904464 74.0547321,57.6451786 C73.8027679,58.2158929 73.2457143,58.5574107 72.6598214,58.5574107 M20.4075893,55.876875 C19.7761607,55.876875 19.1841964,55.4791964 18.9701786,54.8477679 C18.6347321,53.8641964 18.3357143,52.8502679 18.0822321,51.839375 C17.881875,51.0258036 18.3766964,50.203125 19.18875,50.00125 C20.0008036,49.7948214 20.825,50.2926786 21.0299107,51.10625 C21.2591071,52.0336607 21.5338393,52.9641071 21.8419643,53.86875 C22.1151786,54.6595536 21.6886607,55.5247321 20.8963393,55.7949107 C20.7354464,55.8495536 20.57,55.876875 20.4075893,55.876875 M75.5300893,46.9245536 C75.4936607,46.9245536 75.4511607,46.9230357 75.4116964,46.92 C74.5753571,46.85625 73.95,46.1261607 74.0152679,45.2898214 C74.088125,44.3745536 74.1215179,43.4365179 74.1215179,42.5 C74.1215179,41.6621429 74.8015179,40.9320536 75.639375,40.9320536 C76.47875,40.9320536 77.1572321,41.5619643 77.1572321,42.4013393 L77.1572321,42.5 C77.1572321,43.5154464 77.1192857,44.5324107 77.041875,45.5235714 C76.9796429,46.3204464 76.3163393,46.9245536 75.5300893,46.9245536 M18.46625,44.0345536 C17.6283929,44.0345536 16.9483929,43.3727679 16.9483929,42.5349107 L16.9483929,42.5 C16.9483929,41.4754464 16.9908929,40.4357143 17.0713393,39.4096429 C17.1350893,38.5733036 17.881875,37.9600893 18.7030357,38.01625 C19.5378571,38.0815179 20.1632143,38.8116071 20.0979464,39.6479464 C20.0235714,40.5950893 19.9841071,41.554375 19.9841071,42.5 C19.9841071,43.3378571 19.305625,44.0345536 18.46625,44.0345536 M74.5328571,34.9820536 C73.854375,34.9820536 73.2335714,34.5236607 73.0605357,33.8345536 C72.8298214,32.9071429 72.5520536,31.9782143 72.2408929,31.0735714 C71.9691964,30.2797321 72.3941964,29.4160714 73.1834821,29.144375 C73.9864286,28.8696429 74.8409821,29.2946429 75.1141964,30.0869643 C75.4511607,31.0720536 75.7516964,32.0844643 76.0051786,33.0938393 C76.2085714,33.9074107 75.7152679,34.7316071 74.9001786,34.935 C74.7772321,34.9683929 74.6542857,34.9820536 74.5328571,34.9820536 M20.3863393,32.225625 C20.2254464,32.225625 20.06,32.1983036 19.900625,32.1436607 C19.1052679,31.875 18.6802679,31.0128571 18.9504464,30.2190179 C19.2858929,29.2263393 19.6683929,28.24125 20.0858036,27.2910714 C20.4242857,26.5230357 21.3122321,26.1708929 22.0833036,26.5108929 C22.8513393,26.8478571 23.2019643,27.7433929 22.8665179,28.5099107 C22.4840179,29.3811607 22.1333929,30.2842857 21.82375,31.1934821 C21.6097321,31.8264286 21.0192857,32.225625 20.3863393,32.225625 M69.6741964,24.0383036 C69.1869643,24.0383036 68.7073214,23.8045536 68.4158929,23.3719643 C67.8800893,22.5826786 67.3033036,21.8100893 66.6991964,21.0754464 C66.1649107,20.4288393 66.2605357,19.4710714 66.9071429,18.9383036 C67.5552679,18.4070536 68.51,18.4996429 69.0442857,19.14625 C69.7075893,19.95375 70.3405357,20.80375 70.9294643,21.6689286 C71.3984821,22.3641071 71.2148214,23.3066964 70.5211607,23.7772321 C70.2616071,23.9533036 69.9671429,24.0383036 69.6741964,24.0383036 M26.1511607,21.7311607 C25.8126786,21.7311607 25.4741964,21.6203571 25.1903571,21.3896429 C24.5407143,20.8583929 24.4466071,19.9036607 24.9763393,19.2540179 C25.6426786,18.4374107 26.3530357,17.648125 27.0846429,16.9104464 C27.678125,16.3139286 28.6374107,16.3124107 29.2308929,16.9013393 C29.8289286,17.4917857 29.8319643,18.4525893 29.24,19.0475893 C28.5766964,19.7169643 27.9346429,20.4333929 27.3259821,21.1741071 C27.0269643,21.5414286 26.5898214,21.7311607 26.1511607,21.7311607 M61.1863393,15.6141964 C60.9009821,15.6141964 60.6141071,15.53375 60.3575893,15.3683036 C59.56375,14.8491964 58.7365179,14.3725893 57.8986607,13.9521429 C57.151875,13.5757143 56.8513393,12.6604464 57.2292857,11.9121429 C57.6057143,11.1638393 58.5149107,10.8617857 59.26625,11.24125 C60.2027679,11.7117857 61.1286607,12.2460714 62.018125,12.8258929 C62.7208929,13.2827679 62.9197321,14.2238393 62.4613393,14.9266071 C62.166875,15.3713393 61.6811607,15.6141964 61.1863393,15.6141964 M35.4085714,14.17375 C34.8545536,14.17375 34.3233036,13.8716964 34.053125,13.3465179 C33.6736607,12.5982143 33.968125,11.6844643 34.7149107,11.3034821 C35.6635714,10.8208036 36.6425893,10.3866964 37.6246429,10.0208929 C38.4169643,9.72491071 39.2851786,10.125625 39.5796429,10.9103571 C39.8725893,11.6950893 39.4733929,12.569375 38.6901786,12.8638393 C37.814375,13.1916964 36.9400893,13.5757143 36.0976786,14.0067857 C35.8760714,14.1191071 35.6408036,14.17375 35.4085714,14.17375 M49.9891071,11.5175 C49.9329464,11.5175 49.87375,11.5144643 49.8145536,11.506875 C48.8992857,11.400625 47.971875,11.3475 47.0535714,11.3475 C46.2157143,11.3475 45.5038393,10.6675 45.5038393,9.82964286 C45.5038393,8.99178571 46.1504464,8.31178571 46.9883036,8.31178571 L47.0535714,8.31178571 C48.0872321,8.31178571 49.1345536,8.3725 50.1621429,8.49241071 C50.9954464,8.58803571 51.5919643,9.34241071 51.4948214,10.1741964 C51.4067857,10.9483036 50.7510714,11.5175 49.9891071,11.5175" id="XMLID_109_" fill="#FFD949"></path>
                    <path d="M58.3676786,39.5917857 C60.743125,37.9130357 61.9467857,35.4525893 61.9467857,32.2590179 C61.9467857,29.5496429 61.0254464,27.253125 59.2085714,25.4377679 C57.3916964,23.6224107 55.0116964,22.7010714 52.136875,22.7010714 L36.8004464,22.7010714 C35.8821429,22.7010714 35.2886607,23.2960714 35.2886607,24.214375 C35.2886607,25.1357143 35.8821429,25.7291964 36.8004464,25.7291964 L40.3142857,25.7246429 L40.3188393,47.7472321 L35.7485714,47.7472321 C34.91375,47.7472321 34.2307143,48.4302679 34.2307143,49.2650893 C34.2307143,50.0999107 34.91375,50.7829464 35.7485714,50.7829464 L40.3203571,50.7829464 L40.3203571,56.3899107 L36.8004464,56.3899107 C35.8821429,56.3899107 35.2886607,56.9833929 35.2886607,57.9032143 C35.2886607,58.82 35.8821429,59.4165179 36.8004464,59.4165179 L54.1480357,59.4165179 C57.3977679,59.4165179 59.956875,58.4769643 61.7585714,56.6221429 C63.5526786,54.7733929 64.4603571,52.3797321 64.4603571,49.5064286 C64.4603571,44.3411607 62.4127679,41.0155357 58.3676786,39.5917857 M43.339375,25.7291964 L52.1383929,25.7291964 C54.2588393,25.7291964 55.8859821,26.3211607 57.1063393,27.5415179 C58.3266964,28.7633929 58.9201786,30.2736607 58.9201786,32.1588393 C58.9201786,34.0500893 58.3145536,35.5967857 57.0699107,36.8869643 C55.834375,38.1695536 54.3028571,38.791875 52.3873214,38.791875 L43.3408929,38.7964286 L43.3378571,25.7367857 C43.339375,25.7367857 43.275625,25.7291964 43.339375,25.7291964 M59.5197321,54.4758929 C58.2310714,55.7645536 56.4749107,56.3899107 54.1480357,56.3899107 L43.3424107,56.3959821 L43.3408929,50.7829464 L49.4108036,50.7829464 C50.2471429,50.7829464 50.9286607,50.0999107 50.9286607,49.2650893 C50.9286607,48.4302679 50.2471429,47.7472321 49.4108036,47.7472321 L43.3408929,47.7472321 L43.339375,41.8291071 C43.339375,41.8291071 43.2741071,41.82 43.3378571,41.82 L54.1480357,41.82 C56.4749107,41.82 58.2310714,42.4453571 59.5197321,43.7340179 C60.8099107,45.0226786 61.4352679,46.7803571 61.4352679,49.1057143 C61.4352679,51.4295536 60.8099107,53.1872321 59.5197321,54.4758929" id="XMLID_105_" fill="#CE9912"></path>
                </g>
                <g id="coin-(3)-copy" transform="translate(55.000000, 31.000000)">
                    <path d="M47.0535714,85 C26.5154464,85 9.86607143,65.9721429 9.86607143,42.5 C9.86607143,19.0278571 26.5154464,0 47.0535714,0 C67.5916964,0 84.2410714,19.0278571 84.2410714,42.5 C84.2410714,65.9721429 67.5916964,85 47.0535714,85" id="XMLID_91_" fill="#FCC62D"></path>
                    <path d="M9.86607143,42.5 C9.86607143,20.7916071 24.1111607,2.89607143 42.5,0.329375 C41.0064286,0.119910714 39.4885714,0 37.9464286,0 C17.4083036,0 0.758928571,19.0278571 0.758928571,42.5 C0.758928571,65.9721429 17.4083036,85 37.9464286,85 C39.4885714,85 41.0064286,84.8800893 42.5,84.6721429 C24.1111607,82.1039286 9.86607143,64.2083929 9.86607143,42.5" id="XMLID_136_" fill="#E4AF18"></path>
                    <path d="M9.86455357,44.019375 L0.760446429,44.019375 C0.790803571,45.0408929 0.848482143,46.0533036 0.941071429,47.0550893 L10.0527679,47.0550893 C9.95866071,46.0548214 9.89491071,45.0424107 9.86455357,44.019375" id="XMLID_135_" fill="#CE9912"></path>
                    <path d="M10.210625,36.4300893 L1.10955357,36.4300893 C0.983571429,37.4303571 0.894017857,38.4442857 0.82875,39.4658036 L9.934375,39.4658036 C9.99964286,38.4458036 10.0876786,37.431875 10.210625,36.4300893" id="XMLID_134_" fill="#CE9912"></path>
                    <path d="M10.699375,51.6086607 L1.59071429,51.6086607 C1.78803571,52.6347321 2.01571429,53.6471429 2.27526786,54.644375 L11.3808929,54.644375 C11.1213393,53.6486607 10.8951786,52.63625 10.699375,51.6086607" id="XMLID_133_" fill="#CE9912"></path>
                    <path d="M12.8228571,59.1979464 L3.70964286,59.1979464 C4.09669643,60.233125 4.52321429,61.2425 4.98008929,62.2336607 L14.0902679,62.2336607 C13.6333929,61.2455357 13.2099107,60.233125 12.8228571,59.1979464" id="XMLID_132_" fill="#CE9912"></path>
                    <path d="M11.7983036,28.8408036 L2.69875,28.8408036 C2.40428571,29.8380357 2.12803571,30.8474107 1.89732143,31.8765179 L11.0150893,31.8765179 C11.2442857,30.8519643 11.5023214,29.8365179 11.7983036,28.8408036" id="XMLID_131_" fill="#CE9912"></path>
                    <path d="M14.8203571,21.2530357 L5.71169643,21.2530357 C5.21232143,22.2411607 4.74026786,23.2520536 4.30919643,24.28875 L13.4224107,24.28875 C13.8534821,23.2520536 14.3194643,22.2396429 14.8203571,21.2530357" id="XMLID_130_" fill="#CE9912"></path>
                    <path d="M21.0147321,12.1458929 L11.8969643,12.1458929 C11.0333036,13.11125 10.2121429,14.1236607 9.435,15.1816071 L18.5497321,15.1816071 C19.326875,14.1236607 20.1495536,13.11125 21.0147321,12.1458929" id="XMLID_129_" fill="#CE9912"></path>
                    <path d="M30.2949107,4.55508929 L21.1665179,4.55508929 C19.6167857,5.450625 18.1277679,6.46455357 16.7100893,7.59080357 L25.8308929,7.59080357 C27.2500893,6.46607143 28.740625,5.45214286 30.2949107,4.55508929" id="XMLID_128_" fill="#CE9912"></path>
                    <path d="M17.4841964,68.3050893 L8.37401786,68.3050893 C9.07830357,69.3569643 9.82205357,70.369375 10.6098214,71.3408036 L19.7275893,71.3408036 C18.9383036,70.369375 18.1915179,69.3569643 17.4841964,68.3050893" id="XMLID_127_" fill="#CE9912"></path>
                    <path d="M14.9266071,75.894375 C16.1454464,76.9917857 17.4234821,78.0117857 18.7576786,78.9300893 L27.8875893,78.9300893 C26.5442857,78.00875 25.255625,76.9963393 24.0291964,75.894375 L14.9266071,75.894375 Z" id="XMLID_126_" fill="#CE9912"></path>
                    <path d="M47.1825893,76.6882143 L47.0535714,76.6882143 C45.9910714,76.6882143 44.9209821,76.6244643 43.8736607,76.5 C43.041875,76.3998214 42.4453571,75.6454464 42.5470536,74.8121429 C42.6441964,73.9803571 43.3773214,73.4005357 44.2333929,73.4855357 C45.1592857,73.5963393 46.1094643,73.6525 47.0520536,73.6525 C47.8914286,73.6525 48.6336607,74.3325 48.6336607,75.1703571 C48.6351786,76.0082143 48.0219643,76.6882143 47.1825893,76.6882143 M56.0104464,75.0534821 C55.3972321,75.0534821 54.8189286,74.6785714 54.5882143,74.0699107 C54.2922321,73.2866964 54.6899107,72.4108929 55.473125,72.1149107 C56.3504464,71.7840179 57.2232143,71.3969643 58.0625893,70.9658929 C58.8108929,70.5803571 59.723125,70.8763393 60.1086607,71.6216071 C60.4911607,72.366875 60.1982143,73.2821429 59.4499107,73.6646429 C58.5073214,74.1503571 57.5298214,74.5829464 56.5432143,74.9548214 C56.3686607,75.0216071 56.1880357,75.0534821 56.0104464,75.0534821 M35.46625,73.8938393 C35.2340179,73.8938393 34.99875,73.8407143 34.7801786,73.7283929 C33.8421429,73.2533036 32.9177679,72.7175 32.034375,72.1376786 C31.3316071,71.6792857 31.1358036,70.7382143 31.5957143,70.0369643 C32.0571429,69.3372321 32.9951786,69.1399107 33.6979464,69.5998214 C34.48875,70.1174107 35.3144643,70.5970536 36.1538393,71.0220536 C36.9021429,71.4015179 37.198125,72.3152679 36.8186607,73.0620536 C36.5530357,73.5902679 36.0202679,73.8938393 35.46625,73.8938393 M65.991875,68.4933036 C65.6048214,68.4933036 65.2192857,68.3475893 64.9248214,68.0561607 C64.3283036,67.4657143 64.3222321,66.5049107 64.9111607,65.9083929 C65.5744643,65.2405357 66.2134821,64.5225893 66.8221429,63.7788393 C67.3503571,63.1291964 68.3050893,63.0305357 68.9547321,63.55875 C69.6074107,64.0884821 69.7030357,65.0447321 69.1763393,65.694375 C68.5084821,66.5140179 67.7996429,67.3048214 67.0710714,68.0425 C66.7735714,68.3430357 66.3819643,68.4933036 65.991875,68.4933036 M26.1936607,66.3576786 C25.7534821,66.3576786 25.319375,66.1679464 25.0203571,65.8021429 C24.3646429,65.0052679 23.7332143,64.1552679 23.14125,63.2764286 C22.6707143,62.5827679 22.8528571,61.6386607 23.5465179,61.168125 C24.2432143,60.700625 25.1842857,60.8827679 25.6563393,61.5779464 C26.1966964,62.3778571 26.7734821,63.1534821 27.37,63.8790179 C27.8997321,64.5271429 27.8071429,65.4833929 27.1559821,66.0146429 C26.8736607,66.2453571 26.5321429,66.3576786 26.1936607,66.3576786 M72.6598214,58.5574107 C72.4579464,58.5574107 72.2530357,58.5164286 72.0541964,58.4314286 C71.2861607,58.0959821 70.9355357,57.2019643 71.2694643,56.4324107 C71.6504464,55.558125 71.9965179,54.6534821 72.3046429,53.7473214 C72.5733036,52.9534821 73.4339286,52.5269643 74.2292857,52.7925893 C75.0216071,53.06125 75.4496429,53.921875 75.1825,54.7157143 C74.8470536,55.7053571 74.4675893,56.6904464 74.0547321,57.6451786 C73.8027679,58.2158929 73.2457143,58.5574107 72.6598214,58.5574107 M20.4075893,55.876875 C19.7761607,55.876875 19.1841964,55.4791964 18.9701786,54.8477679 C18.6347321,53.8641964 18.3357143,52.8502679 18.0822321,51.839375 C17.881875,51.0258036 18.3766964,50.203125 19.18875,50.00125 C20.0008036,49.7948214 20.825,50.2926786 21.0299107,51.10625 C21.2591071,52.0336607 21.5338393,52.9641071 21.8419643,53.86875 C22.1151786,54.6595536 21.6886607,55.5247321 20.8963393,55.7949107 C20.7354464,55.8495536 20.57,55.876875 20.4075893,55.876875 M75.5300893,46.9245536 C75.4936607,46.9245536 75.4511607,46.9230357 75.4116964,46.92 C74.5753571,46.85625 73.95,46.1261607 74.0152679,45.2898214 C74.088125,44.3745536 74.1215179,43.4365179 74.1215179,42.5 C74.1215179,41.6621429 74.8015179,40.9320536 75.639375,40.9320536 C76.47875,40.9320536 77.1572321,41.5619643 77.1572321,42.4013393 L77.1572321,42.5 C77.1572321,43.5154464 77.1192857,44.5324107 77.041875,45.5235714 C76.9796429,46.3204464 76.3163393,46.9245536 75.5300893,46.9245536 M18.46625,44.0345536 C17.6283929,44.0345536 16.9483929,43.3727679 16.9483929,42.5349107 L16.9483929,42.5 C16.9483929,41.4754464 16.9908929,40.4357143 17.0713393,39.4096429 C17.1350893,38.5733036 17.881875,37.9600893 18.7030357,38.01625 C19.5378571,38.0815179 20.1632143,38.8116071 20.0979464,39.6479464 C20.0235714,40.5950893 19.9841071,41.554375 19.9841071,42.5 C19.9841071,43.3378571 19.305625,44.0345536 18.46625,44.0345536 M74.5328571,34.9820536 C73.854375,34.9820536 73.2335714,34.5236607 73.0605357,33.8345536 C72.8298214,32.9071429 72.5520536,31.9782143 72.2408929,31.0735714 C71.9691964,30.2797321 72.3941964,29.4160714 73.1834821,29.144375 C73.9864286,28.8696429 74.8409821,29.2946429 75.1141964,30.0869643 C75.4511607,31.0720536 75.7516964,32.0844643 76.0051786,33.0938393 C76.2085714,33.9074107 75.7152679,34.7316071 74.9001786,34.935 C74.7772321,34.9683929 74.6542857,34.9820536 74.5328571,34.9820536 M20.3863393,32.225625 C20.2254464,32.225625 20.06,32.1983036 19.900625,32.1436607 C19.1052679,31.875 18.6802679,31.0128571 18.9504464,30.2190179 C19.2858929,29.2263393 19.6683929,28.24125 20.0858036,27.2910714 C20.4242857,26.5230357 21.3122321,26.1708929 22.0833036,26.5108929 C22.8513393,26.8478571 23.2019643,27.7433929 22.8665179,28.5099107 C22.4840179,29.3811607 22.1333929,30.2842857 21.82375,31.1934821 C21.6097321,31.8264286 21.0192857,32.225625 20.3863393,32.225625 M69.6741964,24.0383036 C69.1869643,24.0383036 68.7073214,23.8045536 68.4158929,23.3719643 C67.8800893,22.5826786 67.3033036,21.8100893 66.6991964,21.0754464 C66.1649107,20.4288393 66.2605357,19.4710714 66.9071429,18.9383036 C67.5552679,18.4070536 68.51,18.4996429 69.0442857,19.14625 C69.7075893,19.95375 70.3405357,20.80375 70.9294643,21.6689286 C71.3984821,22.3641071 71.2148214,23.3066964 70.5211607,23.7772321 C70.2616071,23.9533036 69.9671429,24.0383036 69.6741964,24.0383036 M26.1511607,21.7311607 C25.8126786,21.7311607 25.4741964,21.6203571 25.1903571,21.3896429 C24.5407143,20.8583929 24.4466071,19.9036607 24.9763393,19.2540179 C25.6426786,18.4374107 26.3530357,17.648125 27.0846429,16.9104464 C27.678125,16.3139286 28.6374107,16.3124107 29.2308929,16.9013393 C29.8289286,17.4917857 29.8319643,18.4525893 29.24,19.0475893 C28.5766964,19.7169643 27.9346429,20.4333929 27.3259821,21.1741071 C27.0269643,21.5414286 26.5898214,21.7311607 26.1511607,21.7311607 M61.1863393,15.6141964 C60.9009821,15.6141964 60.6141071,15.53375 60.3575893,15.3683036 C59.56375,14.8491964 58.7365179,14.3725893 57.8986607,13.9521429 C57.151875,13.5757143 56.8513393,12.6604464 57.2292857,11.9121429 C57.6057143,11.1638393 58.5149107,10.8617857 59.26625,11.24125 C60.2027679,11.7117857 61.1286607,12.2460714 62.018125,12.8258929 C62.7208929,13.2827679 62.9197321,14.2238393 62.4613393,14.9266071 C62.166875,15.3713393 61.6811607,15.6141964 61.1863393,15.6141964 M35.4085714,14.17375 C34.8545536,14.17375 34.3233036,13.8716964 34.053125,13.3465179 C33.6736607,12.5982143 33.968125,11.6844643 34.7149107,11.3034821 C35.6635714,10.8208036 36.6425893,10.3866964 37.6246429,10.0208929 C38.4169643,9.72491071 39.2851786,10.125625 39.5796429,10.9103571 C39.8725893,11.6950893 39.4733929,12.569375 38.6901786,12.8638393 C37.814375,13.1916964 36.9400893,13.5757143 36.0976786,14.0067857 C35.8760714,14.1191071 35.6408036,14.17375 35.4085714,14.17375 M49.9891071,11.5175 C49.9329464,11.5175 49.87375,11.5144643 49.8145536,11.506875 C48.8992857,11.400625 47.971875,11.3475 47.0535714,11.3475 C46.2157143,11.3475 45.5038393,10.6675 45.5038393,9.82964286 C45.5038393,8.99178571 46.1504464,8.31178571 46.9883036,8.31178571 L47.0535714,8.31178571 C48.0872321,8.31178571 49.1345536,8.3725 50.1621429,8.49241071 C50.9954464,8.58803571 51.5919643,9.34241071 51.4948214,10.1741964 C51.4067857,10.9483036 50.7510714,11.5175 49.9891071,11.5175" id="XMLID_109_" fill="#FFD949"></path>
                    <path d="M49.6923077,25.0480985 C51.7063808,25.3740909 53.4093319,26.2454832 54.8011928,27.6622879 L54.8011928,27.0488819 C54.8011928,25.9096936 55.2531433,25.340108 56.1570577,25.340108 C57.1484476,25.340108 57.6441352,25.9681126 57.6441352,27.2241408 L57.6441352,27.4870291 C57.6441352,27.545449 57.6003981,27.9835918 57.5129225,28.8014706 C57.4254469,29.6193494 57.3817097,30.5978683 57.3817097,31.7370566 C57.3817097,31.8831064 57.4108678,32.3504587 57.4691849,33.1391276 L57.6003976,34.8917162 C57.6295561,35.037766 57.6441352,35.2422327 57.6441352,35.5051223 C57.6441352,36.9072002 57.1047105,37.6082287 56.0258449,37.6082287 C54.8886623,37.6082287 54.3200795,37.0240383 54.3200795,35.85564 L54.3200795,35.6365664 L54.4075547,34.4535691 C54.4367132,34.0446297 54.4512922,33.723325 54.4512922,33.4896453 C54.4512922,31.7370479 53.8608409,30.3642005 52.6799205,29.3710619 C51.8853504,28.7028389 50.8894844,28.2594227 49.6923077,28.0408089 L49.6923077,38.5156755 C52.7792694,39.0585255 54.9195877,39.7783805 56.1133201,40.6752589 C58.037783,42.1065468 59,44.1366084 59,46.7655045 C59,49.5112405 58.0159144,51.7457687 56.0477137,53.4691562 C54.3551233,54.951215 52.2366708,55.7960024 49.6923077,56.0035347 L49.6923077,60.8076923 C49.6923077,61.4661857 49.1584934,62 48.5,62 C47.8415066,62 47.3076923,61.4661857 47.3076923,60.8076923 L47.3076923,56.0137392 C44.4744286,55.80248 42.0882522,54.7644292 40.1491054,52.8995649 C40.1491054,53.0164047 40.1636844,53.1478475 40.1928429,53.2938973 L40.1928429,53.5567856 C40.25116,54.024145 40.2803181,54.3308449 40.2803181,54.4768947 C40.2803181,55.5576631 39.7700515,56.0980392 38.749503,56.0980392 C37.6414789,56.0980392 37.0874751,55.4846393 37.0874751,54.2578211 C37.0874751,54.1117713 37.1020542,53.9949332 37.1312127,53.9073034 L37.306163,51.6289381 C37.3936386,50.4897498 37.4373757,49.7595118 37.4373757,49.4382022 C37.4373757,48.8540031 37.3644805,47.9777175 37.2186879,46.8093192 C37.0728952,45.6409209 37,44.7646354 37,44.1804362 C37,42.8659881 37.5540037,42.208774 38.6620278,42.208774 C39.7992105,42.208774 40.3677932,42.8659881 40.3677932,44.1804362 L40.3677932,44.9691011 C40.3386347,45.2027808 40.3240557,45.5386903 40.3240557,45.9768396 C40.3240557,48.1675864 41.0238499,49.9055528 42.4234592,51.1907909 C43.662846,52.3288993 45.2909106,52.9630893 47.3076923,53.0933744 L47.3076923,41.6691747 C44.9832518,41.2440188 43.1656614,40.752064 41.8548708,40.193297 C40.601054,39.6383078 39.6023894,38.7693246 38.8588469,37.5863213 C38.1153044,36.4033181 37.7435388,35.0669826 37.7435388,33.5772747 C37.7435388,31.0067985 38.6765977,28.9183179 40.5427435,27.3117702 C42.3041629,25.7953806 44.5591255,24.9946473 47.3076923,24.9095501 L47.3076923,20.1923077 C47.3076923,19.5338143 47.8415066,19 48.5,19 C49.1584934,19 49.6923077,19.5338143 49.6923077,20.1923077 L49.6923077,25.0480985 Z M47.3076923,27.8924046 C45.6430876,27.9679966 44.2993156,28.431669 43.2763419,29.2834325 C42.1537386,30.2181511 41.5924453,31.4741604 41.5924453,33.0514981 C41.5924453,34.8917254 42.4234509,36.2499681 44.0854871,37.1262668 C44.776145,37.4722048 45.8502068,37.7941336 47.3076923,38.0920581 L47.3076923,27.8924046 Z M49.6923077,53.019305 C51.1823172,52.8216412 52.4187374,52.3289779 53.4015905,51.5413087 C54.7137243,50.4897502 55.3697813,49.0584838 55.3697813,47.2474664 C55.3697813,44.4725205 53.6202958,42.7783683 50.1212724,42.1649592 L49.6923077,42.0895695 L49.6923077,53.019305 Z" id="Combined-Shape" fill="#CE9912"></path>
                </g>
            </g>
        </g>
    </g>
</svg>