<?xml version="1.0" encoding="UTF-8"?>
<svg width="150px" height="35px" viewBox="0 0 150 35" version="1.1" xmlns="http://www.w3.org/2000/svg" xmlns:xlink="http://www.w3.org/1999/xlink">
    <!-- Generator: Sketch 53 (72520) - https://sketchapp.com -->
    <title>logo-360</title>
    <desc>Created with Sketch.</desc>
    <g id="Page-2" stroke="none" stroke-width="1" fill="none" fill-rule="evenodd">
        <g id="company-profile" transform="translate(-40.000000, -18.000000)" fill="#FFB600">
            <g id="logo-360" transform="translate(40.000000, 18.000000)">
                <g>
                    <path d="M19.56323,27.2441222 L13.4483103,13.2925588 L7.35595499,27.2441222 L4.08413452,34.8498239 L1.42108547e-13,34.8498239 L13.4483103,3.98373984 L27.0320064,34.8498239 L22.9253076,34.8498239 L19.56323,27.2441222 Z" id="Combined-Shape-Copy-24" fill-rule="nonzero"></path>
                    <path d="M68.1348293,27.2441222 L62.0199097,13.2925588 L55.9275543,27.2441222 L52.6557338,34.8498239 L48.5715993,34.8498239 L62.0199097,3.98373984 L75.6036057,34.8498239 L71.4969069,34.8498239 L68.1348293,27.2441222 Z" id="Combined-Shape-Copy-27" fill-rule="nonzero"></path>
                    <path d="M34.5980499,34.8498239 L32.8993638,30.8319187 C33.0100554,30.8143301 33.1173797,30.7961186 33.221337,30.7772844 C34.7932881,30.4924893 36.2850153,29.8700179 37.6965632,28.9098515 C39.1081112,27.9496851 40.2309166,26.6762632 41.0650131,25.0895476 C41.8991096,23.502832 42.3161516,21.7574709 42.3161516,19.8534122 C42.3161516,17.4611333 41.6504884,15.2967229 40.3191421,13.3601161 C38.9877957,11.4235093 37.395818,10.1216084 35.5431613,9.45437409 C33.6905046,8.78713983 31.2002827,8.4535277 28.0724207,8.4535277 L25.9551094,8.4535277 L25.9551094,14.4066619 L21.7686074,4.50432157 L21.7686074,4.30367682 L29.2032575,4.30367682 C35.0900541,4.30367682 39.4689951,5.88223176 42.340212,9.039389 C45.2114289,12.1965462 46.6470158,15.8011846 46.6470158,19.8534122 C46.6470158,23.9381878 45.1633086,27.550963 42.1958498,30.6918463 C40.2453544,32.7563327 37.7127667,34.1423208 34.5980499,34.8498239 Z M21.7686074,23.9056195 L21.7686074,23.9056195 L25.9551094,23.9056195 L25.9551094,23.9056195 L21.7686074,23.9056195 Z" id="Combined-Shape-Copy-25" fill-rule="nonzero"></path>
                    <g id="Group" transform="translate(80.181688, 3.983740)" fill-rule="nonzero">
                        <polygon id="x-copy-15" transform="translate(8.774542, 15.273074) scale(-1, 1) translate(-8.774542, -15.273074) " points="3.53562443 9.88407936 9.70361158 1.59872116e-13 16.7103417 1.59872116e-13 7.09705634 14.6601074 17.5490848 30.5461471 10.5423546 30.5461471 3.53562443 19.4105951 2.59348099e-13 14.6601074"></polygon>
                        <path d="M17.9135496,3.92966216 L20.3657866,1.49213975e-13 L27.3725168,1.49213975e-13 L21.2693389,9.30724924 L17.9135496,3.92966216 Z M21.2653339,19.9890332 L28.2112598,30.5461471 L21.2045296,30.5461471 L17.9135496,25.3159072 L21.2653339,19.9890332 Z M13.4765027,18.4414561 L10.662175,14.6601074 L13.4826594,10.8501121 L15.7831159,14.6601074 L13.4765027,18.4414561 Z" id="Combined-Shape-Copy-26"></path>
                    </g>
                    <polygon id="Rectangle-Copy-6" points="3.10980105 30.026748 13.9941047 30.026748 15.5490053 34.8498239 3.10980105 34.8498239"></polygon>
                    <polygon id="Rectangle-Copy-7" points="51.6814004 30.026748 62.5657041 30.026748 64.1206046 34.8498239 51.6814004 34.8498239"></polygon>
                    <path d="M128.546835,4.38694765 L133.0528,3.90798505e-14 L136.316684,3.90798505e-14 L132.756084,3.46655256 L132.617079,3.53421923 C135.385395,3.95491273 137.50355,6.28647942 137.50355,9.09970047 C137.50355,12.2108022 134.913081,14.7328484 131.717575,14.7328484 C128.52207,14.7328484 125.931601,12.2108022 125.931601,9.09970047 C125.931601,7.12833043 126.971727,5.39347832 128.546835,4.38694765 Z M131.717575,12.7106927 C133.765976,12.7106927 135.426534,11.0939964 135.426534,9.09970047 C135.426534,7.10540452 133.765976,5.48870822 131.717575,5.48870822 C129.669174,5.48870822 128.008617,7.10540452 128.008617,9.09970047 C128.008617,11.0939964 129.669174,12.7106927 131.717575,12.7106927 Z" id="Combined-Shape"></path>
                    <path d="M143.780787,17.6422764 C140.494842,17.6422764 137.831058,15.078658 137.831058,11.9162744 C137.831058,8.75389085 140.494842,6.19027243 143.780787,6.19027243 C147.066731,6.19027243 149.730516,8.75389085 149.730516,11.9162744 C149.730516,15.078658 147.066731,17.6422764 143.780787,17.6422764 Z M143.780787,15.814829 C145.99377,15.814829 147.787747,14.0693867 147.787747,11.9162744 C147.787747,9.7631622 145.99377,8.01771987 143.780787,8.01771987 C141.567804,8.01771987 139.773827,9.7631622 139.773827,11.9162744 C139.773827,14.0693867 141.567804,15.814829 143.780787,15.814829 Z" id="Combined-Shape"></path>
                    <path d="M118.090108,7.42832691 L117.998629,7.42832691 L118.067073,7.37694804 L118.032796,7.30049605 C118.117922,7.26788668 118.204005,7.23732942 118.29097,7.20887509 L121.049772,5.13792612 L114.642372,5.44743974 L116.422672,3.71416346 L125.016258,3.71416346 L121.175175,7.0539915 C124.064713,7.65546776 125.982517,10.3868212 125.479952,13.2370094 C124.96742,16.1437266 122.131642,18.0733244 119.146066,17.5468868 C116.614015,17.1004178 114.787402,15.0307957 114.603533,12.6392143 L116.687478,13.0066701 C116.935047,14.4174938 118.066396,15.596497 119.593151,15.865705 C121.529741,16.2071781 123.369164,14.9555471 123.701618,13.0701089 C124.034071,11.1846707 122.733662,9.37940242 120.797072,9.03792935 C120.1307,8.92043008 119.475833,8.99155683 118.889909,9.21222649 L118.090108,7.42832691 Z" id="Combined-Shape"></path>
                </g>
            </g>
        </g>
    </g>
</svg>