<?xml version="1.0" encoding="UTF-8"?>
<svg width="141px" height="39px" viewBox="0 0 141 39" version="1.1" xmlns="http://www.w3.org/2000/svg" xmlns:xlink="http://www.w3.org/1999/xlink">
    <!-- Generator: Sketch 53 (72520) - https://sketchapp.com -->
    <title>logo</title>
    <desc>Created with Sketch.</desc>
    <g id="Page-3" stroke="none" stroke-width="1" fill="none" fill-rule="evenodd">
        <g id="option-2-ex-" transform="translate(-57.000000, -15.000000)" fill="#FFB600">
            <g id="logo" transform="translate(57.000000, 15.000000)">
                <path d="M25.3745709,29.2477206 L17.4431883,11.7049554 L9.54107278,29.2477206 L5.29734409,38.8111678 L4.26325641e-14,38.8111678 L17.4431883,2.48689958e-14 L35.0619791,38.8111678 L29.7353679,38.8111678 L25.3745709,29.2477206 Z" id="Combined-Shape-Copy-24" fill-rule="nonzero"></path>
                <path d="M88.3745709,29.2477206 L80.4431883,11.7049554 L72.5410728,29.2477206 L68.2973441,38.8111678 L63,38.8111678 L80.4431883,2.48689958e-14 L98.0619791,38.8111678 L92.7353679,38.8111678 L88.3745709,29.2477206 Z" id="Combined-Shape-Copy-27" fill-rule="nonzero"></path>
                <path d="M44.8755481,38.8111678 L42.6722601,33.7590339 C42.8158331,33.7369178 42.9550386,33.7140186 43.0898767,33.6903363 C45.1287827,33.3322336 47.0636337,32.5495349 48.894488,31.3422169 C50.7253423,30.1348989 52.1816819,28.5336919 53.2635503,26.5385478 C54.3454188,24.5434036 54.8863449,22.348778 54.8863449,19.9546051 C54.8863449,16.9465416 54.0229436,14.2250012 52.2961151,11.7899022 C50.5692866,9.35480322 48.5044052,7.71778644 46.1014089,6.87880276 C43.6984127,6.03981907 40.4684597,5.62033352 36.411453,5.62033352 L33.6651852,5.62033352 L33.6651852,13.1058341 L28.235065,0.654582061 L28.235065,0.40229035 L37.8782096,0.40229035 C45.5137042,0.40229035 51.1934284,2.3871732 54.9175525,6.35699844 C58.6416766,10.3268237 60.5037107,14.8593139 60.5037107,19.9546051 C60.5037107,25.0908223 58.579262,29.6335438 54.730307,33.582906 C52.2004086,36.1788015 48.9155049,37.9215499 44.8755481,38.8111678 Z M28.235065,25.0498707 L28.235065,25.0498707 L33.6651852,25.0498707 L33.6651852,25.0498707 L28.235065,25.0498707 Z" id="Combined-Shape-Copy-25" fill-rule="nonzero"></path>
                <g id="Group" transform="translate(104.000000, 0.000000)" fill-rule="nonzero">
                    <polygon id="x-copy-15" transform="translate(11.381058, 19.204439) scale(-1, 1) translate(-11.381058, -19.204439) " points="4.58589674 12.4282906 12.5861108 1.59872116e-13 21.67422 1.59872116e-13 9.20526718 18.433692 22.7621152 38.4088775 13.674006 38.4088775 4.58589674 24.406979 2.59348099e-13 18.433692"></polygon>
                    <path d="M23.2348458,4.94117677 L26.4155304,1.49213975e-13 L35.5036396,1.49213975e-13 L27.5874867,11.7029816 L23.2348458,4.94117677 Z M27.582292,25.1343099 L36.5915348,38.4088775 L27.5034256,38.4088775 L23.2348458,31.8323478 L27.582292,25.1343099 Z M17.4797552,23.1883788 L13.8294196,18.433692 L17.4877408,13.6429851 L20.4715578,18.433692 L17.4797552,23.1883788 Z" id="Combined-Shape-Copy-26"></path>
                </g>
                <polygon id="Rectangle-Copy-6" points="4.03358071 32.7466082 18.1511132 32.7466082 20.1679036 38.8111678 4.03358071 38.8111678"></polygon>
                <polygon id="Rectangle-Copy-7" points="67.0335807 32.7466082 81.1511132 32.7466082 83.1679036 38.8111678 67.0335807 38.8111678"></polygon>
            </g>
        </g>
    </g>
</svg>