<?xml version="1.0" encoding="UTF-8"?>
<svg width="586px" height="511px" viewBox="0 0 586 511" version="1.1" xmlns="http://www.w3.org/2000/svg" xmlns:xlink="http://www.w3.org/1999/xlink">
    <!-- Generator: Sketch 53 (72520) - https://sketchapp.com -->
    <title>vector</title>
    <desc>Created with Sketch.</desc>
    <defs>
        <path d="M70.162,308.938 L69.71,308.872 C68.574,308.712 67.452,309.218 66.882,310.162 C66.06,311.524 64.942,313.574 64.388,315.446 C62.188,314.306 59.516,312.25 57.288,310.402 C56.914,310.094 56.452,309.912 55.962,309.84 L56.49,306.688 L58.062,306.688 C58.098,306.15 67.588,258.224 69,240.574 C70.216,225.384 71.246,195.128 71.652,181.78 C74.22,193.626 79.44,218.956 79.696,232.18 C79.994,247.72 78.792,260.696 68.374,306.84 L70.582,306.99 L70.162,308.938 M49.064,146.25 C48.804,147.672 48.604,149.054 48.432,150.416 L47.5,150.416 L47.5,151.416 L48.324,151.416 C47.054,162.782 48.662,171.848 49.912,176.674 C50.306,185.068 51.788,222.338 50.446,239.088 C49.024,256.866 47.748,306.148 47.712,306.688 L49.688,306.688 L49.54,308.92 L49.212,308.872 C48.074,308.712 47.88,309.494 47.312,310.438 C45.444,313.538 43.848,319.928 47.25,319.928 C54.164,319.928 52.918,319.622 55.688,319.688 C57.56,319.732 59.446,319.928 65.656,319.928 C65.982,319.928 66.274,319.918 66.554,319.904 L66.826,319.928 C73.636,319.928 74.694,319.514 77.462,319.444 C80.232,319.374 84.788,319.928 90.998,319.928 C97.21,319.928 96.984,317.742 92.57,317.106 C88.45,316.51 80.426,312.592 77.788,310.402 C77.454,310.124 77.044,309.964 76.61,309.878 L77.378,307.452 L78.524,307.53 C80.794,301.434 98.728,253.69 98.304,231.82 C97.978,214.968 96.208,179.802 95.896,174.08 C96.8,159.452 95.63,146.25 95.63,146.25 L49.064,146.25 M95.63,146.25 C95.63,146.25 93.86,98.76 90.572,73.326 C95.16,74.028 101.75,74.25 107.626,73.688 C113.28,73.146 117.38,72.14 121.32,70.16 C123.2,69.22 125.526,68.1 135.124,49.7 C135.484,49.02 135.846,48.34 136.206,47.62 L133.638,45.768 C133.892,45.056 134.136,44.364 134.36,43.72 L134.44,43.48 C135,41.74 135.5,40.32 135.84,39.36 C136.54,37.42 136.962,36.62 137.6,35.16 C138.22,33.7 144.24,33.68 146.7,32.02 C149.26,30.32 148.96,25.96 147.92,23.12 C147.846,22.918 147.728,22.776 147.63,22.61 C148.092,22.314 148.562,22.006 149.046,21.682 C152.576,19.33 155.49,13.464 150.244,17.512 C148.272,19.036 146.092,20.292 144.256,21.328 C143.016,21.506 141.688,22.06 140.58,22.8 C139.2,23.72 132.52,28.42 130.72,34.4 C129.84,36.28 128.94,38.16 128,40 C127.8,40.4 127.6,40.8 127.4,41.2 L127.376,41.248 L126.56,40.66 C126.18,41.4 125.82,42.1 125.48,42.76 C118.8,55.56 115.8,58.24 115.34,58.6 C110.364,60.966 98.498,59.964 89.034,58.046 C86.688,57.382 84.762,56.934 83.962,56.934 L70.44,56.934 C69.978,55.754 69.71,54.244 69.75,51.812 C83,54.322 86.688,39.658 86.688,29.312 C86.688,25.134 85.546,21.266 83.554,18.026 C88.6,14.17 87.458,5.344 87.458,5.344 C87.458,5.344 87.104,8.528 79.772,5.218 C66.018,-0.99 51.994,2.302 48.146,5.218 C44.378,8.076 43.876,11.048 45.036,13.412 C41.998,16.156 39.994,19.908 39.98,22.678 C39.926,32.692 45.274,42.824 51.836,45.71 C53.262,47.356 54.898,48.736 56.72,49.7 C56.6,52.038 56.662,54.486 57.052,56.934 L45.416,56.934 C43.206,56.934 41.42,58.48 40.946,60.482 L40.94,60.48 C40.94,60.48 36.618,81.06 33.84,94.24 C33.18,93.46 32.44,92.58 31.618,91.58 C31.118,90.96 30.58,90.3 30,89.58 L29.252,90.178 L28.98,89.84 C28.72,89.52 28.46,89.18 28.2,88.86 C25.88,85.94 23.52,82.8 21.38,79.86 L21.2,79.64 L20.82,79.22 L20.42,78.86 L19.98,78.52 L19.538,78.26 C19.38,78.16 19.22,78.08 19.038,78.02 L18.56,77.84 C18.4,77.78 18.22,77.74 18.02,77.7 L17.54,77.62 L16.98,77.58 L16.48,77.6 C16.3,77.6 16.12,77.64 15.92,77.66 L15.4,77.78 L14.9,77.96 L14.38,78.18 L14.118,78.3 C13,78.96 10.18,79.72 8.64,80.18 C5.74,81.02 2.78,83.02 1.5,86 C0.3,88.82 4.06,89.12 7.12,89.12 C9.38,89.12 15.1,86.02 17,85.34 C18.92,88.1 20.66,90.6 22.2,92.84 C22.44,93.18 22.68,93.52 22.9,93.86 C23.11,94.174 23.304,94.464 23.508,94.768 L19.84,97.7 C20.4,98.4 20.94,99.08 21.46,99.72 C29.22,109.22 33.22,112.58 37.2,112.6 L37.24,112.6 C37.84,112.6 38.46,112.52 39.08,112.38 C39.82,112.2 40.5,111.92 41.12,111.54 C42.82,110.52 44.06,108.8 44.5,106.7 C44.576,106.342 44.672,105.894 44.782,105.372 C45.106,103.854 45.566,101.696 46.116,99.138 C48.238,117.03 51.498,120.694 49.064,146.25 L95.63,146.25" id="path-1"></path>
        <path d="M111.826,121.988 C112.892,107.406 115.008,90.18 116.97,76.52 C117.246,76.966 117.516,77.4 117.8,77.86 L120.66,82.48 L121.62,84.02 L123.312,82.966 C123.766,83.674 124.25,84.412 124.68,85.1 C128.9,91.76 132.02,97.34 132.66,99.78 C130.83,103.298 121.32,113.148 111.826,121.988 M23.64,175.062 C30.204,174.722 40.118,174.784 50.51,174.866 C45.252,179.79 41.15,185.806 39.286,193.116 C33.532,186.638 27.938,180.134 23.64,175.062 M36.75,153.166 C36.672,152.394 35.234,145.13 36.5,143.75 C48.04,138.868 59.272,135.964 65.546,127.664 C65.034,137.426 64.764,144.178 64.76,144.25 L64.754,144.25 C64.754,144.25 64.54,149.24 64.554,156.344 C60.06,156.322 55.83,156.29 51.932,156.26 C45.844,156.214 40.522,156.174 35.838,156.188 C36.558,155.584 36.898,154.63 36.75,153.166 M143.82,100.38 C143.818,96.098 139.32,87.46 133.66,78.46 C133.372,78.002 133.07,77.542 132.778,77.082 L133.94,76.36 L132.98,74.82 L130.118,70.22 C125.98,63.54 122.64,58.42 122.5,58.22 C121.2,56.22 119.06,55.08 116.86,54.96 C116.424,54.928 115.976,54.948 115.536,55.004 C115.346,54.98 115.158,54.94 114.96,54.94 L103.308,54.94 C103.742,52.302 103.814,49.668 103.688,47.25 C108.308,44.802 111.622,39.23 113.358,34.224 C113.678,34.122 113.992,33.974 114.278,33.734 C115.822,32.428 116.8,30.476 116.8,28.296 C116.8,26.756 116.292,25.342 115.46,24.178 C115.512,22.864 115.456,21.748 115.322,21.01 C114.594,16.99 112.322,8.61 106.754,6.138 C108.212,0.474 96.898,1.386 88.75,2.47 C85.448,2.91 86.302,0.964 86.302,0.964 C81.85,1.924 77.394,4.49 77.394,4.49 C76.446,3.936 76.226,2.004 76.226,2.004 C76.226,2.004 74.424,3.292 74.424,6.012 C74.424,9.134 75.98,11.278 78.388,12.664 C76.134,15.55 74.464,18.898 73.606,22.242 C73.014,22.246 72.414,22.422 71.894,22.862 C70.352,24.166 69.372,26.118 69.372,28.296 C69.372,30.476 70.352,32.428 71.894,33.734 C72.568,34.302 73.376,34.466 74.128,34.328 C76,39.904 81.876,48.75 90.658,49.39 C90.7,51.814 90.41,53.572 89.904,54.94 L76.42,54.94 L76.292,54.95 C75.508,54.938 74.732,55.042 73.996,55.276 C71.63,56.024 69.684,57.988 69.104,60.604 C69.048,60.85 67.716,66.8 66.18,74.508 L65.11,79.844 L64.754,81.61 L65.704,81.8 C65.596,82.318 65.488,82.836 65.38,83.36 C62.82,95.48 60.08,108.88 59.28,114.32 C57.62,125.66 39.88,134.78 33.18,137.34 L32.888,137.484 C32.676,137.58 32.462,137.674 32.26,137.798 C32.072,137.912 31.908,138.048 31.738,138.182 L31.436,138.404 L31.342,138.49 L31.304,138.526 C29.88,139.84 24.314,145.454 25,152.286 C25.242,154.704 25.336,155.608 26.994,156.31 C11.836,156.752 5.716,158.562 2.296,164.754 C0.606,167.82 -0.512,172.88 3.78,179.582 C10.298,189.764 26.434,203.4 39.156,213.38 C40.186,220.014 41.982,227.18 44.226,234.546 C43.764,234.952 43.318,235.308 42.904,235.59 C39.312,238.042 39.98,240.028 45.18,237.598 C48.868,249.202 53.468,261.124 57.636,271.988 C57.384,275.58 55.602,282.846 51.668,285.36 C47.91,287.764 49.102,289.596 54.816,287.166 C59.916,285 62.688,279.41 64.594,277.402 C66.502,275.392 67.518,274.882 72.078,269.826 C75.578,265.946 68.342,264.016 64.788,263.328 L64.726,263.326 C62.046,253.406 59.874,241.6 58.448,230.63 C60.406,229.814 61.962,229.394 67.264,226.798 C71.958,224.5 65.958,220.016 62.916,218.054 L62.812,218.01 L63.086,217.666 C61.322,216.238 59.14,214.21 56.706,211.798 C56.43,205.728 56.57,200.844 57.214,198.052 C60.034,185.842 78.622,178.218 92.054,174.562 L109.296,174.562 C109.296,174.562 113.766,166.32 112.196,150.5 L112.544,150.5 L112.544,149.5 L112.082,149.5 C111.892,147.822 111.658,146.092 111.32,144.25 C111.172,142.244 111.118,139.902 111.132,137.326 C112.622,138.49 114.406,139.636 116.358,140.312 C116.958,140.522 117.568,140.62 118.17,140.62 C120.46,140.62 121.582,137.14 122.374,134.854 C123.378,131.966 119.36,129.35 116.47,128.348 L116.25,128.25 C132.124,116.02 143.822,106.764 143.82,100.38" id="path-3"></path>
    </defs>
    <g id="Page-1" stroke="none" stroke-width="1" fill="none" fill-rule="evenodd">
        <g id="1-ADAX-landing" transform="translate(-184.000000, -1228.000000)">
            <g id="vector" transform="translate(184.000000, 1228.000000)">
                <path d="M81.1533589,347.368994 C81.1533589,404.614994 123.211359,432.806994 177.901359,432.806994 C232.591359,432.806994 282.163359,392.532994 282.163359,335.284994 C282.163359,278.038994 220.767359,225.278994 168.221359,240.440994 C110.271359,257.158994 81.1533589,290.120994 81.1533589,347.368994" id="Fill-15-Copy" fill="#FFF4DE"></path>
                <path d="M130.223359,89.3489941 C122.393359,89.3489941 118.525359,80.7049941 114.783359,72.3469941 C111.027359,63.9529941 107.481359,56.0249941 100.397359,56.0249941 C100.079359,56.0249941 99.8233589,55.7669941 99.8233589,55.4489941 C99.8233589,55.1329941 100.079359,54.8749941 100.397359,54.8749941 C108.225359,54.8749941 112.093359,63.5189941 115.835359,71.8769941 C119.591359,80.2709941 123.139359,88.1989941 130.223359,88.1989941 C137.307359,88.1989941 140.855359,80.2709941 144.611359,71.8769941 C148.353359,63.5189941 152.221359,54.8749941 160.049359,54.8749941 C167.879359,54.8749941 171.747359,63.5189941 175.489359,71.8769941 C177.339359,76.0149941 179.141359,80.0389941 181.339359,83.0549941 C180.929359,83.1269941 180.517359,83.1969941 180.107359,83.2689941 C177.935359,80.1609941 176.173359,76.2229941 174.437359,72.3469941 C170.683359,63.9529941 167.133359,56.0249941 160.049359,56.0249941 C152.965359,56.0249941 149.419359,63.9529941 145.663359,72.3469941 C141.921359,80.7049941 138.053359,89.3489941 130.223359,89.3489941 M200.315359,80.0629941 C201.709359,77.5909941 202.975359,74.7609941 204.267359,71.8769941 C208.009359,63.5189941 211.875359,54.8749941 219.705359,54.8749941 C227.535359,54.8749941 231.405359,63.5189941 235.147359,71.8769941 C235.739359,73.1989941 236.325359,74.5089941 236.921359,75.7789941 C236.519359,75.8149941 236.105359,75.8529941 235.705359,75.8889941 C235.159359,74.7189941 234.625359,73.5309941 234.097359,72.3469941 C230.341359,63.9529941 226.791359,56.0249941 219.705359,56.0249941 C212.621359,56.0249941 209.073359,63.9529941 205.317359,72.3469941 C204.169359,74.9109941 203.009359,77.5009941 201.725359,79.8629941 C201.251359,79.9289941 200.789359,79.9949941 200.315359,80.0629941" id="Fill-16-Copy" fill="#F9D7BE"></path>
                <path d="M425.809359,215.736994 C343.213359,197.256994 257.551359,197.256994 174.953359,215.736994 C170.171359,216.804994 165.375359,213.920994 164.229359,209.204994 C155.561359,173.098994 146.893359,136.992994 138.225359,100.888994 C137.079359,96.1749941 140.907359,91.1969941 146.795359,89.8809941 C247.935359,67.2529941 352.829359,67.2529941 453.969359,89.8809941 C459.855359,91.1969941 463.685359,96.1749941 462.539359,100.888994 C453.871359,136.992994 445.203359,173.098994 436.533359,209.204994 C435.387359,213.920994 430.593359,216.804994 425.809359,215.736994" id="Fill-21-Copy" fill="#FBDBA5"></path>
                <path d="M171.889359,202.502994 C164.473359,169.390994 157.059359,136.276994 149.643359,103.162994 C149.047359,100.524994 151.189359,97.7949941 154.431359,97.1009941 C250.633359,76.4289941 350.131359,76.4289941 446.331359,97.1009941 C449.573359,97.7969941 451.715359,100.524994 451.119359,103.162994 C443.705359,136.276994 436.289359,169.390994 428.875359,202.502994 C428.279359,205.140994 425.601359,206.784994 422.887359,206.202994 C342.139359,188.850994 258.623359,188.850994 177.875359,206.202994 C175.163359,206.784994 172.485359,205.140994 171.889359,202.502994" id="Fill-22-Copy" fill="#FFFFFE"></path>
                <path d="M327.335359,105.660994 C326.259359,132.424994 325.183359,159.186994 324.107359,185.948994 C323.421359,185.920994 322.733359,185.896994 322.047359,185.870994 C323.027359,159.104994 324.011359,132.338994 324.993359,105.570994 C325.773359,105.600994 326.553359,105.630994 327.335359,105.660994" id="Fill-23-Copy" fill="#E15A46"></path>
                <path d="M181.759359,161.616994 C183.981359,173.136994 186.203359,184.656994 188.427359,196.176994 C187.749359,196.306994 187.071359,196.438994 186.395359,196.572994 C184.131359,185.060994 181.867359,173.548994 179.603359,162.036994 C180.321359,161.894994 181.039359,161.754994 181.759359,161.616994" id="Fill-24-Copy" fill="#E1EAEF"></path>
                <path d="M230.355359,162.398994 C231.379359,171.358994 232.401359,180.318994 233.423359,189.278994 C232.739359,189.356994 232.055359,189.436994 231.371359,189.516994 C230.317359,180.560994 229.265359,171.604994 228.211359,162.648994 C228.927359,162.564994 229.641359,162.480994 230.355359,162.398994" id="Fill-25-Copy" fill="#E1EAEF"></path>
                <path d="M276.639359,129.266994 C277.333359,148.134994 278.023359,167.002994 278.717359,185.870994 C278.029359,185.894994 277.343359,185.922994 276.657359,185.948994 C275.897359,167.084994 275.139359,148.218994 274.381359,129.352994 C275.133359,129.322994 275.887359,129.292994 276.639359,129.266994" id="Fill-26-Copy" fill="#E1EAEF"></path>
                <path d="M376.959359,125.174994 C374.437359,146.620994 371.915359,168.068994 369.393359,189.516994 C368.709359,189.436994 368.023359,189.356994 367.341359,189.278994 C369.787359,167.822994 372.235359,146.366994 374.683359,124.910994 C375.441359,124.996994 376.201359,125.084994 376.959359,125.174994" id="Fill-27-Copy" fill="#E1EAEF"></path>
                <path d="M422.801359,153.686994 C419.991359,167.982994 417.181359,182.276994 414.369359,196.572994 C413.691359,196.438994 413.015359,196.306994 412.337359,196.176994 C415.097359,181.870994 417.857359,167.566994 420.617359,153.262994 C421.345359,153.402994 422.073359,153.544994 422.801359,153.686994" id="Fill-28-Copy" fill="#E1EAEF"></path>
                <path d="M275.223359,115.530994 C274.969359,115.530994 274.711359,115.536994 274.451359,115.546994 C260.809359,116.112994 254.941359,129.510994 249.763359,142.400994 C244.879359,154.476994 240.651359,165.888994 231.035359,168.350994 C231.111359,169.020994 231.187359,169.688994 231.265359,170.356994 C242.199359,167.772994 246.881359,155.246994 251.853359,143.056994 C257.063359,130.214994 262.441359,118.042994 274.529359,117.544994 C274.757359,117.536994 274.979359,117.530994 275.201359,117.530994 C286.855359,117.530994 293.043359,129.038994 299.123359,141.200994 C305.203359,153.304994 311.003359,165.786994 322.741359,166.926994 C322.767359,166.258994 322.791359,165.590994 322.815359,164.922994 C312.409359,163.812994 307.159359,152.422994 301.157359,140.384994 C295.105359,128.176994 288.357359,115.530994 275.223359,115.530994 M374.763359,119.364994 C362.567359,119.364994 355.191359,130.960994 348.489359,142.206994 C341.567359,153.766994 335.445359,164.732994 324.949359,165.006994 C324.923359,165.674994 324.895359,166.342994 324.869359,167.010994 C336.689359,166.808994 343.449359,154.792994 350.453359,143.178994 C357.185359,131.966994 363.977359,121.368994 374.835359,121.368994 C375.483359,121.368994 376.147359,121.406994 376.827359,121.484994 C388.859359,122.914994 393.299359,135.464994 397.517359,148.670994 C401.543359,161.188994 405.255359,174.016994 415.945359,177.470994 C416.075359,176.808994 416.201359,176.146994 416.329359,175.484994 C406.945359,172.258994 403.603359,160.572994 399.657359,148.180994 C395.473359,134.926994 390.637359,121.114994 377.059359,119.498994 C376.273359,119.408994 375.511359,119.364994 374.763359,119.364994 M176.095359,127.182994 C174.879359,127.182994 173.621359,127.302994 172.323359,127.556994 C172.451359,128.208994 172.581359,128.862994 172.709359,129.518994 C173.835359,129.298994 174.925359,129.194994 175.985359,129.194994 C186.159359,129.194994 193.465359,138.844994 200.765359,149.062994 C208.435359,159.756994 215.895359,170.840994 227.115359,170.840994 C227.783359,170.840994 228.465359,170.802994 229.161359,170.720994 C229.083359,170.058994 229.005359,169.396994 228.927359,168.734994 C228.323359,168.804994 227.731359,168.838994 227.151359,168.838994 C217.091359,168.838994 210.271359,158.640994 202.651359,147.938994 C195.387359,137.696994 187.479359,127.182994 176.095359,127.182994 M418.407359,176.040994 C418.367359,176.236994 418.329359,176.432994 418.291359,176.628994 C418.329359,176.432994 418.367359,176.236994 418.407359,176.040994" id="Fill-29-Copy" fill="#E7E9EF"></path>
                <path d="M322.815359,164.922994 C322.791359,165.590994 322.767359,166.258994 322.741359,166.926994 C323.099359,166.960994 323.461359,166.984994 323.829359,166.998994 C324.079359,167.008994 324.323359,167.012994 324.567359,167.012994 L324.869359,167.010994 C324.895359,166.342994 324.923359,165.674994 324.949359,165.006994 L324.547359,165.012994 C324.335359,165.012994 324.119359,165.008994 323.905359,164.998994 C323.535359,164.984994 323.173359,164.960994 322.815359,164.922994" id="Fill-30-Copy" fill="#CF7274"></path>
                <path d="M231.035359,168.350994 C230.377359,168.518994 229.695359,168.646994 228.985359,168.728994 L228.927359,168.734994 C229.005359,169.396994 229.083359,170.058994 229.161359,170.720994 L229.219359,170.714994 C229.925359,170.632994 230.605359,170.512994 231.265359,170.356994 C231.187359,169.688994 231.111359,169.020994 231.035359,168.350994" id="Fill-31-Copy" fill="#D0D8E5"></path>
                <path d="M416.329359,175.484994 C416.201359,176.146994 416.075359,176.808994 415.945359,177.470994 C416.609359,177.684994 417.301359,177.862994 418.019359,178.002994 C418.109359,177.544994 418.199359,177.086994 418.291359,176.628994 C418.329359,176.432994 418.367359,176.236994 418.407359,176.040994 C417.683359,175.898994 416.991359,175.712994 416.329359,175.484994" id="Fill-32-Copy" fill="#D0D8E5"></path>
                <path d="M174.431359,104.520994 C174.723359,106.094994 173.645359,107.614994 172.019359,107.926994 C170.395359,108.236994 168.829359,107.226994 168.517359,105.656994 C168.209359,104.088994 169.287359,102.554994 170.929359,102.238994 C172.567359,101.922994 174.137359,102.948994 174.431359,104.520994" id="Fill-33-Copy" fill="#F7C056"></path>
                <path d="M185.533359,102.534994 C185.801359,104.110994 184.697359,105.612994 183.069359,105.898994 C181.441359,106.182994 179.893359,105.144994 179.607359,103.570994 C179.325359,101.996994 180.427359,100.480994 182.071359,100.192994 C183.715359,99.9069941 185.267359,100.956994 185.533359,102.534994" id="Fill-34-Copy" fill="#F7C056"></path>
                <path d="M196.661359,100.730994 C196.901359,102.312994 195.773359,103.796994 194.143359,104.054994 C192.513359,104.312994 190.981359,103.248994 190.723359,101.670994 C190.465359,100.092994 191.591359,98.5949941 193.239359,98.3349941 C194.887359,98.0749941 196.419359,99.1509941 196.661359,100.730994" id="Fill-35-Copy" fill="#F7C056"></path>
                <polyline id="Fill-36-Copy" fill="#D3DAE2" points="172.433359 452.998994 173.541359 436.248994 181.291359 437.082994 178.433359 454.166994 172.433359 452.998994"></polyline>
                <path d="M179.079359,450.146994 C179.577359,450.216994 180.049359,450.400994 180.429359,450.714994 C183.067359,452.904994 186.335359,455.396994 188.697359,456.294994 C192.687359,457.814994 195.009359,460.240994 188.797359,460.240994 C182.587359,460.240994 180.701359,460.044994 178.829359,460.000994 C176.059359,459.934994 177.305359,460.240994 170.391359,460.240994 C166.989359,460.240994 168.585359,453.850994 170.453359,450.750994 C171.021359,449.806994 171.215359,449.022994 172.351359,449.186994 L179.079359,450.146994" id="Fill-37-Copy" fill="#C74437"></path>
                <polyline id="Fill-38-Copy" fill="#D3DAE2" points="192.495359 452.998994 196.017359 436.666994 203.767359 437.498994 198.495359 454.166994 192.495359 452.998994"></polyline>
                <path d="M199.579359,450.146994 C200.077359,450.216994 200.549359,450.400994 200.929359,450.714994 C203.567359,452.904994 211.593359,456.822994 215.711359,457.418994 C220.125359,458.054994 220.349359,460.240994 214.139359,460.240994 C207.929359,460.240994 203.373359,459.686994 200.603359,459.756994 C197.835359,459.826994 196.777359,460.240994 189.967359,460.240994 C184.741359,460.240994 188.153359,453.574994 190.023359,450.474994 C190.593359,449.530994 191.715359,449.022994 192.851359,449.186994 L199.579359,450.146994" id="Fill-39-Copy" fill="#E15A46"></path>
                <path d="M273.385359,157.824994 C271.413359,159.348994 269.233359,160.604994 267.397359,161.640994 C266.157359,161.818994 264.829359,162.372994 263.721359,163.112994 C262.341359,164.032994 255.661359,168.732994 253.861359,174.712994 C252.981359,176.592994 252.081359,178.472994 251.141359,180.312994 C250.941359,180.712994 250.741359,181.112994 250.541359,181.512994 C250.341359,181.892994 250.161359,182.252994 249.981359,182.612994 C249.041359,184.392994 248.121359,186.112994 247.201359,187.732994 C243.701359,194.012994 240.521359,198.772994 239.041359,199.712994 C233.641359,202.432994 217.361359,200.612994 207.541359,198.432994 C204.561359,197.792994 201.601359,199.672994 200.941359,202.652994 C200.281359,205.632994 202.161359,208.592994 205.161359,209.252994 C208.141359,209.912994 219.081359,212.172994 229.361359,212.172994 C234.881359,212.172994 240.221359,211.512994 244.021359,209.592994 C247.981359,207.592994 251.801359,199.432994 254.641359,191.972994 C255.281359,190.332994 255.861359,188.712994 256.381359,187.212994 C256.781359,186.072994 257.161359,185.012994 257.501359,184.032994 L257.581359,183.792994 C258.141359,182.052994 258.641359,180.632994 258.981359,179.672994 C259.681359,177.732994 260.101359,176.932994 260.741359,175.472994 C261.361359,174.012994 267.381359,173.992994 269.841359,172.332994 C272.401359,170.632994 272.101359,166.272994 271.061359,163.432994 C270.987359,163.230994 270.869359,163.088994 270.769359,162.922994 C271.233359,162.626994 271.703359,162.318994 272.187359,161.994994 C275.717359,159.642994 278.631359,153.776994 273.385359,157.824994" id="Fill-40-Copy" fill="#F0A880"></path>
                <path d="M209.829359,169.624994 C209.829359,158.140994 201.287359,148.944994 189.803359,148.944994 C178.319359,148.944994 169.009359,158.254994 169.009359,169.738994 C169.009359,177.720994 173.261359,186.526994 179.861359,190.012994 C179.597359,195.122994 180.129359,200.738994 183.309359,205.780994 C186.687359,211.140994 187.343359,212.218994 187.399359,212.314994 C188.623359,214.362994 190.789359,215.498994 193.015359,215.498994 C194.155359,215.498994 195.311359,215.200994 196.361359,214.574994 C199.461359,212.724994 200.477359,208.708994 198.629359,205.606994 C198.629359,205.606994 198.095359,204.708994 194.373359,198.804994 C193.447359,197.338994 192.829359,195.740994 192.891359,192.124994 C206.141359,194.634994 209.829359,179.970994 209.829359,169.624994" id="Fill-41-Copy" fill="#F0A880"></path>
                <path d="M174.229359,320.822994 C174.229359,320.822994 168.559359,306.476994 172.205359,286.562994 L218.771359,286.562994 C218.771359,286.562994 220.021359,300.580994 218.953359,315.736994 L174.229359,320.822994" id="Fill-42-Copy" fill="#252E3A"></path>
                <path d="M182.427359,304.116994 L182.263359,304.116994 C177.199359,304.116994 171.175359,304.116994 172.961359,315.264994 C173.031359,315.698994 175.097359,360.554994 173.587359,379.400994 C172.165359,397.178994 170.889359,446.460994 170.853359,447.000994 L181.203359,447.000994 C181.239359,446.462994 190.729359,398.536994 192.141359,380.886994 C193.697359,361.460994 194.947359,317.386994 194.979359,315.562994 C195.067359,310.424994 187.567359,304.206994 182.427359,304.116994" id="Fill-43-Copy" fill="#252E3A"></path>
                <path d="M218.995359,313.646994 C218.641359,308.516994 213.589359,305.748994 208.481359,306.138994 C203.353359,306.490994 193.037359,310.558994 193.391359,315.686994 C193.417359,316.074994 202.497359,354.948994 202.837359,372.492994 C203.135359,388.032994 201.933359,401.008994 191.515359,447.152994 L201.665359,447.842994 C203.935359,441.746994 221.869359,394.002994 221.445359,372.132994 C221.099359,354.134994 219.103359,315.246994 218.995359,313.646994" id="Fill-44-Copy" fill="#252E3A"></path>
                <path d="M175.701359,203.972994 C175.701359,203.972994 168.121359,240.132994 166.701359,246.812994 C166.161359,249.350994 164.301359,251.272994 161.841359,251.772994 C161.341359,251.892994 160.821359,251.992994 160.201359,251.992994 C158.001359,251.992994 155.801359,248.632994 149.161359,238.792994 C148.961359,238.492994 148.741359,238.172994 148.521359,237.852994 C147.741359,236.712994 146.921359,235.492994 146.041359,234.172994 C145.821359,233.832994 145.581359,233.492994 145.341359,233.152994 C143.801359,230.912994 142.061359,228.412994 140.141359,225.652994 C138.241359,226.332994 132.521359,229.432994 130.261359,229.432994 C127.201359,229.432994 123.441359,229.132994 124.641359,226.312994 C125.921359,223.332994 128.881359,221.332994 131.781359,220.492994 C133.321359,220.032994 136.141359,219.272994 137.259359,218.612994 L137.521359,218.492994 L138.041359,218.272994 L138.541359,218.092994 L139.061359,217.972994 C139.261359,217.952994 139.441359,217.912994 139.621359,217.912994 L140.121359,217.892994 L140.681359,217.932994 L141.161359,218.012994 C141.361359,218.052994 141.541359,218.092994 141.701359,218.152994 L142.179359,218.332994 C142.361359,218.392994 142.521359,218.472994 142.679359,218.572994 L143.121359,218.832994 L143.561359,219.172994 L143.961359,219.532994 L144.341359,219.952994 L144.521359,220.172994 C146.661359,223.112994 149.021359,226.252994 151.341359,229.172994 C151.601359,229.492994 151.861359,229.832994 152.121359,230.152994 C153.081359,231.352994 154.021359,232.512994 154.921359,233.592994 C155.181359,233.892994 155.421359,234.192994 155.661359,234.492994 C156.321359,235.272994 156.941359,235.992994 157.541359,236.652994 C157.901359,234.932994 158.301359,233.052994 158.701359,231.092994 C158.761359,230.832994 158.821359,230.552994 158.881359,230.272994 C161.521359,217.632994 164.881359,201.712994 164.881359,201.712994 L175.701359,203.972994" id="Fill-45-Copy" fill="#F0A880"></path>
                <path d="M155.661359,234.492994 L149.161359,238.792994 C148.961359,238.492994 148.741359,238.172994 148.521359,237.852994 C147.741359,236.712994 146.921359,235.492994 146.041359,234.172994 C145.821359,233.832994 145.581359,233.492994 145.341359,233.152994 L151.341359,229.172994 C151.601359,229.492994 151.861359,229.832994 152.121359,230.152994 C153.081359,231.352994 154.021359,232.512994 154.921359,233.592994 C155.181359,233.892994 155.421359,234.192994 155.661359,234.492994" id="Fill-46-Copy" fill="#E1855E"></path>
                <path d="M248.621359,183.072994 C241.941359,195.872994 238.941359,198.552994 238.481359,198.912994 C233.505359,201.278994 221.639359,200.276994 212.175359,198.358994 C209.829359,197.694994 207.903359,197.246994 207.103359,197.246994 L168.557359,197.246994 C166.347359,197.246994 164.561359,198.792994 164.087359,200.794994 L164.081359,200.792994 C164.081359,200.792994 159.759359,221.372994 156.981359,234.552994 C156.321359,233.772994 155.581359,232.892994 154.759359,231.892994 L144.601359,240.032994 C152.361359,249.532994 156.361359,252.892994 160.341359,252.912994 L160.381359,252.912994 C160.981359,252.912994 161.601359,252.832994 162.221359,252.692994 C162.961359,252.512994 163.641359,252.232994 164.261359,251.852994 C165.961359,250.832994 167.201359,249.112994 167.641359,247.012994 C167.941359,245.604994 168.519359,242.854994 169.251359,239.392994 C171.371359,257.336994 174.641359,260.978994 172.205359,286.562994 L218.771359,286.562994 C218.771359,286.562994 217.001359,239.072994 213.713359,213.638994 C218.301359,214.340994 224.891359,214.562994 230.767359,214.000994 C236.421359,213.458994 240.521359,212.452994 244.461359,210.472994 C246.341359,209.532994 248.667359,208.412994 258.265359,190.012994 L248.621359,183.072994" id="Fill-47-Copy" fill="#516AA4"></path>
                <path d="M154.759359,231.892994 L144.601359,240.032994 C144.081359,239.392994 143.541359,238.712994 142.981359,238.012994 L153.141359,229.892994 C153.721359,230.612994 154.259359,231.272994 154.759359,231.892994" id="Fill-48-Copy" fill="#B7C8DD"></path>
                <path d="M257.581359,183.792994 L257.501359,184.032994 C257.161359,185.012994 256.781359,186.072994 256.381359,187.212994 L249.981359,182.612994 C250.161359,182.252994 250.341359,181.892994 250.541359,181.512994 C250.741359,181.112994 250.941359,180.712994 251.141359,180.312994 L257.581359,183.792994" id="Fill-49-Copy" fill="#E1855E"></path>
                <path d="M259.347359,187.932994 C258.987359,188.652994 258.625359,189.332994 258.267359,190.012994 L248.621359,183.072994 C248.961359,182.412994 249.321359,181.712994 249.701359,180.972994 L259.347359,187.932994" id="Fill-50-Copy" fill="#B7C8DD"></path>
                <path d="M169.261359,239.432994 C168.521359,242.872994 167.941359,245.592994 167.641359,247.012994 C167.201359,249.112994 165.961359,250.832994 164.261359,251.852994 L166.601359,219.172994 C167.501359,225.392994 168.421359,232.332994 169.261359,239.432994" id="Fill-51-Copy" fill="#4866A1"></path>
                <path d="M210.599359,145.656994 C210.599359,145.656994 210.245359,148.840994 202.913359,145.530994 C189.159359,139.322994 175.135359,142.614994 171.287359,145.530994 C167.519359,148.388994 167.017359,151.360994 168.177359,153.724994 C165.139359,156.468994 163.135359,160.220994 163.121359,162.990994 C163.057359,174.822994 170.527359,186.860994 178.641359,186.860994 C191.595359,186.860994 197.299359,171.084994 196.571359,161.990994 C196.507359,161.182994 196.437359,160.362994 196.359359,159.548994 C196.775359,159.626994 197.187359,159.702994 197.607359,159.780994 C212.803359,162.656994 210.599359,145.656994 210.599359,145.656994" id="Fill-52-Copy" fill="#E8803C"></path>
                <path d="M189.455359,170.608994 C189.455359,172.790994 190.435359,174.740994 191.981359,176.046994 C193.789359,177.574994 196.571359,176.194994 196.571359,173.826994 L196.571359,167.392994 C196.571359,165.024994 193.789359,163.646994 191.981359,165.174994 C190.435359,166.478994 189.455359,168.430994 189.455359,170.608994" id="Fill-53-Copy" fill="#F0A880"></path>
                <path d="M199.725359,446.228994 L198.771359,445.924994 C198.933359,445.416994 213.303359,399.218994 215.029359,391.824994 C216.223359,386.704994 218.183359,376.998994 217.891359,369.498994 C217.645359,363.162994 214.179359,312.174994 214.143359,311.658994 C214.799359,305.498994 215.137359,285.506994 215.141359,285.304994 L216.141359,285.320994 C216.137359,285.522994 215.799359,305.560994 215.139359,311.678994 C215.175359,312.104994 218.643359,363.108994 218.891359,369.458994 C219.187359,377.076994 217.209359,386.882994 216.003359,392.050994 C214.267359,399.484994 199.887359,445.718994 199.725359,446.228994" id="Fill-54-Copy" fill="#65758B"></path>
                <polygon id="Fill-55-Copy" fill="#65758B" points="170.641359 291.728994 186.225359 291.728994 186.225359 290.728994 170.641359 290.728994"></polygon>
                <polygon id="Fill-56-Copy" fill="#DEDED9" points="169.257359 240.128994 169.339359 240.128994 169.339359 239.448994 169.257359 239.448994"></polygon>
                <g id="Group-72-Copy" transform="translate(123.141359, 140.312994)">
                    <mask id="mask-2" fill="white">
                        <use xlink:href="#path-1"></use>
                    </mask>
                    <g id="Clip-58"></g>
                    <path d="M47.188,106.75 C46.85,104.658 46.512,102.384 46.196,99.816 L46.198,99.816 C46.512,102.384 46.85,104.658 47.188,106.75 M44.618,106.14 C44.642,106.028 44.668,105.908 44.694,105.784 C44.668,105.908 44.642,106.028 44.618,106.14" id="Fill-57" fill="#DCD1BE" mask="url(#mask-2)"></path>
                    <path d="M70.44,56.934 L70.432,56.934 C69.972,55.754 69.708,54.238 69.75,51.812 C69.754,51.812 69.758,51.814 69.764,51.814 C69.758,51.814 69.754,51.812 69.75,51.812 C69.71,54.244 69.978,55.754 70.44,56.934 M56.71,49.93 C56.712,49.852 56.716,49.776 56.72,49.7 C56.716,49.776 56.714,49.852 56.71,49.93" id="Fill-59" fill="#DEDED9" mask="url(#mask-2)"></path>
                    <path d="M70.432,56.934 L57.052,56.934 C56.674,54.566 56.604,52.198 56.71,49.93 C56.714,49.852 56.716,49.776 56.72,49.7 C54.918,48.746 53.296,47.386 51.88,45.762 C53.056,46.272 54.27,46.548 55.5,46.548 C59.982,46.548 63.596,44.66 66.376,41.812 C67.566,45.09 68.7,48.434 69.764,51.814 C69.758,51.814 69.754,51.812 69.75,51.812 C69.708,54.238 69.972,55.754 70.432,56.934" id="Fill-60" fill="#D4936E" mask="url(#mask-2)"></path>
                    <path d="M49.912,176.67 C48.662,171.844 47.054,162.778 48.324,151.416 L48.304,151.416 L63.084,151.416 L63.084,150.416 L48.432,150.416 C48.604,149.054 48.804,147.672 49.064,146.25 L79.504,146.25 C78.594,153.452 77.242,160.522 75.412,167.39 C75.242,168.028 75.07,168.66 74.894,169.286 C73.36,170.2 72.046,171.26 71.21,172.42 C69.31,168.078 63.504,163.878 59.286,163.804 L59.122,163.804 C54.058,163.804 48.034,163.804 49.82,174.952 C49.828,175 49.862,175.606 49.912,176.67" id="Fill-61" fill="#212933" mask="url(#mask-2)"></path>
                    <path d="M50.974,214.592 C50.84,198.726 50.16,181.964 49.912,176.674 C49.912,176.672 49.912,176.672 49.912,176.67 C49.862,175.606 49.828,175 49.82,174.952 C48.034,163.804 54.058,163.804 59.122,163.804 L59.286,163.804 C63.504,163.878 69.31,168.078 71.21,172.42 C70.542,173.348 70.178,174.34 70.25,175.374 C70.256,175.458 70.674,177.294 71.33,180.302 C66.066,194.52 59.084,205.84 50.974,214.592" id="Fill-62" fill="#212933" mask="url(#mask-2)"></path>
                    <path d="M71.33,180.302 C70.674,177.294 70.256,175.458 70.25,175.374 C70.178,174.34 70.542,173.348 71.21,172.42 C72.046,171.26 73.36,170.2 74.894,169.286 C73.816,173.136 72.624,176.808 71.33,180.302" id="Fill-63" fill="#212933" mask="url(#mask-2)"></path>
                    <path d="M79.504,146.25 L49.064,146.25 C51.11,124.764 49.132,118.752 47.188,106.75 C46.85,104.658 46.512,102.384 46.198,99.816 C46.17,99.592 46.142,99.364 46.116,99.136 C46.116,99.13 46.118,99.126 46.12,99.12 C45.28,92.02 44.36,85.08 43.46,78.86 L41.12,111.54 C40.5,111.92 39.82,112.2 39.08,112.38 C38.46,112.52 37.84,112.6 37.24,112.6 L37.2,112.6 C35.252,112.59 33.302,111.782 30.906,109.844 C28.406,107.824 25.424,104.572 21.46,99.72 L31.618,91.58 C32.44,92.58 33.18,93.46 33.84,94.24 C36.618,81.06 40.94,60.48 40.94,60.48 L40.946,60.482 C41.42,58.48 43.206,56.934 45.416,56.934 L71.314,56.934 C79.622,85.472 83.214,116.928 79.504,146.25 M44.5,106.7 C44.566,106.386 44.646,106.008 44.738,105.574 C44.724,105.646 44.708,105.716 44.694,105.784 C44.668,105.908 44.642,106.028 44.618,106.14 C44.576,106.346 44.536,106.532 44.5,106.7" id="Fill-64" fill="#49629E" mask="url(#mask-2)"></path>
                    <path d="M45.256,103.15 C45.272,103.074 45.288,102.998 45.304,102.922 C45.288,102.998 45.272,103.074 45.256,103.15" id="Fill-65" fill="#DCD1BE" mask="url(#mask-2)"></path>
                    <polyline id="Fill-66" fill="#DEDED9" mask="url(#mask-2)" points="22.976 95.194 22.976 95.192 23.506 94.77 23.508 94.77 22.976 95.194"></polyline>
                    <polyline id="Fill-67" fill="#C54E3E" mask="url(#mask-2)" points="19.84 97.7 22.976 95.192 22.976 95.194 19.84 97.7"></polyline>
                    <path d="M29.252,90.178 C29.162,90.066 29.07,89.952 28.98,89.84 L29.252,90.178 L30,89.58 L29.252,90.178" id="Fill-68" fill="#DEDED9" mask="url(#mask-2)"></path>
                    <path d="M22.2,92.84 L22.2,92.84 C20.66,90.6 18.92,88.1 17,85.34 C15.1,86.02 9.38,89.12 7.12,89.12 C4.46,89.12 1.272,88.894 1.272,86.982 C1.272,86.696 1.344,86.37 1.5,86 C2.78,83.02 5.74,81.02 8.64,80.18 C10.18,79.72 13,78.96 14.118,78.3 L14.38,78.18 L14.9,77.96 L15.4,77.78 L15.92,77.66 C16.12,77.64 16.3,77.6 16.48,77.6 L16.98,77.58 L17.54,77.62 L18.02,77.7 C18.22,77.74 18.4,77.78 18.56,77.84 L19.038,78.02 C19.22,78.08 19.38,78.16 19.538,78.26 L19.98,78.52 L20.42,78.86 L20.82,79.22 L21.2,79.64 L21.38,79.86 C23.52,82.8 25.88,85.94 28.2,88.86 L22.2,92.84" id="Fill-69" fill="#D4936E" mask="url(#mask-2)"></path>
                    <path d="M23.508,94.77 L23.506,94.77 L23.508,94.768 C23.304,94.464 23.11,94.174 22.9,93.86 C22.68,93.52 22.44,93.18 22.2,92.84 L28.2,88.86 C28.46,89.18 28.72,89.52 28.98,89.84 C29.07,89.952 29.162,90.066 29.252,90.178 L23.508,94.77" id="Fill-70" fill="#C27453" mask="url(#mask-2)"></path>
                    <path d="M40.016,24.272 C40.014,24.202 40.01,24.134 40.006,24.066 C40.01,24.134 40.014,24.202 40.016,24.272 M40.004,23.994 C39.99,23.676 39.984,23.358 39.98,23.04 C39.984,23.358 39.99,23.676 40.004,23.994" id="Fill-71" fill="#D8BD8C" mask="url(#mask-2)"></path>
                </g>
                <path d="M343.521359,296.886994 L399.025359,296.886994 C400.823359,296.886994 401.867359,295.432994 401.361359,293.634994 L392.071359,260.696994 C391.565359,258.900994 389.697359,257.444994 387.901359,257.444994 L332.397359,257.444994 C330.599359,257.444994 329.553359,258.900994 330.061359,260.696994 L339.349359,293.634994 C339.857359,295.432994 341.725359,296.886994 343.521359,296.886994" id="Fill-73-Copy" fill="#BB532D"></path>
                <path d="M344.735359,296.886994 L400.241359,296.886994 C402.035359,296.886994 403.083359,295.432994 402.575359,293.634994 L393.285359,260.696994 C392.777359,258.900994 390.911359,257.444994 389.113359,257.444994 L333.609359,257.444994 C331.813359,257.444994 330.767359,258.900994 331.273359,260.696994 L340.565359,293.634994 C341.071359,295.432994 342.937359,296.886994 344.735359,296.886994" id="Fill-74-Copy" fill="#E8803C"></path>
                <path d="M344.579359,288.966994 L338.483359,267.354994 C337.825359,265.018994 339.581359,262.696994 342.009359,262.696994 L385.747359,262.696994 C387.385359,262.696994 388.825359,263.786994 389.269359,265.364994 L395.367359,286.978994 C396.025359,289.316994 394.269359,291.634994 391.843359,291.634994 L348.101359,291.634994 C346.463359,291.634994 345.023359,290.544994 344.579359,288.966994" id="Fill-75-Copy" fill="#FAF9F7"></path>
                <path d="M341.135359,297.498994 C341.381359,298.136994 342.003359,298.594994 342.729359,298.594994 L401.327359,298.594994 C402.055359,298.594994 402.677359,298.136994 402.923359,297.498994 C403.035359,297.202994 402.815359,296.886994 402.501359,296.886994 L341.559359,296.886994 C341.243359,296.886994 341.023359,297.202994 341.135359,297.498994" id="Fill-76-Copy" fill="#BB532D"></path>
                <path d="M356.363359,297.498994 C356.609359,298.136994 357.229359,298.594994 357.957359,298.594994 L416.553359,298.594994 C417.281359,298.594994 417.903359,298.136994 418.149359,297.498994 C418.263359,297.202994 418.041359,296.886994 417.727359,296.886994 L356.785359,296.886994 C356.471359,296.886994 356.251359,297.202994 356.363359,297.498994" id="Fill-77-Copy" fill="#F8D18E"></path>
                <path d="M381.697359,296.886994 L381.697359,297.164994 C381.697359,297.480994 381.957359,297.742994 382.275359,297.742994 L392.237359,297.742994 C392.555359,297.742994 392.813359,297.480994 392.813359,297.164994 L392.813359,296.886994 L381.697359,296.886994" id="Fill-78-Copy" fill="#FFF4DE"></path>
                <path d="M433.609359,304.010994 C432.863359,298.926994 428.149359,295.412994 423.049359,296.152994 C417.585359,296.954994 369.439359,304.888994 362.219359,336.178994 C357.817359,355.250994 370.807359,388.308994 380.975359,414.812994 L389.807359,412.196994 C382.439359,389.606994 377.969359,350.708994 380.355359,340.364994 C384.069359,324.276994 415.163359,316.148994 425.763359,314.568994 C430.843359,313.818994 434.355359,309.094994 433.609359,304.010994" id="Fill-79-Copy" fill="#EAAA40"></path>
                <path d="M437.419359,165.174994 L437.089359,164.970994 C434.931359,155.788994 426.705359,146.562994 416.863359,146.562994 C407.173359,146.562994 399.053359,155.582994 396.747359,164.554994 C396.155359,164.558994 395.555359,164.734994 395.035359,165.174994 C393.493359,166.478994 392.513359,168.430994 392.513359,170.608994 C392.513359,172.788994 393.493359,174.740994 395.035359,176.046994 C395.709359,176.614994 396.517359,176.778994 397.269359,176.640994 C399.141359,182.216994 405.017359,191.062994 413.799359,191.702994 C413.855359,195.152994 413.261359,197.270994 412.293359,198.806994 C408.567359,204.716994 408.033359,205.616994 408.033359,205.616994 C406.195359,208.716994 407.213359,212.718994 410.309359,214.564994 C411.357359,215.192994 412.513359,215.490994 413.653359,215.490994 C415.873359,215.490994 418.039359,214.358994 419.267359,212.318994 C419.335359,212.204994 419.997359,211.116994 423.359359,205.780994 C426.539359,200.736994 427.095359,194.672994 426.829359,189.562994 C431.449359,187.114994 434.763359,181.542994 436.499359,176.536994 C436.819359,176.434994 437.133359,176.286994 437.419359,176.046994 C438.963359,174.740994 439.941359,172.788994 439.941359,170.608994 C439.941359,168.430994 438.963359,166.478994 437.419359,165.174994" id="Fill-80-Copy" fill="#F0A880"></path>
                <path d="M432.437359,316.874994 C432.437359,316.874994 438.109359,306.476994 434.461359,286.562994 L387.895359,286.562994 C387.895359,286.562994 387.235359,301.718994 388.303359,316.874994 L432.437359,316.874994" id="Fill-81-Copy" fill="#F7C056"></path>
                <path d="M397.549359,298.684994 C389.181359,298.684994 381.701359,298.624994 375.073359,298.572994 C340.685359,298.312994 330.323359,298.224994 325.437359,307.066994 C323.747359,310.132994 322.629359,315.192994 326.921359,321.894994 C337.769359,338.836994 375.255359,365.364994 379.307359,368.646994 L386.227359,359.978994 C377.257359,352.712994 357.779359,330.356994 346.781359,317.374994 C353.615359,317.022994 364.073359,317.102994 374.927359,317.186994 C381.601359,317.238994 389.125359,317.296994 397.549359,317.296994 C402.689359,317.296994 406.855359,313.130994 406.855359,307.990994 C406.855359,302.850994 402.689359,298.684994 397.549359,298.684994" id="Fill-82-Copy" fill="#F7C056"></path>
                <path d="M466.961359,242.692994 C466.959359,238.410994 462.461359,229.772994 456.801359,220.772994 C452.201359,213.492994 446.901359,205.992994 442.841359,200.412994 C441.021359,197.952994 437.561359,197.412994 435.103359,199.212994 C432.641359,201.012994 432.081359,204.472994 433.901359,206.932994 C438.741359,213.552994 443.801359,220.992994 447.821359,227.412994 C452.041359,234.072994 455.161359,239.652994 455.801359,242.092994 C453.701359,246.132994 441.481359,258.512994 430.781359,268.132994 L430.337359,268.620994 L430.095359,268.882994 C429.927359,269.100994 429.789359,269.336994 429.659359,269.574994 L429.523359,269.796994 C429.399359,270.048994 429.307359,270.312994 429.223359,270.578994 L429.147359,270.794994 C429.075359,271.054994 429.037359,271.322994 429.007359,271.590994 L428.967359,271.846994 C428.949359,272.096994 428.963359,272.344994 428.979359,272.594994 L428.993359,272.916994 C429.019359,273.146994 429.079359,273.372994 429.137359,273.598994 L429.223359,273.964994 C429.293359,274.182994 429.395359,274.386994 429.493359,274.596994 L429.661359,274.960994 C429.777359,275.168994 429.927359,275.360994 430.071359,275.554994 L430.267359,275.840994 L430.331359,275.912994 L430.361359,275.952994 L430.391359,275.978994 C431.309359,277.036994 435.009359,281.068994 439.499359,282.624994 C440.099359,282.834994 440.709359,282.932994 441.311359,282.932994 C443.601359,282.932994 444.723359,279.452994 445.515359,277.166994 C446.519359,274.278994 442.501359,271.662994 439.611359,270.660994 L439.391359,270.562994 C455.265359,258.332994 466.963359,249.076994 466.961359,242.692994" id="Fill-83-Copy" fill="#F0A880"></path>
                <path d="M456.801359,220.772994 L450.701359,225.272994 L447.821359,227.412994 C443.801359,220.992994 438.741359,213.552994 433.901359,206.932994 C432.081359,204.472994 432.641359,201.012994 435.103359,199.212994 C437.561359,197.412994 441.021359,197.952994 442.841359,200.412994 C446.901359,205.992994 452.201359,213.492994 456.801359,220.772994" id="Fill-84-Copy" fill="#E1855E"></path>
                <path d="M457.081359,218.672994 L450.441359,222.792994 L444.761359,226.332994 L443.801359,224.792994 L440.941359,220.172994 C438.921359,216.892994 437.081359,213.992994 435.721359,211.892994 C434.381359,209.792994 433.521359,208.472994 433.501359,208.452994 C432.941359,207.592994 432.601359,206.652994 432.441359,205.692994 C431.981359,202.952994 433.121359,200.052994 435.621359,198.412994 C436.481359,197.852994 437.421359,197.512994 438.361359,197.352994 C438.901359,197.252994 439.461359,197.232994 440.001359,197.272994 C442.201359,197.392994 444.341359,198.532994 445.641359,200.532994 C445.781359,200.732994 449.121359,205.852994 453.259359,212.532994 L456.121359,217.132994 L457.081359,218.672994" id="Fill-85-Copy" fill="#E15A46"></path>
                <path d="M450.441359,222.792994 L444.761359,226.332994 L443.801359,224.792994 L440.941359,220.172994 C438.921359,216.892994 437.081359,213.992994 435.721359,211.892994 C434.381359,209.792994 433.521359,208.472994 433.501359,208.452994 C432.941359,207.592994 432.601359,206.652994 432.441359,205.692994 C431.981359,202.952994 433.121359,200.052994 435.621359,198.412994 C436.481359,197.852994 437.421359,197.512994 438.361359,197.352994 C438.901359,197.252994 439.461359,197.232994 440.001359,197.272994 C441.161359,198.332994 442.081359,199.672994 442.661359,201.212994 C442.801359,201.552994 445.821359,209.592994 449.461359,220.012994 L450.441359,222.792994" id="Fill-86-Copy" fill="#D04133"></path>
                <path d="M442.641359,202.632994 C439.421359,221.192994 433.081359,267.812994 434.461359,286.572994 L387.901359,286.572994 C387.901359,286.572994 388.401359,274.032994 389.341359,258.332994 C390.561359,237.452994 392.541359,211.032994 395.021359,201.052994 L395.121359,200.652994 C395.641359,198.632994 397.481359,197.252994 399.561359,197.252994 L438.101359,197.252994 C440.961359,197.252994 443.141359,199.812994 442.641359,202.632994" id="Fill-87-Copy" fill="#E15A46"></path>
                <path d="M427.991359,151.918994 C423.591359,157.606994 397.565359,161.114994 397.565359,148.324994 C397.565359,145.604994 399.367359,144.316994 399.367359,144.316994 C399.367359,144.316994 399.587359,146.248994 400.535359,146.802994 C400.535359,146.802994 404.991359,144.236994 409.443359,143.276994 C409.443359,143.276994 408.589359,145.222994 411.891359,144.782994 C421.419359,143.514994 435.291359,142.476994 427.991359,151.918994" id="Fill-88-Copy" fill="#515796"></path>
                <path d="M406.721359,210.432994 C406.721359,210.492994 406.441359,212.232994 406.041359,215.032994 C405.641359,217.852994 405.081359,221.752994 404.521359,226.072994 L403.701359,232.212994 L389.341359,258.332994 C390.561359,237.452994 392.541359,211.032994 395.021359,201.052994 C395.581359,200.612994 396.221359,200.292994 396.881359,200.092994 C398.061359,199.712994 399.361359,199.672994 400.701359,200.092994 C403.381359,200.892994 405.481359,203.252994 406.361359,206.052994 C406.801359,207.452994 406.961359,208.952994 406.721359,210.432994" id="Fill-89-Copy" fill="#D04133"></path>
                <path d="M409.877359,148.032994 C405.115359,149.292994 401.019359,157.622994 400.589359,162.528994 C399.793359,171.624994 406.645359,185.852994 420.787359,185.852994 C437.659359,185.852994 439.281359,167.854994 438.463359,163.322994 C437.643359,158.792994 434.871359,148.708994 427.621359,147.802994 C423.277359,147.260994 414.967359,146.684994 409.877359,148.032994" id="Fill-90-Copy" fill="#515796"></path>
                <path d="M402.581359,199.552994 L402.541359,199.532994 C402.021359,199.252994 401.481359,199.052994 400.901359,198.932994 C399.621359,198.632994 398.321359,198.712994 397.141359,199.092994 C395.941359,199.472994 394.861359,200.132994 394.021359,201.052994 L393.961359,201.132994 C393.761359,201.552994 393.581359,202.012994 393.481359,202.492994 C393.281359,203.372994 390.961359,213.912994 388.521359,225.672994 C385.961359,237.792994 383.221359,251.192994 382.421359,256.632994 C380.761359,267.972994 363.021359,277.092994 356.321359,279.652994 L356.029359,279.796994 C355.817359,279.892994 355.603359,279.986994 355.401359,280.110994 C355.213359,280.224994 355.049359,280.360994 354.879359,280.494994 L354.577359,280.716994 L354.483359,280.802994 L354.445359,280.838994 C353.021359,282.152994 347.455359,287.766994 348.141359,294.598994 C348.427359,297.450994 348.481359,298.196994 351.177359,298.992994 C352.579359,299.406994 353.891359,299.408994 355.395359,299.402994 C358.451359,299.392994 360.197359,298.520994 359.891359,295.478994 C359.813359,294.706994 358.375359,287.440994 359.641359,286.062994 C375.429359,279.380994 390.687359,276.454994 393.381359,258.252994 C394.101359,253.352994 396.561359,241.232994 398.941359,229.772994 C401.621359,217.012994 404.221359,205.092994 404.281359,204.852994 C404.721359,202.832994 404.001359,200.832994 402.581359,199.552994" id="Fill-91-Copy" fill="#F0A880"></path>
                <path d="M404.281359,204.852994 C404.221359,205.092994 401.621359,217.012994 398.941359,229.772994 L388.521359,225.672994 C390.961359,213.912994 393.281359,203.372994 393.481359,202.492994 C393.581359,202.012994 393.761359,201.552994 393.961359,201.132994 L394.021359,201.052994 C394.861359,200.132994 395.941359,199.472994 397.141359,199.092994 C398.321359,198.712994 399.621359,198.632994 400.901359,198.932994 C401.481359,199.052994 402.021359,199.252994 402.541359,199.532994 L402.581359,199.552994 C404.001359,200.832994 404.721359,202.832994 404.281359,204.852994" id="Fill-92-Copy" fill="#E1855E"></path>
                <path d="M387.895359,223.922994 L402.117359,226.766994 L403.541359,219.664994 C404.293359,215.910994 405.013359,212.528994 405.531359,210.084994 C406.051359,207.638994 406.391359,206.126994 406.397359,206.086994 C406.693359,204.794994 406.609359,203.510994 406.233359,202.316994 C405.485359,199.948994 403.521359,198.004994 400.907359,197.424994 C399.615359,197.128994 398.331359,197.212994 397.137359,197.588994 C394.769359,198.336994 392.825359,200.300994 392.245359,202.916994 C392.189359,203.162994 390.857359,209.112994 389.321359,216.820994 L388.251359,222.156994 L387.895359,223.922994" id="Fill-93-Copy" fill="#E15A46"></path>
                <polygon id="Fill-94-Copy" fill="#E49C2E" points="420.101359 292.812994 435.685359 292.812994 435.685359 291.812994 420.101359 291.812994"></polygon>
                <path d="M378.285359,364.840994 C361.593359,352.556994 341.775359,333.434994 333.173359,321.304994 C330.245359,317.176994 329.511359,313.626994 330.993359,310.760994 C333.223359,306.440994 340.335359,304.062994 351.017359,304.062994 C354.637359,304.062994 360.821359,304.092994 367.217359,304.120994 C374.075359,304.154994 381.179359,304.188994 385.641359,304.188994 C394.141359,304.188994 394.141359,300.186994 394.141359,298.680994 L394.141359,286.062994 L395.141359,286.062994 L395.141359,298.680994 C395.141359,302.998994 391.945359,305.188994 385.641359,305.188994 C381.179359,305.188994 374.073359,305.154994 367.213359,305.120994 C360.817359,305.092994 354.637359,305.062994 351.017359,305.062994 C340.877359,305.062994 333.901359,307.306994 331.879359,311.218994 C330.585359,313.726994 331.293359,316.926994 333.989359,320.726994 C342.539359,332.780994 362.259359,351.804994 378.879359,364.034994 L378.285359,364.840994" id="Fill-95-Copy" fill="#E49C2E"></path>
                <path d="M377.331359,364.274994 C376.917359,364.558994 376.573359,364.932994 376.369359,365.378994 C374.963359,368.508994 369.481359,375.558994 366.045359,377.902994 C362.359359,380.418994 363.119359,382.478994 368.697359,379.746994 C374.275359,377.014994 378.121359,374.512994 380.639359,373.356994 C383.157359,372.202994 384.289359,372.106994 390.405359,369.110994 C395.099359,366.812994 389.099359,362.328994 386.057359,360.366994 C385.131359,359.768994 383.899359,359.808994 382.949359,360.454994 L377.331359,364.274994" id="Fill-96-Copy" fill="#252E3A"></path>
                <path d="M381.285359,412.518994 C381.005359,412.934994 380.825359,413.408994 380.805359,413.898994 C380.663359,417.326994 378.891359,425.062994 374.809359,427.672994 C371.051359,430.076994 372.243359,431.908994 377.957359,429.478994 C383.057359,427.312994 385.829359,421.722994 387.735359,419.714994 C389.643359,417.704994 390.659359,417.194994 395.219359,412.138994 C398.719359,408.258994 391.483359,406.328994 387.931359,405.640994 C386.849359,405.432994 385.719359,405.926994 385.079359,406.878994 L381.285359,412.518994" id="Fill-97-Copy" fill="#252E3A"></path>
                <g id="Group-104-Copy" transform="translate(323.141359, 142.312994)">
                    <mask id="mask-4" fill="white">
                        <use xlink:href="#path-3"></use>
                    </mask>
                    <g id="Clip-99"></g>
                    <path d="M68.92,225.148 C68.304,223.888 67.726,222.634 67.188,221.392 C68.234,222.456 68.998,223.584 68.996,224.61 C68.996,224.794 68.972,224.974 68.92,225.148" id="Fill-98" fill="#212933" mask="url(#mask-4)"></path>
                    <path d="M65.664,186.426 C72.988,180.78 83.546,176.878 92.044,174.562 L109.296,174.562 L92.054,174.562 C83.554,176.876 72.99,180.778 65.664,186.426 M111.32,144.25 L111.32,144.25 C111.172,142.242 111.114,139.914 111.13,137.34 C111.13,137.34 111.132,137.34 111.132,137.342 C111.118,139.912 111.172,142.248 111.32,144.25 M118.17,140.62 C117.568,140.62 116.958,140.522 116.358,140.312 C116.218,140.264 116.08,140.214 115.942,140.16 C116.08,140.214 116.218,140.264 116.358,140.312 C116.958,140.522 117.568,140.62 118.17,140.62 C120.46,140.62 121.582,137.14 122.374,134.854 C122.482,134.544 122.532,134.236 122.532,133.934 C122.532,134.236 122.482,134.544 122.374,134.854 C121.582,137.14 120.46,140.62 118.17,140.62 M111.822,121.992 C112.888,107.412 115.008,90.174 116.97,76.516 C117.242,76.956 117.52,77.404 117.8,77.86 L120.66,82.48 L121.62,84.02 L123.324,82.958 C123.768,83.652 124.202,84.338 124.626,85.012 C124.21,84.35 123.746,83.644 123.312,82.966 L121.62,84.02 L120.66,82.48 L117.8,77.86 C117.516,77.4 117.246,76.966 116.97,76.52 C115.008,90.18 112.892,107.406 111.826,121.988 C121.32,113.148 130.83,103.298 132.66,99.78 C130.83,103.3 121.318,113.15 111.822,121.992 M132.782,77.08 L132.782,77.08 L133.94,76.36 L132.782,77.08" id="Fill-100" fill="#DCD1BE" mask="url(#mask-4)"></path>
                    <path d="M89.912,54.94 L89.904,54.94 C90.006,54.662 90.1,54.368 90.184,54.056 C90.186,54.056 90.19,54.056 90.192,54.056 C90.108,54.368 90.014,54.662 89.912,54.94" id="Fill-101" fill="#DEDED9" mask="url(#mask-4)"></path>
                    <path d="M90.192,54.056 C90.19,54.056 90.186,54.056 90.184,54.056 C90.436,53.12 90.598,52.018 90.646,50.69 C90.6,52.018 90.44,53.12 90.192,54.056" id="Fill-102" fill="#C2C8CB" mask="url(#mask-4)"></path>
                    <path d="M103.714,47.846 C103.706,47.646 103.698,47.448 103.688,47.25 C103.698,47.448 103.706,47.646 103.714,47.846" id="Fill-103" fill="#DEDED9" mask="url(#mask-4)"></path>
                </g>
                <polygon id="Fill-105-Copy" fill="#516AA4" points="386.227359 460.240994 435.685359 460.240994 435.685359 316.378994 386.227359 316.378994"></polygon>
                <polygon id="Fill-106-Copy" fill="#FBE1B5" points="454.749359 460.240994 504.207359 460.240994 504.207359 426.156994 454.749359 426.156994"></polygon>
                <polygon id="Fill-107-Copy" fill="#FBE1B5" points="317.707359 460.240994 367.165359 460.240994 367.165359 400.824994 317.707359 400.824994"></polygon>
                <path d="M298.945359,460.240994 L249.487359,460.240994 L249.487359,406.444994 C262.373359,395.220994 272.307359,380.846994 277.687359,364.156994 L298.945359,364.156994 L298.945359,460.240994" id="Fill-108-Copy" fill="#FCE6BE"></path>
                <path d="M249.487359,406.444994 L249.487359,364.156994 L277.687359,364.156994 C272.307359,380.846994 262.373359,395.220994 249.487359,406.444994" id="Fill-109-Copy" fill="#FBE1B5"></path>
                <path d="M146.537359,466.510994 L513.903359,466.510994 C515.635359,466.510994 517.037359,465.104994 517.037359,463.374994 C517.037359,461.642994 515.635359,460.240994 513.903359,460.240994 L146.537359,460.240994 C144.807359,460.240994 143.403359,461.642994 143.403359,463.374994 C143.403359,465.104994 144.807359,466.510994 146.537359,466.510994" id="Fill-110-Copy" fill="#E0E0DB"></path>
                <polygon id="Fill-111-Copy" fill="#FBDBA5" points="259.193359 257.730994 286.145359 257.730994 286.145359 249.396994 259.193359 249.396994"></polygon>
                <polygon id="Fill-112-Copy" fill="#E1EAEF" points="253.527359 309.730994 256.431359 309.730994 256.431359 237.064994 253.527359 237.064994"></polygon>
                <polygon id="Fill-113-Copy" fill="#FBDBA5" points="259.193359 269.730994 275.655359 269.730994 275.655359 261.396994 259.193359 261.396994"></polygon>
                <polygon id="Fill-114-Copy" fill="#FBDBA5" points="279.543359 269.730994 302.145359 269.730994 302.145359 261.396994 279.543359 261.396994"></polygon>
                <polygon id="Fill-115-Copy" fill="#FBDBA5" points="259.193359 281.730994 269.895359 281.730994 269.895359 273.396994 259.193359 273.396994"></polygon>
                <polygon id="Fill-116-Copy" fill="#FBDBA5" points="259.193359 305.730994 270.691359 305.730994 270.691359 297.396994 259.193359 297.396994"></polygon>
                <polygon id="Fill-117-Copy" fill="#FBDBA5" points="277.861359 305.730994 305.395359 305.730994 305.395359 297.396994 277.861359 297.396994"></polygon>
                <polygon id="Fill-118-Copy" fill="#FBDBA5" points="64.3013589 134.822994 113.787359 134.822994 113.787359 126.490994 64.3013589 126.490994"></polygon>
                <polygon id="Fill-119-Copy" fill="#E1EAEF" points="58.6353589 199.156994 61.5373589 199.156994 61.5373589 126.490994 58.6353589 126.490994"></polygon>
                <polygon id="Fill-120-Copy" fill="#FBDBA5" points="64.3013589 146.822994 120.953359 146.822994 120.953359 138.490994 64.3013589 138.490994"></polygon>
                <polygon id="Fill-121-Copy" fill="#FBDBA5" points="64.3013589 158.822994 101.621359 158.822994 101.621359 150.490994 64.3013589 150.490994"></polygon>
                <polygon id="Fill-122-Copy" fill="#FBDBA5" points="64.3013589 182.822994 71.4133589 182.822994 71.4133589 174.490994 64.3013589 174.490994"></polygon>
                <polygon id="Fill-123-Copy" fill="#FBDBA5" points="75.8493589 182.822994 92.8813589 182.822994 92.8813589 174.490994 75.8493589 174.490994"></polygon>
                <polyline id="Fill-124-Copy" fill="#E88172" points="450.101359 122.900994 445.801359 127.200994 437.961359 119.358994 442.259359 115.058994 450.101359 122.900994"></polyline>
                <path d="M473.529359,150.626994 L473.529359,150.626994 C471.369359,152.786994 467.849359,152.710994 465.781359,150.462994 L443.235359,125.906994 L448.809359,120.334994 L473.363359,142.880994 C475.613359,144.946994 475.687359,148.468994 473.529359,150.626994" id="Fill-125-Copy" fill="#E59E69"></path>
                <path d="M446.179359,88.1849941 C443.067359,87.5249941 439.953359,86.8869941 436.835359,86.2709941 L442.039359,81.0669941 C440.729359,79.4269941 439.221359,77.9329941 437.545359,76.6409941 L429.351359,84.8329941 C427.837359,84.5509941 426.313359,84.2709941 424.797359,83.9989941 L434.311359,74.4849941 C430.961359,72.5769941 427.165359,71.3669941 423.103359,71.0529941 L412.281359,81.8669941 C408.421359,81.2449941 404.553359,80.6549941 400.685359,80.0969941 C405.649359,74.4989941 412.897359,70.9689941 420.963359,70.9689941 C421.677359,70.9689941 422.405359,71.0029941 423.103359,71.0529941 C427.165359,71.3669941 430.961359,72.5769941 434.311359,74.4849941 C435.455359,75.1309941 436.533359,75.8609941 437.545359,76.6409941 C439.221359,77.9329941 440.729359,79.4269941 442.039359,81.0669941 C443.757359,83.1969941 445.161359,85.5929941 446.179359,88.1849941" id="Fill-126-Copy" fill="#E4EBE2"></path>
                <path d="M448.039359,97.6989941 C447.515359,97.4349941 446.943359,97.2309941 446.331359,97.1009941 C440.705359,95.8909941 435.067359,94.7529941 429.421359,93.6849941 L436.835359,86.2709941 C439.953359,86.8869941 443.067359,87.5249941 446.179359,88.1849941 C447.337359,91.1389941 447.995359,94.3469941 448.039359,97.6989941 M421.881359,92.3029941 C420.353359,92.0309941 418.821359,91.7649941 417.291359,91.5049941 L424.797359,83.9989941 C426.313359,84.2709941 427.837359,84.5509941 429.351359,84.8329941 L421.881359,92.3029941 M404.675359,89.4689941 C401.697359,89.0169941 398.713359,88.5849941 395.731359,88.1709941 C396.903359,85.1849941 398.591359,82.4569941 400.685359,80.0969941 C404.553359,80.6549941 408.421359,81.2449941 412.281359,81.8669941 L404.675359,89.4689941" id="Fill-127-Copy" fill="#E2DEBF"></path>
                <path d="M420.963359,125.144994 C414.527359,125.144994 408.607359,122.890994 403.965359,119.142994 L429.421359,93.6849941 C435.067359,94.7529941 440.705359,95.8909941 446.331359,97.1009941 C446.943359,97.2309941 447.515359,97.4349941 448.039359,97.6989941 C448.041359,97.8209941 448.041359,97.9429941 448.041359,98.0649941 C448.041359,105.374994 445.147359,112.006994 440.441359,116.876994 L439.779359,117.540994 C434.907359,122.248994 428.273359,125.144994 420.963359,125.144994 M399.537359,114.646994 L399.537359,114.646994 C398.759359,113.636994 398.027359,112.558994 397.381359,111.414994 L417.291359,91.5049941 C418.821359,91.7649941 420.353359,92.0309941 421.881359,92.3029941 L399.537359,114.646994 M393.949359,100.188994 L393.949359,100.188994 C393.899359,99.4909941 393.865359,98.7789941 393.865359,98.0649941 C393.865359,94.5729941 394.527359,91.2369941 395.731359,88.1709941 C398.713359,88.5849941 401.697359,89.0169941 404.675359,89.4689941 L393.949359,100.188994" id="Fill-128-Copy" fill="#E7F4F6"></path>
                <path d="M439.779359,117.540994 L440.441359,116.876994 C440.225359,117.102994 440.003359,117.324994 439.779359,117.540994" id="Fill-129-Copy" fill="#D8A59F"></path>
                <path d="M424.797359,83.9989941 C420.627359,83.2509941 416.459359,82.5409941 412.281359,81.8669941 L423.103359,71.0529941 C427.165359,71.3669941 430.961359,72.5769941 434.311359,74.4849941 L424.797359,83.9989941" id="Fill-130-Copy" fill="#EFF3EC"></path>
                <path d="M417.291359,91.5049941 C413.091359,90.7869941 408.885359,90.1089941 404.675359,89.4689941 L412.281359,81.8669941 C416.459359,82.5409941 420.627359,83.2509941 424.797359,83.9989941 L417.291359,91.5049941" id="Fill-131-Copy" fill="#ECE8D1"></path>
                <path d="M397.381359,111.414994 L397.381359,111.414994 C395.475359,108.064994 394.265359,104.250994 393.949359,100.188994 L404.675359,89.4689941 C408.885359,90.1089941 413.091359,90.7869941 417.291359,91.5049941 L397.381359,111.414994" id="Fill-132-Copy" fill="#F0F8F9"></path>
                <path d="M436.835359,86.2709941 C434.339359,85.7769941 431.853359,85.3009941 429.351359,84.8329941 L437.545359,76.6409941 C439.221359,77.9329941 440.729359,79.4269941 442.039359,81.0669941 L436.835359,86.2709941" id="Fill-133-Copy" fill="#EFF3EC"></path>
                <path d="M429.421359,93.6849941 C426.911359,93.2109941 424.397359,92.7509941 421.881359,92.3029941 L429.351359,84.8329941 C431.853359,85.3009941 434.339359,85.7769941 436.835359,86.2709941 L429.421359,93.6849941" id="Fill-134-Copy" fill="#ECE8D1"></path>
                <path d="M403.965359,119.142994 L403.965359,119.142994 C402.323359,117.830994 400.831359,116.322994 399.537359,114.646994 L421.881359,92.3029941 C424.397359,92.7509941 426.911359,93.2109941 429.421359,93.6849941 L403.965359,119.142994" id="Fill-135-Copy" fill="#F0F8F9"></path>
                <path d="M420.959359,73.9729941 C414.525359,73.9729941 408.477359,76.4769941 403.929359,81.0249941 C399.379359,85.5749941 396.873359,91.6229941 396.873359,98.0569941 C396.873359,104.488994 399.379359,110.538994 403.929359,115.088994 C408.477359,119.636994 414.525359,122.142994 420.959359,122.142994 C427.391359,122.142994 433.439359,119.636994 437.989359,115.088994 C442.537359,110.538994 445.043359,104.488994 445.043359,98.0569941 C445.043359,91.6229941 442.537359,85.5749941 437.989359,81.0249941 C433.439359,76.4769941 427.391359,73.9729941 420.959359,73.9729941 Z M420.959359,128.142994 C412.923359,128.142994 405.367359,125.012994 399.685359,119.330994 C394.003359,113.646994 390.873359,106.092994 390.873359,98.0569941 C390.873359,90.0209941 394.003359,82.4649941 399.685359,76.7829941 C405.367359,71.1009941 412.923359,67.9729941 420.959359,67.9729941 C428.995359,67.9729941 436.549359,71.1009941 442.231359,76.7829941 C447.915359,82.4649941 451.043359,90.0209941 451.043359,98.0569941 C451.043359,106.092994 447.915359,113.646994 442.231359,119.330994 C436.549359,125.012994 428.995359,128.142994 420.959359,128.142994 L420.959359,128.142994 Z" id="Fill-136-Copy" fill="#F8D18E"></path>
                <g id="Group" transform="translate(64.000000, 200.000000)" fill="#494949">
                    <path d="M19.1803196,34.1091196 C18.7315433,34.2294415 18.2364145,34.291677 17.6991471,34.291677 L11.9366909,34.2398141 L11.9366909,26.5848477 L17.6991471,26.5848477 C18.2364145,26.5848477 18.7315433,26.6470832 19.1803196,26.7653307 C20.9143238,27.2196498 21.944613,28.5141482 21.944613,30.3334993 C21.944613,32.3167372 20.9143238,33.6465024 19.1803196,34.1091196 Z M11.9366909,12.6316488 L17.6991471,12.6316488 C18.2490561,12.6316488 18.7483987,12.7229276 19.1803196,12.8992615 C20.3496663,13.3784748 21.0449535,14.4738196 21.0449535,16.0649739 C21.0449535,17.7370343 20.3496663,18.9091362 19.1803196,19.4215418 C18.7483987,19.6082483 18.2490561,19.7119741 17.6991471,19.7119741 L11.9366909,19.7119741 L11.9366909,12.6316488 Z M23.7818568,22.317567 C26.8031958,21.2720106 28.720503,18.201726 28.720503,14.399137 C28.720503,9.09667248 25.0502292,5.59488839 19.1803196,5.21732636 L19.1803196,0.479130363 L13.2914475,0.479130363 L13.2914475,5.18205958 L10.5861482,5.18205958 L10.5861482,0.479130363 L4.69516923,0.479130363 L4.69516923,5.18205958 L0.30853897,5.18205958 L0.30853897,12.6316488 L4.50554544,12.6316488 L4.50554544,34.2398141 L0.30853897,34.2398141 L0.30853897,41.6852543 L4.69516923,41.6852543 L4.69516923,47.0354327 L10.5861482,47.0354327 L10.5861482,41.6852543 L13.2914475,41.6852543 L13.2914475,47.0354327 L19.1803196,47.0354327 L19.1803196,41.6748818 C25.6022451,41.4695046 29.6601942,37.6109037 29.6601942,31.5325699 C29.6601942,26.8462368 27.4142058,23.2552485 23.7818568,22.317567 L23.7818568,22.317567 Z" id="Fill-210"></path>
                </g>
                <path d="M498.998711,322.773587 L484,315.827177 L498.998711,292 L514,315.827177 L498.998711,322.773587 Z M498.998711,344 L484,320.17537 L498.998711,329.870285 L514,320.17537 L498.998711,344 Z" id="Combined-Shape" fill="#494949"></path>
                <g id="Group-3" transform="translate(490.000000, 500.000000)" fill="#494949">
                    <path d="M5.05339806,10.1165049 C2.26213592,10.1165049 1.05249143e-13,7.84951456 1.05249143e-13,5.05825243 C1.05249143e-13,2.26699029 2.26213592,2.26041408e-13 5.05339806,2.26041408e-13 C7.84466019,2.26041408e-13 10.1116505,2.26699029 10.1116505,5.05825243 C10.1116505,7.84951456 7.84466019,10.1165049 5.05339806,10.1165049" id="Fill-42"></path>
                    <path d="M26.3592233,10.1165049 C23.5679612,10.1165049 21.3009709,7.84951456 21.3009709,5.05825243 C21.3009709,2.26699029 23.5679612,2.26041408e-13 26.3592233,2.26041408e-13 C29.1504854,2.26041408e-13 31.4126214,2.26699029 31.4126214,5.05825243 C31.4126214,7.84951456 29.1504854,10.1165049 26.3592233,10.1165049" id="Fill-43"></path>
                    <path d="M47.6601942,10.1165049 C44.8640777,10.1165049 42.6019417,7.84951456 42.6019417,5.05825243 C42.6019417,2.26699029 44.8640777,2.26041408e-13 47.6601942,2.26041408e-13 C50.4514563,2.26041408e-13 52.7135922,2.26699029 52.7135922,5.05825243 C52.7135922,7.84951456 50.4514563,10.1165049 47.6601942,10.1165049" id="Fill-44"></path>
                    <path d="M68.9563107,10.1165049 C66.1650485,10.1165049 63.8980583,7.84951456 63.8980583,5.05825243 C63.8980583,2.26699029 66.1650485,2.26041408e-13 68.9563107,2.26041408e-13 C71.7475728,2.26041408e-13 74.0145631,2.26699029 74.0145631,5.05825243 C74.0145631,7.84951456 71.7475728,10.1165049 68.9563107,10.1165049" id="Fill-45"></path>
                    <path d="M90.2572816,10.1165049 C87.4660194,10.1165049 85.2038835,7.84951456 85.2038835,5.05825243 C85.2038835,2.26699029 87.4660194,2.26041408e-13 90.2572816,2.26041408e-13 C93.0533981,2.26041408e-13 95.315534,2.26699029 95.315534,5.05825243 C95.315534,7.84951456 93.0533981,10.1165049 90.2572816,10.1165049" id="Fill-46"></path>
                </g>
                <g id="Group-3-Copy" transform="translate(0.000000, 94.000000)" fill="#494949">
                    <path d="M5.05339806,10.1165049 C2.26213592,10.1165049 1.05249143e-13,7.84951456 1.05249143e-13,5.05825243 C1.05249143e-13,2.26699029 2.26213592,2.26041408e-13 5.05339806,2.26041408e-13 C7.84466019,2.26041408e-13 10.1116505,2.26699029 10.1116505,5.05825243 C10.1116505,7.84951456 7.84466019,10.1165049 5.05339806,10.1165049" id="Fill-42"></path>
                    <path d="M26.3592233,10.1165049 C23.5679612,10.1165049 21.3009709,7.84951456 21.3009709,5.05825243 C21.3009709,2.26699029 23.5679612,2.26041408e-13 26.3592233,2.26041408e-13 C29.1504854,2.26041408e-13 31.4126214,2.26699029 31.4126214,5.05825243 C31.4126214,7.84951456 29.1504854,10.1165049 26.3592233,10.1165049" id="Fill-43"></path>
                    <path d="M47.6601942,10.1165049 C44.8640777,10.1165049 42.6019417,7.84951456 42.6019417,5.05825243 C42.6019417,2.26699029 44.8640777,2.26041408e-13 47.6601942,2.26041408e-13 C50.4514563,2.26041408e-13 52.7135922,2.26699029 52.7135922,5.05825243 C52.7135922,7.84951456 50.4514563,10.1165049 47.6601942,10.1165049" id="Fill-44"></path>
                    <path d="M68.9563107,10.1165049 C66.1650485,10.1165049 63.8980583,7.84951456 63.8980583,5.05825243 C63.8980583,2.26699029 66.1650485,2.26041408e-13 68.9563107,2.26041408e-13 C71.7475728,2.26041408e-13 74.0145631,2.26699029 74.0145631,5.05825243 C74.0145631,7.84951456 71.7475728,10.1165049 68.9563107,10.1165049" id="Fill-45"></path>
                    <path d="M90.2572816,10.1165049 C87.4660194,10.1165049 85.2038835,7.84951456 85.2038835,5.05825243 C85.2038835,2.26699029 87.4660194,2.26041408e-13 90.2572816,2.26041408e-13 C93.0533981,2.26041408e-13 95.315534,2.26699029 95.315534,5.05825243 C95.315534,7.84951456 93.0533981,10.1165049 90.2572816,10.1165049" id="Fill-46"></path>
                </g>
                <path d="M291.12852,36 C290.584527,36 290.029107,35.9284294 289.475972,35.7829795 C286.186877,34.9172064 284.086336,31.5072148 284.760612,28.141089 C285.332032,25.3036619 287.631427,23.2812159 290.317103,22.9441416 L290.714811,21.037132 C291.274803,18.3636247 290.458815,15.5885333 288.547985,13.6561277 L287.327432,12.4232669 C286.431445,12.864234 285.455459,13.0858719 284.479473,13.0858719 C282.822354,13.0858719 281.165235,12.4486629 279.901254,11.1696274 C277.293291,8.53536843 277.368719,4.22035529 280.12525,1.68306291 C281.34809,0.556403514 282.916067,0 284.481759,0 C286.138878,0 287.793711,0.623356634 289.041693,1.86083499 C291.082806,3.89251587 291.505657,6.94234592 290.319388,9.40345027 L292.08622,11.1834798 C293.59477,12.7072404 295.631311,13.5499262 297.738709,13.5499262 C298.056419,13.5499262 298.374129,13.5314564 298.691839,13.492208 L301.169517,13.1920734 C301.743223,10.518566 303.942048,8.3853011 306.787721,8.06207914 C307.025432,8.0343744 307.260857,8.02283076 307.493997,8.02283076 C310.600237,8.02283076 313.386483,10.331559 313.909904,13.4852819 C314.522466,17.2000257 311.941932,20.6423395 308.282557,21.0856153 C308.019703,21.1156288 307.759136,21.1317899 307.500854,21.1317899 C304.986604,21.1317899 302.742066,19.6542038 301.674652,17.4355159 L301.329515,17.4793818 C297.928421,17.8903354 295.165032,20.4437889 294.458757,23.8260758 C296.767295,25.2274739 298.058705,27.9887129 297.468999,30.7984352 C296.824437,33.8828962 294.129619,36 291.12852,36" id="Fill-113" fill="#494949"></path>
            </g>
        </g>
    </g>
</svg>