<?xml version="1.0" encoding="UTF-8"?>
<svg width="155px" height="132px" viewBox="0 0 155 132" version="1.1" xmlns="http://www.w3.org/2000/svg" xmlns:xlink="http://www.w3.org/1999/xlink">
    <!-- Generator: Sketch 53 (72520) - https://sketchapp.com -->
    <title>image 1</title>
    <desc>Created with Sketch.</desc>
    <g id="Page-1" stroke="none" stroke-width="1" fill="none" fill-rule="evenodd">
        <g id="1-ADAX-landing" transform="translate(-291.000000, -2301.000000)">
            <g id="image-1" transform="translate(291.000000, 2301.651849)">
                <rect id="Rectangle" fill="#D6CECE" fill-rule="nonzero" x="56.0111994" y="102.350596" width="42.6751559" height="24.1372891"></rect>
                <path d="M144.028841,5.46739499e-07 L10.668714,5.46739499e-07 C7.83883096,-0.00090385547 5.12466916,1.12055488 3.12386994,3.11687203 C1.12307072,5.11318917 -0.000905884767,7.82127085 5.47981426e-07,10.6448145 L5.47981426e-07,98.4652837 C-0.000905884767,101.288827 1.12307072,103.996608 3.12386994,105.993226 C5.12497131,107.989543 7.83883096,109.111002 10.668714,109.110098 L144.028841,109.110098 C146.858724,109.111002 149.572583,107.989543 151.573685,105.993226 C153.574484,103.996608 154.698461,101.288827 154.697554,98.4652837 L154.697554,10.6448145 C154.698461,7.82127085 153.574484,5.11318917 151.573685,3.11687203 C149.572886,1.12025342 146.858724,-0.00090385547 144.028841,5.46739499e-07 Z" id="Path" fill="#E6E6E6" fill-rule="nonzero"></path>
                <path d="M154.697857,87.8204697 L154.697856,10.6448145 C154.698763,7.82127085 153.574786,5.11349064 151.573987,3.11687203 C149.572886,1.12025342 146.859026,-0.00090385547 144.029143,5.46739684e-07 L10.668714,5.46739684e-07 C7.83883096,-0.00090385547 5.12497131,1.12055488 3.12386994,3.11687203 C1.12276858,5.11318917 -0.000905884781,7.82127085 5.47967209e-07,10.6448145 L1.42108547e-14,87.8204697 L154.697857,87.8204697 Z" id="Path" fill="#FFB700" fill-rule="nonzero"></path>
                <path d="M37.3407998,119.755213 L117.357057,119.755213 C118.83001,119.755213 120.024387,120.946612 120.024387,122.416567 L120.024387,127.738974 C120.024387,129.208628 118.830312,130.400329 117.357057,130.400329 L37.3407998,130.400329 C35.8678466,130.400329 34.6734703,129.20893 34.6734703,127.738974 L34.6734703,122.416567 C34.6734703,120.946612 35.8675444,119.755213 37.3407998,119.755213 Z" id="Path" fill="#E6E6E6" fill-rule="nonzero"></path>
                <g id="Group-6" transform="translate(13.330210, 13.345218)" fill-rule="nonzero">
                    <path d="M58.0175289,50.5654933 C52.0012326,58.9191551 42.3220416,63.8716616 32.0122755,63.8716616 C21.7025094,63.8716616 12.0233184,58.9191551 6.0070221,50.5654933 L58.0175289,50.5654933 Z" id="Path" fill="#818181"></path>
                    <path d="M64.018718,31.9369181 C64.0380552,38.6225607 61.9372463,45.1429991 58.0175289,50.5654933 L6.0070221,50.5654933 C-2.06717868,39.3442736 -1.9955705,24.2154335 6.18407863,13.0704851 C14.3637278,1.92553664 28.7971585,-2.70922321 41.956447,1.58337114 C55.1157355,5.87596549 64.0175094,18.1233802 64.018718,31.9369181 Z" id="Path" fill="#CC9508"></path>
                    <ellipse id="Oval" fill="#F9EAB0" cx="32.0122755" cy="21.2921041" rx="10.6687135" ry="10.644814"></ellipse>
                    <path d="M32.0122755,31.9369181 C40.8505991,31.9369181 48.0156478,39.0856146 48.0156478,47.9044406 L48.0156478,50.5657948 L16.0089032,50.5657948 L16.0089032,47.9044406 C16.0089032,39.0859161 23.1739519,31.9369181 32.0122755,31.9369181 Z" id="Path" fill="#F3D55B"></path>
                </g>
                <g id="Group-7" transform="translate(89.351733, 31.539662)" fill="#E6E7E8">
                    <rect id="Rectangle" x="0" y="0" width="31" height="5.45833333" rx="2.72916667"></rect>
                    <rect id="Rectangle-Copy" x="0" y="11.8263889" width="41.0294118" height="5.45833333" rx="2.72916667"></rect>
                    <rect id="Rectangle-Copy-2" x="0" y="23.6527778" width="51.0588235" height="5.45833333" rx="2.72916667"></rect>
                </g>
            </g>
        </g>
    </g>
</svg>