<?xml version="1.0" encoding="UTF-8"?>
<svg width="119px" height="136px" viewBox="0 0 119 136" version="1.1" xmlns="http://www.w3.org/2000/svg" xmlns:xlink="http://www.w3.org/1999/xlink">
    <!-- Generator: Sketch 53 (72520) - https://sketchapp.com -->
    <title>image 2</title>
    <desc>Created with Sketch.</desc>
    <g id="Page-1" stroke="none" stroke-width="1" fill="none" fill-rule="evenodd">
        <g id="1-ADAX-landing" transform="translate(-893.000000, -2297.000000)" fill-rule="nonzero">
            <g id="image-2" transform="translate(954.000000, 2361.000000) rotate(20.000000) translate(-954.000000, -2361.000000) translate(909.000000, 2299.000000)">
                <path d="M81.3070161,124 L8.69298387,124 C3.975,124 0.150241935,120.171258 0.150241935,115.448359 L0.150241935,17.1035234 C0.150241935,12.380625 3.975,8.55188281 8.69298387,8.55188281 L81.3070161,8.55188281 C86.025,8.55188281 89.8497581,12.380625 89.8497581,17.1035234 L89.8497581,115.448359 C89.8497581,120.171258 86.025,124 81.3070161,124 Z" id="Path" fill="#FFB700"></path>
                <path d="M81.3070161,117.586148 L8.69298387,117.586148 C7.51354839,117.586148 6.55717742,116.628781 6.55717742,115.448117 L6.55717742,17.1035234 C6.55717742,15.9228594 7.51354839,14.9654922 8.69298387,14.9654922 L81.3070161,14.9654922 C82.4864516,14.9654922 83.4428226,15.9228594 83.4428226,17.1035234 L83.4428226,115.448359 C83.4428226,116.629023 82.4864516,117.586148 81.3070161,117.586148 Z" id="Path" fill="#EFF2FA"></path>
                <path d="M57.8143548,8.55164062 L51.4071774,8.55164062 L51.4071774,6.41360938 C51.4071774,2.87161719 48.5385484,0 45,0 C41.4614516,0 38.5928226,2.87161719 38.5928226,6.41385156 L38.5928226,8.55188281 L32.1856452,8.55188281 C29.8267742,8.55188281 27.9142742,10.4661328 27.9142742,12.8277031 L27.9142742,17.1035234 L62.0854839,17.1035234 L62.0854839,12.8277031 C62.0857258,10.4658906 60.1732258,8.55164062 57.8143548,8.55164062 Z M45,8.55164062 C43.8205645,8.55164062 42.8641935,7.59427344 42.8641935,6.41360938 C42.8641935,5.23294531 43.8205645,4.27557813 45,4.27557813 C46.1794355,4.27557813 47.1358065,5.23294531 47.1358065,6.41360938 C47.1358065,7.59427344 46.1794355,8.55164062 45,8.55164062 Z" id="Shape" fill="#C7CFE2"></path>
                <path d="M62.0857258,19.2413125 L27.9142742,19.2413125 C26.7348387,19.2413125 25.7784677,18.2839453 25.7784677,17.1032813 L25.7784677,17.1032813 C25.7784677,15.9226172 26.7348387,14.96525 27.9142742,14.96525 L62.0854839,14.96525 C63.2649194,14.96525 64.2212903,15.9226172 64.2212903,17.1032813 L64.2212903,17.1032813 C64.2212903,18.2841875 63.2651613,19.2413125 62.0857258,19.2413125 Z" id="Path" fill="#AFB9D2"></path>
                <path d="M23.6429032,49.1722969 C23.096371,49.1722969 22.5498387,48.9635313 22.1329839,48.546 L15.7258065,42.1321484 C14.8916129,41.2970859 14.8916129,39.9439844 15.7258065,39.1089219 C16.56,38.2738594 17.9116935,38.2738594 18.7458871,39.1089219 L23.6429032,44.0112813 L32.8115323,34.8331016 C33.6457258,33.9980391 34.9974194,33.9980391 35.8316129,34.8331016 C36.6658065,35.6681641 36.6658065,37.0212656 35.8316129,37.8563281 L25.1530645,48.546 C24.7359677,48.9637734 24.1894355,49.1722969 23.6429032,49.1722969 Z" id="Path" fill="#82889D"></path>
                <g id="Group" opacity="0.97" transform="translate(40.645161, 36.328125)" fill="#AFB9D2">
                    <path d="M19.3047581,4.29253125 L2.21903226,4.29253125 C1.03959677,4.29253125 0.0832258065,3.33516406 0.0832258065,2.1545 L0.0832258065,2.1545 C0.0832258065,0.973835937 1.03959677,0.01646875 2.21903226,0.01646875 L19.3047581,0.01646875 C20.4841935,0.01646875 21.4405645,0.973835937 21.4405645,2.1545 L21.4405645,2.1545 C21.4405645,3.33540625 20.4841935,4.29253125 19.3047581,4.29253125 Z" id="Path"></path>
                </g>
                <g id="Group" opacity="0.97" transform="translate(40.645161, 44.804688)" fill="#C7CFE2">
                    <path d="M29.9833065,4.36760937 L2.21903226,4.36760937 C1.03959677,4.36760937 0.0832258065,3.41024219 0.0832258065,2.22957812 L0.0832258065,2.22957812 C0.0832258065,1.04891406 1.03959677,0.091546875 2.21903226,0.091546875 L29.9833065,0.091546875 C31.1627419,0.091546875 32.1191129,1.04891406 32.1191129,2.22957812 L32.1191129,2.22957812 C32.1191129,3.41048437 31.1627419,4.36760937 29.9833065,4.36760937 Z" id="Path"></path>
                </g>
                <path d="M23.6429032,100.482867 C23.096371,100.482867 22.5498387,100.274102 22.1329839,99.8565703 L15.7258065,93.4424766 C14.8916129,92.6074141 14.8916129,91.2543125 15.7258065,90.41925 C16.56,89.5841875 17.9116935,89.5841875 18.7458871,90.41925 L23.6429032,95.3216094 L32.8115323,86.1434297 C33.6457258,85.3083672 34.9974194,85.3083672 35.8316129,86.1434297 C36.6658065,86.9784922 36.6658065,88.3315938 35.8316129,89.1666563 L25.1530645,99.8563281 C24.7359677,100.274102 24.1894355,100.482867 23.6429032,100.482867 Z" id="Path" fill="#82889D"></path>
                <g id="Group" opacity="0.97" transform="translate(40.645161, 87.429688)" fill="#AFB9D2">
                    <path d="M19.3047581,4.50129688 L2.21903226,4.50129688 C1.03959677,4.50129688 0.0832258065,3.54392969 0.0832258065,2.36326563 L0.0832258065,2.36326563 C0.0832258065,1.18260156 1.03959677,0.225234375 2.21903226,0.225234375 L19.3047581,0.225234375 C20.4841935,0.225234375 21.4405645,1.18260156 21.4405645,2.36326563 L21.4405645,2.36326563 C21.4405645,3.54417188 20.4841935,4.50129688 19.3047581,4.50129688 Z" id="Path"></path>
                </g>
                <g id="Group" opacity="0.97" transform="translate(40.645161, 96.148438)" fill="#C7CFE2">
                    <path d="M29.9833065,4.33442969 L2.21903226,4.33442969 C1.03959677,4.33442969 0.0832258065,3.3770625 0.0832258065,2.19639844 L0.0832258065,2.19639844 C0.0832258065,1.01573438 1.03959677,0.0583671875 2.21903226,0.0583671875 L29.9833065,0.0583671875 C31.1627419,0.0583671875 32.1191129,1.01573438 32.1191129,2.19639844 L32.1191129,2.19639844 C32.1191129,3.3770625 31.1627419,4.33442969 29.9833065,4.33442969 Z" id="Path"></path>
                </g>
                <path d="M23.6429032,74.8277031 C23.096371,74.8277031 22.5498387,74.6189375 22.1329839,74.2014063 L15.7258065,67.7873125 C14.8916129,66.95225 14.8916129,65.5991484 15.7258065,64.7640859 C16.56,63.9290234 17.9116935,63.9290234 18.7458871,64.7640859 L23.6429032,69.6664453 L32.8115323,60.4882656 C33.6457258,59.6532031 34.9974194,59.6532031 35.8316129,60.4882656 C36.6658065,61.3233281 36.6658065,62.6764297 35.8316129,63.5114922 L25.1530645,74.2011641 C24.7359677,74.6189375 24.1894355,74.8277031 23.6429032,74.8277031 Z" id="Path" fill="#82889D"></path>
                <g id="Group" opacity="0.97" transform="translate(40.645161, 61.757812)" fill="#AFB9D2">
                    <path d="M19.3047581,4.51800781 L2.21903226,4.51800781 C1.03959677,4.51800781 0.0832258065,3.56064062 0.0832258065,2.37997656 L0.0832258065,2.37997656 C0.0832258065,1.1993125 1.03959677,0.241945312 2.21903226,0.241945312 L19.3047581,0.241945312 C20.4841935,0.241945312 21.4405645,1.1993125 21.4405645,2.37997656 L21.4405645,2.37997656 C21.4405645,3.56088281 20.4841935,4.51800781 19.3047581,4.51800781 Z" id="Path"></path>
                </g>
                <g id="Group" opacity="0.97" transform="translate(40.645161, 70.476562)" fill="#C7CFE2">
                    <path d="M29.9833065,4.35114063 L2.21903226,4.35114063 C1.03959677,4.35114063 0.0832258065,3.39377344 0.0832258065,2.21310938 L0.0832258065,2.21310938 C0.0832258065,1.03244531 1.03959677,0.075078125 2.21903226,0.075078125 L29.9833065,0.075078125 C31.1627419,0.075078125 32.1191129,1.03244531 32.1191129,2.21310938 L32.1191129,2.21310938 C32.1191129,3.39377344 31.1627419,4.35114063 29.9833065,4.35114063 Z" id="Path"></path>
                </g>
            </g>
        </g>
    </g>
</svg>