<?xml version="1.0" encoding="UTF-8"?>
<svg width="56px" height="43px" viewBox="0 0 56 43" version="1.1" xmlns="http://www.w3.org/2000/svg" xmlns:xlink="http://www.w3.org/1999/xlink">
    <!-- Generator: Sketch 52 (66869) - http://www.bohemiancoding.com/sketch -->
    <title>account-color</title>
    <desc>Created with Sketch.</desc>
    <g id="assets" stroke="none" stroke-width="1" fill="none" fill-rule="evenodd">
        <g id="Desktop-HD" transform="translate(-894.000000, -597.000000)">
            <g id="account-color" transform="translate(887.000000, 596.000000)">
                <path d="M7.098,43 L11.06,33.2 L12.824,33.2 L16.786,43 L14.812,43 L13.832,40.438 L10.052,40.438 L9.072,43 L7.098,43 Z M11.578,36.434 L10.682,38.786 L13.202,38.786 L12.306,36.434 C12.306,36.434 12.124,35.958 11.942,35.37 C11.76,35.958 11.578,36.434 11.578,36.434 Z M22.82,40.27 L24.248,41.194 C23.59,42.51 22.456,43.196 21,43.196 C18.942,43.196 17.346,41.74 17.346,39.528 C17.346,37.316 19.026,35.86 21,35.86 C22.54,35.86 23.688,36.56 24.178,37.75 L22.736,38.702 C22.33,37.82 21.714,37.512 20.986,37.512 C19.95,37.512 19.138,38.296 19.138,39.528 C19.138,40.774 19.922,41.544 20.986,41.544 C21.91,41.544 22.428,41.082 22.82,40.27 Z M30.66,40.27 L32.088,41.194 C31.43,42.51 30.296,43.196 28.84,43.196 C26.782,43.196 25.186,41.74 25.186,39.528 C25.186,37.316 26.866,35.86 28.84,35.86 C30.38,35.86 31.528,36.56 32.018,37.75 L30.576,38.702 C30.17,37.82 29.554,37.512 28.826,37.512 C27.79,37.512 26.978,38.296 26.978,39.528 C26.978,40.774 27.762,41.544 28.826,41.544 C29.75,41.544 30.268,41.082 30.66,40.27 Z M40.614,39.528 C40.614,41.964 38.724,43.196 36.82,43.196 C34.916,43.196 33.026,41.964 33.026,39.528 C33.026,37.092 34.916,35.86 36.82,35.86 C38.724,35.86 40.614,37.092 40.614,39.528 Z M36.82,41.544 C37.856,41.544 38.822,40.802 38.822,39.528 C38.822,38.254 37.856,37.512 36.82,37.512 C35.784,37.512 34.818,38.254 34.818,39.528 C34.818,40.802 35.784,41.544 36.82,41.544 Z M41.986,40.368 L41.986,36.056 L43.75,36.056 L43.75,39.962 C43.75,40.97 44.184,41.544 45.164,41.544 C46.144,41.544 46.774,40.746 46.774,39.64 L46.774,36.056 L48.538,36.056 L48.538,43 L46.774,43 L46.774,41.908 C46.326,42.734 45.542,43.196 44.562,43.196 C43.106,43.196 41.986,42.23 41.986,40.368 Z M56.854,38.268 L56.854,43 L55.09,43 L55.09,38.996 C55.09,38.086 54.656,37.512 53.676,37.512 C52.752,37.512 52.066,38.31 52.066,39.472 L52.066,43 L50.302,43 L50.302,36.056 L52.066,36.056 L52.066,37.176 C52.584,36.378 53.41,35.86 54.418,35.86 C55.902,35.86 56.854,36.826 56.854,38.268 Z M58.072,37.484 L58.072,36.056 L59.15,36.056 L59.15,34.18 L60.914,34.18 L60.914,36.056 L62.426,36.056 L62.426,37.484 L60.914,37.484 L60.914,40.648 C60.914,41.362 61.264,41.628 61.796,41.628 C62.062,41.628 62.244,41.586 62.384,41.544 L62.552,43 C62.244,43.112 61.782,43.196 61.376,43.196 C60.172,43.196 59.15,42.692 59.15,40.984 L59.15,37.484 L58.072,37.484 Z" id="Account" fill="#FFFFFF"></path>
                <g id="Group" transform="translate(28.000000, 2.000000)" stroke="#AF48E9" stroke-linecap="round" stroke-linejoin="round" stroke-width="1.8">
                    <path d="M10.7788708,1.32877723 C6.99100228,-0.644911628 3.28084255,0.508817799 1.95066047,2.0625 C-2.20912584,6.92122277 2.75819609,9.66758837 1.95066047,14.7808322" id="Path-2"></path>
                    <path d="M10.9473684,1.375 C10.9473684,1.375 11.4729214,1.14583333 12.5240275,0.6875 C12.4735507,1.3834768 11.9479977,2.0709768 10.9473684,2.75 C10.2719545,3.20833333 10.5000247,4.58333333 11.6315789,6.875 C12.2265446,7.36508831 12.5240275,7.82342165 12.5240275,8.25 C12.5240275,8.27334687 11.8196481,8.3716989 11.6315789,8.9375 C10.8317546,11.34375 10.8317546,12.0507033 10.2631579,12.375 C10.1469688,12.441268 9.95871727,12.5044142 9.69840337,12.5644387 L6.84210526,11.34375 C6.21183303,13.588812 6.66797338,16.2242287 8.21052632,19.25 C8.69189321,20.1942179 8.82665912,21.1108846 8.61482406,22 C6.59598972,18.8481255 5.09280275,17.0147922 4.10526316,16.5" id="Path-7"></path>
                </g>
            </g>
        </g>
    </g>
</svg>