<?xml version="1.0" encoding="UTF-8"?>
<svg width="15px" height="24px" viewBox="0 0 15 24" version="1.1" xmlns="http://www.w3.org/2000/svg" xmlns:xlink="http://www.w3.org/1999/xlink">
    <!-- Generator: sketchtool 54 (76480) - https://sketchapp.com -->
    <title>47EE5C6C-FF48-4AE2-959B-FA9F5E6002CE@1x</title>
    <desc>Created with sketchtool.</desc>
    <g id="Open-order-content" stroke="none" stroke-width="1" fill="none" fill-rule="evenodd" stroke-linecap="round" stroke-linejoin="round">
        <g id="Trade-Withdraw-Status" transform="translate(-72.000000, -528.000000)" stroke="#979797" stroke-width="1.5">
            <g id="sidebar">
                <g id="Group-2" transform="translate(45.000000, 313.000000)">
                    <g id="Settings-color" transform="translate(0.000000, 214.000000)">
                        <g id="Group-3" transform="translate(28.000000, 2.000000)">
                            <path d="M10.7788708,1.32877723 C6.99100228,-0.644911628 3.28084255,0.508817799 1.95066047,2.0625 C-2.20912584,6.92122277 2.75819609,9.66758837 1.95066047,14.7808322" id="Path-2"></path>
                            <path d="M10.9473684,1.375 C10.9473684,1.375 11.4729214,1.14583333 12.5240275,0.6875 C12.4735507,1.3834768 11.9479977,2.0709768 10.9473684,2.75 C10.2719545,3.20833333 10.5000247,4.58333333 11.6315789,6.875 C12.2265446,7.36508831 12.5240275,7.82342165 12.5240275,8.25 C12.5240275,8.27334687 11.8196481,8.3716989 11.6315789,8.9375 C10.8317546,11.34375 10.8317546,12.0507033 10.2631579,12.375 C10.1469688,12.441268 9.95871727,12.5044142 9.69840337,12.5644387 L6.84210526,11.34375 C6.21183303,13.588812 6.66797338,16.2242287 8.21052632,19.25 C8.69189321,20.1942179 8.82665912,21.1108846 8.61482406,22 C6.59598972,18.8481255 5.09280275,17.0147922 4.10526316,16.5" id="Path-7"></path>
                        </g>
                    </g>
                </g>
            </g>
        </g>
    </g>
</svg>