<?xml version="1.0" encoding="UTF-8"?>
<svg width="22px" height="18px" viewBox="0 0 22 18" version="1.1" xmlns="http://www.w3.org/2000/svg" xmlns:xlink="http://www.w3.org/1999/xlink">
    <!-- Generator: sketchtool 54 (76480) - https://sketchapp.com -->
    <title>21860100-7C75-4A9D-8B7C-889B4888EA90@1x</title>
    <desc>Created with sketchtool.</desc>
    <g id="Open-order-content" stroke="none" stroke-width="1" fill="none" fill-rule="evenodd">
        <g id="Trade-Withdraw-Status" transform="translate(-69.000000, -422.000000)" fill="#ffb600" fill-rule="nonzero" stroke-width="0.4" stroke="#ffb600">
            <g id="sidebar">
                <g id="Group-2" transform="translate(45.000000, 313.000000)">
                    <g id="wallet-color" transform="translate(0.000000, 107.000000)">
                        <path d="M44.0476158,8.46803245 L44.0476158,5.91968892 C44.0476158,4.28464165 42.7381132,3 41.0714237,3 L27.9761921,3 C26.3095026,3.00006711 25,4.28470876 25,5.91975604 L25,16.0803111 C25,17.7153584 26.3095026,19 27.9761921,19 L41.0714237,19 C42.7381132,19 44.0476158,17.7153584 44.0476158,16.0803111 L44.0476158,13.6488142 C44.6083328,13.2855896 45,12.6643093 45,11.99276 L45,10.1241537 C45,9.4513964 44.6083328,8.83125697 44.0476158,8.46803245 Z M43.8095368,11.9926929 C43.8095368,12.4598109 43.4524184,12.8102165 42.9761921,12.8102165 L36.9047684,12.8102165 C36.4286105,12.8102165 36.0714237,12.459878 36.0714237,11.9926929 L36.0714237,10.1240866 C36.0714237,9.6569686 36.4285421,9.30656297 36.9047684,9.30656297 L42.9761921,9.30656297 C43.45235,9.30656297 43.8095368,9.65690148 43.8095368,10.1240866 L43.8095368,11.9926929 Z M41.0714237,17.8320707 L27.9761921,17.8320707 C27.0238079,17.8320707 26.1904632,17.0145471 26.1904632,16.080244 L26.1904632,5.91975604 C26.1904632,4.9854529 27.0238079,4.16792926 27.9761921,4.16792926 L41.0714237,4.16792926 C42.0238079,4.16792926 42.8571526,4.9854529 42.8571526,5.91975604 L42.8571526,8.13870083 L36.9047684,8.13870083 C35.8333447,8.13870083 34.8809605,9.07300397 34.8809605,10.1240866 L34.8809605,11.9926929 C34.8809605,13.0437755 35.8333447,13.9780787 36.9047684,13.9780787 L42.8571526,13.9780787 L42.8571526,16.080244 C42.8571526,17.0145471 42.0238079,17.8320707 41.0714237,17.8320707 Z" id="Shape"></path>
                    </g>
                </g>
            </g>
        </g>
    </g>
</svg>