<?xml version="1.0" encoding="UTF-8"?>
<svg width="44px" height="42px" viewBox="0 0 44 42" version="1.1" xmlns="http://www.w3.org/2000/svg" xmlns:xlink="http://www.w3.org/1999/xlink">
    <!-- Generator: Sketch 52 (66869) - http://www.bohemiancoding.com/sketch -->
    <title>assets</title>
    <desc>Created with Sketch.</desc>
    <g id="assets" stroke="none" stroke-width="1" fill="none" fill-rule="evenodd">
        <g id="Desktop-HD" transform="translate(-709.000000, -491.000000)" fill="#939598">
            <g id="assets" transform="translate(697.000000, 489.000000)">
                <path d="M12.013,43 L15.975,33.2 L17.739,33.2 L21.701,43 L19.727,43 L18.747,40.438 L14.967,40.438 L13.987,43 L12.013,43 Z M16.493,36.434 L15.597,38.786 L18.117,38.786 L17.221,36.434 C17.221,36.434 17.039,35.958 16.857,35.37 C16.675,35.958 16.493,36.434 16.493,36.434 Z M24.291,37.764 C24.291,38.212 24.837,38.52 25.929,38.744 C27.553,39.08 28.253,39.724 28.253,40.886 C28.253,42.188 27.231,43.196 25.509,43.196 C23.773,43.196 22.793,42.188 22.331,41.11 L23.745,40.214 C24.039,41.082 24.641,41.712 25.537,41.712 C26.083,41.712 26.629,41.446 26.629,40.942 C26.629,40.48 26.167,40.242 25.145,40.046 C23.787,39.78 22.723,39.136 22.723,37.876 C22.723,36.574 23.955,35.86 25.313,35.86 C26.825,35.86 27.623,36.434 28.183,37.61 L26.909,38.366 C26.615,37.61 26.055,37.148 25.341,37.148 C24.767,37.148 24.291,37.33 24.291,37.764 Z M31.291,37.764 C31.291,38.212 31.837,38.52 32.929,38.744 C34.553,39.08 35.253,39.724 35.253,40.886 C35.253,42.188 34.231,43.196 32.509,43.196 C30.773,43.196 29.793,42.188 29.331,41.11 L30.745,40.214 C31.039,41.082 31.641,41.712 32.537,41.712 C33.083,41.712 33.629,41.446 33.629,40.942 C33.629,40.48 33.167,40.242 32.145,40.046 C30.787,39.78 29.723,39.136 29.723,37.876 C29.723,36.574 30.955,35.86 32.313,35.86 C33.825,35.86 34.623,36.434 35.183,37.61 L33.909,38.366 C33.615,37.61 33.055,37.148 32.341,37.148 C31.767,37.148 31.291,37.33 31.291,37.764 Z M43.303,39.948 L37.955,39.948 C38.067,41.012 38.823,41.684 39.859,41.684 C40.825,41.684 41.385,41.194 41.777,40.41 L43.093,41.166 C42.435,42.524 41.399,43.196 39.831,43.196 C37.899,43.196 36.261,41.726 36.261,39.528 C36.261,37.33 37.899,35.86 39.915,35.86 C41.903,35.86 43.303,37.302 43.303,39.332 L43.303,39.948 Z M39.859,37.204 C38.921,37.204 38.207,37.848 37.955,38.66 L41.679,38.66 C41.511,37.764 40.853,37.204 39.859,37.204 Z M44.157,37.484 L44.157,36.056 L45.235,36.056 L45.235,34.18 L46.999,34.18 L46.999,36.056 L48.511,36.056 L48.511,37.484 L46.999,37.484 L46.999,40.648 C46.999,41.362 47.349,41.628 47.881,41.628 C48.147,41.628 48.329,41.586 48.469,41.544 L48.637,43 C48.329,43.112 47.867,43.196 47.461,43.196 C46.257,43.196 45.235,42.692 45.235,40.984 L45.235,37.484 L44.157,37.484 Z M51.577,37.764 C51.577,38.212 52.123,38.52 53.215,38.744 C54.839,39.08 55.539,39.724 55.539,40.886 C55.539,42.188 54.517,43.196 52.795,43.196 C51.059,43.196 50.079,42.188 49.617,41.11 L51.031,40.214 C51.325,41.082 51.927,41.712 52.823,41.712 C53.369,41.712 53.915,41.446 53.915,40.942 C53.915,40.48 53.453,40.242 52.431,40.046 C51.073,39.78 50.009,39.136 50.009,37.876 C50.009,36.574 51.241,35.86 52.599,35.86 C54.111,35.86 54.909,36.434 55.469,37.61 L54.195,38.366 C53.901,37.61 53.341,37.148 52.627,37.148 C52.053,37.148 51.577,37.33 51.577,37.764 Z" id="Assets"></path>
                <path d="M44.0476158,8.46803245 L44.0476158,5.91968892 C44.0476158,4.28464165 42.7381132,3 41.0714237,3 L27.9761921,3 C26.3095026,3.00006711 25,4.28470876 25,5.91975604 L25,16.0803111 C25,17.7153584 26.3095026,19 27.9761921,19 L41.0714237,19 C42.7381132,19 44.0476158,17.7153584 44.0476158,16.0803111 L44.0476158,13.6488142 C44.6083328,13.2855896 45,12.6643093 45,11.99276 L45,10.1241537 C45,9.4513964 44.6083328,8.83125697 44.0476158,8.46803245 Z M43.8095368,11.9926929 C43.8095368,12.4598109 43.4524184,12.8102165 42.9761921,12.8102165 L36.9047684,12.8102165 C36.4286105,12.8102165 36.0714237,12.459878 36.0714237,11.9926929 L36.0714237,10.1240866 C36.0714237,9.6569686 36.4285421,9.30656297 36.9047684,9.30656297 L42.9761921,9.30656297 C43.45235,9.30656297 43.8095368,9.65690148 43.8095368,10.1240866 L43.8095368,11.9926929 Z M41.0714237,17.8320707 L27.9761921,17.8320707 C27.0238079,17.8320707 26.1904632,17.0145471 26.1904632,16.080244 L26.1904632,5.91975604 C26.1904632,4.9854529 27.0238079,4.16792926 27.9761921,4.16792926 L41.0714237,4.16792926 C42.0238079,4.16792926 42.8571526,4.9854529 42.8571526,5.91975604 L42.8571526,8.13870083 L36.9047684,8.13870083 C35.8333447,8.13870083 34.8809605,9.07300397 34.8809605,10.1240866 L34.8809605,11.9926929 C34.8809605,13.0437755 35.8333447,13.9780787 36.9047684,13.9780787 L42.8571526,13.9780787 L42.8571526,16.080244 C42.8571526,17.0145471 42.0238079,17.8320707 41.0714237,17.8320707 Z" id="Shape" stroke="#979797" fill-rule="nonzero"></path>
            </g>
        </g>
    </g>
</svg>