<?xml version="1.0" encoding="UTF-8"?>
<svg width="64px" height="45px" viewBox="0 0 64 45" version="1.1" xmlns="http://www.w3.org/2000/svg" xmlns:xlink="http://www.w3.org/1999/xlink">
    <!-- Generator: Sketch 52 (66869) - http://www.bohemiancoding.com/sketch -->
    <title>exchange-color</title>
    <desc>Created with Sketch.</desc>
    <g id="assets" stroke="none" stroke-width="1" fill="none" fill-rule="evenodd">
        <g id="Desktop-HD" transform="translate(-890.000000, -384.000000)">
            <g id="exchange-color" transform="translate(887.000000, 382.000000)">
                <path d="M3.287,43 L3.287,33.2 L10.049,33.2 L10.049,34.852 L5.135,34.852 L5.135,37.106 L9.657,37.106 L9.657,38.758 L5.135,38.758 L5.135,41.348 L10.091,41.348 L10.091,43 L3.287,43 Z M13.171,36.056 L14.333,37.918 L15.509,36.056 L17.553,36.056 L15.383,39.29 L17.819,43 L15.761,43 L14.333,40.718 L12.891,43 L10.861,43 L13.395,39.332 L11.155,36.056 L13.171,36.056 Z M23.797,40.27 L25.225,41.194 C24.567,42.51 23.433,43.196 21.977,43.196 C19.919,43.196 18.323,41.74 18.323,39.528 C18.323,37.316 20.003,35.86 21.977,35.86 C23.517,35.86 24.665,36.56 25.155,37.75 L23.713,38.702 C23.307,37.82 22.691,37.512 21.963,37.512 C20.927,37.512 20.115,38.296 20.115,39.528 C20.115,40.774 20.899,41.544 21.963,41.544 C22.887,41.544 23.405,41.082 23.797,40.27 Z M33.191,38.31 L33.191,43 L31.427,43 L31.427,38.996 C31.427,38.086 30.951,37.512 30.027,37.512 C29.047,37.512 28.319,38.31 28.319,39.472 L28.319,43 L26.555,43 L26.555,33.2 L28.319,33.2 L28.319,37.148 C28.837,36.336 29.705,35.86 30.727,35.86 C32.239,35.86 33.191,36.826 33.191,38.31 Z M41.465,43 L39.673,43 C39.561,42.86 39.337,42.496 39.337,41.894 C38.847,42.762 38.007,43.196 37.013,43.196 C35.641,43.196 34.675,42.342 34.675,41.026 C34.675,39.612 35.837,38.926 37.153,38.73 L39.239,38.408 L39.239,38.142 C39.239,37.47 38.819,37.092 37.965,37.092 C37.153,37.092 36.719,37.442 36.719,37.876 C36.719,37.932 36.719,37.96 36.747,38.044 L35.165,38.576 C35.081,38.394 35.039,38.184 35.039,37.988 C35.039,36.91 36.103,35.86 37.965,35.86 C39.911,35.86 41.003,36.686 41.003,38.38 L41.003,41.278 C41.003,42.076 41.129,42.51 41.465,43 Z M37.433,41.768 C38.455,41.768 39.239,41.096 39.239,39.752 L39.239,39.626 L37.559,39.906 C36.803,40.032 36.397,40.368 36.397,40.928 C36.397,41.488 36.817,41.768 37.433,41.768 Z M49.445,38.268 L49.445,43 L47.681,43 L47.681,38.996 C47.681,38.086 47.247,37.512 46.267,37.512 C45.343,37.512 44.657,38.31 44.657,39.472 L44.657,43 L42.893,43 L42.893,36.056 L44.657,36.056 L44.657,37.176 C45.175,36.378 46.001,35.86 47.009,35.86 C48.493,35.86 49.445,36.826 49.445,38.268 Z M51.293,42.874 L52.973,43.392 C52.917,43.546 52.889,43.7 52.889,43.868 C52.889,44.33 53.449,44.652 54.429,44.652 C55.479,44.652 56.137,44.106 56.137,42.748 L56.137,41.852 C55.787,42.426 55.143,42.888 54.163,42.888 C52.329,42.888 50.817,41.446 50.817,39.374 C50.817,37.302 52.385,35.86 54.177,35.86 C55.017,35.86 55.717,36.196 56.137,36.812 L56.137,36.056 L57.901,36.056 L57.901,42.524 C57.901,44.89 56.501,46.052 54.429,46.052 C52.357,46.052 51.097,45.156 51.097,43.672 C51.097,43.35 51.181,43.07 51.293,42.874 Z M54.359,37.4 C53.379,37.4 52.525,38.1 52.525,39.374 C52.525,40.648 53.379,41.348 54.359,41.348 C55.339,41.348 56.235,40.648 56.235,39.374 C56.235,38.1 55.339,37.4 54.359,37.4 Z M66.217,39.948 L60.869,39.948 C60.981,41.012 61.737,41.684 62.773,41.684 C63.739,41.684 64.299,41.194 64.691,40.41 L66.007,41.166 C65.349,42.524 64.313,43.196 62.745,43.196 C60.813,43.196 59.175,41.726 59.175,39.528 C59.175,37.33 60.813,35.86 62.829,35.86 C64.817,35.86 66.217,37.302 66.217,39.332 L66.217,39.948 Z M62.773,37.204 C61.835,37.204 61.121,37.848 60.869,38.66 L64.593,38.66 C64.425,37.764 63.767,37.204 62.773,37.204 Z" id="Exchange" fill="#FFFFFF"></path>
                <path d="M45.7595121,8.96687966 L40.0094128,3.23954772 C39.6885697,2.92007088 39.1684631,2.92016676 38.8477163,3.23973948 C38.6937443,3.39314973 38.6072524,3.6011165 38.6072043,3.81804818 L38.6072043,6.27261216 L32.857105,6.27261216 C32.4034196,6.27261216 32.0356485,6.63892707 32.0356485,7.09081614 C32.0356485,7.5427052 32.4034196,7.90902011 32.857105,7.90902011 L39.4286608,7.90902011 C39.8823462,7.90902011 40.2501173,7.5427052 40.2501173,7.09081614 L40.2501173,5.79310925 L44.0172561,9.54533218 L40.2501173,13.2975551 L40.2501173,11.9998962 C40.2501173,11.5480071 39.8823462,11.1816922 39.4286608,11.1816922 L30.3927837,11.1816922 L30.3927837,8.72712821 C30.3926874,8.27523914 30.02482,7.90902011 29.5711828,7.90911599 C29.3534369,7.90916394 29.1445952,7.99531338 28.9905752,8.14867569 L23.240524,13.8760076 C22.9198253,14.1955324 22.9198253,14.7134358 23.240524,15.0329127 L28.9906233,20.7602446 C29.1446434,20.9137028 29.3535331,20.9999481 29.5713753,20.9999961 C29.6793337,21.0003317 29.7863296,20.9791898 29.8859613,20.937817 C30.1928463,20.8110618 30.3928799,20.5127268 30.3927837,20.1817921 L30.3927837,17.7272281 L36.1428829,17.7272281 C36.5965683,17.7272281 36.9643394,17.3609132 36.9643394,16.9090241 C36.9643394,16.4571351 36.5965683,16.0908202 36.1428829,16.0908202 L29.5713753,16.0908202 C29.1176899,16.0908202 28.7499188,16.4571351 28.7499188,16.9090241 L28.7499188,18.2066831 L24.98278,14.4544601 L28.7499188,10.7022372 L28.7499188,11.9998962 C28.7499188,12.4517852 29.1176899,12.8181001 29.5713753,12.8181001 L38.6072043,12.8181001 L38.6072043,15.2726641 C38.6073006,15.7245532 38.9751679,16.0907722 39.4288052,16.0906763 C39.6465511,16.0906284 39.8553927,16.004479 40.0094128,15.8511166 L45.7595121,10.1237847 C46.0801626,9.80425992 46.0801626,9.28635651 45.7595121,8.96687966 Z" id="Path" stroke="#AF48E9" stroke-width="0.2" fill="#AF48E9"></path>
            </g>
        </g>
    </g>
</svg>