<?xml version="1.0" encoding="UTF-8"?>
<svg width="96px" height="142px" viewBox="0 0 96 142" version="1.1" xmlns="http://www.w3.org/2000/svg" xmlns:xlink="http://www.w3.org/1999/xlink">
    <!-- Generator: Sketch 52 (66869) - http://www.bohemiancoding.com/sketch -->
    <title>exchange-logo@1x</title>
    <desc>Created with Sketch.</desc>
    <g id="assets" stroke="none" stroke-width="1" fill="none" fill-rule="evenodd">
        <g id="Desktop-HD" transform="translate(-33.000000, -45.000000)">
            <g id="exchange-logo" transform="translate(33.000000, 45.000000)">
                <polygon id="Path" fill="#939598" points="0 108.69406 1.41866667 108.69406 1.41866667 111.726241 4.70933333 111.726241 4.70933333 108.69406 6.128 108.69406 6.128 116.226466 4.70933333 116.226466 4.70933333 113.023459 1.41866667 113.023459 1.41866667 116.226466 0 116.226466"></polygon>
                <path d="M15.6746667,116.226466 L14.256,116.226466 L14.256,113.274361 L11.776,108.69406 L13.3333333,108.69406 L14.7306667,111.363233 C14.7306667,111.363233 14.8693333,111.651504 14.9653333,111.897068 C15.0613333,111.640827 15.2,111.363233 15.2,111.363233 L16.5973333,108.69406 L18.1333333,108.69406 L15.6533333,113.274361 L15.6746667,116.226466 Z" id="Path" fill="#939598"></path>
                <path d="M23.7386667,108.69406 L26.8373333,108.69406 C28.384,108.69406 29.2426667,109.382707 29.2426667,110.530451 C29.2298647,111.219236 28.8263475,111.840615 28.2026667,112.131955 C29.0094343,112.370443 29.5602346,113.115703 29.552,113.957669 C29.552,115.377669 28.3413333,116.221128 26.8853333,116.221128 L23.7386667,116.221128 L23.7386667,108.69406 Z M25.1573333,111.619474 L26.7253333,111.619474 C27.5253333,111.619474 27.8666667,111.352556 27.8666667,110.781353 C27.8666667,110.21015 27.5253333,109.969925 26.7253333,109.969925 L25.1573333,109.969925 L25.1573333,111.619474 Z M25.1573333,114.95594 L26.8,114.95594 C27.7173333,114.95594 28.1333333,114.576917 28.1333333,113.888271 C28.1333333,113.199624 27.7173333,112.847293 26.8,112.847293 L25.1573333,112.847293 L25.1573333,114.95594 Z" id="Shape" fill="#939598" fill-rule="nonzero"></path>
                <path d="M38.2453333,113.172932 L37.04,113.172932 L37.04,116.231805 L35.6213333,116.231805 L35.6213333,108.69406 L38.8213333,108.69406 C40.48,108.69406 41.488,109.521504 41.488,110.829398 C41.488,111.993158 40.7893333,112.681805 39.7706667,113.044812 L41.584,116.24782 L40,116.24782 L38.2453333,113.172932 Z M37.04,111.923759 L38.832,111.923759 C39.7066667,111.923759 40.0906667,111.539398 40.0906667,110.936165 C40.0906667,110.332932 39.7066667,109.969925 38.832,109.969925 L37.04,109.969925 L37.04,111.923759 Z" id="Shape" fill="#939598" fill-rule="nonzero"></path>
                <polygon id="Path" fill="#939598" points="47.6106667 108.69406 49.0293333 108.69406 49.0293333 116.226466 47.6106667 116.226466"></polygon>
                <path d="M55.4293333,108.69406 L57.7013333,108.69406 C60.0533333,108.69406 61.792,109.932556 61.792,112.430902 C61.792,114.929248 60.0533333,116.199774 57.7013333,116.199774 L55.4293333,116.199774 L55.4293333,108.69406 Z M60.352,112.430902 C60.352,110.797368 59.3226667,109.980602 57.7973333,109.980602 L56.848,109.980602 L56.848,114.881203 L57.7973333,114.881203 C59.3226667,114.907895 60.352,114.091128 60.352,112.457594 L60.352,112.430902 Z" id="Shape" fill="#939598" fill-rule="nonzero"></path>
                <polygon id="Path" fill="#FFFFFF" points="3.62133333 130.586617 10.5653333 130.586617 10.5653333 128.045564 3.62133333 128.045564 3.62133333 124.580977 11.1626667 124.580977 11.1626667 122.045263 0.784 122.045263 0.784 137.104737 11.232 137.104737 11.232 134.563684 3.62133333 134.563684"></polygon>
                <polygon id="Path" fill="#FFFFFF" points="22.6773333 126.433383 19.5413333 126.433383 17.7386667 129.294737 15.952 126.433383 12.8586667 126.433383 16.2986667 131.467444 12.4053333 137.104737 15.5253333 137.104737 17.7386667 133.597444 19.9306667 137.104737 23.088 137.104737 19.3493333 131.403383"></polygon>
                <path d="M28.9066667,134.86797 C27.2746667,134.86797 26.0693333,133.682857 26.0693333,131.766391 C26.0693333,129.849925 27.3173333,128.67015 28.9066667,128.67015 C30.0963715,128.643286 31.1700882,129.380548 31.5733333,130.501203 L33.7866667,129.033158 C33.0346667,127.207444 31.2746667,126.129098 28.912,126.129098 C27.409583,126.093409 25.9583934,126.676585 24.8977434,127.742268 C23.8370934,128.807952 23.2599769,130.262708 23.3013333,131.766391 C23.2393126,133.275925 23.8097598,134.742829 24.8750337,135.813158 C25.9403075,136.883488 27.4036587,137.460034 28.912,137.403684 C31.0403567,137.479286 33.0053257,136.266346 33.8933333,134.328797 L31.7226667,132.924812 C31.12,134.152632 30.3253333,134.86797 28.9066667,134.86797 Z" id="Path" fill="#FFFFFF"></path>
                <path d="M42.1866667,126.129098 C40.6911249,126.098441 39.2887659,126.853955 38.4906667,128.120301 L38.4906667,122.045263 L35.7813333,122.045263 L35.7813333,137.104737 L38.4906667,137.104737 L38.4906667,131.680977 C38.4906667,129.89797 39.6106667,128.67015 41.1146667,128.67015 C42.5333333,128.67015 43.248,129.550977 43.248,130.949624 L43.248,137.104737 L45.952,137.104737 L45.952,129.89797 C45.968,127.613158 44.5066667,126.129098 42.1866667,126.129098 Z" id="Path" fill="#FFFFFF"></path>
                <path d="M57.7226667,130.004737 C57.7226667,127.399624 56.0426667,126.129098 53.056,126.129098 C50.1973333,126.129098 48.5653333,127.730602 48.5653333,129.401504 C48.5652246,129.7124 48.6306494,130.019822 48.7573333,130.303684 L51.2,129.486917 C51.1682959,129.405357 51.15377,129.31812 51.1573333,129.230677 C51.1573333,128.563383 51.824,128.024211 53.0666667,128.024211 C54.3093333,128.024211 55.024,128.60609 55.024,129.625714 L55.024,130.036767 L51.824,130.533233 C49.8026667,130.83218 48.016,131.883835 48.016,134.056541 C48.016,136.079774 49.4986667,137.393008 51.6053333,137.393008 C53.0763771,137.451407 54.4554616,136.677651 55.1733333,135.391128 C55.1569767,136.002341 55.3446468,136.601572 55.7066667,137.09406 L58.4586667,137.09406 C57.9213196,136.313046 57.6706812,135.369911 57.7493333,134.424887 L57.7226667,130.004737 Z M55.0133333,132.113383 C55.0133333,134.179323 53.808,135.209624 52.24,135.209624 C51.296,135.209624 50.64,134.777218 50.64,133.917744 C50.64,133.058271 51.264,132.540451 52.4266667,132.348271 L55.0026667,131.921203 L55.0133333,132.113383 Z" id="Shape" fill="#FFFFFF" fill-rule="nonzero"></path>
                <path d="M66.704,126.129098 C65.2323929,126.135115 63.8677608,126.899785 63.0933333,128.152331 L63.0933333,126.433383 L60.384,126.433383 L60.384,137.110075 L63.0933333,137.110075 L63.0933333,131.680977 C63.0933333,129.89797 64.16,128.67015 65.5626667,128.67015 C67.0666667,128.67015 67.7333333,129.550977 67.7333333,130.949624 L67.7333333,137.104737 L70.4426667,137.104737 L70.4426667,129.83391 C70.4426667,127.613158 68.9813333,126.129098 66.704,126.129098 Z" id="Path" fill="#FFFFFF"></path>
                <path d="M80.4533333,127.586466 C79.7653106,126.616965 78.6321701,126.063939 77.4453333,126.118421 C76.0401717,126.133388 74.7004861,126.715228 73.7296759,127.73217 C72.7588658,128.749112 72.2390675,130.115118 72.288,131.520827 C72.288,134.723835 74.608,136.917895 77.424,136.917895 C78.6492251,136.973486 79.8084631,136.360637 80.4533333,135.316391 L80.4533333,136.693684 C80.4533333,138.780977 79.44,139.619098 77.8293333,139.619098 C76.3253333,139.619098 75.4666667,139.122632 75.4666667,138.412632 C75.466337,138.163236 75.5096584,137.91571 75.5946667,137.681278 L73.0186667,136.885865 C72.8128748,137.261904 72.7081258,137.684973 72.7146667,138.113684 C72.7146667,140.393158 74.6506667,141.770451 77.8293333,141.770451 C81.008,141.770451 83.1626667,139.987444 83.1626667,136.35203 L83.1626667,126.433383 L80.4533333,126.433383 L80.4533333,127.586466 Z M77.7226667,134.526316 C76.2186667,134.526316 74.9066667,133.458647 74.9066667,131.494135 C74.9066667,129.529624 76.2186667,128.461955 77.7226667,128.461955 C79.3259959,128.557226 80.5774964,129.886474 80.5774964,131.494135 C80.5774964,133.101797 79.3259959,134.431044 77.7226667,134.526316 Z" id="Shape" fill="#FFFFFF" fill-rule="nonzero"></path>
                <path d="M95.92,131.467444 C95.92,128.34985 93.7866667,126.129098 90.72,126.129098 C87.6095324,126.093718 85.0593464,128.58894 85.0240002,131.702331 C84.988654,134.815722 87.4815324,137.368305 90.592,137.403684 C92.7537613,137.535936 94.7626623,136.28535 95.6,134.28609 L93.5786667,133.122331 C92.976,134.328797 92.1173333,135.081504 90.6346667,135.081504 C89.0959942,135.139117 87.7953334,133.951268 87.712,132.412331 L95.92,132.412331 L95.92,131.467444 Z M87.712,130.431805 C88.0862124,129.122255 89.2740028,128.213219 90.6346667,128.195038 C92.0067684,128.095998 93.2240404,129.070266 93.4293333,130.431805 L87.712,130.431805 Z" id="Shape" fill="#FFFFFF" fill-rule="nonzero"></path>
                <polygon id="Path" fill="#03DB83" points="11.5946667 20.8942857 11.5946667 20.8942857 11.5893333 20.8942857"></polygon>
                <polygon id="Path" fill="#03DB83" points="11.5946667 62.6775188 11.5946667 62.6775188 11.5893333 62.6775188"></polygon>
                <polygon id="Path" fill="#08A05B" points="11.5946667 62.6775188 11.5946667 62.6775188 11.6 62.6721805"></polygon>
                <polygon id="Path" fill="#BD39F1" points="83.904 62.6775188 75.2266667 57.6594737 75.2266667 57.6594737 75.2213333 57.664812 47.7493333 73.5357143 20.2773333 57.664812 20.2773333 57.664812 11.6 62.6775188 11.5946667 62.6775188 11.5946667 62.6775188 11.5946667 62.6775188 47.7493333 83.5718045 83.904 62.6775188"></polygon>
                <polygon id="Path" fill="#BD39F1" points="20.272 25.9123308 47.744 10.0360902 75.216 25.9069925 75.2213333 25.9123308 75.2213333 25.9123308 83.8986667 20.8996241 83.8986667 20.8942857 47.744 0 11.5893333 20.8942857 11.5893333 20.8942857 11.5893333 20.8942857 11.5946667 20.8942857 20.272 25.9123308"></polygon>
                <polygon id="Path" fill="#BD39F1" points="20.2773333 25.9123308 20.2773333 25.9069925 20.2773333 25.9123308"></polygon>
                <polygon id="Path" fill="#08A05B" points="83.904 62.6775188 83.904 62.6775188 83.904 62.6775188 83.9093333 62.6775188 83.9093333 62.6775188 83.9093333 62.6775188"></polygon>
                <polygon id="Path" fill="#BD39F1" points="46.1066667 42.2388722 37.8346667 37.4343609 37.8346667 47.0433835 46.1386667 51.8478947"></polygon>
                <polygon id="Path" fill="#BD39F1" points="56.8426667 37.4503759 48.5333333 42.2548872 48.5333333 51.8639098 56.8693333 47.0593985"></polygon>
                <polygon id="Path" fill="#BD39F1" points="55.6853333 35.1655639 47.36 30.3610526 39.024 35.1655639 47.36 39.9700752"></polygon>
            </g>
        </g>
    </g>
</svg>