<?xml version="1.0" encoding="UTF-8"?>
<svg width="25px" height="20px" viewBox="0 0 25 20" version="1.1" xmlns="http://www.w3.org/2000/svg" xmlns:xlink="http://www.w3.org/1999/xlink">
    <!-- Generator: sketchtool 54 (76480) - https://sketchapp.com -->
    <title>DD6AE259-090B-467E-814B-332A80F10264@2x</title>
    <desc>Created with sketchtool.</desc>
    <g id="Open-order-content" stroke="none" stroke-width="1" fill="none" fill-rule="evenodd">
        <g id="Trade-Withdraw-Status" transform="translate(-67.000000, -315.000000)" fill="#979797" stroke="#979797" stroke-width="0.2">
            <g id="sidebar">
                <g id="Group-2" transform="translate(45.000000, 313.000000)">
                    <g id="exchange-color">
                        <path d="M45.7595121,8.96687966 L40.0094128,3.23954772 C39.6885697,2.92007088 39.1684631,2.92016676 38.8477163,3.23973948 C38.6937443,3.39314973 38.6072524,3.6011165 38.6072043,3.81804818 L38.6072043,6.27261216 L32.857105,6.27261216 C32.4034196,6.27261216 32.0356485,6.63892707 32.0356485,7.09081614 C32.0356485,7.5427052 32.4034196,7.90902011 32.857105,7.90902011 L39.4286608,7.90902011 C39.8823462,7.90902011 40.2501173,7.5427052 40.2501173,7.09081614 L40.2501173,5.79310925 L44.0172561,9.54533218 L40.2501173,13.2975551 L40.2501173,11.9998962 C40.2501173,11.5480071 39.8823462,11.1816922 39.4286608,11.1816922 L30.3927837,11.1816922 L30.3927837,8.72712821 C30.3926874,8.27523914 30.02482,7.90902011 29.5711828,7.90911599 C29.3534369,7.90916394 29.1445952,7.99531338 28.9905752,8.14867569 L23.240524,13.8760076 C22.9198253,14.1955324 22.9198253,14.7134358 23.240524,15.0329127 L28.9906233,20.7602446 C29.1446434,20.9137028 29.3535331,20.9999481 29.5713753,20.9999961 C29.6793337,21.0003317 29.7863296,20.9791898 29.8859613,20.937817 C30.1928463,20.8110618 30.3928799,20.5127268 30.3927837,20.1817921 L30.3927837,17.7272281 L36.1428829,17.7272281 C36.5965683,17.7272281 36.9643394,17.3609132 36.9643394,16.9090241 C36.9643394,16.4571351 36.5965683,16.0908202 36.1428829,16.0908202 L29.5713753,16.0908202 C29.1176899,16.0908202 28.7499188,16.4571351 28.7499188,16.9090241 L28.7499188,18.2066831 L24.98278,14.4544601 L28.7499188,10.7022372 L28.7499188,11.9998962 C28.7499188,12.4517852 29.1176899,12.8181001 29.5713753,12.8181001 L38.6072043,12.8181001 L38.6072043,15.2726641 C38.6073006,15.7245532 38.9751679,16.0907722 39.4288052,16.0906763 C39.6465511,16.0906284 39.8553927,16.004479 40.0094128,15.8511166 L45.7595121,10.1237847 C46.0801626,9.80425992 46.0801626,9.28635651 45.7595121,8.96687966 Z" id="Path"></path>
                    </g>
                </g>
            </g>
        </g>
    </g>
</svg>