<?xml version="1.0" encoding="UTF-8"?>
<svg width="119px" height="66px" viewBox="0 0 119 66" version="1.1" xmlns="http://www.w3.org/2000/svg" xmlns:xlink="http://www.w3.org/1999/xlink">
    <!-- Generator: sketchtool 54 (76480) - https://sketchapp.com -->
    <title>A25CD2B2-C5E4-457E-89E3-529B29BD3B0C</title>
    <desc>Created with sketchtool.</desc>
    <g id="adax" stroke="none" stroke-width="1" fill="none" fill-rule="evenodd">
        <g id="post-log-in-screen" transform="translate(-907.000000, -213.000000)">
            <g id="Group-11" transform="translate(785.000000, 171.000000)">
                <g id="Group-8" transform="translate(123.000000, 38.000000)">
                    <path d="M47.7961557,15.3263884 C42.5078647,10.0529118 35.4767519,7.14857879 27.9979849,7.14857879 C20.519218,7.14857879 13.4881052,10.0529118 8.19970481,15.3263884 C3.59858976,19.9148179 0.730124988,25.9937509 0.122461501,32.4434011 C-0.476999185,38.8081975 1.13785887,45.2278544 4.66998492,50.519545 C5.00476856,51.0211421 5.68396047,51.1567118 6.18640937,50.8231863 C6.68929575,50.4894427 6.82557161,49.8123575 6.49078796,49.3108696 C-0.288334765,39.1542656 1.08087675,25.510368 9.74653431,16.8689165 C19.8103866,6.8329402 36.1855832,6.8329402 46.2494355,16.8689165 C51.1246335,21.7304487 53.8094649,28.1942776 53.8094649,35.0696145 C53.8094649,41.9449514 51.1246335,48.4087802 46.2494355,53.2703124 C37.2322606,62.2625219 23.2019713,63.3868889 12.889082,55.9436425 C12.3997576,55.5905941 11.7158627,55.6996606 11.3618298,56.1877334 C11.0076876,56.6756971 11.117277,57.3575812 11.6064921,57.7107386 C16.3714444,61.1497159 22.1246702,62.990541 28.0040003,62.9903229 C28.7038633,62.9903229 29.4064605,62.9641469 30.1085109,62.9115769 C36.7785911,62.4117249 43.0601866,59.535422 47.7961557,54.8127315 C53.0844467,49.5391459 55.9967691,42.5275848 55.9967691,35.0695054 C55.9967691,27.6114259 53.0844467,20.6000831 47.7961557,15.3263884 Z" id="Path" stroke="#000000" stroke-width="0.699972339" fill="#000000" fill-rule="nonzero"></path>
                    <path d="M8.90895163,53.3612649 L8.87034378,53.3226553 C8.44489184,52.8948964 7.75235671,52.8921697 7.32351428,53.3162204 C6.89467185,53.7403802 6.89182821,54.4309896 7.31706141,54.8586395 L7.35566926,54.8972491 C7.56959831,55.1122192 7.85089969,55.2198679 8.13231044,55.2198679 C8.41076819,55.2198679 8.68922594,55.1145096 8.90249876,54.903684 C9.33134119,54.4795242 9.33418482,53.7889148 8.90895163,53.3612649 Z" id="Path" fill="#000000" fill-rule="nonzero" transform="translate(8.113007, 54.109934) rotate(180.000000) translate(-8.113007, -54.109934) "></path>
                    <path d="M38.4980075,29.9796969 C38.4980075,25.5713362 34.9978177,21.9637421 30.6233187,21.7727665 L30.6233187,19.3640319 C30.6233187,18.7616574 30.1335568,18.2733664 29.5296119,18.2733664 C28.925667,18.2733664 28.4359051,18.7616574 28.4359051,19.3640319 L28.4359051,21.7634959 L24.9351685,21.7634959 L24.9351685,19.3640319 C24.9351685,18.7616574 24.4454066,18.2733664 23.8414617,18.2733664 C23.2375168,18.2733664 22.7477549,18.7616574 22.7477549,19.3640319 L22.7477549,21.7634959 L18.5916691,21.7634959 C17.9877243,21.7634959 17.4979624,22.2517868 17.4979624,22.8541613 L17.4979624,27.2168232 C17.4979624,27.8191977 17.9877243,28.3074886 18.5916691,28.3074886 L20.1237336,28.3074886 L20.1237336,41.8317403 L18.5916691,41.8317403 C17.9877243,41.8317403 17.4979624,42.3200312 17.4979624,42.9224057 L17.4979624,47.2850676 C17.4979624,47.8874421 17.9877243,48.375733 18.5916691,48.375733 L22.7477549,48.375733 L22.7477549,50.775197 C22.7477549,51.3775715 23.2375168,51.8658625 23.8414617,51.8658625 C24.4454066,51.8658625 24.9351685,51.3775715 24.9351685,50.775197 L24.9351685,48.375733 L28.4359051,48.375733 L28.4359051,50.775197 C28.4359051,51.3775715 28.925667,51.8658625 29.5296119,51.8658625 C30.1335568,51.8658625 30.6233187,51.3775715 30.6233187,50.775197 L30.6233187,48.3664624 C34.9978177,48.1753778 38.4980075,44.5678927 38.4980075,40.1593139 C38.4980075,38.2877319 37.8740478,36.5147462 36.7229214,35.0695054 C37.8740478,33.6243737 38.4980075,31.8513879 38.4980075,29.9796969 Z M30.2586768,46.1944021 L19.6853759,46.1944021 L19.6853759,44.0130712 L21.2174404,44.0130712 C21.8213853,44.0130712 22.3111472,43.5247803 22.3111472,42.9224057 L22.3111472,27.2168232 C22.3111472,26.6144486 21.8213853,26.1261577 21.2174404,26.1261577 L19.6853759,26.1261577 L19.6853759,23.9448268 L30.2586768,23.9448268 C33.595795,23.9448268 36.3105939,26.6521857 36.3105939,29.979806 C36.3105939,31.6120959 35.6632289,33.1428449 34.4877128,34.2901159 C34.277393,34.49527 34.1589446,34.7763345 34.1589446,35.0696145 C34.1589446,35.3628944 34.277393,35.6439589 34.4877128,35.8491131 C35.6632289,36.996384 36.3105939,38.527133 36.3105939,40.1594229 C36.3105939,43.4871523 33.595795,46.1944021 30.2586768,46.1944021 Z" id="Shape" fill="#000000" fill-rule="nonzero"></path>
                    <path d="M30.0695749,25.8352772 L25.2640461,25.8352772 C24.6601012,25.8352772 24.1703393,26.3235682 24.1703393,26.9259427 L24.1703393,33.0336692 C24.1703393,33.6360438 24.6601012,34.1243347 25.2640461,34.1243347 L30.0695749,34.1243347 C32.3612188,34.1243347 34.2256607,32.2650773 34.2256607,29.979806 C34.2256607,27.6945346 32.3612188,25.8352772 30.0695749,25.8352772 Z M30.0695749,31.9430038 L26.3577529,31.9430038 L26.3577529,28.0166081 L30.0695749,28.0166081 C31.1550789,28.0166081 32.0382471,28.8973205 32.0382471,29.979806 C32.0382471,31.0622914 31.1550789,31.9430038 30.0695749,31.9430038 Z" id="Shape" fill="#000000" fill-rule="nonzero"></path>
                    <path d="M30.0695749,36.0148942 L25.2640461,36.0148942 C24.6601012,36.0148942 24.1703393,36.5031851 24.1703393,37.1055597 L24.1703393,43.2132862 C24.1703393,43.8156607 24.6601012,44.3039517 25.2640461,44.3039517 L30.0695749,44.3039517 C32.3612188,44.3039517 34.2256607,42.4446943 34.2256607,40.1594229 C34.2256607,37.8741516 32.3612188,36.0148942 30.0695749,36.0148942 Z M30.0695749,42.1226208 L26.3577529,42.1226208 L26.3577529,38.1962251 L30.0695749,38.1962251 C31.1550789,38.1962251 32.0382471,39.0769375 32.0382471,40.1594229 C32.0382471,41.2419084 31.1550789,42.1226208 30.0695749,42.1226208 Z" id="Shape" fill="#000000" fill-rule="nonzero"></path>
                    <path d="M109.394739,15.3267156 C104.106448,10.053239 97.0753357,7.14890599 89.5965687,7.14890599 C82.1178018,7.14890599 75.086689,10.053239 69.7982886,15.3267156 C65.1971736,19.9151451 62.3287088,25.9940781 61.7210453,32.4437283 C61.1215846,38.8085247 62.7364427,45.2281816 66.2685687,50.5198722 C66.6033524,51.0214693 67.2825443,51.157039 67.7849932,50.8235135 C68.2878795,50.4897699 68.4241554,49.8126847 68.0893718,49.3111968 C61.310249,39.1545928 62.6794606,25.5106952 71.3451181,16.8692437 C81.4089704,6.8332674 97.784167,6.8332674 107.848019,16.8692437 C112.723217,21.7307759 115.408049,28.1946048 115.408049,35.0699417 C115.408049,41.9452786 112.723217,48.4091074 107.848019,53.2706396 C98.8308444,62.2628491 84.8005551,63.3872161 74.4876658,55.9439697 C73.9983414,55.5909213 73.3144465,55.6999878 72.9604137,56.1880606 C72.6062714,56.6760243 72.7158608,57.3579084 73.2050759,57.7110658 C77.9700282,61.1500431 83.723254,62.9908682 89.6025841,62.9906501 C90.3024471,62.9906501 91.0050443,62.9644741 91.7070947,62.9119041 C98.3771749,62.4120521 104.65877,59.5357492 109.394739,54.8130587 C114.68303,49.5394731 117.595353,42.527912 117.595353,35.0698326 C117.595353,27.6117531 114.68303,20.6004103 109.394739,15.3267156 Z" id="Path" stroke="#000000" stroke-width="0.699972339" fill="#000000" fill-rule="nonzero" transform="translate(89.596968, 35.069778) rotate(180.000000) translate(-89.596968, -35.069778) "></path>
                    <path d="M109.398929,15.5016948 L109.360321,15.4630853 C108.934869,15.0353263 108.242334,15.0325996 107.813492,15.4566503 C107.384649,15.8808101 107.381806,16.5714195 107.807039,16.9990694 L107.845647,17.037679 C108.059576,17.2526491 108.340877,17.3602978 108.622288,17.3602978 C108.900746,17.3602978 109.179204,17.2549395 109.392476,17.0441139 C109.821319,16.6199541 109.824162,15.9293447 109.398929,15.5016948 Z" id="Path" fill="#000000" fill-rule="nonzero" transform="translate(108.602984, 16.250364) rotate(180.000000) translate(-108.602984, -16.250364) "></path>
                    <path d="M66.4448662,6.10934029 C65.9039369,5.84614666 65.2468962,6.05886058 64.9752509,6.60066936 L63.2756714,10.006868 L59.8743565,8.30484817 C59.3334272,8.03949552 58.6763865,8.25436845 58.4047412,8.79617723 C58.1353545,9.3378832 58.3543339,9.99586729 58.8953658,10.2679026 L63.2756714,12.4611486 C63.4355171,12.5401067 63.6020358,12.5774268 63.766296,12.5774268 C64.1670909,12.5774268 64.552589,12.3537122 64.7452867,11.9676606 L66.9353881,7.58106566 C67.2048775,7.03925688 66.9858981,6.38127278 66.4448662,6.10934029 Z" id="Path" fill="#000000" fill-rule="nonzero" transform="translate(62.670098, 9.287140) rotate(-40.000000) translate(-62.670098, -9.287140) "></path>
                    <path d="M63.7618319,14.9205128 C62.9909384,9.01397464 58.6084769,3.02200134 51.7292607,3 C51.2101986,3.0328992 50.6320028,3.48690823 50.6298468,4.09441261 C50.6276909,4.69975798 51.1182129,5.19324605 51.7205344,5.19540506 C57.3448028,5.21298557 60.9409714,10.2465639 61.5892857,15.207764 C61.6615602,15.7604706 62.1324736,16.1618409 62.6734029,16.1618409 C62.7215517,16.1618409 62.7698031,16.1574201 62.8157959,16.1508403 C63.4180148,16.071985 63.8385209,15.5215402 63.7618319,14.9205128 Z" id="Path" fill="#000000" fill-rule="nonzero" transform="translate(57.200347, 9.580920) rotate(-40.000000) translate(-57.200347, -9.580920) "></path>
                    <path d="M57.3000791,61.8624455 C56.7591498,61.5992519 56.1021091,61.8119658 55.8304638,62.3537746 L54.1308843,65.7599732 L50.7295694,64.0579534 C50.1886401,63.7926007 49.5315994,64.0074736 49.2599542,64.5492824 C48.9905675,65.0909884 49.2095468,65.7489725 49.7505788,66.0210078 L54.1308843,68.2142538 C54.29073,68.2932119 54.4572488,68.330532 54.621509,68.330532 C55.0223038,68.330532 55.4078019,68.1068174 55.6004996,67.7207658 L57.7906011,63.3341709 C58.0600904,62.7923621 57.8411111,62.134378 57.3000791,61.8624455 Z" id="Path" fill="#000000" fill-rule="nonzero" transform="translate(53.525311, 65.040245) scale(-1, -1) rotate(-40.000000) translate(-53.525311, -65.040245) "></path>
                    <path d="M65.5565466,70.0860561 C64.7856531,64.179518 60.4031916,58.1875447 53.5239754,58.1655433 C53.0049133,58.1984425 52.4267175,58.6524515 52.4245616,59.2599559 C52.4224056,59.8653013 52.9129276,60.3587894 53.5152491,60.3609484 C59.1395175,60.3785289 62.7356861,65.4121072 63.3840005,70.3733073 C63.4562749,70.926014 63.9271883,71.3273843 64.4681176,71.3273843 C64.5162664,71.3273843 64.5645178,71.3229634 64.6105107,71.3163836 C65.2127295,71.2375283 65.6332356,70.6870835 65.5565466,70.0860561 Z" id="Path" fill="#000000" fill-rule="nonzero" transform="translate(58.995061, 64.746464) scale(-1, -1) rotate(-40.000000) translate(-58.995061, -64.746464) "></path>
                    <path d="M89.9258581,19.5243892 C89.9258581,19.5243892 87.6200669,20.4896041 83.0084844,22.420034 L77.4745854,23.8678564 L77.4745854,36.898258 L78.8580602,41.9656364 L83.0084844,46.3091036 L88.5423834,50.6525708 L91.3093328,50.6525708 C94.5374406,47.756926 96.3820736,46.3091036 96.8432318,46.3091036 C97.5349692,46.3091036 101.685393,40.517814 101.685393,40.517814 C101.685393,40.517814 103.068868,34.0026132 103.068868,33.278702 C103.068868,32.7960945 103.068868,29.9004497 103.068868,24.5917676 L101.685393,23.8678564 C93.8457032,20.9722116 89.9258581,19.5243892 89.9258581,19.5243892 Z" id="Path-2" fill="#FFB600"></path>
                    <path d="M103.078289,23.850743 C98.677665,22.6426112 94.2511793,20.7614382 90.2773434,18.4106449 C90.0662609,18.2857758 89.8043287,18.2857758 89.5933087,18.4106449 C85.5048423,20.8289739 81.3175501,22.6083739 76.7919887,23.850743 C76.4996341,23.9309221 76.2969849,24.1971843 76.2969849,24.5009385 L76.2969849,31.3888294 C76.2969849,38.481831 79.562798,43.1769083 82.3025602,45.8665068 C85.2520931,48.7622802 88.6878841,50.3636713 89.9353261,50.3636713 C91.1826431,50.3636713 94.6184341,48.7622802 97.567967,45.8665068 C100.307667,43.1769709 103.573292,38.4818936 103.573292,31.3888294 L103.573292,24.5008759 C103.573292,24.1971843 103.370643,23.9309221 103.078289,23.850743 Z M102.227712,31.3887668 C102.227712,38.0135876 99.1816643,42.3946458 96.6261855,44.9034189 C93.7256907,47.7509971 90.6245457,49.0153356 89.9353261,49.0153356 C89.2461064,49.0153356 86.144774,47.7509971 83.2442168,44.9034189 C80.6888004,42.3945832 77.6426281,38.0135876 77.6426281,31.3887668 L77.6426281,25.01262 C81.9703504,23.7814547 86.0007207,22.0632688 89.935451,19.7722498 C93.7719177,22.0024929 98.0033754,23.8061156 102.227712,25.0123696 L102.227712,31.3887668 Z" id="Shape" stroke="#000000" stroke-width="0.699972339" fill="#000000" fill-rule="nonzero"></path>
                    <path d="M83.9717299,24.9371978 C83.8355477,24.5907566 83.4449295,24.4205716 83.0991015,24.5570826 C81.8971993,25.0315851 80.6635629,25.4683452 79.4324878,25.8552828 C79.1519398,25.9435362 78.9610348,26.2039148 78.9610348,26.4984681 L78.9610348,29.1016911 C78.9610348,29.4739824 79.2623224,29.7757963 79.6338251,29.7757963 C80.0053279,29.7757963 80.3066155,29.4739824 80.3066155,29.1016911 L80.3066155,26.991122 C81.4110037,26.6331014 82.5142049,26.237088 83.5923561,25.8114065 C83.9381216,25.6750207 84.1079746,25.2836391 83.9717299,24.9371978 Z" id="Path" fill="#000000" fill-rule="nonzero"></path>
                    <path d="M97.9512763,40.0538044 C97.6403685,39.8501958 97.2234509,39.9377606 97.0199896,40.2494013 C96.4655778,41.0996377 95.8151514,41.9138216 95.0865138,42.6691074 C94.4873119,43.2901354 93.8380098,43.8689771 93.1566612,44.3894214 C92.8612457,44.6151246 92.804399,45.0381147 93.0295994,45.3342328 C93.162096,45.5081733 93.3624339,45.5996813 93.5650831,45.5996813 C93.7073873,45.5996813 93.8507535,45.5546784 93.9725679,45.4615429 C94.7075148,44.9000389 95.4077915,44.2758187 96.0538451,43.6062201 C96.8416408,42.7897829 97.5456656,41.9085014 98.1464917,40.9868486 C98.3498281,40.6751454 98.2623091,40.257413 97.9512763,40.0538044 Z" id="Path" fill="#000000" fill-rule="nonzero"></path>
                    <path d="M95.4728216,29.5887117 C95.6318051,29.4294176 95.8433873,29.3417276 96.0684004,29.3417276 C96.2935384,29.3417276 96.5049333,29.4294176 96.6640416,29.5887117 C96.9923158,29.9176275 96.9923158,30.4530311 96.6639167,30.7820721 L88.3706044,39.0916553 C88.2116209,39.2509494 88.0000387,39.3386394 87.7750256,39.3386394 C87.5500125,39.3386394 87.3384303,39.2509494 87.1793844,39.0916553 L83.2067354,35.1113674 C82.8783363,34.7823265 82.8783363,34.2469229 83.2066105,33.9180071 C83.3656564,33.758713 83.5772386,33.6708978 83.8023142,33.6708978 C84.0273897,33.6708978 84.2388471,33.7585878 84.3978305,33.9178819 L87.2991998,36.8249842 C87.4254495,36.9513555 87.5964894,37.0223963 87.7749631,37.0223963 C87.9534369,37.0223963 88.1244768,36.9514181 88.2506016,36.8249842 L95.4728216,29.5887117 Z" id="Shape" fill="#000000" fill-rule="nonzero"></path>
                </g>
            </g>
        </g>
    </g>
</svg>