<?xml version="1.0" encoding="UTF-8"?>
<svg width="300px" height="69px" viewBox="0 0 300 69" version="1.1" xmlns="http://www.w3.org/2000/svg" xmlns:xlink="http://www.w3.org/1999/xlink">
    <!-- Generator: Sketch 54 (76480) - https://sketchapp.com -->
    <title>adax360-logo</title>
    <desc>Created with Sketch.</desc>
    <g id="Page-1" stroke="none" stroke-width="1" fill="none" fill-rule="evenodd">
        <g id="Artboard" transform="translate(-864.000000, -722.000000)" fill="#FFB600">
            <g id="adax360-logo" transform="translate(864.000000, 722.000000)">
                <path d="M39.12646,53.7098408 L26.8966207,26.2053303 L14.71191,53.7098408 L8.16826904,68.7039385 L1.42108547e-13,68.7039385 L26.8966207,7.85365854 L54.0640127,68.7039385 L45.8506152,68.7039385 L39.12646,53.7098408 Z" id="Combined-Shape-Copy-24" fill-rule="nonzero"></path>
                <path d="M136.269659,53.7098408 L124.039819,26.2053303 L111.855109,53.7098408 L105.311468,68.7039385 L97.1431987,68.7039385 L124.039819,7.85365854 L151.207211,68.7039385 L142.993814,68.7039385 L136.269659,53.7098408 Z" id="Combined-Shape-Copy-27" fill-rule="nonzero"></path>
                <path d="M69.1960998,68.7039385 L65.7987276,60.7829255 C66.0201107,60.7482507 66.2347595,60.7123481 66.4426739,60.6752178 C69.5865762,60.1137646 72.5700305,58.8866066 75.3931264,56.9937072 C78.2162224,55.1008078 80.4618332,52.5903475 82.1300262,49.4622509 C83.7982192,46.3341544 84.6323033,42.8932999 84.6323033,39.139584 C84.6323033,34.423377 83.3009769,30.1563965 80.6382841,26.3385146 C77.9755914,22.5206327 74.7916361,19.9540279 71.0863227,18.6386232 C67.3810093,17.3232185 62.4005653,16.665526 56.1448414,16.665526 L51.9102187,16.665526 L51.9102187,28.4017048 L43.5372147,8.87994823 L43.5372147,8.48439144 L58.4065149,8.48439144 C70.1801081,8.48439144 78.9379902,11.5963998 84.680424,17.8205097 C90.4228577,24.0446197 93.2940315,31.1509068 93.2940315,39.139584 C93.2940315,47.1924274 90.3266173,54.3147557 84.3916997,60.5067826 C80.4907089,64.5767702 75.4255334,67.3091467 69.1960998,68.7039385 Z M43.5372147,47.1282214 L43.5372147,47.1282214 L51.9102187,47.1282214 L51.9102187,47.1282214 L43.5372147,47.1282214 Z" id="Combined-Shape-Copy-25" fill-rule="nonzero"></path>
                <g id="Group" transform="translate(160.363376, 7.853659)" fill-rule="nonzero">
                    <polygon id="x-copy-15" transform="translate(17.549085, 30.109774) scale(-1, 1) translate(-17.549085, -30.109774) " points="7.07124886 19.4857565 19.4072232 1.59872116e-13 33.4206835 1.59872116e-13 14.1941127 28.9013545 35.0981695 60.2195471 21.0847092 60.2195471 7.07124886 38.2666018 2.59348099e-13 28.9013545"></polygon>
                    <path d="M35.8270991,7.74704825 L40.7315732,1.49213975e-13 L54.7450336,1.49213975e-13 L42.5386778,18.3485771 L35.8270991,7.74704825 Z M42.5306678,39.4069511 L56.4225196,60.2195471 L42.4090593,60.2195471 L35.8270991,49.9085027 L42.5306678,39.4069511 Z M26.9530053,36.3560135 L21.3243501,28.9013545 L26.9653187,21.3902211 L31.5662319,28.9013545 L26.9530053,36.3560135 Z" id="Combined-Shape-Copy-26"></path>
                </g>
                <polygon id="Rectangle-Copy-6" points="6.2196021 59.195589 27.9882095 59.195589 31.0980105 68.7039385 6.2196021 68.7039385"></polygon>
                <polygon id="Rectangle-Copy-7" points="103.362801 59.195589 125.131408 59.195589 128.241209 68.7039385 103.362801 68.7039385"></polygon>
                <path d="M257.09367,8.64855394 L266.105601,3.90798505e-14 L272.633367,3.90798505e-14 L265.512167,6.83406076 L265.234157,6.96746078 C270.77079,7.79682795 275.0071,12.3933451 275.0071,17.9394095 C275.0071,24.0727242 269.826162,29.0447582 263.435151,29.0447582 C257.044139,29.0447582 251.863201,24.0727242 251.863201,17.9394095 C251.863201,14.0529943 253.943455,10.6328573 257.09367,8.64855394 Z M263.435151,25.0582228 C267.531953,25.0582228 270.853067,21.8710215 270.853067,17.9394095 C270.853067,14.0077975 267.531953,10.8205962 263.435151,10.8205962 C259.338349,10.8205962 256.017234,14.0077975 256.017234,17.9394095 C256.017234,21.8710215 259.338349,25.0582228 263.435151,25.0582228 Z" id="Combined-Shape"></path>
                <path d="M287.561574,34.7804878 C280.989685,34.7804878 275.662116,29.7264972 275.662116,23.4920839 C275.662116,17.2576705 280.989685,12.2036799 287.561574,12.2036799 C294.133463,12.2036799 299.461031,17.2576705 299.461031,23.4920839 C299.461031,29.7264972 294.133463,34.7804878 287.561574,34.7804878 Z M287.561574,31.1778057 C291.98754,31.1778057 295.575494,27.7367908 295.575494,23.4920839 C295.575494,19.2473769 291.98754,15.806362 287.561574,15.806362 C283.135608,15.806362 279.547653,19.2473769 279.547653,23.4920839 C279.547653,27.7367908 283.135608,31.1778057 287.561574,31.1778057 Z" id="Combined-Shape"></path>
                <path d="M236.164721,14.6444159 L235.997258,14.6444159 L236.122443,14.5517858 L236.043002,14.3777338 C236.23666,14.3049503 236.432813,14.237424 236.631241,14.1753024 L242.099544,10.1290543 L229.284743,10.7392383 L232.845343,7.32220796 L250.032515,7.32220796 L242.344721,13.9112643 C248.112633,15.1203115 251.949483,20.5104718 250.959905,26.1226471 C249.949483,31.8530325 244.289799,35.6449036 238.318647,34.5920283 C233.254544,33.6990904 229.592781,29.6082703 229.213516,24.8904797 L233.381406,25.6253912 C233.883224,28.4091544 236.150707,30.7400184 239.204217,31.2784346 C243.077397,31.9613807 246.748543,29.5017886 247.403952,25.7847819 C248.05936,22.0677752 245.450841,18.5009087 241.577661,17.8179626 C240.244918,17.582964 238.936096,17.7200469 237.76583,18.1524087 L236.164721,14.6444159 Z" id="Combined-Shape"></path>
            </g>
        </g>
    </g>
</svg>