<?xml version="1.0" encoding="UTF-8"?>
<svg width="66px" height="70px" viewBox="0 0 66 70" version="1.1" xmlns="http://www.w3.org/2000/svg" xmlns:xlink="http://www.w3.org/1999/xlink">
    <!-- Generator: sketchtool 54 (76480) - https://sketchapp.com -->
    <title>F0324B7C-7490-488D-8DAC-0648824F288A</title>
    <desc>Created with sketchtool.</desc>
    <g id="adax" stroke="none" stroke-width="1" fill="none" fill-rule="evenodd">
        <g id="post-log-in-screen" transform="translate(-481.000000, -212.000000)">
            <g id="Group-12" transform="translate(338.000000, 171.000000)">
                <g id="adax360" transform="translate(143.000000, 41.000000)">
                    <g id="Group-8" transform="translate(11.000000, 0.000000)">
                        <path d="M27.9397047,0.31134861 C27.7411969,0.113700687 27.4683814,1.77635684e-14 27.1891967,1.77635684e-14 C26.9100119,1.77635684e-14 26.6361349,0.113594425 26.4386887,0.31134861 C26.2401809,0.508996533 26.1276578,0.78315333 26.1276578,1.06262324 C26.1276578,1.34209315 26.2401809,1.61624995 26.4386887,1.81379161 C26.6361349,2.0115458 26.9100119,2.12524648 27.1891967,2.12524648 C27.4683814,2.12524648 27.7411969,2.0115458 27.9397047,1.81379161 C28.1370448,1.61624995 28.2507356,1.34209315 28.2507356,1.06262324 C28.2507356,0.78315333 28.137151,0.508996533 27.9397047,0.31134861 Z" id="Path" fill="#000000" fill-rule="nonzero"></path>
                        <rect id="Rectangle" fill="#FFB600" x="9.23963487" y="48.4216159" width="35.3280157" height="4.8965679"></rect>
                        <rect id="Rectangle" fill="#FFB600" x="17.3922539" y="2.1762524" width="19.5662856" height="4.8965679"></rect>
                        <path d="M42.3936188,15.7778299 C42.3936188,36.4522277 42.3936188,46.7894266 42.3936188,46.7894266 C42.3936188,46.7894266 43.1182961,47.1521353 44.5676506,47.8775528 L45.6546664,53.3181838 L53.2637775,53.3181838 L53.2637775,26.1150288 L42.3936188,15.7778299 Z" id="Path-3" fill="#FFB600"></path>
                        <path d="M54.0400809,25.3893634 L43.0984807,14.4311675 L43.0984807,7.86341199 C43.0984807,6.69155108 42.1460679,5.73816551 40.9754028,5.73816551 L38.8523249,5.73816551 L38.8523249,1.06262324 C38.8523249,0.475842688 38.3769678,-7.81597009e-14 37.790786,-7.81597009e-14 L31.1738954,-7.81597009e-14 C30.5877136,-7.81597009e-14 30.1123564,0.475842688 30.1123564,1.06262324 C30.1123564,1.6494038 30.5877136,2.12524648 31.1738954,2.12524648 L36.7292471,2.12524648 L36.7292471,5.73816551 L17.6215463,5.73816551 L17.6215463,2.12524648 L23.2122472,2.12524648 C23.798429,2.12524648 24.2737862,1.6494038 24.2737862,1.06262324 C24.2737862,0.475842688 23.798429,-7.81597009e-14 23.2122472,-7.81597009e-14 L16.5600074,-7.81597009e-14 C15.9738256,-7.81597009e-14 15.4984684,0.475842688 15.4984684,1.06262324 L15.4984684,5.73816551 L13.3753906,5.73816551 C12.2047254,5.73816551 11.2523127,6.69155108 11.2523127,7.86341199 L11.2523127,46.542898 L8.91692704,46.542898 C8.33074524,46.542898 7.8553881,47.0187407 7.8553881,47.6055213 L7.8553881,52.2810635 L2.12307787,52.2810635 L2.12307787,28.2657782 L8.91692704,28.2657782 C9.50310883,28.2657782 9.97846597,27.7899356 9.97846597,27.203155 C9.97846597,26.6163744 9.50310883,26.1405318 8.91692704,26.1405318 L1.06153893,26.1405318 C0.475357134,26.1405318 8.31335001e-13,26.6163744 8.31335001e-13,27.203155 L8.31335001e-13,53.3436868 C8.31335001e-13,53.9304673 0.475357134,54.40631 1.06153893,54.40631 L53.2892544,54.40631 C53.8754362,54.40631 54.3507934,53.9304673 54.3507934,53.3436868 L54.3507934,26.1405318 C54.3507934,25.8588303 54.2390133,25.5886052 54.0400809,25.3893634 Z M33.1908194,7.86341199 L40.9754028,7.86341199 L40.9754028,15.9393486 L33.1908194,15.9393486 L33.1908194,7.86341199 L33.1908194,7.86341199 Z M33.1908194,18.0645951 L40.9754028,18.0645951 L40.9754028,26.1405318 L33.1908194,26.1405318 L33.1908194,18.0645951 L33.1908194,18.0645951 Z M33.1908194,28.2657782 L40.9754028,28.2657782 L40.9754028,36.3417149 L33.1908194,36.3417149 L33.1908194,28.2657782 L33.1908194,28.2657782 Z M33.1908194,38.4669614 L40.9754028,38.4669614 L40.9754028,46.542898 L33.1908194,46.542898 L33.1908194,38.4669614 L33.1908194,38.4669614 Z M23.2830519,7.86341199 L31.0677415,7.86341199 L31.0677415,15.9393486 L23.2830519,15.9393486 L23.2830519,7.86341199 L23.2830519,7.86341199 Z M23.2830519,18.0645951 L31.0677415,18.0645951 L31.0677415,26.1405318 L23.2830519,26.1405318 L23.2830519,18.0645951 L23.2830519,18.0645951 Z M23.2830519,28.2657782 L31.0677415,28.2657782 L31.0677415,36.3417149 L23.2830519,36.3417149 L23.2830519,28.2657782 L23.2830519,28.2657782 Z M23.2830519,38.4669614 L31.0677415,38.4669614 L31.0677415,46.542898 L23.2830519,46.542898 L23.2830519,38.4669614 L23.2830519,38.4669614 Z M13.3753906,7.86341199 L21.159974,7.86341199 L21.159974,15.9393486 L13.3753906,15.9393486 L13.3753906,7.86341199 Z M13.3753906,18.0645951 L21.159974,18.0645951 L21.159974,26.1405318 L13.3753906,26.1405318 L13.3753906,18.0645951 Z M13.3753906,28.2657782 L21.159974,28.2657782 L21.159974,36.3417149 L13.3753906,36.3417149 L13.3753906,28.2657782 Z M13.3753906,38.4669614 L21.159974,38.4669614 L21.159974,46.542898 L13.3753906,46.542898 L13.3753906,38.4669614 Z M44.3723274,52.2810635 L9.97846597,52.2810635 L9.97846597,48.6681445 L42.0369417,48.6681445 L44.3723274,48.6681445 L44.3723274,52.2810635 Z M52.2277155,52.2810635 L46.4954053,52.2810635 L46.4954053,47.6055213 C46.4954053,47.0187407 46.0200481,46.542898 45.4338663,46.542898 L43.0984807,46.542898 L43.0984807,43.5540576 L46.4782083,43.5540576 C47.0643901,43.5540576 47.5397473,43.0782149 47.5397473,42.4914344 C47.5397473,41.9046538 47.0643901,41.4288111 46.4782083,41.4288111 L43.0984807,41.4288111 L43.0984807,38.4579291 L46.4782083,38.4579291 C47.0643901,38.4579291 47.5397473,37.9820864 47.5397473,37.3953058 C47.5397473,36.8085253 47.0643901,36.3326826 46.4782083,36.3326826 L43.0984807,36.3326826 L43.0984807,33.3619068 L46.4782083,33.3619068 C47.0643901,33.3619068 47.5397473,32.8860641 47.5397473,32.2992835 C47.5397473,31.712503 47.0643901,31.2366603 46.4782083,31.2366603 L43.0984807,31.2366603 L43.0984807,28.2657782 L46.4782083,28.2657782 C47.0643901,28.2657782 47.5397473,27.7899356 47.5397473,27.203155 C47.5397473,26.6163744 47.0643901,26.1405318 46.4782083,26.1405318 L43.0984807,26.1405318 L43.0984807,17.4375411 L52.2277155,26.580564 L52.2277155,52.2810635 Z" id="Shape" fill="#000000" fill-rule="nonzero"></path>
                        <path d="M7.43809715,42.5686871 C7.24075706,42.3698703 6.96688002,42.2573385 6.68769528,42.2573385 C6.40851054,42.2573385 6.13463349,42.3699765 5.93718725,42.5686871 C5.73974101,42.766335 5.62615634,43.0404918 5.62615634,43.3199617 C5.62615634,43.5994316 5.73963486,43.8735884 5.93718725,44.0712363 C6.13463349,44.268778 6.40851054,44.382585 6.68769528,44.382585 C6.96688002,44.382585 7.24075706,44.2688843 7.43809715,44.0712363 C7.63554339,43.8735884 7.74923421,43.5994316 7.74923421,43.3199617 C7.74923421,43.0404918 7.63564954,42.766335 7.43809715,42.5686871 Z" id="Path" fill="#000000" fill-rule="nonzero"></path>
                        <path d="M6.68769528,30.6804833 C6.10151348,30.6804833 5.62615634,31.156326 5.62615634,31.7431065 L5.62615634,39.31706 C5.62615634,39.9038405 6.10151348,40.3796832 6.68769528,40.3796832 C7.27387708,40.3796832 7.74923421,39.9038405 7.74923421,39.31706 L7.74923421,31.7431065 C7.74923421,31.156326 7.27387708,30.6804833 6.68769528,30.6804833 Z" id="Path" fill="#000000" fill-rule="nonzero"></path>
                    </g>
                    <g id="Group-9" transform="translate(0.000000, 23.619181)">
                        <path d="M1.17857143,38.1071429 L10.2142857,40.4642857 L18.4642857,41.25 L29.8571429,40.4642857 L36.5357143,37.3214286 C35.4880952,33.3928571 34.9642857,31.4285714 34.9642857,31.4285714 C34.9642857,31.4285714 30.25,27.5 30.25,27.5 C30.25,27.5 28.547619,26.452381 25.1428571,24.3571429 L18.0714286,24.3571429 L11,25.9285714 C9.95238095,26.9761905 9.16666667,27.5 8.64285714,27.5 C8.11904762,27.5 6.54761905,28.8095238 3.92857143,31.4285714 L1.17857143,38.1071429 Z" id="white" fill="#FFFFFF"></path>
                        <path d="M29.0714286,11.7857143 C30.3732426,11.7857143 31.4285714,12.8410431 31.4285714,14.1428571 C31.4285714,15.4446712 30.3732426,16.5 29.0714286,16.5 C29.0278845,16.5 28.9846161,16.4988193 28.9416538,16.4964881 C28.1949786,20.9574797 24.3159348,24.3571429 19.6428571,24.3571429 L18.0714286,24.3571429 C12.8641724,24.3571429 8.64285714,20.1358276 8.64285714,14.9285714 L8.64285714,11 C8.64285714,5.79274379 12.8641724,1.57142857 18.0714286,1.57142857 L19.6428571,1.57142857 C24.8501134,1.57142857 29.0714286,5.79274379 29.0714286,11 L29.0714286,11.7857143 Z" id="white" fill="#FFFFFF"></path>
                        <ellipse id="Oval" fill="#FFB600" cx="37.1759427" cy="36.1836734" rx="8.47872376" ry="8.45007943"></ellipse>
                        <path d="M16.5226412,40.3003788 L15.6530285,37.267017 L17.3922539,29.0336062 L16.0878348,25.1335696 L16.5226412,24.7002322 C19.7112211,24.4113406 21.305511,24.4113406 21.305511,24.7002322 C21.305511,24.9891238 21.1605755,26.0002444 20.8707047,27.733594 C21.1605755,30.9114017 21.305511,32.5003055 21.305511,32.5003055 C21.305511,32.5003055 21.7403173,34.5225467 22.60993,38.5670292 L20.4358983,41.600391 L16.5226412,40.3003788 Z" id="Path-4" fill="#FFB600"></path>
                        <path d="M41.3955072,27.5330458 C40.0924843,26.9202912 38.6971024,26.6096219 37.2479744,26.6096219 C35.5929418,26.6096219 34.03357,27.0243042 32.6685464,27.7540393 C30.5591479,25.9508422 27.8647787,24.6046998 24.8577463,23.8363366 C24.9310282,23.7899462 25.0047686,23.7442864 25.0771333,23.696161 C27.4919492,22.0925886 29.0971795,19.766952 29.5719065,17.2740179 C30.5342926,17.0172272 31.3725857,16.3592693 31.8984908,15.4159377 C32.5895781,14.176274 32.6109481,12.6986314 31.9541629,11.5596931 C31.7894393,11.2740454 31.4838384,11.0978899 31.1531987,11.0978899 C31.1528318,11.0978899 31.1525567,11.0978899 31.1521898,11.0978899 L29.7740507,11.0994423 C29.8577883,7.94069691 28.9600627,5.25571766 27.1521379,3.2896064 C25.229842,1.19902651 22.2943489,-2.27373675e-13 19.0984713,-2.27373675e-13 C16.320823,-2.27373675e-13 13.5707816,0.911735011 11.5535587,2.50151815 C9.2720075,4.29951 8.01557681,6.87828453 8.01557681,9.76252318 L8.01557681,11.1005381 L6.68320448,11.1005381 C6.35265654,11.1005381 6.04723905,11.2764197 5.88242367,11.5617935 C5.20903772,12.7280363 5.22233668,14.2285088 5.9171844,15.4775785 C6.42199457,16.3851128 7.22947072,17.0205147 8.15975588,17.2739266 C8.53992269,19.3001261 9.66510641,21.1983869 11.4229537,22.7336523 C11.8879587,23.1398419 12.3850647,23.5074033 12.9058336,23.8339623 C11.1945785,24.2510189 9.61365319,24.8329075 8.18424431,25.5759752 C7.73198796,25.8111232 7.55680856,26.3666204 7.79288802,26.8168261 C7.95770341,27.1311482 8.27944652,27.3111392 8.61247081,27.3111392 C8.75646645,27.3111392 8.90266329,27.2774422 9.03913813,27.2064869 C10.8579772,26.2609636 12.9593046,25.5988964 15.2926759,25.2327961 L16.4592239,28.3974773 L14.6077336,37.9846668 C14.5763664,38.1469417 14.5895736,38.3146045 14.6457961,38.4701218 L15.3217501,40.3379732 C12.5533653,40.1853781 9.83450764,39.8420164 7.24047675,39.318481 L7.24047675,35.6962886 C7.24047675,35.1883689 6.82692496,34.7767001 6.31679521,34.7767001 C5.80666546,34.7767001 5.39311367,35.1884602 5.39311367,35.6962886 L5.39311367,38.9105563 C4.18905337,38.6207992 3.01700229,38.291592 1.88576525,37.923574 C2.0698412,35.5665234 2.75771843,33.4688206 3.93426364,31.6795041 C4.21363351,31.2545027 4.09421803,30.6844856 3.66745899,30.4063261 C3.24079168,30.1282579 2.66829439,30.2470647 2.38874108,30.6719749 C0.912739985,32.9165196 0.109299382,35.5632359 0.000614780002,38.5387029 C-0.0141516512,38.9430661 0.23834515,39.3095317 0.622455795,39.4414886 C5.41897785,41.089077 10.9539132,42.0560604 16.6286252,42.2378777 C16.6298175,42.2378777 16.6310098,42.2378777 16.6322021,42.2378777 C17.314026,42.2589726 18.0042879,42.269657 18.6840023,42.269657 L18.9059574,42.2692917 L19.1342409,42.269657 C19.8139553,42.269657 20.5043089,42.2589726 21.1862245,42.2378777 C21.1873251,42.2378777 21.188334,42.2378777 21.1895263,42.2378777 C23.8656439,42.1523113 26.5096605,41.8917764 29.0613182,41.4672315 C29.9340968,42.8293549 31.1514561,43.9759639 32.6340608,44.7729102 C34.0425582,45.5324154 35.6380665,45.9337651 37.2480661,45.9337651 C42.6027776,45.9337651 46.9590582,41.5988231 46.9590582,36.2705063 C46.9590582,32.5516978 44.7752773,29.1220071 41.3955072,27.5330458 Z M19.7587417,27.4009977 L18.059685,27.4009977 L17.3576833,25.4963445 C17.8580911,25.5714092 18.3608835,25.6115898 18.8616581,25.6146947 C18.8825696,25.614786 18.9032976,25.6148773 18.9241173,25.6148773 C19.4338802,25.6148773 19.9480455,25.5742401 20.4611102,25.4962532 L19.7587417,27.4009977 Z M30.2832633,14.5231972 C30.1934724,14.684285 30.0102219,14.9608008 29.7195708,15.1872734 L29.7195708,12.9388019 L30.5323666,12.9378887 C30.6490306,13.4391421 30.5641924,14.0192956 30.2832633,14.5231972 Z M9.86284818,9.76252318 C9.86284818,4.61620641 14.621216,1.83935964 19.0984713,1.83935964 C21.7775238,1.83935964 24.2163696,2.82068019 25.7896824,4.53164445 C27.2748552,6.14672312 28.0063897,8.40551373 27.9259539,11.1005381 L20.9207956,11.1005381 C17.6973112,11.1005381 15.1766539,10.1460655 13.2144612,8.18269388 C13.0375392,8.00571647 12.8006342,7.91174859 12.5594186,7.91174859 C12.4392694,7.91174859 12.3180196,7.93512641 12.2027314,7.98325185 C11.856133,8.12781079 11.6320684,8.46706315 11.6360122,8.8411996 C11.6439916,9.5912989 11.4640429,10.1566586 11.1013023,10.5217544 C10.7547039,10.870504 10.2630093,11.0182592 9.86284818,11.0789867 L9.86284818,9.76252318 Z M7.5332373,14.5864817 C7.24524603,14.0688821 7.16572743,13.4645289 7.29844187,12.9398978 L8.0154851,12.9398978 L8.0154851,15.1722057 C7.76876646,14.9671019 7.61229732,14.7286663 7.5332373,14.5864817 Z M9.86284818,15.7339126 L9.86284818,12.9318616 C10.615661,12.858258 11.6335359,12.601376 12.4145058,11.8153881 C12.7558764,11.471935 13.0162608,11.0658367 13.1944669,10.600198 C15.2960694,12.1718998 17.8401145,12.9398065 20.9207956,12.9398065 L27.8722995,12.9398065 L27.8722995,15.7338213 C27.8722995,15.9562759 27.8601011,16.1784565 27.8367133,16.3997239 C27.8362547,16.4054771 27.835521,16.4110476 27.8351541,16.4168007 C27.5965983,18.6156856 26.2203852,20.7259906 24.0519211,22.1660095 C22.4883303,23.2048615 20.6695829,23.7754264 18.9243925,23.7754264 C18.9074248,23.7754264 18.8902738,23.7753351 18.8733061,23.7752438 C17.9826427,23.7696733 17.1069291,23.6283105 16.2723965,23.3746246 C16.259281,23.3688715 16.2460737,23.3636663 16.2327747,23.3586437 C16.232683,23.3585524 16.2324996,23.3585524 16.2324079,23.358461 C16.2069106,23.3486898 16.1810464,23.3401971 16.1546319,23.3327089 C16.1510549,23.3317044 16.1476614,23.3306086 16.1441762,23.329604 C16.1248239,23.3243075 16.1052882,23.3200155 16.085569,23.3159974 C12.5907858,22.1753241 9.86284818,19.0646129 9.86284818,15.7339126 Z M18.9059574,40.4300234 L18.6840023,40.4303886 C18.2300951,40.4303886 17.7711434,40.4254574 17.3134757,40.4157775 L16.4697714,38.0842052 L18.1777247,29.2403573 L19.6406103,29.2403573 L21.3485636,38.0842052 L20.5048592,40.4157775 C20.0470998,40.4255487 19.5882399,40.4303886 19.1343326,40.4303886 L18.9059574,40.4300234 Z M22.4964931,40.3381558 L23.1725388,38.4701218 C23.2287613,38.3146959 23.2419686,38.1469417 23.2106014,37.9846668 L21.3590193,28.3977512 L22.5274934,25.2289607 C25.8227922,25.7624498 28.7964396,27.0166334 31.0695528,28.8240312 C28.9148462,30.597458 27.539642,33.2771408 27.539642,36.2705063 C27.539642,37.4800346 27.7660912,38.6548614 28.1879893,39.7455829 C26.3310876,40.0343355 24.4256677,40.2324077 22.4964931,40.3381558 Z M37.2479744,44.0944968 C35.9443095,44.0944968 34.6529346,43.7697642 33.5126176,43.1549093 C32.1557568,42.4255395 31.0730381,41.3350007 30.3578292,40.0395407 C30.3541605,40.0324178 30.3504001,40.0254775 30.3466397,40.0184459 C29.7276419,38.8893702 29.3869134,37.6059643 29.3869134,36.2705063 C29.3869134,31.9576637 32.9134307,28.4489815 37.2479744,28.4489815 C38.422135,28.4489815 39.5520879,28.7003844 40.6066496,29.1963412 C43.3433921,30.4829433 45.1117869,33.2598814 45.1117869,36.2705977 C45.1117869,40.5846275 41.5840773,44.0944968 37.2479744,44.0944968 Z" id="Shape" fill="#000000" fill-rule="nonzero"></path>
                        <path d="M5.48070337,29.4344115 C5.65634135,29.4344115 5.83399711,29.384551 5.99119999,29.2804466 L6.00679187,29.2701275 C6.43162485,28.9889544 6.5470965,28.4181155 6.26469997,27.995123 C5.98230344,27.5721306 5.40907242,27.4571592 4.98414772,27.7384236 L4.96855584,27.7487427 C4.54372286,28.0298245 4.42825121,28.6007547 4.71064774,29.0237472 C4.88848693,29.2901265 5.18170606,29.4344115 5.48070337,29.4344115 Z" id="Path" fill="#000000" fill-rule="nonzero"></path>
                        <path d="M40.3590138,37.7574636 C40.3590138,38.5229046 40.1381593,39.1358418 39.6936989,39.596184 C39.2518983,40.0565262 38.7137949,40.3617163 38.0823236,40.5090148 L38.0823236,41.3754553 L38.0823236,41.4503374 C38.0823236,41.9287608 37.6742748,42.3167779 37.1960626,42.3167779 C36.7178503,42.3167779 36.3253934,41.9287608 36.3253934,41.4503374 L36.3253934,40.5166857 C35.9329366,40.4262793 35.5767996,40.2814464 35.259734,40.082187 C34.9348726,39.8752567 34.7087902,39.6943526 34.5788273,39.5365523 L34.3891566,39.2881629 C33.5834231,38.2408183 34.9089167,37.1236142 35.6808066,37.9305143 C35.7743579,38.0261259 35.8731371,38.1452067 35.9875081,38.26931 C36.3098016,38.6262784 36.7828777,38.6829879 37.1674469,38.6829879 C37.895221,38.6829879 38.2616303,38.3856512 38.2616303,37.7857727 C38.2616303,37.5710803 38.1213033,37.4055178 37.8457856,37.2866197 C37.5702678,37.1702785 37.2349506,37.0642564 36.8425854,36.9710191 C36.447377,36.8779644 36.052352,36.7513041 35.6599869,36.5960608 C35.2649619,36.4383518 34.9297364,36.1693242 34.6542186,35.7865124 C34.3787009,35.4037919 34.240942,34.9176063 34.240942,34.3305125 C34.240942,33.7408617 34.4306127,33.2159566 34.8023415,32.7426471 C35.1688425,32.2745427 35.6989666,31.9565678 36.3409853,31.8323732 L36.3409853,31.6332964 L36.3409853,30.6453095 C36.3409853,30.1695343 36.7334422,29.7789604 37.2116545,29.7789604 C37.6925265,29.7789604 38.0823236,30.1695343 38.0823236,30.6453095 L38.0823236,31.0099487 L38.0823236,31.8452492 C38.3578414,31.9047896 38.6099713,31.9875252 38.8360536,32.0961042 C39.0647957,32.2021263 39.2207146,32.2900671 39.3091297,32.3599266 L39.4442288,32.4762678 C40.5878476,33.3297409 39.4832085,34.8426329 38.4956002,34.0150032 C37.8276256,33.4564012 36.3098016,33.3322978 36.3098016,34.3590042 C36.3098016,34.5763449 36.4111488,34.7495782 36.6112752,34.881535 C36.8140614,35.0133092 37.0635316,35.1039896 37.3598691,35.1479143 C37.6535468,35.1919304 37.9785,35.2642555 38.3345453,35.3677206 C38.6880224,35.4711858 39.015452,35.5900839 39.3092214,35.727246 C39.6054672,35.8643167 39.8549374,36.1075008 40.0577236,36.4566157 C40.2576665,36.8031736 40.3590138,37.2377637 40.3590138,37.7574636 L40.3590138,37.7574636 Z" id="Path" fill="#000000" fill-rule="nonzero"></path>
                    </g>
                </g>
            </g>
        </g>
    </g>
</svg>