<?xml version="1.0" encoding="UTF-8"?>
<svg width="84px" height="96px" viewBox="0 0 84 96" version="1.1" xmlns="http://www.w3.org/2000/svg" xmlns:xlink="http://www.w3.org/1999/xlink">
    <!-- Generator: sketchtool 54 (76480) - https://sketchapp.com -->
    <title>3CCF9B32-7759-4113-9E61-72CD32CDF4B9</title>
    <desc>Created with sketchtool.</desc>
    <g id="adax" stroke="none" stroke-width="1" fill="none" fill-rule="evenodd">
        <g id="landing" transform="translate(-1131.000000, -2992.000000)" fill-rule="nonzero">
            <g id="announcement" transform="translate(1131.000000, 2992.000000)">
                <g id="promotion">
                    <path d="M19.7821045,32.953125 L29.1571045,49.23779 C24.9011231,51.7021585 19.9554444,54.565625 15.6256103,57.0728415 C11.1413575,59.6694265 5.40832516,58.1293492 2.81921391,53.6315399 C0.245971719,49.1649485 1.73828125,43.4000645 6.25061031,40.7881766 L19.7821045,32.953125 Z" id="Path" fill="#FFB600"></path>
                    <path d="M63.9776611,38.2062822 C65.1635742,40.2648196 63.7182617,42.8473261 61.3476562,42.9054769 L59.5898438,43.251933 L59.5507812,43.0529962 L39.4366455,8.11295111 L39.30542,8.00950383 L40.4302978,6.57226156 C41.6662597,4.54188144 44.61792,4.57615979 45.803833,6.63653343 C77.0214844,60.859987 37.6379394,-7.54919455 63.9776611,38.2062822 L63.9776611,38.2062822 Z" id="Path" fill="#FFB600"></path>
                    <path d="M32.3382569,67.3012564 C33.6334228,69.5483247 32.8649903,72.4234214 30.6225586,73.7223261 C28.3837891,75.0212306 25.5114747,74.2481314 24.2193603,72.0022873 L15.6256103,57.0728415 L23.7445069,52.3718106 C23.8189697,52.5015786 32.3254394,67.2786082 32.3382569,67.3012564 Z" id="Path" fill="#FFB600"></path>
                    <polygon id="Path" fill="#E9EEF0" points="59.02771 17.0700065 62.15271 22.4982281 58.3026123 28.3463595 52.0526123 17.4899162"></polygon>
                    <polygon id="Path" fill="#FFB600" points="59.5507812 43.0529962 59.5898438 43.251933 29.1571045 49.23779 19.7821045 32.953125 39.30542 8.00950383 39.4366455 8.11295111"></polygon>
                    <path d="M21.4007569,48.3006443 C22.1478272,47.8684922 22.4035644,46.9093106 21.9726562,46.1600838 C21.5411377,45.4114691 20.5853272,45.1543814 19.8382569,45.5865334 C19.0911866,46.0192976 18.8348389,46.9784794 19.2663575,47.7270941 C19.6972656,48.4763209 20.6536866,48.7334085 21.4007569,48.3006443 L21.4007569,48.3006443 Z" id="Path" fill="#000000"></path>
                    <path d="M14.9975586,59.116076 L22.8662109,72.7851804 C24.5642091,75.7380155 28.3837891,76.8312501 31.4044189,75.0799935 C34.3933106,73.3477127 35.4205322,69.517719 33.6914062,66.5177512 L29.0039062,58.3741945 L33.0633545,56.0236791 C33.8104248,55.5903028 34.0667725,54.6323454 33.6352539,53.8831186 L31.6033936,50.3536728 C31.8457031,50.3065399 33.4387206,49.9931378 61.531372,44.466366 C65.0042725,44.277223 67.0849609,40.4680412 65.3308106,37.422777 L60.1379394,28.4026739 L63.4564209,23.3619202 C63.7823486,22.8661082 63.8018798,22.2288982 63.5058594,21.714723 L60.3808594,16.2865013 C60.0848389,15.7723261 59.522705,15.4711663 58.9337158,15.5060567 L52.9223633,15.8678158 L47.1575928,5.8536405 C46.3226319,4.40293166 44.8266602,3.52454905 43.1567383,3.50373711 C43.1365967,3.50312504 43.1170655,3.50312504 43.0969238,3.50312504 C41.4831544,3.50312504 40.0183106,4.30866628 39.1503906,5.67061856 L18.7390137,31.7478736 L5.46936031,39.4311211 C0.250244062,42.4519007 -1.55761719,49.1667848 1.46606437,54.4150451 C4.22851562,59.2140141 10.0524903,61.1017719 14.9975586,59.116076 L14.9975586,59.116076 Z M30.9857178,68.0853738 C31.8487548,69.5826031 31.3378906,71.4985181 29.8406983,72.3658828 C28.3386231,73.2369202 26.4257812,72.701933 25.5725097,71.2187822 L17.7600097,57.6463918 L23.1726075,54.5123711 C32.2143555,70.2204253 30.8404541,67.8337951 30.9857178,68.0853738 Z M27.4414062,55.6594716 L25.8789062,52.9453608 L28.585205,51.3783505 L30.147705,54.0924613 L27.4414062,55.6594716 Z M58.1573486,18.6921069 L60.3167725,22.4431378 L58.3911133,25.3678158 L54.6691894,18.9020619 L58.1573486,18.6921069 Z M41.7639159,7.38882092 C42.1832275,6.70080545 42.8485108,6.6298003 43.1182861,6.63714566 C43.3850097,6.64020619 44.0496827,6.72345361 44.4506836,7.42003858 L62.6245117,38.9897873 C63.2165528,40.0175258 62.4969483,41.3096972 61.3098144,41.3390786 C61.0968017,41.3439756 60.9985352,41.3825387 60.4528809,41.4847616 L41.2286377,8.09091487 C41.63208,7.57061856 41.68396,7.52042534 41.7639159,7.38882092 L41.7639159,7.38882092 Z M39.14917,10.7474872 L57.2113038,42.1225838 L29.9517822,47.4846972 L21.663208,33.0871779 L39.14917,10.7474872 Z M4.17236328,52.8480348 C3.48632813,51.6574742 3.12377938,50.3059278 3.12377938,48.9384666 C3.12377938,46.1435567 4.62158203,43.5408505 7.03186031,42.145232 L19.210205,35.0936856 L27.022705,48.6642398 L14.8443603,55.7163982 C11.1132813,57.8759343 6.32629391,56.5892719 4.17236328,52.8480348 Z" id="Shape" fill="#000000"></path>
                    <path d="M16.5600586,49.2941044 C16.12854,48.5448776 15.1727295,48.28779 14.4256592,48.720554 L11.7193603,50.2875644 C10.9735108,50.7197165 10.0158691,50.4620168 9.58496094,49.7140141 C9.15344234,48.9647873 8.19763187,48.7076997 7.45056156,49.1404639 C6.70349125,49.5732281 6.44714359,50.5317976 6.87866219,51.2810244 C8.16467281,53.5152384 11.0333252,54.3030283 13.2818603,53.0016753 L15.9881592,51.4346649 C16.7352295,51.0019007 16.9915772,50.0439433 16.5600586,49.2941044 L16.5600586,49.2941044 Z" id="Path" fill="#000000"></path>
                    <path d="M77.6776123,6.85505803 L68.9709472,11.7140141 C68.2171631,12.1351482 67.9455566,13.089433 68.3654784,13.8453931 C68.7841797,14.6007409 69.7351075,14.8743557 70.4907227,14.4526096 L79.1967773,9.59365331 C79.9511719,9.17251929 80.222168,8.21823446 79.8022461,7.46227452 C79.3829345,6.70570236 78.4313966,6.43392401 77.6776123,6.85505803 L77.6776123,6.85505803 Z" id="Path" fill="#000000"></path>
                    <path d="M76.7645264,23.0846327 L70.7275391,21.4625323 C69.8937988,21.2384987 69.0368653,21.7343106 68.8134766,22.5704574 C68.5900878,23.4066044 69.085083,24.2653994 69.9188233,24.489433 L75.9564209,26.1115334 C76.7950439,26.3374034 77.647705,25.833634 77.8698731,25.0036082 C78.0932617,24.1674613 77.5982666,23.3080542 76.7645264,23.0846327 Z" id="Path" fill="#000000"></path>
                    <path d="M61.593628,1.16179116 L59.9743653,7.21681709 C59.7509766,8.05296392 60.2453613,8.91175906 61.0791016,9.13640472 C61.9122314,9.35982607 62.769165,8.86523844 62.9931641,8.02847938 L64.6118164,1.97345361 C64.835205,1.13730662 64.3408203,0.277899563 63.50708,0.0538659794 C62.6739502,-0.170167604 61.8170166,0.32564433 61.593628,1.16179116 L61.593628,1.16179116 Z" id="Path" fill="#000000"></path>
                </g>
                <path d="M39.3093639,73.8545073 L28.2447574,69.6717096 L28.2424009,69.670817 C25.4093258,68.5955096 25.3869045,64.5725317 28.2112051,63.4692986 L77.1844438,44.3338002 C79.6320512,43.3749725 82.1405341,45.531561 81.6150103,48.0979197 L72.8262788,90.9172586 C72.3426453,93.2775509 69.5874479,94.3553703 67.6441431,92.9246946 L55.6467053,84.1022238 C55.618005,84.0811223 55.5842565,84.0820821 55.5563746,84.1050927 L48.9065931,89.59587 C47.0896518,91.1004643 44.3459437,90.2626479 43.6557348,88.0122476 L39.3093639,73.8545073 Z M56.3278428,65.0027281 L69.047713,57.0677411 C67.5078067,58.0255456 65.9454294,55.9502625 67.23512,54.7334259 L56.3278428,65.0027281 Z M46.4124837,75.3458612 C46.301607,75.6875279 46.2211455,76.0405277 46.1730653,76.4009403 L45.5177887,81.3195108 C45.7029657,79.9407269 47.6631766,79.799494 48.0421823,81.1458597 L46.4124837,75.3458612 Z" id="telegram-copy-5" stroke="#131313" stroke-width="3.78947368" fill="#FFFFFF"></path>
            </g>
        </g>
    </g>
</svg>