<?xml version="1.0" encoding="UTF-8"?>
<svg width="164px" height="49px" viewBox="0 0 164 49" version="1.1" xmlns="http://www.w3.org/2000/svg" xmlns:xlink="http://www.w3.org/1999/xlink">
    <!-- Generator: sketchtool 54 (76480) - https://sketchapp.com -->
    <title>1852ED37-EDEE-4D1D-ACC9-34619F786936</title>
    <desc>Created with sketchtool.</desc>
    <defs>
        <linearGradient x1="49.9984472%" y1="100.265508%" x2="49.9984472%" y2="-260.382794%" id="linearGradient-1">
            <stop stop-color="#1A1A1A" stop-opacity="0.1" offset="0%"></stop>
            <stop stop-color="#212121" stop-opacity="0.151" offset="12.3%"></stop>
            <stop stop-color="#353535" stop-opacity="0.227" offset="30.8%"></stop>
            <stop stop-color="#575757" stop-opacity="0.318" offset="53.2%"></stop>
            <stop stop-color="#858585" stop-opacity="0.421" offset="78.3%"></stop>
            <stop stop-color="#B3B3B3" stop-opacity="0.51" offset="100%"></stop>
        </linearGradient>
    </defs>
    <g id="Assets" stroke="none" stroke-width="1" fill="none" fill-rule="evenodd">
        <g id="kyc" transform="translate(-32.000000, -218.000000)" fill-rule="nonzero">
            <g id="download-on-the-app-store-apple" transform="translate(32.000000, 218.000000)">
                <path d="M162.610853,42.9467636 C162.610854,44.1845488 162.120631,45.3715665 161.248166,46.2463558 C160.3757,47.1211452 159.19256,47.6119473 157.959352,47.6106545 L5.73733679,47.6106545 C3.1681862,47.6133464 1.08311766,45.5254469 1.07976945,42.9467636 L1.07976945,5.75375576 C1.08311589,3.17408805 3.16720412,1.08444582 5.73733679,1.08377622 L157.958139,1.08377622 C159.192004,1.08377618 160.375315,1.57582932 161.247676,2.4516554 C162.120036,3.32748147 162.609962,4.51531217 162.60964,5.75375576 L162.610853,42.9467636 Z" id="Path" fill="#FFFFFF"></path>
                <path d="M157.959352,48.6956485 L5.73733679,48.6956485 C2.572756,48.6949827 0.0060213317,46.1230817 0,42.9467636 L0,5.75497349 C0.00468148705,2.5771117 2.57122135,0.00268223516 5.73733679,0 L157.958139,0 C161.123701,0.00402042599 163.689461,2.57766742 163.695475,5.75497349 L163.695475,42.9467636 C163.697902,46.1177224 161.119801,48.6956485 157.959352,48.6956485 L157.959352,48.6956485 Z" id="Path" fill="#A6A6A6"></path>
                <path d="M162.610853,42.9467636 C162.610854,44.1845488 162.120631,45.3715665 161.248166,46.2463558 C160.3757,47.1211452 159.19256,47.6119473 157.959352,47.6106545 L5.73733679,47.6106545 C3.1681862,47.6133464 1.08311766,45.5254469 1.07976945,42.9467636 L1.07976945,5.75375576 C1.08311589,3.17408805 3.16720412,1.08444582 5.73733679,1.08377622 L157.958139,1.08377622 C159.192004,1.08377618 160.375315,1.57582932 161.247676,2.4516554 C162.120036,3.32748147 162.609962,4.51531217 162.60964,5.75375576 L162.610853,42.9467636 Z" id="Path" fill="#000000"></path>
                <path d="M36.5520158,24.0914929 C36.5168323,20.1667617 39.7537142,18.2573672 39.9017275,18.1684732 C38.0685459,15.4858226 35.2271751,15.1192871 34.2286916,15.0900617 C31.8422798,14.8379924 29.5274482,16.5233253 28.3117977,16.5233253 C27.0718826,16.5233253 25.1998779,15.1144162 23.1822862,15.1558189 C20.5859866,15.1960038 18.1571119,16.7047665 16.8249919,19.0476715 C14.075826,23.8248109 16.1261748,30.8450018 18.7600843,34.7064112 C20.0776457,36.5987575 21.6172271,38.7090769 23.6323923,38.6347956 C25.6038815,38.5544256 26.3403085,37.3744491 28.719441,37.3744491 C31.0767354,37.3744491 31.7682732,38.6347956 33.8234748,38.5873042 C35.9393376,38.5544256 37.2714577,36.6876515 38.5429165,34.7794748 C40.0655128,32.6131401 40.6769777,30.4772485 40.7012422,30.3676532 C40.6527133,30.350605 36.5932654,28.7943511 36.5520158,24.0914929 Z M32.6696987,12.5498851 C33.7300565,11.2189104 34.4555645,9.40815175 34.2541693,7.57060308 C32.7194408,7.63879574 30.8001203,8.63611341 29.6948732,9.9378626 C28.7170145,11.0849606 27.8434932,12.9651296 28.0691529,14.7332679 C29.7931443,14.8623469 31.5632383,13.8601583 32.6696987,12.5498851 L32.6696987,12.5498851 Z" id="Shape" fill="#FFFFFF"></path>
                <path d="M157.959352,6.40011965e-16 L76.424626,0 L108.360324,48.6956485 L157.959352,48.6956485 C161.124522,48.6929693 163.690671,46.120021 163.696689,42.9431105 L163.696689,5.75497349 C163.69134,2.57738963 161.125191,0.00335160051 157.959352,6.40011965e-16 Z" id="Path" fill="url(#linearGradient-1)"></path>
                <g id="Group" transform="translate(50.955412, 20.701343)" fill="#FFFFFF">
                    <path d="M14.1522592,17.6618992 L11.3970272,17.6618992 L9.88777644,12.9018079 L4.64179542,12.9018079 L3.20412486,17.6618992 L0.521686365,17.6618992 L5.72035165,1.4564004 L8.93054263,1.4564004 L14.1522592,17.6618992 L14.1522592,17.6618992 Z M9.4328174,10.9047371 L8.06794029,6.67313896 C7.92356662,6.2408462 7.65180442,5.22282719 7.25386691,3.62029966 L7.20533795,3.62029966 C7.04519237,4.30953262 6.78920208,5.32755163 6.43858032,6.67313896 L5.09675446,10.9047371 L9.4328174,10.9047371 Z M27.4952979,11.6755577 C27.4952979,13.6628867 26.9578396,15.2337533 25.8817098,16.38694 C24.9184099,17.413483 23.7209577,17.9261457 22.2929929,17.9261457 C20.7509851,17.9261457 19.6420982,17.3745158 18.9687589,16.2688205 L18.9687589,22.4000714 L16.3821651,22.4000714 L16.3821651,9.81730771 C16.3821651,8.56913847 16.349408,7.28930836 16.2863204,5.97659963 L18.5611156,5.97659963 L18.7054892,7.82876101 L18.7540182,7.82876101 C19.6166205,6.43324692 20.9256893,5.73548987 22.6824378,5.73548987 C24.0558075,5.73548987 25.2023043,6.27981343 26.1195017,7.36967828 C27.0354859,8.46197858 27.4952979,9.89645991 27.4952979,11.6755577 Z M24.8601751,11.7705404 C24.8601751,10.6331842 24.605398,9.6955351 24.0934175,8.95637537 C23.5341212,8.18799021 22.7831354,7.80318877 21.8416735,7.80318877 C21.2035177,7.80318877 20.6235965,8.01750856 20.1055498,8.44005951 C19.5862899,8.86626364 19.2465872,9.42276446 19.0876548,10.1119974 C19.0167042,10.3697555 18.9763876,10.6350342 18.9675456,10.9023017 L18.9675456,12.8518811 C18.9675456,13.7006362 19.2271756,14.4178769 19.7464355,15.0048208 C20.2656954,15.5893294 20.940248,15.8828014 21.7700933,15.8828014 C22.7443123,15.8828014 23.5025773,15.5040885 24.0448885,14.7527515 C24.5884129,13.9989791 24.8601751,13.0053146 24.8601751,11.7705404 L24.8601751,11.7705404 Z M40.8856523,11.6755577 C40.8856523,13.6628867 40.348194,15.2337533 39.2720642,16.38694 C38.3075511,17.413483 37.1113121,17.9261457 35.6821341,17.9261457 C34.1401263,17.9261457 33.0312394,17.3745158 32.3579001,16.2688205 L32.3579001,22.4000714 L29.7713063,22.4000714 L29.7713063,9.81730771 C29.7713063,8.56913847 29.7385492,7.28930836 29.6754616,5.97659963 L31.9502568,5.97659963 L32.0946304,7.82876101 L32.1431594,7.82876101 C33.0045485,6.43324692 34.3136173,5.73548987 36.071579,5.73548987 C37.4437355,5.73548987 38.5902323,6.27981343 39.5098562,7.36967828 C40.4246271,8.46197858 40.8856523,9.89645991 40.8856523,11.6755577 L40.8856523,11.6755577 Z M38.2493163,11.7705404 C38.2493163,10.6331842 37.993326,9.6955351 37.4813455,8.95637537 C36.9220491,8.18799021 36.1734899,7.80318877 35.232028,7.80318877 C34.5938721,7.80318877 34.013951,8.01750856 33.4934778,8.44005951 C32.9742179,8.86626364 32.6357284,9.42276446 32.476796,10.1119974 C32.3979365,10.4334771 32.3554736,10.6952882 32.3554736,10.9023017 L32.3554736,12.8518811 C32.3554736,13.7006362 32.6163168,14.4178769 33.1331503,15.0048208 C33.6524102,15.5881116 34.3269628,15.8828014 35.1592345,15.8828014 C36.1346667,15.8828014 36.8929318,15.5040885 37.4340297,14.7527515 C37.9775541,13.9989791 38.2493163,13.0053146 38.2493163,11.7705404 L38.2493163,11.7705404 Z M55.8568377,13.1161277 C55.8568377,14.4958113 55.376401,15.6173371 54.4215936,16.4831403 C53.3709415,17.4280958 51.9041536,17.9017912 50.0236562,17.9017912 C48.2863193,17.9017912 46.893538,17.5656988 45.842886,16.8922963 L46.4410055,14.728397 C47.57537,15.4030173 48.8213511,15.7391097 50.1777357,15.7391097 C51.1531679,15.7391097 51.9114329,15.5174835 52.4525309,15.0778844 C52.9948421,14.6370676 53.2690307,14.0476881 53.2690307,13.3121816 C53.2690307,12.6533918 53.0421578,12.1017619 52.5969046,11.6524209 C52.1492249,11.2042977 51.4091582,10.7866177 50.3694251,10.403034 C47.5426129,9.34482999 46.1279936,7.79710013 46.1279936,5.76106212 C46.1279936,4.43130523 46.627842,3.34265811 47.6251122,2.49146757 C48.6223824,1.64149477 49.9447967,1.21650836 51.5899286,1.21650836 C53.0591429,1.21650836 54.2832861,1.47344857 55.2550786,1.98611125 L54.6060037,4.10251919 C53.6912327,3.60568694 52.658779,3.35727082 51.5037896,3.35727082 C50.5914451,3.35727082 49.8756429,3.58255015 49.3636623,4.03067335 C48.9329678,4.43130523 48.7145874,4.91961339 48.7145874,5.49925101 C48.7145874,6.1385572 48.9632984,6.66948578 49.4582938,7.0859481 C49.8877751,7.46953182 50.6715179,7.88721187 51.8046692,8.33533507 C53.195024,8.89792452 54.2165587,9.55306115 54.8704865,10.3056159 C55.5292672,11.0581706 55.8568377,11.9970374 55.8568377,13.1161277 Z M64.4306925,7.92496137 L61.5796158,7.92496137 L61.5796158,13.5983472 C61.5796158,15.0413526 62.0818906,15.7610287 63.0888666,15.7610287 C63.551105,15.7610287 63.9344838,15.7220615 64.2377898,15.6404739 L64.3093701,17.6119724 C63.7998159,17.8031554 63.128903,17.8993558 62.2978445,17.8993558 C61.2763098,17.8993558 60.4780083,17.5864001 59.9017269,16.9604889 C59.3278719,16.3345777 59.0391245,15.2861156 59.0391245,13.8102316 L59.0391245,7.92009047 L57.3406108,7.92009047 L57.3406108,5.97172873 L59.0391245,5.97172873 L59.0391245,3.832184 L61.5796158,3.06258111 L61.5796158,5.97172873 L64.4306925,5.97172873 L64.4306925,7.92496137 L64.4306925,7.92496137 Z M77.2690299,11.723049 C77.2690299,13.519195 76.7570494,14.9938613 75.7355147,16.1470479 C74.6666642,17.3343308 73.2447656,17.9261457 71.4722452,17.9261457 C69.7615992,17.9261457 68.401575,17.3574676 67.3873196,16.2213292 C66.3730643,15.0827553 65.8659366,13.648274 65.8659366,11.9178852 C65.8659366,10.1071265 66.3900494,8.62393615 67.4346353,7.47074954 C68.4816477,6.31634521 69.8914142,5.73914305 71.6639346,5.73914305 C73.3721541,5.73914305 74.7443106,6.30903886 75.7828304,7.44639502 C76.7752477,8.54965486 77.2690299,9.97439438 77.2690299,11.723049 Z M74.5878047,11.7827176 C74.5878047,10.7123364 74.3572921,9.79417092 73.8950537,9.02578576 C73.3527425,8.09787848 72.5762791,7.63392484 71.5705163,7.63392484 C70.5344229,7.63392484 69.7397611,8.09787848 69.1986632,9.02578576 C68.7352116,9.79417092 68.504699,10.7281668 68.504699,11.8314267 C68.504699,12.9030256 68.7352116,13.8236265 69.1986632,14.5895762 C69.7579595,15.5174835 70.5380626,15.9814372 71.5486783,15.9814372 C72.5374559,15.9814372 73.3127061,15.5077417 73.8732157,14.5664395 C74.3487995,13.7797884 74.5878047,12.8555343 74.5878047,11.7827176 Z M85.6803126,8.25983605 C85.4112881,8.21108688 85.1383981,8.18703889 84.865026,8.18799021 C83.955108,8.18799021 83.251438,8.53138897 82.7564425,9.22305738 C82.3269612,9.83192043 82.1110073,10.6015233 82.1110073,11.5306483 L82.1110073,17.6618992 L79.5244135,17.6618992 L79.5244135,9.65656787 C79.5267203,8.4299077 79.5016407,7.20334965 79.4491936,5.97781736 L81.7021508,5.97781736 L81.7967823,8.21356246 L81.8683625,8.21356246 C82.1425512,7.4451773 82.5720325,6.82535472 83.1616594,6.36140108 C83.7013662,5.95599293 84.357127,5.73645252 85.0312377,5.73548987 C85.2702429,5.73548987 85.4861968,5.75253803 85.6778862,5.78298119 L85.6803126,8.25983605 L85.6803126,8.25983605 Z M97.2484045,11.2664018 C97.2549635,11.6610663 97.2232705,12.0554359 97.153773,12.4439429 L89.3939916,12.4439429 C89.423109,13.5983472 89.7992085,14.4824164 90.5198636,15.0912794 C91.1737914,15.6343852 92.0194086,15.9071559 93.0579284,15.9071559 C94.2068516,15.9071559 95.2550773,15.724497 96.1977524,15.355526 L96.6029692,17.1565428 C95.5013618,17.6387624 94.2007855,17.8786544 92.7000273,17.8786544 C90.8947498,17.8786544 89.4777041,17.3452904 88.4464636,16.2809978 C87.4176496,15.2154875 86.9020293,13.7834416 86.9020293,11.9897311 C86.9020293,10.2288991 87.3812528,8.7615392 88.3409131,7.59130443 C89.3454627,6.34191746 90.7030604,5.71722398 92.41128,5.71722398 C94.0891689,5.71722398 95.3594145,6.34191746 96.2220169,7.59130443 C96.905062,8.58131573 97.2484045,9.80878363 97.2484045,11.2664018 L97.2484045,11.2664018 Z M94.7819199,10.5929992 C94.8001182,9.82217862 94.6302668,9.1585179 94.2796451,8.59714617 C93.8319654,7.87381688 93.1428541,7.51336996 92.2195906,7.51336996 C91.3739734,7.51336996 90.6848621,7.8652928 90.1607493,8.57157393 C89.7300547,9.13294565 89.4740644,9.8075659 89.3952048,10.5905638 L94.7819199,10.5929992 Z" id="Shape"></path>
                </g>
                <g id="Group" transform="translate(52.168636, 7.306357)" fill="#FFFFFF">
                    <path d="M2.68243849,9.12198612 C1.9629966,9.12198612 1.34061263,9.08667206 0.822565942,9.02700348 L0.822565942,1.19215384 C1.5471138,1.07981267 2.27929658,1.02444073 3.01243545,1.02654309 C5.97876838,1.02654309 7.34485872,2.49146757 7.34485872,4.87942843 C7.34485872,7.63392484 5.73127066,9.12198612 2.68243849,9.12198612 Z M3.11677272,2.03116711 C2.71640877,2.03116711 2.37549279,2.05552163 2.09281158,2.11397249 L2.09281158,8.06987078 C2.24567782,8.0942253 2.53927805,8.10518483 2.95177424,8.10518483 C4.89535926,8.10518483 6.00181964,6.99461864 6.00181964,4.91474249 C6.00181964,3.06014566 5.00090975,2.03116711 3.11677272,2.03116711 L3.11677272,2.03116711 Z M11.6020621,9.1816547 C9.93023929,9.1816547 8.84683016,7.92861455 8.84683016,6.22745121 C8.84683016,4.45444203 9.95329055,3.19044235 11.6966936,3.19044235 C13.3442519,3.19044235 14.4519255,4.38381391 14.4519255,6.1336863 C14.4519255,7.92861455 13.3102816,9.1816547 11.6020621,9.1816547 Z M11.6505911,4.12322053 C10.7321804,4.12322053 10.1437667,4.9853706 10.1437667,6.19091943 C10.1437667,7.37333146 10.7443127,8.23548153 11.6384588,8.23548153 C12.532605,8.23548153 13.1331509,7.31366288 13.1331509,6.1665649 C13.1331509,4.99754786 12.5447372,4.12322053 11.6505911,4.12322053 Z M23.9854405,3.30856178 L22.195935,9.051358 L21.0300266,9.051358 L20.2887467,6.55745498 C20.1044323,5.94742955 19.9509657,5.32844039 19.8289347,4.70285815 L19.8046703,4.70285815 C19.711252,5.32876936 19.5341213,5.95589829 19.3460716,6.55745498 L18.5574759,9.051358 L17.3794353,9.051358 L15.6954802,3.30856178 L17.0021226,3.30856178 L17.6499843,6.03870367 C17.8028505,6.6889694 17.9314522,7.30270334 18.038216,7.88234096 L18.0624805,7.88234096 C18.1558987,7.3989037 18.3087649,6.79491157 18.5332114,6.05088093 L19.3460716,3.3097795 L20.3821649,3.3097795 L21.1598416,5.99243007 C21.3478913,6.6426958 21.5007576,7.28078427 21.6196535,7.88355869 L21.6536238,7.88355869 C21.736123,7.29296153 21.865938,6.6658326 22.0418555,5.99243007 L22.7370329,3.3097795 L23.9854405,3.30856178 L23.9854405,3.30856178 Z M30.5732474,9.051358 L29.3017885,9.051358 L29.3017885,5.75375576 C29.3017885,4.7381722 28.9135568,4.2291627 28.1480124,4.2291627 C27.3946003,4.2291627 26.8765536,4.87942843 26.8765536,5.63563633 L26.8765536,9.051358 L25.6050947,9.051358 L25.6050947,4.95005654 C25.6050947,4.44226477 25.5929625,3.8979412 25.557779,3.30734405 L26.6763716,3.30734405 L26.7358196,4.19384864 L26.7710031,4.19384864 C27.1131323,3.5801147 27.8070965,3.19044235 28.5847731,3.19044235 C29.785865,3.19044235 30.5744606,4.112261 30.5744606,5.61249953 L30.5732474,9.051358 L30.5732474,9.051358 Z M34.0794651,9.051358 L32.806793,9.051358 L32.806793,0.673402526 L34.0794651,0.673402526 L34.0794651,9.051358 Z M38.7151944,9.1816547 C37.0445848,9.1816547 35.9599624,7.92861455 35.9599624,6.22745121 C35.9599624,4.45444203 37.0664228,3.19044235 38.8086126,3.19044235 C40.4573842,3.19044235 41.5638446,4.38381391 41.5638446,6.1336863 C41.5650578,7.92861455 40.4222007,9.1816547 38.7151944,9.1816547 Z M38.7625101,4.12322053 C37.8440995,4.12322053 37.2556858,4.9853706 37.2556858,6.19091943 C37.2556858,7.37333146 37.8574449,8.23548153 38.7491646,8.23548153 C39.644524,8.23548153 40.2438567,7.31366288 40.2438567,6.1665649 C40.24507,4.99754786 39.6578695,4.12322053 38.7625101,4.12322053 L38.7625101,4.12322053 Z M46.5768866,9.051358 L46.4846815,8.39013274 L46.4507113,8.39013274 C46.0624795,8.92227904 45.4959039,9.1816547 44.7776752,9.1816547 C43.7525008,9.1816547 43.0245664,8.46076085 43.0245664,7.49145089 C43.0245664,6.07401772 44.2487095,5.34094662 46.368212,5.34094662 L46.368212,5.23500445 C46.368212,4.47879655 45.9690613,4.10008373 45.1804656,4.10008373 C44.6163164,4.10008373 44.121321,4.24255769 43.6857735,4.52628787 L43.4273568,3.68727459 C43.9563225,3.3560531 44.6163164,3.19044235 45.3915666,3.19044235 C46.8862587,3.19044235 47.6408841,3.9819643 47.6408841,5.56622594 L47.6408841,7.68141616 C47.6408841,8.26105377 47.6663618,8.7103947 47.7233833,9.05257573 L46.5768866,9.051358 L46.5768866,9.051358 Z M46.4021823,6.19091943 C44.9899894,6.19091943 44.2814666,6.53431818 44.2814666,7.34897693 C44.2814666,7.95175135 44.646647,8.24644106 45.1537747,8.24644106 C45.8004231,8.24644106 46.4021823,7.75082654 46.4021823,7.07742402 L46.4021823,6.19091943 L46.4021823,6.19091943 Z M53.8149816,9.051358 L53.7555336,8.12953936 L53.7203501,8.12953936 C53.3551696,8.82607868 52.7412782,9.1816547 51.8835288,9.1816547 C50.504093,9.1816547 49.4825583,7.96392861 49.4825583,6.250588 C49.4825583,4.45444203 50.5417029,3.18922462 51.9878661,3.18922462 C52.7534105,3.18922462 53.2957216,3.44860028 53.6014541,3.96978704 L53.6269318,3.96978704 L53.6269318,0.673402526 L54.8996039,0.673402526 L54.8996039,7.50362815 C54.8996039,8.05891124 54.9129494,8.57888028 54.9469196,9.051358 L53.8149816,9.051358 Z M53.6269318,5.67216811 C53.6269318,4.8684689 53.0967529,4.18288911 52.2875324,4.18288911 C51.3448573,4.18288911 50.7685758,5.02190238 50.7685758,6.20309669 C50.7685758,7.3611542 51.3666953,8.15389388 52.2620547,8.15389388 C53.0615694,8.15389388 53.6269318,7.45613683 53.6269318,6.62930082 L53.6269318,5.67216811 Z M62.9687574,9.1816547 C61.2981478,9.1816547 60.2147387,7.92861455 60.2147387,6.22745121 C60.2147387,4.45444203 61.3211991,3.19044235 63.0633889,3.19044235 C64.7121605,3.19044235 65.8186208,4.38381391 65.8186208,6.1336863 C65.8198341,7.92861455 64.6781902,9.1816547 62.9687574,9.1816547 Z M63.0160732,4.12322053 C62.0988757,4.12322053 61.510462,4.9853706 61.510462,6.19091943 C61.510462,7.37333146 62.111008,8.23548153 63.0039409,8.23548153 C63.8993003,8.23548153 64.498633,7.31366288 64.498633,6.1665649 C64.5010595,4.99754786 63.9126458,4.12322053 63.0160732,4.12322053 Z M72.6563519,9.051358 L71.3836798,9.051358 L71.3836798,5.75375576 C71.3836798,4.7381722 70.9954481,4.2291627 70.2299037,4.2291627 C69.4764915,4.2291627 68.959658,4.87942843 68.959658,5.63563633 L68.959658,9.051358 L67.686986,9.051358 L67.686986,4.95005654 C67.686986,4.44226477 67.6748537,3.8979412 67.6396702,3.30734405 L68.7582628,3.30734405 L68.8177108,4.19384864 L68.8528943,4.19384864 C69.1938103,3.5801147 69.8889877,3.18922462 70.6654511,3.18922462 C71.866543,3.18922462 72.6563519,4.11104327 72.6563519,5.61128181 L72.6563519,9.051358 Z M81.210795,4.26569448 L79.8119476,4.26569448 L79.8119476,7.05428722 C79.8119476,7.76422153 80.0570189,8.11857982 80.5520144,8.11857982 C80.7764608,8.11857982 80.9645105,8.0942253 81.1161636,8.05891124 L81.1513471,9.02822121 C80.9050626,9.12320384 80.5750656,9.17069516 80.1649959,9.17069516 C79.1628728,9.17069516 78.56354,8.61541207 78.56354,7.16144712 L78.56354,4.26569448 L77.7288419,4.26569448 L77.7288419,3.30856178 L78.56354,3.30856178 L78.56354,2.25644644 L79.8119476,1.87773363 L79.8119476,3.30734405 L81.210795,3.30734405 L81.210795,4.26569448 L81.210795,4.26569448 Z M87.9417624,9.051358 L86.6715167,9.051358 L86.6715167,5.77811028 C86.6715167,4.75034947 86.2844982,4.23038043 85.5177406,4.23038043 C84.8589599,4.23038043 84.2450685,4.67972135 84.2450685,5.58936274 L84.2450685,9.051358 L82.9748229,9.051358 L82.9748229,0.673402526 L84.2450685,0.673402526 L84.2450685,4.12322053 L84.2705462,4.12322053 C84.6709102,3.49730932 85.2508313,3.18922462 85.990898,3.18922462 C87.2016957,3.18922462 87.9417624,4.13418007 87.9417624,5.63563633 L87.9417624,9.051358 L87.9417624,9.051358 Z M94.8377282,6.48682687 L91.0221384,6.48682687 C91.0464028,7.57425626 91.7634183,8.18799021 92.8249894,8.18799021 C93.3891386,8.18799021 93.9083985,8.09300757 94.3669972,7.91643729 L94.5647527,8.80294188 C94.0236548,9.03918074 93.3867121,9.15730017 92.6454322,9.15730017 C90.8559267,9.15730017 89.796782,8.02237946 89.796782,6.26276527 C89.796782,4.50193334 90.8814044,3.17826509 92.5022718,3.17826509 C93.9642068,3.17826509 94.8814042,4.26569448 94.8814042,5.90840697 C94.8896258,6.10226779 94.8749652,6.29642412 94.8377282,6.48682687 L94.8377282,6.48682687 Z M93.6718198,5.57718548 C93.6718198,4.69068089 93.2265666,4.06476968 92.4137064,4.06476968 C91.6833455,4.06476968 91.1058508,4.70285815 91.0233516,5.57718548 L93.6718198,5.57718548 L93.6718198,5.57718548 Z" id="Shape"></path>
                </g>
            </g>
        </g>
    </g>
</svg>