<?xml version="1.0" encoding="UTF-8"?>
<svg width="119px" height="66px" viewBox="0 0 119 66" version="1.1" xmlns="http://www.w3.org/2000/svg" xmlns:xlink="http://www.w3.org/1999/xlink">
    <!-- Generator: sketchtool 54 (76480) - https://sketchapp.com -->
    <title>C53CBB15-D6FC-4D93-87DD-011598F21051</title>
    <desc>Created with sketchtool.</desc>
    <g id="adax" stroke="none" stroke-width="1" fill="none" fill-rule="evenodd">
        <g id="post-log-in-screen" transform="translate(-1343.000000, -212.000000)">
            <g id="Group-10" transform="translate(1232.000000, 171.000000)">
                <g id="Group-7" transform="translate(112.000000, 37.000000)">
                    <g id="Group-4" transform="translate(0.000000, 7.148579)">
                        <g id="Group-2">
                            <path d="M47.7961557,8.17780959 C42.5078647,2.90433304 35.4767519,-1.13686838e-13 27.9979849,-1.13686838e-13 C20.519218,-1.13686838e-13 13.4881052,2.90433304 8.19970481,8.17780959 C3.59858976,12.7662392 0.730124988,18.8451721 0.122461501,25.2948223 C-0.476999185,31.6596187 1.13785887,38.0792756 4.66998492,43.3709662 C5.00476856,43.8725633 5.68396047,44.008133 6.18640937,43.6746075 C6.68929575,43.3408639 6.82557161,42.6637788 6.49078796,42.1622908 C-0.288334765,32.0056869 1.08087675,18.3617892 9.74653431,9.72033774 C19.8103866,-0.315638583 36.1855832,-0.315638583 46.2494355,9.72033774 C51.1246335,14.5818699 53.8094649,21.0456988 53.8094649,27.9210357 C53.8094649,34.7963726 51.1246335,41.2602014 46.2494355,46.1217336 C37.2322606,55.1139431 23.2019713,56.2383101 12.889082,48.7950637 C12.3997576,48.4420153 11.7158627,48.5510818 11.3618298,49.0391546 C11.0076876,49.5271183 11.117277,50.2090024 11.6064921,50.5621599 C16.3714444,54.0011371 22.1246702,55.8419623 28.0040003,55.8417441 C28.7038633,55.8417441 29.4064605,55.8155682 30.1085109,55.7629981 C36.7785911,55.2631461 43.0601866,52.3868432 47.7961557,47.6641527 C53.0844467,42.3905671 55.9967691,35.379006 55.9967691,27.9209266 C55.9967691,20.4628471 53.0844467,13.4515043 47.7961557,8.17780959 Z" id="Path" stroke="#000000" stroke-width="0.699972339" fill="#000000" fill-rule="nonzero"></path>
                            <circle id="Oval" fill="#FFB600" cx="27.6904947" cy="28.3822321" r="16.7579363"></circle>
                            <path d="M27.6694948,26.6784468 C26.0045214,26.6784468 24.6500063,25.5067838 24.6500063,24.0666891 C24.6500063,22.6264573 26.0045214,21.4547944 27.6694948,21.4547944 C29.3344682,21.4547944 30.6889833,22.6264573 30.6889833,24.0666891 C30.6889833,24.8241139 31.3035865,25.4383385 32.0614781,25.4383385 C32.8193697,25.4383385 33.4339729,24.8241139 33.4339729,24.0666891 C33.4339729,21.5531416 31.5599685,19.4397042 29.0419896,18.8660804 L29.0419896,18.1526856 C29.0419896,17.3952608 28.4273864,16.7810362 27.6694948,16.7810362 C26.9116032,16.7810362 26.297,17.3952608 26.297,18.1526856 L26.297,18.8660804 C23.7790211,19.4397042 21.9050167,21.5531416 21.9050167,24.0666891 C21.9050167,27.0194388 24.4909341,29.4217456 27.6694948,29.4217456 C29.3344682,29.4217456 30.6889833,30.5934085 30.6889833,32.0336403 C30.6889833,33.4738722 29.3344682,34.6455351 27.6694948,34.6455351 C26.0045214,34.6455351 24.6500063,33.4738722 24.6500063,32.0336403 C24.6500063,31.2762155 24.0354031,30.6619909 23.2775115,30.6619909 C22.5196199,30.6619909 21.9050167,31.2762155 21.9050167,32.0336403 C21.9050167,34.5471879 23.7790211,36.6606253 26.297,37.234249 L26.297,37.8268016 C26.297,38.5842264 26.9116032,39.198451 27.6694948,39.198451 C28.4273864,39.198451 29.0419896,38.5842264 29.0419896,37.8268016 L29.0419896,37.234249 C31.5599685,36.6606253 33.4339729,34.5471879 33.4339729,32.0336403 C33.4339729,29.0807535 30.8480555,26.6784468 27.6694948,26.6784468 Z" id="Path" fill="#000000" fill-rule="nonzero"></path>
                        </g>
                        <path d="M40.6711209,15.3648701 L40.6228616,15.3164751 C40.0910518,14.7803013 39.2253912,14.7768836 38.6893434,15.3084092 C38.1532955,15.8400716 38.149741,16.7057146 38.6812774,17.2417516 L38.7295367,17.2901467 C38.9969454,17.5597374 39.3485688,17.6945327 39.7003288,17.6945327 C40.0483976,17.6945327 40.3964665,17.5624716 40.6630549,17.2982126 C41.1991028,16.7665502 41.2026573,15.9009072 40.6711209,15.3648701 Z" id="Path" fill="#000000" fill-rule="nonzero"></path>
                        <path d="M42.482565,19.2624632 C42.2449084,18.8651114 41.7300276,18.7355948 41.3327597,18.9735029 C40.9354917,19.2111595 40.8061428,19.7259564 41.0438832,20.1233082 C44.6366475,26.1277631 43.6854343,33.7820661 38.7304408,38.7369758 C32.7818164,44.6856841 23.1024443,44.6856841 17.1538199,38.7369758 C11.2051116,32.7883514 11.2051116,23.1090631 17.1538199,17.1603549 C22.1057117,12.2082954 29.7569969,11.2553218 35.7601105,14.8425533 C36.1575461,15.0799584 36.6721753,14.950358 36.9097481,14.5529224 C37.1472371,14.1554868 37.0175528,13.6408576 36.6202011,13.4033686 C33.4414706,11.5038762 29.6538866,10.697185 25.9562516,11.1312541 C22.1428481,11.5791551 18.689157,13.2539845 15.9683032,15.9748382 C9.36597641,22.5772488 9.36597641,33.3200818 15.9683032,39.9224925 C19.2695085,43.2236978 23.6058404,44.8743004 27.9421723,44.8743004 C32.2785041,44.8743004 36.614836,43.2236978 39.9160413,39.9224925 C42.6380687,37.2004651 44.3130657,33.7450973 44.7600445,29.9299334 C45.1936107,26.2299512 44.3847399,22.4414451 42.482565,19.2624632 Z" id="Path" stroke="#000000" stroke-width="0.556497884" fill="#000000" fill-rule="nonzero"></path>
                        <path d="M9.08834157,45.9916172 L9.04973372,45.9530076 C8.62428178,45.5252486 7.93174665,45.522522 7.50290422,45.9465727 C7.07406179,46.3707325 7.07121815,47.0613419 7.49645135,47.4889918 L7.5350592,47.5276014 C7.74898824,47.7425715 8.03028963,47.8502202 8.31170038,47.8502202 C8.59015813,47.8502202 8.86861587,47.7448619 9.0818887,47.5340363 C9.51073112,47.1098765 9.51357476,46.4192671 9.08834157,45.9916172 Z" id="Path" fill="#000000" fill-rule="nonzero"></path>
                    </g>
                    <path d="M109.394739,15.3267156 C104.106448,10.053239 97.0753357,7.14890599 89.5965687,7.14890599 C82.1178018,7.14890599 75.086689,10.053239 69.7982886,15.3267156 C65.1971736,19.9151451 62.3287088,25.9940781 61.7210453,32.4437283 C61.1215846,38.8085247 62.7364427,45.2281816 66.2685687,50.5198722 C66.6033524,51.0214693 67.2825443,51.157039 67.7849932,50.8235135 C68.2878795,50.4897699 68.4241554,49.8126847 68.0893718,49.3111968 C61.310249,39.1545928 62.6794606,25.5106952 71.3451181,16.8692437 C81.4089704,6.8332674 97.784167,6.8332674 107.848019,16.8692437 C112.723217,21.7307759 115.408049,28.1946048 115.408049,35.0699417 C115.408049,41.9452786 112.723217,48.4091074 107.848019,53.2706396 C98.8308444,62.2628491 84.8005551,63.3872161 74.4876658,55.9439697 C73.9983414,55.5909213 73.3144465,55.6999878 72.9604137,56.1880606 C72.6062714,56.6760243 72.7158608,57.3579084 73.2050759,57.7110658 C77.9700282,61.1500431 83.723254,62.9908682 89.6025841,62.9906501 C90.3024471,62.9906501 91.0050443,62.9644741 91.7070947,62.9119041 C98.3771749,62.4120521 104.65877,59.5357492 109.394739,54.8130587 C114.68303,49.5394731 117.595353,42.527912 117.595353,35.0698326 C117.595353,27.6117531 114.68303,20.6004103 109.394739,15.3267156 Z" id="Path" stroke="#000000" stroke-width="0.699972339" fill="#000000" fill-rule="nonzero" transform="translate(89.596968, 35.069778) rotate(180.000000) translate(-89.596968, -35.069778) "></path>
                    <path d="M109.398929,15.5016948 L109.360321,15.4630853 C108.934869,15.0353263 108.242334,15.0325996 107.813492,15.4566503 C107.384649,15.8808101 107.381806,16.5714195 107.807039,16.9990694 L107.845647,17.037679 C108.059576,17.2526491 108.340877,17.3602978 108.622288,17.3602978 C108.900746,17.3602978 109.179204,17.2549395 109.392476,17.0441139 C109.821319,16.6199541 109.824162,15.9293447 109.398929,15.5016948 Z" id="Path" fill="#000000" fill-rule="nonzero" transform="translate(108.602984, 16.250364) rotate(180.000000) translate(-108.602984, -16.250364) "></path>
                    <path d="M100.754371,29.9796969 C100.754371,25.5713362 97.254181,21.9637421 92.879682,21.7727665 L92.879682,19.3640319 C92.879682,18.7616574 92.3899201,18.2733664 91.7859752,18.2733664 C91.1820303,18.2733664 90.6922684,18.7616574 90.6922684,19.3640319 L90.6922684,21.7634959 L87.1915318,21.7634959 L87.1915318,19.3640319 C87.1915318,18.7616574 86.7017699,18.2733664 86.097825,18.2733664 C85.4938801,18.2733664 85.0041182,18.7616574 85.0041182,19.3640319 L85.0041182,21.7634959 L80.8480324,21.7634959 C80.2440876,21.7634959 79.7543257,22.2517868 79.7543257,22.8541613 L79.7543257,27.2168232 C79.7543257,27.8191977 80.2440876,28.3074886 80.8480324,28.3074886 L82.3800969,28.3074886 L82.3800969,41.8317403 L80.8480324,41.8317403 C80.2440876,41.8317403 79.7543257,42.3200312 79.7543257,42.9224057 L79.7543257,47.2850676 C79.7543257,47.8874421 80.2440876,48.375733 80.8480324,48.375733 L85.0041182,48.375733 L85.0041182,50.775197 C85.0041182,51.3775715 85.4938801,51.8658625 86.097825,51.8658625 C86.7017699,51.8658625 87.1915318,51.3775715 87.1915318,50.775197 L87.1915318,48.375733 L90.6922684,48.375733 L90.6922684,50.775197 C90.6922684,51.3775715 91.1820303,51.8658625 91.7859752,51.8658625 C92.3899201,51.8658625 92.879682,51.3775715 92.879682,50.775197 L92.879682,48.3664624 C97.254181,48.1753778 100.754371,44.5678927 100.754371,40.1593139 C100.754371,38.2877319 100.130411,36.5147462 98.9792847,35.0695054 C100.130411,33.6243737 100.754371,31.8513879 100.754371,29.9796969 Z M92.5150401,46.1944021 L81.9417392,46.1944021 L81.9417392,44.0130712 L83.4738037,44.0130712 C84.0777486,44.0130712 84.5675105,43.5247803 84.5675105,42.9224057 L84.5675105,27.2168232 C84.5675105,26.6144486 84.0777486,26.1261577 83.4738037,26.1261577 L81.9417392,26.1261577 L81.9417392,23.9448268 L92.5150401,23.9448268 C95.8521583,23.9448268 98.5669572,26.6521857 98.5669572,29.979806 C98.5669572,31.6120959 97.9195922,33.1428449 96.7440761,34.2901159 C96.5337563,34.49527 96.4153079,34.7763345 96.4153079,35.0696145 C96.4153079,35.3628944 96.5337563,35.6439589 96.7440761,35.8491131 C97.9195922,36.996384 98.5669572,38.527133 98.5669572,40.1594229 C98.5669572,43.4871523 95.8521583,46.1944021 92.5150401,46.1944021 Z" id="Shape" fill="#000000" fill-rule="nonzero"></path>
                    <path d="M92.3259382,25.8352772 L87.5204094,25.8352772 C86.9164645,25.8352772 86.4267026,26.3235682 86.4267026,26.9259427 L86.4267026,33.0336692 C86.4267026,33.6360438 86.9164645,34.1243347 87.5204094,34.1243347 L92.3259382,34.1243347 C94.6175821,34.1243347 96.482024,32.2650773 96.482024,29.979806 C96.482024,27.6945346 94.6175821,25.8352772 92.3259382,25.8352772 Z M92.3259382,31.9430038 L88.6141162,31.9430038 L88.6141162,28.0166081 L92.3259382,28.0166081 C93.4114422,28.0166081 94.2946104,28.8973205 94.2946104,29.979806 C94.2946104,31.0622914 93.4114422,31.9430038 92.3259382,31.9430038 Z" id="Shape" fill="#000000" fill-rule="nonzero"></path>
                    <path d="M92.3259382,36.0148942 L87.5204094,36.0148942 C86.9164645,36.0148942 86.4267026,36.5031851 86.4267026,37.1055597 L86.4267026,43.2132862 C86.4267026,43.8156607 86.9164645,44.3039517 87.5204094,44.3039517 L92.3259382,44.3039517 C94.6175821,44.3039517 96.482024,42.4446943 96.482024,40.1594229 C96.482024,37.8741516 94.6175821,36.0148942 92.3259382,36.0148942 Z M92.3259382,42.1226208 L88.6141162,42.1226208 L88.6141162,38.1962251 L92.3259382,38.1962251 C93.4114422,38.1962251 94.2946104,39.0769375 94.2946104,40.1594229 C94.2946104,41.2419084 93.4114422,42.1226208 92.3259382,42.1226208 Z" id="Shape" fill="#000000" fill-rule="nonzero"></path>
                    <path d="M66.4448662,6.10934029 C65.9039369,5.84614666 65.2468962,6.05886058 64.9752509,6.60066936 L63.2756714,10.006868 L59.8743565,8.30484817 C59.3334272,8.03949552 58.6763865,8.25436845 58.4047412,8.79617723 C58.1353545,9.3378832 58.3543339,9.99586729 58.8953658,10.2679026 L63.2756714,12.4611486 C63.4355171,12.5401067 63.6020358,12.5774268 63.766296,12.5774268 C64.1670909,12.5774268 64.552589,12.3537122 64.7452867,11.9676606 L66.9353881,7.58106566 C67.2048775,7.03925688 66.9858981,6.38127278 66.4448662,6.10934029 Z" id="Path" fill="#000000" fill-rule="nonzero" transform="translate(62.670098, 9.287140) rotate(-40.000000) translate(-62.670098, -9.287140) "></path>
                    <path d="M63.7618319,14.9205128 C62.9909384,9.01397464 58.6084769,3.02200134 51.7292607,3 C51.2101986,3.0328992 50.6320028,3.48690823 50.6298468,4.09441261 C50.6276909,4.69975798 51.1182129,5.19324605 51.7205344,5.19540506 C57.3448028,5.21298557 60.9409714,10.2465639 61.5892857,15.207764 C61.6615602,15.7604706 62.1324736,16.1618409 62.6734029,16.1618409 C62.7215517,16.1618409 62.7698031,16.1574201 62.8157959,16.1508403 C63.4180148,16.071985 63.8385209,15.5215402 63.7618319,14.9205128 Z" id="Path" fill="#000000" fill-rule="nonzero" transform="translate(57.200347, 9.580920) rotate(-40.000000) translate(-57.200347, -9.580920) "></path>
                    <path d="M57.3000791,61.8624455 C56.7591498,61.5992519 56.1021091,61.8119658 55.8304638,62.3537746 L54.1308843,65.7599732 L50.7295694,64.0579534 C50.1886401,63.7926007 49.5315994,64.0074736 49.2599542,64.5492824 C48.9905675,65.0909884 49.2095468,65.7489725 49.7505788,66.0210078 L54.1308843,68.2142538 C54.29073,68.2932119 54.4572488,68.330532 54.621509,68.330532 C55.0223038,68.330532 55.4078019,68.1068174 55.6004996,67.7207658 L57.7906011,63.3341709 C58.0600904,62.7923621 57.8411111,62.134378 57.3000791,61.8624455 Z" id="Path" fill="#000000" fill-rule="nonzero" transform="translate(53.525311, 65.040245) scale(-1, -1) rotate(-40.000000) translate(-53.525311, -65.040245) "></path>
                    <path d="M65.5565466,70.0860561 C64.7856531,64.179518 60.4031916,58.1875447 53.5239754,58.1655433 C53.0049133,58.1984425 52.4267175,58.6524515 52.4245616,59.2599559 C52.4224056,59.8653013 52.9129276,60.3587894 53.5152491,60.3609484 C59.1395175,60.3785289 62.7356861,65.4121072 63.3840005,70.3733073 C63.4562749,70.926014 63.9271883,71.3273843 64.4681176,71.3273843 C64.5162664,71.3273843 64.5645178,71.3229634 64.6105107,71.3163836 C65.2127295,71.2375283 65.6332356,70.6870835 65.5565466,70.0860561 Z" id="Path" fill="#000000" fill-rule="nonzero" transform="translate(58.995061, 64.746464) scale(-1, -1) rotate(-40.000000) translate(-58.995061, -64.746464) "></path>
                </g>
            </g>
        </g>
    </g>
</svg>