<?xml version="1.0" encoding="UTF-8"?>
<svg width="459px" height="146px" viewBox="0 0 459 146" version="1.1" xmlns="http://www.w3.org/2000/svg" xmlns:xlink="http://www.w3.org/1999/xlink">
    <!-- Generator: Sketch 54 (76480) - https://sketchapp.com -->
    <title>bt-white</title>
    <desc>Created with Sketch.</desc>
    <g id="Page-1" stroke="none" stroke-width="1" fill="none" fill-rule="evenodd">
        <g id="Artboard" transform="translate(-761.000000, -41.000000)">
            <g id="bt-white" transform="translate(761.000000, 41.000000)">
                <g id="Group" transform="translate(158.000000, 50.000000)" fill="#FFFFFF">
                    <path d="M26.18,20.2 C29.8579501,18.5043219 32.2374501,14.8495344 32.3,10.8 C32.3,4.04 27.3,2.55795385e-13 18.16,2.55795385e-13 L4.26325641e-14,2.55795385e-13 L4.26325641e-14,44.19 L18.49,44.19 C27.01,44.19 34.15,39.26 34.15,30.93 C34.18,25.19 30.67,21.97 26.18,20.2 Z M8.33,7.33 L17.54,7.33 C22.21,7.33 24.23,8.9 24.23,12.25 C24.23,15.6 22.23,17.17 17.54,17.17 L8.33,17.17 L8.33,7.33 Z M17.99,36.76 L8.33,36.76 L8.33,24.49 L17.99,24.49 C23.35,24.49 25.81,26.7 25.81,30.62 C25.81,34.54 23.35,36.76 17.99,36.76 Z" id="Shape" fill-rule="nonzero"></path>
                    <path d="M66.77,23.36 C66.77,15.72 61.84,12 53.07,12 C44.67,12 39.88,16.73 39.88,21.59 C39.8814581,22.5025487 40.0721393,23.4048798 40.44,24.24 L47.58,21.84 C47.4830944,21.6022983 47.4387472,21.3464492 47.45,21.09 C47.45,19.09 49.45,17.55 53.07,17.55 C56.92,17.55 58.81,19.25 58.81,22.28 L58.81,23.49 L49.41,24.94 C43.47,25.82 38.24,28.94 38.24,35.29 C38.24,41.22 42.59,45.07 48.78,45.07 C53.0986829,45.2483886 57.1491743,42.9774828 59.25,39.2 C59.182664,40.9898282 59.7179021,42.7504798 60.77,44.2 L68.85,44.2 C67.33,41.99 66.77,40.03 66.77,36.43 L66.77,23.36 Z M58.77,29.54 C58.77,35.6 55.24,38.63 50.63,38.63 C47.85,38.63 45.96,37.37 45.96,34.84 C45.96,32.31 47.79,30.84 51.2,30.24 L58.77,28.98 L58.77,29.54 Z" id="Shape" fill-rule="nonzero"></path>
                    <path d="M88.66,25 C83.73,24 81.27,22.6 81.27,20.58 C81.27,18.56 83.42,17.76 86.01,17.76 C89.23,17.76 91.75,19.85 93.08,23.25 L98.82,19.85 C96.3,14.54 92.7,11.96 85.88,11.96 C79.76,11.96 74.2,15.17 74.2,21.05 C74.2,26.72 79,29.63 85.12,30.83 C89.73,31.71 91.81,32.83 91.81,34.83 C91.81,37.1 89.35,38.3 86.89,38.3 C82.89,38.3 80.14,35.46 78.81,31.55 L72.43,35.55 C74.7318842,41.4035823 80.4739345,45.1701749 86.76,44.95 C94.53,44.95 99.14,40.41 99.14,34.54 C99.18,29.42 95.98,26.51 88.66,25 Z" id="Path"></path>
                    <path d="M120.02,12 C110.93,12 103.54,18.62 103.54,28.53 C103.54,38.44 110.93,45.07 119.64,45.07 C126.71,45.07 131.38,42.07 134.35,35.92 L128.41,32.51 C126.64,36.05 124.12,38.25 119.77,38.25 C115.24976,38.4315526 111.422516,34.9473799 111.18,30.43 L135.29,30.43 L135.29,27.65 C135.29,18.5 128.98,12 120.02,12 Z M111.18,24.62 C112.265368,20.7660223 115.766238,18.0924831 119.77,18.06 C124.25,18.06 127.21,20.58 127.97,24.62 L111.18,24.62 Z" id="Shape" fill-rule="nonzero"></path>
                    <polygon id="Path" points="173.98 2.48689958e-13 138.63 2.48689958e-13 138.63 7.7 152.14 7.7 152.14 44.19 160.47 44.19 160.47 7.7 173.98 7.7"></polygon>
                    <path d="M180.98,17.87 L180.98,12.87 L172.98,12.87 L172.98,44.18 L180.98,44.18 L180.98,28.76 C180.98,23.46 183.81,19.49 188.55,19.49 C189.43253,19.4827219 190.309385,19.6316856 191.14,19.93 L192.4,12.41 C191.516876,12.1516315 190.60005,12.0269163 189.68,12.04 C185.65,12 182.74,14.27 180.98,17.87 Z" id="Path"></path>
                    <path d="M223.07,23.36 C223.07,15.72 218.14,12 209.37,12 C200.98,12 196.18,16.76 196.18,21.59 C196.18015,22.503736 196.374439,23.4070127 196.75,24.24 L203.88,21.84 C203.790457,21.6004851 203.749658,21.3454965 203.76,21.09 C203.76,19.09 205.71,17.55 209.37,17.55 C213.22,17.55 215.11,19.25 215.11,22.28 L215.11,23.49 L205.71,24.94 C199.78,25.82 194.54,28.94 194.54,35.29 C194.54,41.22 198.89,45.07 205.08,45.07 C209.400531,45.2451865 213.452403,42.9756741 215.56,39.2 C215.48977,40.9886647 216.021453,42.7492059 217.07,44.2 L225.18,44.2 C223.67,41.99 223.1,40.03 223.1,36.43 L223.07,23.36 Z M215.07,29.54 C215.07,35.6 211.54,38.63 206.93,38.63 C204.16,38.63 202.26,37.37 202.26,34.84 C202.26,32.31 204.09,30.84 207.5,30.24 L215.07,28.98 L215.07,29.54 Z" id="Shape" fill-rule="nonzero"></path>
                    <path d="M254.68,16.76 C252.91,13.86 249.5,12.03 244.83,12.03 C237.13,12.03 229.43,18.15 229.43,28.56 C229.43,38.97 236.31,45.1 244.83,45.1 C248.833551,45.2590935 252.606955,43.2287343 254.68,39.8 L254.68,44.22 L262.63,44.22 L262.63,3.62376795e-13 L254.68,3.62376795e-13 L254.68,16.76 Z M246.35,37.65 C242.652386,37.7517328 239.261891,35.6026896 237.775825,32.2153144 C236.289759,28.8279393 237.004535,24.8778841 239.583413,22.2260746 C242.16229,19.5742651 246.090881,18.749636 249.518372,20.1406815 C252.945863,21.5317269 255.188601,24.8609866 255.19,28.56 C255.289476,30.9536137 254.397526,33.2823194 252.724471,34.9970116 C251.051416,36.7117037 248.745336,37.6606173 246.35,37.62 L246.35,37.65 Z" id="Shape" fill-rule="nonzero"></path>
                    <path d="M300.55,27.65 C300.55,18.5 294.25,12 285.28,12 C276.31,12 268.81,18.62 268.81,28.53 C268.81,38.44 276.19,45.07 284.9,45.07 C291.97,45.07 296.64,42.07 299.61,35.92 L293.68,32.51 C291.91,36.05 289.38,38.25 285.03,38.25 C280.511753,38.4260836 276.687774,34.9448834 276.44,30.43 L300.55,30.43 L300.55,27.65 Z M276.44,24.65 C277.525368,20.7960223 281.026238,18.1224831 285.03,18.09 C289.51,18.09 292.48,20.61 293.24,24.65 L276.44,24.65 Z" id="Shape" fill-rule="nonzero"></path>
                </g>
                <g id="Group-4" fill="#01FDFE">
                    <path d="M63,145.601126 L63,128.10536 L63.06,128.14 L111,100.48 L111,100.47 L111,45.15 L63.05,17.49 L63,17.5188727 L63,0.0404106548 L63.07,-3.97903932e-13 L126.13,36.41 L126.11,36.4 L126.11,109.22 L63.05,145.63 L63,145.601126 Z M-6.31088724e-30,109.142857 L-6.31088724e-30,36.41 L0.0886380904,36.3588297 L15.2382928,45.0990151 L15.15,45.15 L15.15,100.48 L15.1549743,100.482872 L7.10542736e-15,109.142857 Z" id="Combined-Shape" fill-rule="nonzero"></path>
                    <polygon id="Path" points="61 74 45.52 65 45.52 83 61.1 92"></polygon>
                    <polygon id="Path" points="81.16 65 65.53 74 65.53 92 81.16 83"></polygon>
                    <polygon id="Path" points="79 60.72 63.39 51.72 47.77 60.72 63.39 69.72"></polygon>
                </g>
            </g>
        </g>
    </g>
</svg>