<?xml version="1.0" encoding="UTF-8"?>
<svg width="100px" height="89px" viewBox="0 0 100 89" version="1.1" xmlns="http://www.w3.org/2000/svg" xmlns:xlink="http://www.w3.org/1999/xlink">
    <!-- Generator: sketchtool 54 (76480) - https://sketchapp.com -->
    <title>9E2CA0FA-85E8-47FE-9AE9-FA621CF5A536</title>
    <desc>Created with sketchtool.</desc>
    <g id="adax" stroke="none" stroke-width="1" fill="none" fill-rule="evenodd">
        <g id="landing" transform="translate(-698.000000, -2995.000000)" fill-rule="nonzero">
            <g id="chat" transform="translate(698.000000, 2995.000000)">
                <g id="speech-bubble">
                    <path d="M78.9848472,41.1391459 C83.0211664,36.9638475 85.4555921,31.5568662 85.4555921,25.6489293 C85.4555921,12.4277078 72.240803,1.70992862 57.1973684,1.70992862 C42.1539338,1.70992862 29.9605263,12.4277078 29.9605263,25.6489293 L57.1973684,49.5879299 C61.2163985,49.5879299 66.0546618,48.8218017 69.4898554,47.4485153 C72.6012123,50.8650329 77.0770713,53.0077872 82.0509868,53.0077872 C78.8525199,49.7949917 77.8291434,45.2209326 78.9848472,41.1391459 L78.9848472,41.1391459 Z" id="Path" fill="#FFB600"></path>
                    <path d="M43.9958786,29.0687865 C51.906931,33.2581116 57.1973684,40.8793168 57.1973684,49.5879299 C57.1973684,62.8091513 45.0039609,73.5269306 29.9605263,73.5269306 C25.9414962,73.5269306 21.1032329,72.7608023 17.6680393,71.3875159 C14.5566824,74.8040335 10.0808234,76.9467878 5.10690789,76.9467878 C8.30537486,73.7339923 9.32875137,69.1599333 8.17304756,65.0781466 C4.13672834,60.9028482 1.70230263,55.4958668 1.70230263,49.5879299 C1.70230263,36.3667085 14.9170917,25.6489293 29.9605263,25.6489293 C35.0946976,25.6489293 39.8983828,26.8973107 43.9958786,29.0687865 Z" id="Path" fill="#FFB600"></path>
                    <path d="M43.5789474,17.0992862 C42.6393562,17.0992862 41.8766447,17.8654144 41.8766447,18.8092148 C41.8766447,19.7530152 42.6393562,20.5191434 43.5789474,20.5191434 C44.5185386,20.5191434 45.28125,19.7530152 45.28125,18.8092148 C45.28125,17.8654144 44.5185386,17.0992862 43.5789474,17.0992862 Z" id="Path" fill="#000000"></path>
                    <path d="M15.3207237,47.8780013 C16.2603149,47.8780013 17.0230263,47.1118731 17.0230263,46.1680727 C17.0230263,45.2242723 16.2603149,44.4581441 15.3207237,44.4581441 C14.3811325,44.4581441 13.6184211,45.2242723 13.6184211,46.1680727 C13.6184211,47.1118731 14.3811325,47.8780013 15.3207237,47.8780013 Z" id="Path" fill="#000000"></path>
                    <path d="M57.1973684,0 C41.87199,0 29.2935694,10.6135803 28.3207302,23.9824168 C13.7254799,24.7178198 0,35.2893197 0,49.5879299 C0,55.5633288 2.35396536,61.3530404 6.63898026,65.9404581 C7.48680681,69.4511553 6.45744569,73.1722539 3.90332682,75.7378149 C3.41657449,76.2267475 3.27094795,76.9621505 3.53427289,77.6013698 C3.79759783,78.2399213 4.4180073,78.6567164 5.10690789,78.6567164 C9.96179516,78.6567164 14.6404676,76.7444017 18.1168887,73.37464 C21.50354,74.5341854 25.9222123,75.2368592 29.9605263,75.2368592 C45.2839098,75.2368592 57.8610005,64.6259505 58.8364996,51.2597859 C62.4006958,51.1008159 66.1078588,50.4395546 69.041006,49.4356394 C72.5174272,52.805401 77.1960996,54.7177158 82.0509868,54.7177158 C82.7398874,54.7177158 83.3602969,54.3009207 83.6236218,53.6623692 C83.8869468,53.0231498 83.7413202,52.2877468 83.2545679,51.7988143 C80.700449,49.2332533 79.6710879,45.5121547 80.5189145,42.0014575 C84.8039294,37.4140398 87.1578947,31.6243282 87.1578947,25.6489293 C87.1578947,10.7919205 72.3751252,0 57.1973684,0 Z M29.9605263,71.8170019 C25.9428262,71.8170019 21.3645629,71.0248242 18.2977584,69.7991526 C17.6407759,69.5359838 16.8900339,69.7089806 16.4119262,70.2333141 C14.3565289,72.4902863 11.6840467,74.063955 8.77217825,74.787335 C10.3767314,71.6994444 10.786348,68.0591667 9.81018383,64.6099199 C9.73304825,64.3380681 9.59008155,64.0895941 9.39391773,63.887208 C5.53181863,59.8915856 3.40460526,54.8132314 3.40460526,49.5879299 C3.40460526,37.5382767 15.5654297,27.3588579 29.9605263,27.3588579 C43.5536787,27.3588579 55.4950658,36.8536373 55.4950658,49.5879299 C55.4950658,61.8453128 44.0404311,71.8170019 29.9605263,71.8170019 Z M77.763977,39.9482073 C77.5678132,40.1512614 77.4248465,40.3997354 77.3477109,40.6709193 C76.3715467,44.1201661 76.7811633,47.7604437 78.3857165,50.8483344 C75.473848,50.1256223 72.8013658,48.5512857 70.7459685,46.2943135 C70.2678608,45.7706478 69.5171188,45.5969832 68.8601364,45.860152 C66.2022834,46.9221779 62.4106702,47.6575809 58.8311799,47.8352531 C58.3337884,41.3689176 55.1226871,35.2913236 49.6327611,30.7787151 L71.8371711,30.7787151 C72.7774274,30.7787151 73.5394737,30.013255 73.5394737,29.0687865 C73.5394737,28.124318 72.7774274,27.3588579 71.8371711,27.3588579 L44.4028353,27.3588579 C40.5387413,25.3830887 36.1998645,24.2308908 31.7339799,23.9890963 C32.7121388,12.5045209 43.7591521,3.41985724 57.1973684,3.41985724 C71.592465,3.41985724 83.7532895,13.599276 83.7532895,25.6489293 C83.7532895,30.8742307 81.6260761,35.952585 77.763977,39.9482073 Z" id="Shape" fill="#000000"></path>
                    <path d="M43.5789474,44.4581441 L22.1299342,44.4581441 C21.1896779,44.4581441 20.4276316,45.2236042 20.4276316,46.1680727 C20.4276316,47.1125412 21.1896779,47.8780013 22.1299342,47.8780013 L43.5789474,47.8780013 C44.5192037,47.8780013 45.28125,47.1125412 45.28125,46.1680727 C45.28125,45.2236042 44.5192037,44.4581441 43.5789474,44.4581441 Z" id="Path" fill="#000000"></path>
                    <path d="M43.5789474,54.7177158 L15.3207237,54.7177158 C14.3804674,54.7177158 13.6184211,55.4831759 13.6184211,56.4276444 C13.6184211,57.3721129 14.3804674,58.137573 15.3207237,58.137573 L43.5789474,58.137573 C44.5192037,58.137573 45.28125,57.3721129 45.28125,56.4276444 C45.28125,55.4831759 44.5192037,54.7177158 43.5789474,54.7177158 Z" id="Path" fill="#000000"></path>
                    <path d="M71.8371711,17.0992862 L50.3881579,17.0992862 C49.4479016,17.0992862 48.6858553,17.8647463 48.6858553,18.8092148 C48.6858553,19.7536833 49.4479016,20.5191434 50.3881579,20.5191434 L71.8371711,20.5191434 C72.7774274,20.5191434 73.5394737,19.7536833 73.5394737,18.8092148 C73.5394737,17.8647463 72.7774274,17.0992862 71.8371711,17.0992862 Z" id="Path" fill="#000000"></path>
                </g>
                <path d="M55.5198902,67.1828655 L44.4552838,63.0000678 L44.4529272,62.9991752 C41.6198521,61.9238679 41.5974309,57.9008899 44.4217314,56.7976568 L93.3949701,37.6621584 C95.8425775,36.7033307 98.3510604,38.8599192 97.8255366,41.4262779 L89.0368051,84.2456168 C88.5531716,86.6059091 85.7979742,87.6837285 83.8546694,86.2530528 L71.8572316,77.430582 C71.8285313,77.4094805 71.7947828,77.4104403 71.7669009,77.4334509 L65.1171194,82.9242282 C63.3001781,84.4288225 60.5564701,83.5910061 59.8662611,81.3406058 L55.5198902,67.1828655 Z M72.5383691,58.3310863 L85.2582393,50.3960993 C83.718333,51.3539038 82.1559557,49.2786207 83.4456463,48.0617841 L72.5383691,58.3310863 Z M62.62301,68.6742194 C62.5121333,69.0158861 62.4316718,69.3688859 62.3835916,69.7292985 L61.728315,74.647869 C61.913492,73.2690851 63.8737029,73.1278523 64.2527087,74.4742179 L62.62301,68.6742194 Z" id="telegram-copy-5" stroke="#131313" stroke-width="3.78947368" fill="#FFFFFF"></path>
            </g>
        </g>
    </g>
</svg>