<?xml version="1.0" encoding="UTF-8"?>
<svg width="7px" height="7px" viewBox="0 0 7 7" version="1.1" xmlns="http://www.w3.org/2000/svg" xmlns:xlink="http://www.w3.org/1999/xlink">
    <!-- Generator: sketchtool 52 (66869) - http://www.bohemiancoding.com/sketch -->
    <title>4ADFCCFB-D641-4A03-AF0F-95646A3495B9</title>
    <desc>Created with sketchtool.</desc>
    <g id="main-screens" stroke="none" stroke-width="1" fill="none" fill-rule="evenodd">
        <g id="Exchange" transform="translate(-1550.000000, -795.000000)" fill="#FFFFFF">
            <path d="M1554.11907,798.500073 L1556.87174,795.747295 C1557.04275,795.576414 1557.04275,795.299152 1556.87174,795.12827 C1556.70072,794.957243 1556.42376,794.957243 1556.25274,795.12827 L1553.50007,797.881048 L1550.74726,795.12827 C1550.57624,794.957243 1550.29928,794.957243 1550.12826,795.12827 C1549.95725,795.299152 1549.95725,795.576414 1550.12826,795.747295 L1552.88107,798.500073 L1550.12826,801.252851 C1549.95725,801.423732 1549.95725,801.700994 1550.12826,801.871876 C1550.21377,801.957243 1550.32584,802 1550.43776,802 C1550.54969,802 1550.66175,801.957243 1550.74726,801.87173 L1553.50007,799.118952 L1556.25274,801.87173 C1556.33825,801.957243 1556.45031,802 1556.56224,802 C1556.67416,802 1556.78623,801.957243 1556.87174,801.87173 C1557.04275,801.700848 1557.04275,801.423586 1556.87174,801.252705 L1554.11907,798.500073 Z" id="close"></path>
        </g>
    </g>
</svg>