<?xml version="1.0" encoding="UTF-8"?>
<svg width="107px" height="98px" viewBox="0 0 107 98" version="1.1" xmlns="http://www.w3.org/2000/svg" xmlns:xlink="http://www.w3.org/1999/xlink">
    <!-- Generator: sketchtool 54 (76480) - https://sketchapp.com -->
    <title>CFA8E2C4-372F-4A74-99AF-18A1C97E7795</title>
    <desc>Created with sketchtool.</desc>
    <g id="adax" stroke="none" stroke-width="1" fill="none" fill-rule="evenodd">
        <g id="post-log-in-screen" transform="translate(-1157.000000, -600.000000)">
            <g id="deposit" transform="translate(1157.000000, 601.000000)">
                <g id="purse" transform="translate(0.000000, 31.525000)" fill="#000000" fill-rule="nonzero">
                    <path d="M68.9622701,27.3518941 L67.9062148,27.3518941 L67.9062148,24.1206454 L67.9062148,12.6338033 C67.9062148,8.87301118 64.9041494,5.8133472 61.2142956,5.8133472 L32.1954572,5.8133472 L12.6180011,0.112427467 C12.6123658,0.110848026 12.6065896,0.109986513 12.6009543,0.108407072 C12.5951781,0.106827632 12.5896837,0.104530263 12.5839075,0.103094408 C12.5720734,0.100079112 12.5603801,0.0986432566 12.5486869,0.0960587171 C12.530513,0.0921819079 12.5123392,0.0881615132 12.4941653,0.0851462171 C12.4776821,0.0824180921 12.4614806,0.0806950658 12.4449973,0.0786848684 C12.4258373,0.0763875 12.4068182,0.0743773026 12.387799,0.0732286184 C12.372302,0.0723671053 12.3569458,0.0722235197 12.3414487,0.0719363487 C12.3217251,0.0716491776 12.3021425,0.0715055921 12.2825598,0.0723671053 C12.2680489,0.0729414474 12.253538,0.0743773026 12.239168,0.0755259868 C12.2190218,0.0772490132 12.1988756,0.079115625 12.1790112,0.0821309211 C12.1654864,0.0841411184 12.1521026,0.0867256579 12.1387188,0.0891666118 C12.1181499,0.0928998355 12.0978628,0.0969202303 12.0777166,0.101945724 C12.0651781,0.105104605 12.0529213,0.108694243 12.0405237,0.112283882 C12.0199548,0.118314474 11.9996677,0.124488651 11.9793806,0.131667928 C11.9679692,0.135831908 11.9566986,0.140283059 11.9452871,0.144877796 C11.9248591,0.152918586 11.904572,0.161390132 11.8847076,0.170723191 C11.8741414,0.175748684 11.863857,0.181204934 11.8534317,0.186517599 C11.8335673,0.196712171 11.8139846,0.207050329 11.7948246,0.218680757 C11.7848219,0.224567763 11.7752419,0.230885526 11.7653801,0.237203289 C11.7465019,0.249264474 11.7279054,0.261612829 11.7098724,0.274966283 C11.7004333,0.281858388 11.6912759,0.289324836 11.6819777,0.296647697 C11.6646491,0.310288322 11.6474615,0.324216118 11.6309782,0.339005428 C11.62168,0.347333388 11.6128044,0.356092105 11.6037879,0.364707237 C11.5882908,0.379640132 11.5729346,0.394573026 11.5582828,0.410367434 C11.5491255,0.420274836 11.5405316,0.430612993 11.531656,0.440951151 C11.5182722,0.456601974 11.5050292,0.472396382 11.4924907,0.488908717 C11.4834742,0.500826316 11.4750213,0.513031086 11.4664274,0.525235855 C11.4552977,0.541173849 11.4443089,0.557255428 11.4341653,0.573767763 C11.4254306,0.587839145 11.4174003,0.602484868 11.40937,0.616987007 C11.4004944,0.632925 11.3916188,0.649006579 11.3835885,0.665518914 C11.3756991,0.681600493 11.368655,0.698112829 11.36147,0.714625164 C11.3544258,0.730850329 11.3475226,0.747075493 11.3413238,0.763731414 C11.3348432,0.781248849 11.3292079,0.799197039 11.3234317,0.817288816 C11.3197687,0.828919243 11.3152605,0.839831743 11.3118793,0.851605757 C11.3101887,0.857492763 11.3094843,0.863236184 11.3079346,0.868979605 C11.3063849,0.874866612 11.3041308,0.880466447 11.302722,0.886353454 L10.0945136,5.81306003 L6.6926236,5.81306003 C3.01009569,5.81306003 0.0132429559,8.86037566 0.00112706007,12.6108296 C0.000986177565,12.6185832 0,12.6259061 0,12.6335161 L0,49.965753 C0,50.560197 0.474774056,51.0426444 1.05661882,51.0426444 C1.63987241,51.0426444 2.11323764,50.560197 2.11323764,49.965753 L2.11323764,17.6005702 C3.3113025,18.7486801 4.92215311,19.4542594 6.6926236,19.4542594 L61.2142956,19.4542594 C61.2155635,19.4542594 61.2166906,19.4541158 61.2179585,19.4541158 C63.7408825,19.456126 65.7929771,21.5487414 65.7929771,24.120789 L65.7929771,31.6596035 L54.1684795,31.6596035 C54.1677751,31.6596035 54.1672116,31.659747 54.1665072,31.659747 C54.1359357,31.659747 54.1055051,31.6616137 54.0752153,31.6643418 C54.0415444,31.6673571 54.0082961,31.672239 53.9756114,31.6784132 C53.9706805,31.6792747 53.9658905,31.6797054 53.9609596,31.6807105 C53.9333466,31.6863104 53.9062972,31.6937768 53.8793886,31.7015304 C53.8734716,31.7032535 53.8674136,31.7044021 53.8616374,31.7062688 C53.8376874,31.7137352 53.8144418,31.7226375 53.7911962,31.7316834 C53.7823206,31.7351294 53.7733041,31.7380012 53.7644285,31.7417344 C53.7449867,31.7499188 53.7262493,31.759539 53.707512,31.768872 C53.6951143,31.7749026 53.6825758,31.7805025 53.6704599,31.7869638 C53.6558081,31.794861 53.6420016,31.8039069 53.6279133,31.812522 C53.6122754,31.8219987 53.5963557,31.8311882 53.5811404,31.8415263 C53.5708559,31.8484184 53.5614168,31.8563156 53.551555,31.8636385 C53.5335221,31.8768484 53.5153482,31.8899146 53.4981606,31.9044168 C53.4906938,31.9107345 53.4837905,31.9177702 53.4766055,31.9242316 C53.4581499,31.9406003 53.4396943,31.9568255 53.4222249,31.9746301 C53.4119405,31.9851118 53.4026422,31.9965987 53.3929213,32.0075112 C53.3792557,32.0225877 53.3651675,32.037377 53.3522063,32.0534586 C53.3303695,32.0805962 53.3099415,32.108739 53.2907815,32.1378868 C53.2903589,32.1383176 53.2899362,32.1388919 53.2896544,32.1394663 L47.6546358,40.7547414 C47.6153296,40.8147602 47.5820813,40.8783686 47.5557363,40.9445615 C47.5457337,40.9692582 47.5377033,40.9943857 47.529673,41.0193696 C47.527278,41.0269796 47.5241786,41.0343025 47.5219245,41.0419125 C47.5140351,41.0684758 47.5079771,41.0953263 47.502201,41.1220332 C47.5006512,41.1290689 47.4986789,41.135961 47.4972701,41.1429967 C47.4926209,41.1671191 47.4895215,41.191385 47.486563,41.215651 C47.4852951,41.2259891 47.4833227,41.2363273 47.4823365,41.246809 C47.4803642,41.2667674 47.4799415,41.2865822 47.4792371,41.3065406 C47.4785327,41.3217607 47.4772648,41.3369808 47.4772648,41.3523444 C47.4772648,41.3671337 47.4785327,41.381923 47.4790962,41.3967123 C47.4798006,41.4171015 47.4803642,41.4376342 47.4823365,41.4580234 C47.4833227,41.4679308 47.4851542,41.4778382 47.4864221,41.4877456 C47.4895215,41.5124423 47.4926209,41.537139 47.497411,41.5616921 C47.4986789,41.5684406 47.5006512,41.5750456 47.502201,41.5817941 C47.5079771,41.6087882 47.514176,41.6357822 47.5220654,41.6626327 C47.5243195,41.6702428 47.5274189,41.6775656 47.5298139,41.6853192 C47.5378442,41.7103031 47.5458745,41.7354306 47.5558772,41.7601273 C47.5823631,41.8261766 47.6156114,41.8899286 47.6550585,41.950091 L53.2899362,50.5640738 C53.290218,50.5645046 53.2904997,50.5647918 53.2907815,50.5652225 C53.3134636,50.5995395 53.3382589,50.632277 53.3644631,50.6637222 C53.3730569,50.6740604 53.3822142,50.6836806 53.3910898,50.6934444 C53.4089819,50.7134028 53.4275784,50.7326433 53.4468793,50.7511658 C53.4582908,50.7620783 53.4695614,50.7727036 53.4811138,50.7828982 C53.5016826,50.8008464 53.5229559,50.8176459 53.5447927,50.8340146 C53.5546544,50.8413375 53.5640936,50.8493783 53.5740962,50.8562704 C53.6057948,50.878239 53.6386204,50.8984845 53.6725731,50.9168635 C53.6811669,50.9214582 53.6900425,50.925335 53.6986364,50.9296426 C53.7256858,50.9434268 53.7532988,50.9562059 53.7816162,50.9675492 C53.792605,50.9720003 53.8035938,50.9760207 53.8147236,50.9800411 C53.8416321,50.9898049 53.8689633,50.9984201 53.8968581,51.0060301 C53.9082695,51.0090454 53.9195401,51.0122043 53.9310925,51.015076 C53.9596917,51.0218245 53.9887135,51.0269936 54.0181579,51.0313012 C54.028865,51.0328806 54.0394312,51.0350344 54.0501382,51.0363266 C54.0864859,51.0404906 54.1233971,51.042788 54.1608719,51.0430752 C54.1638304,51.0430752 54.1667889,51.0436495 54.1698884,51.0436495 C54.1704519,51.0436495 54.1711563,51.0435059 54.1718607,51.0435059 L65.7933998,51.0435059 L65.7933998,58.5828947 C65.7933998,61.1562345 63.7393328,63.2497115 61.2147182,63.2497115 L6.69318713,63.2497115 C4.16857257,63.2497115 2.11450558,61.1562345 2.11450558,58.5828947 C2.11450558,58.5772949 2.11380117,58.5718387 2.11366029,58.5662388 L2.11366029,54.2738931 C2.11366029,53.6808849 1.64029506,53.1970016 1.05704147,53.1970016 C0.475196704,53.1970016 0.000422647528,53.6808849 0.000422647528,54.2738931 L0.000422647528,58.5828947 C0.000422647528,58.5940944 0.00169059011,58.6050069 0.00211323764,58.616063 C0.0197235513,62.361635 3.01418129,65.4034944 6.69318713,65.4034944 L61.2147182,65.4034944 C64.9042903,65.4034944 67.9060739,62.3444048 67.9066374,58.5840434 C67.9066374,58.5838998 67.9066374,58.5837563 67.9066374,58.5834691 L67.9066374,51.0435059 L68.9626927,51.0435059 C70.7101994,51.0435059 72.1319856,49.5944408 72.1319856,47.8134059 L72.1319856,30.5819941 C72.131563,28.8009592 70.7097767,27.3518941 68.9622701,27.3518941 Z M13.0879851,2.48919868 L31.7322355,7.91859819 C31.7330808,7.91888536 31.734067,7.91902895 31.7349123,7.91931612 L44.2306273,11.5580605 L10.8640138,11.5580605 L13.0879851,2.48919868 Z M65.7928363,19.1534477 C64.5949123,18.005625 62.9843434,17.3001893 61.2142956,17.3001893 C61.2124641,17.3001893 61.2107735,17.3004765 61.2088012,17.3004765 L6.6926236,17.3004765 C4.16786816,17.3004765 2.11380117,15.2069995 2.11380117,12.6338033 C2.11380117,10.0606071 4.16786816,7.9671301 6.6926236,7.9671301 L9.56634503,7.9671301 L8.68582935,11.5580605 L6.69290537,11.5580605 C6.10937002,11.5580605 5.63628655,12.0402207 5.63628655,12.634952 C5.63628655,13.2296832 6.10937002,13.7118434 6.69290537,13.7118434 L9.50717438,13.7118434 C9.5085832,13.7118434 9.51013291,13.7121306 9.51168262,13.7121306 C9.51280968,13.7121306 9.51393674,13.7118434 9.51492291,13.7118434 L51.7713636,13.7118434 C51.7727725,13.7118434 51.7740404,13.7121306 51.7753083,13.7121306 C51.7764354,13.7121306 51.7775625,13.7118434 51.7786895,13.7118434 L59.8042026,13.7118434 C60.3877379,13.7118434 60.8608214,13.2296832 60.8608214,12.634952 C60.8608214,12.0402207 60.3877379,11.5580605 59.8042026,11.5580605 L51.9228123,11.5580605 L39.5915072,7.9671301 L61.2141547,7.9671301 C63.7387693,7.9671301 65.7928363,10.0606071 65.7928363,12.6338033 L65.7928363,19.1534477 Z M70.0183254,47.8128316 L70.0183254,47.8128316 C70.0183254,48.4062706 69.5445375,48.8891487 68.9622701,48.8891487 L54.7339819,48.8891487 L49.803235,41.3517701 L54.7339819,33.8132428 L68.9622701,33.8132428 C68.9770627,33.8132428 68.9914327,33.8115197 69.0060845,33.8109454 C69.3605449,33.8059199 69.7009171,33.7415936 70.0183254,33.6270123 L70.0183254,47.8128316 L70.0183254,47.8128316 Z M68.9622701,31.6583112 C68.9549442,31.6583112 68.9477592,31.6593163 68.9404333,31.6594599 L67.9062148,31.6594599 L67.9062148,29.505677 L68.9622701,29.505677 C69.5445375,29.505677 70.0183254,29.9885551 70.0183254,30.5819941 C70.0183254,31.1754331 69.5445375,31.6583112 68.9622701,31.6583112 Z" id="Shape"></path>
                    <path d="M58.3956592,37.4030245 C56.2593169,37.4030245 54.5213902,39.1744391 54.5213902,41.3517701 C54.5213902,43.529101 56.2593169,45.300372 58.3956592,45.300372 C60.5320016,45.300372 62.2699282,43.529101 62.2699282,41.3517701 C62.2699282,39.1744391 60.5320016,37.4030245 58.3956592,37.4030245 Z M58.3956592,43.1465891 C57.4245561,43.1465891 56.6346279,42.3415051 56.6346279,41.3517701 C56.6346279,40.362035 57.4245561,39.5568074 58.3956592,39.5568074 C59.3667624,39.5568074 60.1566906,40.362035 60.1566906,41.3517701 C60.1566906,42.3415051 59.3667624,43.1465891 58.3956592,43.1465891 Z" id="Shape"></path>
                </g>
                <g id="Group-4-Copy" transform="translate(65.848485, 0.000000)">
                    <ellipse id="Oval" fill="#FFFFFF" cx="19.2727273" cy="20.2083333" rx="19.2727273" ry="19.4"></ellipse>
                    <path d="M34.04051,5.86271307 C30.2741794,2.08213105 25.266608,0 19.9402164,0 C14.6138248,0 9.60625334,2.08213105 5.83984485,5.86271307 C2.56292225,9.15218144 0.519996359,13.5101993 0.0872173063,18.1339861 C-0.339719697,22.6969408 0.810385184,27.2992253 3.32597185,31.0928651 C3.56440538,31.4524626 4.04812711,31.5496532 4.40597213,31.3105471 C4.76412874,31.0712846 4.86118466,30.5858789 4.62275113,30.2263596 C-0.20535255,22.9450388 0.769802411,13.1636596 6.94149966,6.96855931 C14.1089938,-0.226282897 25.771439,-0.226282897 32.9389331,6.96855931 C36.411058,10.4538163 38.3231999,15.0877679 38.3231999,20.0167317 C38.3231999,24.9456955 36.411058,29.5796471 32.9389331,33.0649042 C26.5168845,39.5114646 16.5244867,40.317529 9.17962791,34.981428 C8.83113016,34.7283258 8.34405899,34.8065162 8.09191612,35.1564181 C7.83969536,35.5062417 7.91774514,35.9950878 8.26616499,36.2482682 C11.6597728,38.7136884 15.7572308,40.0333853 19.9445005,40.0332289 C20.4429442,40.0332289 20.9433353,40.0144632 21.4433369,39.9767755 C26.1937802,39.618429 30.6675441,37.5563929 34.04051,34.1706722 C37.8068406,30.390012 39.881002,25.3633884 39.881002,20.0166535 C39.881002,14.6699187 37.8068406,9.64345146 34.04051,5.86271307 Z" id="Path" stroke="#000000" stroke-width="0.671422101" fill="#000000" fill-rule="nonzero"></path>
                    <ellipse id="Oval" fill="#FFB600" cx="19.7212213" cy="20.3473658" rx="11.9350331" ry="12.0138493"></ellipse>
                    <path d="M19.7062651,19.1259135 C18.520468,19.1259135 17.5557798,18.2859424 17.5557798,17.2535312 C17.5557798,16.2210217 18.520468,15.3810506 19.7062651,15.3810506 C20.8920622,15.3810506 21.8567504,16.2210217 21.8567504,17.2535312 C21.8567504,17.7965329 22.2944719,18.2368736 22.8342437,18.2368736 C23.3740155,18.2368736 23.811737,17.7965329 23.811737,17.2535312 C23.811737,15.4515563 22.4770676,13.9364223 20.6837584,13.5251885 L20.6837584,13.0137521 C20.6837584,12.4707505 20.2460369,12.0304098 19.7062651,12.0304098 C19.1664933,12.0304098 18.7287718,12.4707505 18.7287718,13.0137521 L18.7287718,13.5251885 C16.9354626,13.9364223 15.6007932,15.4515563 15.6007932,17.2535312 C15.6007932,19.3703724 17.4424884,21.0925982 19.7062651,21.0925982 C20.8920622,21.0925982 21.8567504,21.9325693 21.8567504,22.9650788 C21.8567504,23.9975883 20.8920622,24.8375594 19.7062651,24.8375594 C18.520468,24.8375594 17.5557798,23.9975883 17.5557798,22.9650788 C17.5557798,22.4220772 17.1180583,21.9817364 16.5782865,21.9817364 C16.0385147,21.9817364 15.6007932,22.4220772 15.6007932,22.9650788 C15.6007932,24.7670538 16.9354626,26.2821877 18.7287718,26.6934215 L18.7287718,27.1182254 C18.7287718,27.6612271 19.1664933,28.1015678 19.7062651,28.1015678 C20.2460369,28.1015678 20.6837584,27.6612271 20.6837584,27.1182254 L20.6837584,26.6934215 C22.4770676,26.2821877 23.811737,24.7670538 23.811737,22.9650788 C23.811737,20.8481393 21.9700419,19.1259135 19.7062651,19.1259135 Z" id="Path" fill="#000000" fill-rule="nonzero"></path>
                    <path d="M28.9660472,11.0151531 L28.9316768,10.9804585 C28.5529209,10.5960728 27.9363958,10.5936226 27.5546215,10.974676 C27.1728473,11.3558274 27.1703157,11.9764113 27.5488769,12.360699 L27.5832473,12.3953937 C27.7736963,12.5886646 28.0241231,12.6853 28.2746472,12.6853 C28.5225425,12.6853 28.7704377,12.5906247 28.9603025,12.4011761 C29.3420768,12.0200247 29.3446083,11.3994408 28.9660472,11.0151531 Z" id="Path" fill="#000000" fill-rule="nonzero"></path>
                    <path d="M30.2561609,13.8093573 C30.0869015,13.5244938 29.7202024,13.4316427 29.4372675,13.6022002 C29.1543325,13.7725774 29.06221,14.1416379 29.2315292,14.4265015 C31.7903025,18.7311255 31.1128467,24.2185341 27.5838912,27.7707339 C23.3472699,32.035393 16.4536033,32.035393 12.2169821,27.7707339 C7.98030109,23.506135 7.98030109,16.5670043 12.2169821,12.3023452 C15.7437285,8.75218874 21.1929879,8.06899711 25.4684165,10.6407015 C25.7514709,10.8108985 26.1179908,10.7179873 26.2871905,10.4330637 C26.4563306,10.1481401 26.3639692,9.77919979 26.0809746,9.60894277 C23.8170769,8.24718705 21.1195526,7.66886606 18.4860902,7.98005239 C15.7701772,8.30115486 13.310452,9.50184851 11.3726549,11.4524423 C6.67046563,16.1857439 6.67046563,23.8873352 11.3726549,28.6206368 C13.7237794,30.9872876 16.812123,32.170613 19.9004665,32.170613 C22.98881,32.170613 26.0771535,30.9872876 28.428278,28.6206368 C30.3669109,26.6692016 31.5598469,24.192031 31.8781861,21.4569207 C32.1869727,18.8043847 31.6108934,16.0883855 30.2561609,13.8093573 Z" id="Path" stroke="#000000" stroke-width="0.671422101" fill="#000000" fill-rule="nonzero"></path>
                    <path d="M6.47273358,32.9716231 L6.445237,32.9439437 C6.14222935,32.6372811 5.64900455,32.6353263 5.34358219,32.9393304 C5.03815982,33.2434128 5.03613458,33.7385141 5.33898644,34.0450985 L5.36648302,34.0727779 C5.51884368,34.2268911 5.71918705,34.304065 5.9196083,34.304065 C6.11792642,34.304065 6.31624454,34.2285331 6.46813784,34.0773911 C6.7735602,33.7733088 6.77558545,33.2782075 6.47273358,32.9716231 Z" id="Path" fill="#000000" fill-rule="nonzero"></path>
                </g>
            </g>
        </g>
    </g>
</svg>