<?xml version="1.0" encoding="UTF-8"?>
<svg width="164px" height="49px" viewBox="0 0 164 49" version="1.1" xmlns="http://www.w3.org/2000/svg" xmlns:xlink="http://www.w3.org/1999/xlink">
    <!-- Generator: sketchtool 54 (76480) - https://sketchapp.com -->
    <title>0DCFDC0C-77CD-4CC7-82E6-6F3A9359217D</title>
    <desc>Created with sketchtool.</desc>
    <defs>
        <linearGradient x1="60.8414454%" y1="4.84%" x2="26.5108835%" y2="71.968%" id="linearGradient-1">
            <stop stop-color="#00A0FF" offset="0%"></stop>
            <stop stop-color="#00A1FF" offset="0.7%"></stop>
            <stop stop-color="#00BEFF" offset="26%"></stop>
            <stop stop-color="#00D2FF" offset="51.2%"></stop>
            <stop stop-color="#00DFFF" offset="76%"></stop>
            <stop stop-color="#00E3FF" offset="100%"></stop>
        </linearGradient>
        <linearGradient x1="107.724138%" y1="49.4235294%" x2="-130.669951%" y2="49.4235294%" id="linearGradient-2">
            <stop stop-color="#FFE000" offset="0%"></stop>
            <stop stop-color="#FFBD00" offset="40.9%"></stop>
            <stop stop-color="#FFA500" offset="77.5%"></stop>
            <stop stop-color="#FF9C00" offset="100%"></stop>
        </linearGradient>
        <linearGradient x1="86.3892216%" y1="30.5064856%" x2="-49.8862275%" y2="137.450633%" id="linearGradient-3">
            <stop stop-color="#FF3A44" offset="0%"></stop>
            <stop stop-color="#C31162" offset="100%"></stop>
        </linearGradient>
        <linearGradient x1="-18.5808383%" y1="-12.7219592%" x2="42.2754491%" y2="34.814246%" id="linearGradient-4">
            <stop stop-color="#32A071" offset="0%"></stop>
            <stop stop-color="#2DA771" offset="6.9%"></stop>
            <stop stop-color="#15CF74" offset="47.6%"></stop>
            <stop stop-color="#06E775" offset="80.1%"></stop>
            <stop stop-color="#00F076" offset="100%"></stop>
        </linearGradient>
    </defs>
    <g id="Assets" stroke="none" stroke-width="1" fill="none" fill-rule="evenodd">
        <g id="kyc" transform="translate(-223.000000, -218.000000)" fill-rule="nonzero">
            <g id="google-play-badge" transform="translate(223.000000, 218.000000)">
                <path d="M157.925926,49 L6.07407407,49 C2.67259259,49 0,46.305 0,42.875 L0,6.125 C0,2.695 2.67259259,0 6.07407407,0 L157.925926,0 C161.327407,0 164,2.695 164,6.125 L164,42.875 C164,46.305 161.327407,49 157.925926,49 Z" id="Path" fill="#000000"></path>
                <path d="M157.925926,0.98 C160.72,0.98 163.028148,3.3075 163.028148,6.125 L163.028148,42.875 C163.028148,45.6925 160.72,48.02 157.925926,48.02 L6.07407407,48.02 C3.28,48.02 0.971851852,45.6925 0.971851852,42.875 L0.971851852,6.125 C0.971851852,3.3075 3.28,0.98 6.07407407,0.98 L157.925926,0.98 L157.925926,0.98 Z M157.925926,0 L6.07407407,0 C2.67259259,0 0,2.8175 0,6.125 L0,42.875 C0,46.305 2.67259259,49 6.07407407,49 L157.925926,49 C161.327407,49 164,46.305 164,42.875 L164,6.125 C164,2.8175 161.327407,0 157.925926,0 Z" id="Shape" fill="#A6A6A6"></path>
                <path d="M57.5822222,12.495 C57.5822222,13.475 57.3392593,14.3325 56.7318519,14.945 C56.002963,15.68 55.1525926,16.0475 54.0592593,16.0475 C52.9659259,16.0475 52.1155556,15.68 51.3866667,14.945 C50.6577778,14.21 50.2933333,13.3525 50.2933333,12.25 C50.2933333,11.1475 50.6577778,10.29 51.3866667,9.555 C52.1155556,8.82 52.9659259,8.4525 54.0592593,8.4525 C54.5451852,8.4525 55.0311111,8.575 55.517037,8.82 C56.002963,9.065 56.3674074,9.31 56.6103704,9.6775 L56.002963,10.29 C55.517037,9.6775 54.9096296,9.4325 54.0592593,9.4325 C53.3303704,9.4325 52.6014815,9.6775 52.1155556,10.29 C51.5081481,10.78 51.2651852,11.515 51.2651852,12.3725 C51.2651852,13.23 51.5081481,13.965 52.1155556,14.455 C52.722963,14.945 53.3303704,15.3125 54.0592593,15.3125 C54.9096296,15.3125 55.517037,15.0675 56.1244444,14.455 C56.4888889,14.0875 56.7318519,13.5975 56.7318519,12.985 L54.0592593,12.985 L54.0592593,12.005 L57.5822222,12.005 L57.5822222,12.495 L57.5822222,12.495 Z M63.1703704,9.4325 L59.8903704,9.4325 L59.8903704,11.76 L62.9274074,11.76 L62.9274074,12.6175 L59.8903704,12.6175 L59.8903704,14.945 L63.1703704,14.945 L63.1703704,15.925 L58.9185185,15.925 L58.9185185,8.575 L63.1703704,8.575 L63.1703704,9.4325 Z M67.1792593,15.925 L66.2074074,15.925 L66.2074074,9.4325 L64.1422222,9.4325 L64.1422222,8.575 L69.2444444,8.575 L69.2444444,9.4325 L67.1792593,9.4325 L67.1792593,15.925 Z M72.7674074,15.925 L72.7674074,8.575 L73.7392593,8.575 L73.7392593,15.925 L72.7674074,15.925 Z M77.8696296,15.925 L76.8977778,15.925 L76.8977778,9.4325 L74.8325926,9.4325 L74.8325926,8.575 L79.8133333,8.575 L79.8133333,9.4325 L77.7481481,9.4325 L77.7481481,15.925 L77.8696296,15.925 Z M89.4103704,14.945 C88.6814815,15.68 87.8311111,16.0475 86.7377778,16.0475 C85.6444444,16.0475 84.7940741,15.68 84.0651852,14.945 C83.3362963,14.21 82.9718519,13.3525 82.9718519,12.25 C82.9718519,11.1475 83.3362963,10.29 84.0651852,9.555 C84.7940741,8.82 85.6444444,8.4525 86.7377778,8.4525 C87.8311111,8.4525 88.6814815,8.82 89.4103704,9.555 C90.1392593,10.29 90.5037037,11.1475 90.5037037,12.25 C90.5037037,13.3525 90.1392593,14.21 89.4103704,14.945 Z M84.7940741,14.3325 C85.28,14.8225 86.0088889,15.19 86.7377778,15.19 C87.4666667,15.19 88.1955556,14.945 88.6814815,14.3325 C89.1674074,13.8425 89.5318519,13.1075 89.5318519,12.25 C89.5318519,11.3925 89.2888889,10.6575 88.6814815,10.1675 C88.1955556,9.6775 87.4666667,9.31 86.7377778,9.31 C86.0088889,9.31 85.28,9.555 84.7940741,10.1675 C84.3081481,10.6575 83.9437037,11.3925 83.9437037,12.25 C83.9437037,13.1075 84.1866667,13.8425 84.7940741,14.3325 Z M91.84,15.925 L91.84,8.575 L92.9333333,8.575 L96.4562963,14.3325 L96.4562963,8.575 L97.4281481,8.575 L97.4281481,15.925 L96.4562963,15.925 L92.6903704,9.9225 L92.6903704,15.925 L91.84,15.925 L91.84,15.925 Z" id="Shape" stroke="#FFFFFF" stroke-width="0.546153846" fill="#FFFFFF"></path>
                <path d="M82.7288889,26.705 C79.8133333,26.705 77.5051852,28.91 77.5051852,31.9725 C77.5051852,34.9125 79.8133333,37.24 82.7288889,37.24 C85.6444444,37.24 87.9525926,35.035 87.9525926,31.9725 C87.9525926,28.7875 85.6444444,26.705 82.7288889,26.705 Z M82.7288889,35.035 C81.1496296,35.035 79.8133333,33.6875 79.8133333,31.85 C79.8133333,30.0125 81.1496296,28.665 82.7288889,28.665 C84.3081481,28.665 85.6444444,29.89 85.6444444,31.85 C85.6444444,33.6875 84.3081481,35.035 82.7288889,35.035 Z M71.4311111,26.705 C68.5155556,26.705 66.2074074,28.91 66.2074074,31.9725 C66.2074074,34.9125 68.5155556,37.24 71.4311111,37.24 C74.3466667,37.24 76.6548148,35.035 76.6548148,31.9725 C76.6548148,28.7875 74.3466667,26.705 71.4311111,26.705 Z M71.4311111,35.035 C69.8518519,35.035 68.5155556,33.6875 68.5155556,31.85 C68.5155556,30.0125 69.8518519,28.665 71.4311111,28.665 C73.0103704,28.665 74.3466667,29.89 74.3466667,31.85 C74.3466667,33.6875 73.0103704,35.035 71.4311111,35.035 Z M57.9466667,28.2975 L57.9466667,30.5025 L63.1703704,30.5025 C63.0488889,31.7275 62.562963,32.7075 61.9555556,33.32 C61.2266667,34.055 60.0118519,34.9125 57.9466667,34.9125 C54.6666667,34.9125 52.237037,32.34 52.237037,29.0325 C52.237037,25.725 54.7881481,23.1525 57.9466667,23.1525 C59.6474074,23.1525 60.9837037,23.8875 61.9555556,24.745 L63.5348148,23.1525 C62.1985185,21.9275 60.4977778,20.9475 58.0681481,20.9475 C53.6948148,20.9475 49.9288889,24.6225 49.9288889,29.0325 C49.9288889,33.4425 53.6948148,37.1175 58.0681481,37.1175 C60.4977778,37.1175 62.1985185,36.3825 63.6562963,34.79 C65.1140741,33.32 65.6,31.2375 65.6,29.645 C65.6,29.155 65.6,28.665 65.4785185,28.2975 L57.9466667,28.2975 L57.9466667,28.2975 Z M113.099259,30.0125 C112.613333,28.7875 111.398519,26.705 108.725926,26.705 C106.053333,26.705 103.866667,28.7875 103.866667,31.9725 C103.866667,34.9125 106.053333,37.24 108.968889,37.24 C111.277037,37.24 112.734815,35.77 113.220741,34.9125 L111.52,33.6875 C110.912593,34.545 110.183704,35.1575 108.968889,35.1575 C107.754074,35.1575 107.025185,34.6675 106.417778,33.565 L113.342222,30.625 L113.099259,30.0125 L113.099259,30.0125 Z M106.053333,31.7275 C106.053333,29.7675 107.632593,28.665 108.725926,28.665 C109.576296,28.665 110.426667,29.155 110.66963,29.7675 L106.053333,31.7275 Z M100.343704,36.75 L102.651852,36.75 L102.651852,21.4375 L100.343704,21.4375 L100.343704,36.75 Z M96.6992593,27.8075 C96.0918519,27.195 95.12,26.5825 93.9051852,26.5825 C91.3540741,26.5825 88.9244444,28.91 88.9244444,31.85 C88.9244444,34.79 91.2325926,36.995 93.9051852,36.995 C95.12,36.995 96.0918519,36.3825 96.5777778,35.77 L96.6992593,35.77 L96.6992593,36.505 C96.6992593,38.465 95.6059259,39.5675 93.9051852,39.5675 C92.5688889,39.5675 91.597037,38.5875 91.3540741,37.73 L89.4103704,38.5875 C90.0177778,39.935 91.4755556,41.65 94.0266667,41.65 C96.6992593,41.65 98.8859259,40.0575 98.8859259,36.26 L98.8859259,26.95 L96.6992593,26.95 L96.6992593,27.8075 L96.6992593,27.8075 Z M94.0266667,35.035 C92.4474074,35.035 91.1111111,33.6875 91.1111111,31.85 C91.1111111,30.0125 92.4474074,28.665 94.0266667,28.665 C95.6059259,28.665 96.8207407,30.0125 96.8207407,31.85 C96.8207407,33.6875 95.6059259,35.035 94.0266667,35.035 Z M123.668148,21.4375 L118.201481,21.4375 L118.201481,36.75 L120.50963,36.75 L120.50963,30.9925 L123.668148,30.9925 C126.219259,30.9925 128.648889,29.155 128.648889,26.215 C128.648889,23.275 126.219259,21.4375 123.668148,21.4375 L123.668148,21.4375 Z M123.78963,28.7875 L120.50963,28.7875 L120.50963,23.52 L123.78963,23.52 C125.49037,23.52 126.462222,24.99 126.462222,26.0925 C126.340741,27.44 125.368889,28.7875 123.78963,28.7875 Z M137.76,26.5825 C136.059259,26.5825 134.358519,27.3175 133.751111,28.91 L135.816296,29.7675 C136.302222,28.91 137.031111,28.665 137.881481,28.665 C139.096296,28.665 140.18963,29.4 140.311111,30.625 L140.311111,30.7475 C139.946667,30.5025 138.974815,30.135 138.002963,30.135 C135.816296,30.135 133.62963,31.36 133.62963,33.565 C133.62963,35.6475 135.451852,36.995 137.395556,36.995 C138.974815,36.995 139.703704,36.26 140.311111,35.525 L140.432593,35.525 L140.432593,36.75 L142.619259,36.75 L142.619259,30.87 C142.376296,28.175 140.311111,26.5825 137.76,26.5825 L137.76,26.5825 Z M137.517037,35.035 C136.788148,35.035 135.694815,34.6675 135.694815,33.6875 C135.694815,32.4625 137.031111,32.095 138.124444,32.095 C139.096296,32.095 139.582222,32.34 140.18963,32.585 C139.946667,34.055 138.731852,35.035 137.517037,35.035 L137.517037,35.035 Z M150.272593,26.95 L147.721481,33.565 L147.6,33.565 L144.927407,26.95 L142.497778,26.95 L146.506667,36.26 L144.198519,41.405 L146.506667,41.405 L152.702222,26.95 L150.272593,26.95 L150.272593,26.95 Z M129.863704,36.75 L132.171852,36.75 L132.171852,21.4375 L129.863704,21.4375 L129.863704,36.75 Z" id="Shape" fill="#FFFFFF"></path>
                <g id="Group" transform="translate(12.148148, 8.575000)">
                    <path d="M0.485925926,0.6125 C0.121481481,0.98 0,1.5925 0,2.3275 L0,29.4 C0,30.135 0.242962963,30.7475 0.607407407,31.115 L0.728888889,31.2375 L15.7925926,16.0475 L15.7925926,15.8025 L0.485925926,0.6125 Z" id="Path" fill="url(#linearGradient-1)"></path>
                    <path d="M20.6518519,21.1925 L15.6711111,16.17 L15.6711111,15.8025 L20.6518519,10.78 L20.7733333,10.9025 L26.7259259,14.3325 C28.4266667,15.3125 28.4266667,16.905 26.7259259,17.885 L20.6518519,21.1925 L20.6518519,21.1925 Z" id="Path" fill="url(#linearGradient-2)"></path>
                    <path d="M20.7733333,21.07 L15.6711111,15.925 L0.485925926,31.2375 C1.09333333,31.85 1.9437037,31.85 3.03703704,31.36 L20.7733333,21.07" id="Path" fill="url(#linearGradient-3)"></path>
                    <path d="M20.7733333,10.78 L3.03703704,0.6125 C1.9437037,8.32667268e-17 1.09333333,0.1225 0.485925926,0.735 L15.6711111,15.925 L20.7733333,10.78 L20.7733333,10.78 Z" id="Path" fill="url(#linearGradient-4)"></path>
                    <path d="M20.6518519,20.9475 L3.03703704,30.9925 C2.06518519,31.605 1.21481481,31.4825 0.607407407,30.9925 L0.485925926,31.115 L0.607407407,31.2375 C1.21481481,31.7275 2.06518519,31.85 3.03703704,31.2375 L20.6518519,20.9475 Z" id="Path" fill="#000000" opacity="0.2"></path>
                    <path d="M0.485925926,30.9925 C0.121481481,30.625 1.66533454e-16,30.0125 1.66533454e-16,29.2775 L1.66533454e-16,29.4 C1.66533454e-16,30.135 0.242962963,30.7475 0.607407407,31.115 L0.607407407,30.9925 L0.485925926,30.9925 Z M26.7259259,17.5175 L20.6518519,20.9475 L20.7733333,21.07 L26.7259259,17.64 C27.5762963,17.15 27.9407407,16.5375 27.9407407,15.925 C27.9407407,16.5375 27.4548148,17.0275 26.7259259,17.5175 L26.7259259,17.5175 Z" id="Shape" fill="#000000" opacity="0.12"></path>
                    <path d="M3.03703704,0.735 L26.7259259,14.3325 C27.4548148,14.8225 27.9407407,15.3125 27.9407407,15.925 C27.9407407,15.3125 27.5762963,14.7 26.7259259,14.21 L3.03703704,0.6125 C1.3362963,-0.3675 0,0.3675 0,2.3275 L0,2.45 C0,0.6125 1.3362963,-0.245 3.03703704,0.735 Z" id="Path" fill="#FFFFFF" opacity="0.25"></path>
                </g>
            </g>
        </g>
    </g>
</svg>