<?xml version="1.0" encoding="UTF-8"?>
<svg width="1941px" height="713px" viewBox="0 0 1941 713" version="1.1" xmlns="http://www.w3.org/2000/svg" xmlns:xlink="http://www.w3.org/1999/xlink">
    <!-- Generator: Sketch 54 (76480) - https://sketchapp.com -->
    <title>graph</title>
    <desc>Created with Sketch.</desc>
    <defs>
        <linearGradient x1="50%" y1="44.4855148%" x2="46.9340308%" y2="61.3113845%" id="linearGradient-1">
            <stop stop-color="#FFE800" stop-opacity="0" offset="0%"></stop>
            <stop stop-color="#DDB154" offset="100%"></stop>
        </linearGradient>
    </defs>
    <g id="Symbols" stroke="none" stroke-width="1" fill="none" fill-rule="evenodd" opacity="0.800000012">
        <g id="footer" transform="translate(13.000000, 1.000000)">
            <g id="graph" transform="translate(-43.000000, 0.000000)">
                <polyline id="Graph-Copy" fill="url(#linearGradient-1)" opacity="0.400000006" transform="translate(1003.342382, 407.015532) rotate(-3.000000) translate(-1003.342382, -407.015532) " points="17.7358889 653.75549 23.9488744 528.509769 68.3011806 555.285014 99.1549588 541.897391 122.295292 574.920193 146.887413 543.541495 177.2873 518.417177 185.93121 555.285014 216.784988 599.910421 255.352211 541.897391 274.635822 555.285014 295.847795 541.897391 334.415018 555.285014 371.053879 517.799671 434.689797 517.799671 461.686853 517.799671 502.182437 499.949509 588.958688 499.949509 623.669188 517.799671 658.379689 499.949509 698.875273 499.949509 754.797746 499.949509 793.364969 517.799671 818.433663 489.239411 849.287442 499.949509 889.783026 474.959281 912.923359 474.959281 936.063693 462.464167 964.98911 474.959281 991.986166 462.464167 1020.91158 435.688922 1055.62208 394.633548 1103.83111 374.998369 1126.97145 357.148206 1148.18342 424.978825 1173.25211 424.978825 1190.60736 405.343645 1246.52984 435.688922 1265.81345 405.343645 1296.66723 424.978825 1321.73592 357.148206 1339.09117 394.633548 1362.2315 357.148206 1391.15692 374.998369 1410.44053 357.148206 1433.58087 357.148206 1447.07939 339.298043 1476.00481 357.148206 1510.71531 357.148206 1537.71237 339.298043 1549.28253 357.148206 1587.84976 357.148206 1622.56026 339.298043 1664.9842 339.298043 1695.83798 339.298043 1751.76045 275.037456 1792.25604 233.982082 1813.46801 233.982082 1834.67998 175.076544 1884.81737 175.076544 1904.10098 114.385991 1950.38165 100.10586 1988.94887 51.9104207 1951.71495 762.120644"></polyline>
                <polyline id="Graph-Copy-2" stroke="#FFB600" stroke-width="3" stroke-linecap="round" stroke-linejoin="round" transform="translate(1002.199903, 325.858991) rotate(-3.000000) translate(-1002.199903, -325.858991) " points="19.6999035 528.45834 64.0522097 555.233584 94.9059879 541.845962 118.046322 574.868763 142.638442 543.490066 173.038329 518.365748 181.682239 555.233584 212.536017 599.858991 251.10324 541.845962 270.386851 555.233584 291.598824 541.845962 330.166047 555.233584 366.804908 517.748242 430.440826 517.748242 457.437882 517.748242 497.933466 499.898079 584.709717 499.898079 619.420218 517.748242 654.130718 499.898079 694.626302 499.898079 750.548775 499.898079 789.115998 517.748242 814.184692 489.187981 845.038471 499.898079 885.534055 474.907851 908.674388 474.907851 931.814722 462.412737 960.740139 474.907851 987.737195 462.412737 1016.66261 435.637493 1051.37311 394.582118 1099.58214 374.946939 1122.72247 357.096776 1143.93445 424.927395 1169.00314 424.927395 1186.35839 405.292216 1242.28087 435.637493 1261.56448 405.292216 1292.41825 424.927395 1317.48695 357.096776 1334.8422 394.582118 1357.98253 357.096776 1386.90795 374.946939 1406.19156 357.096776 1429.3319 357.096776 1442.83042 339.246613 1471.75584 357.096776 1506.46634 357.096776 1533.4634 339.246613 1545.03356 357.096776 1583.60079 357.096776 1618.31129 339.246613 1660.73523 339.246613 1691.58901 339.246613 1747.51148 274.986027 1788.00707 233.930652 1809.21904 233.930652 1830.43101 175.025115 1880.5684 175.025115 1899.85201 114.334561 1946.13268 100.054431 1984.6999 51.8589911"></polyline>
            </g>
        </g>
    </g>
</svg>