<?xml version="1.0" encoding="UTF-8"?>
<svg width="79px" height="79px" viewBox="0 0 79 79" version="1.1" xmlns="http://www.w3.org/2000/svg" xmlns:xlink="http://www.w3.org/1999/xlink">
    <!-- Generator: sketchtool 52 (66869) - http://www.bohemiancoding.com/sketch -->
    <title>7139D25E-F231-4CB3-892D-64EDD57BDC96</title>
    <desc>Created with sketchtool.</desc>
    <g id="prompts" stroke="none" stroke-width="1" fill="none" fill-rule="evenodd">
        <g id="KYC" transform="translate(-1545.000000, -303.000000)" fill="#FFFFFF" fill-rule="nonzero">
            <g id="kyc" transform="translate(1545.000000, 303.000000)">
                <path d="M63.8799863,22.9516602 C64.7320137,22.9516602 65.4229551,22.260873 65.4229551,21.4086914 L65.4229551,4.62890625 C65.4229551,2.07652734 63.3464277,0 60.7940488,0 L4.62998633,0 C2.07760742,0 0.00108007813,2.07652734 0.00108007813,4.62890625 L0.00108007813,74.3710938 C0.00108007813,76.9234727 2.07760742,79 4.62998633,79 L60.7940488,79 C63.3464277,79 65.4229551,76.9234727 65.4229551,74.3710938 L65.4229551,63.0037344 C65.4229551,62.1515527 64.7320137,61.4607656 63.8799863,61.4607656 C63.027959,61.4607656 62.3370176,62.1515527 62.3370176,63.0037344 L62.3370176,74.3710938 C62.3370176,75.2218867 61.6448418,75.9140625 60.7940488,75.9140625 L4.62998633,75.9140625 C3.77919336,75.9140625 3.08701758,75.2218867 3.08701758,74.3710938 L3.08701758,4.62890625 C3.08701758,3.77811328 3.77919336,3.0859375 4.62998633,3.0859375 L60.7940488,3.0859375 C61.6448418,3.0859375 62.3370176,3.77811328 62.3370176,4.62890625 L62.3370176,21.4086914 C62.3370176,22.260873 63.027959,22.9516602 63.8799863,22.9516602 Z" id="Shape"></path>
                <path d="M32.7120176,8.33203125 C24.8846914,8.33203125 18.5167051,14.7000176 18.5167051,22.5273438 C18.5167051,26.5879746 20.2309434,30.2553027 22.9731074,32.8450215 C23.0244883,32.8999512 23.0791094,32.9519492 23.1388223,32.9993184 C25.6648164,35.3105313 29.0264824,36.722502 32.7118633,36.722502 C36.3972441,36.722502 39.7589102,35.310377 42.2849043,32.9993184 C42.3446172,32.9519492 42.3992383,32.8997969 42.4506191,32.8450215 C45.1930918,30.2553027 46.9073301,26.5879746 46.9073301,22.5273438 C46.9073301,14.7000176 40.5393438,8.33203125 32.7120176,8.33203125 Z M32.7120176,33.6367188 C30.1925039,33.6367188 27.86725,32.7924062 26.0014922,31.3734922 C27.3576074,28.9687754 29.8882305,27.4648438 32.7120176,27.4648438 C35.5358047,27.4648438 38.0664277,28.9687754 39.422543,31.3734922 C37.5566309,32.7924062 35.2315313,33.6367188 32.7120176,33.6367188 Z M30.2432676,21.9101563 L30.2432676,20.9072266 C30.2432676,19.5460195 31.3508105,18.4384766 32.7120176,18.4384766 C34.0732246,18.4384766 35.1807676,19.5460195 35.1807676,20.9072266 L35.1807676,21.9101563 C35.1807676,23.2713633 34.0732246,24.3789063 32.7120176,24.3789063 C31.3508105,24.3789063 30.2432676,23.2713633 30.2432676,21.9101563 Z M41.6519785,29.1131973 C40.5140391,27.425498 38.9369707,26.1128945 37.1059297,25.3025273 C37.832668,24.3633223 38.2667051,23.1868086 38.2667051,21.9101563 L38.2667051,20.9072266 C38.2667051,17.8442793 35.7749648,15.3525391 32.7120176,15.3525391 C29.6490703,15.3525391 27.1573301,17.8442793 27.1573301,20.9072266 L27.1573301,21.9101563 C27.1573301,23.1868086 27.5913672,24.3633223 28.3181055,25.3025273 C26.4870645,26.1128945 24.9099961,27.425498 23.7720566,29.1131973 C22.4097695,27.2688867 21.6026426,24.991002 21.6026426,22.5273438 C21.6026426,16.4016035 26.5862773,11.4179688 32.7120176,11.4179688 C38.8377578,11.4179688 43.8213926,16.4016035 43.8213926,22.5273438 C43.8213926,24.991002 43.0142656,27.2688867 41.6519785,29.1131973 Z" id="Shape"></path>
                <path d="M41.0440488,67.5820312 L32.7120176,67.5820312 C31.8599902,67.5820312 31.1690488,68.2728184 31.1690488,69.125 C31.1690488,69.9771816 31.8599902,70.6679688 32.7120176,70.6679688 L41.0440488,70.6679688 C41.8960762,70.6679688 42.5870176,69.9771816 42.5870176,69.125 C42.5870176,68.2728184 41.8960762,67.5820312 41.0440488,67.5820312 Z" id="Shape"></path>
                <path d="M41.0440488,58.9414062 L19.1338926,58.9414062 C18.2818652,58.9414062 17.5909238,59.6321934 17.5909238,60.484375 C17.5909238,61.3365566 18.2818652,62.0273438 19.1338926,62.0273438 L41.0440488,62.0273438 C41.8960762,62.0273438 42.5870176,61.3365566 42.5870176,60.484375 C42.5870176,59.6321934 41.8960762,58.9414062 41.0440488,58.9414062 Z" id="Shape"></path>
                <path d="M41.0440488,50.3007812 L19.1338926,50.3007812 C18.2818652,50.3007812 17.5909238,50.9915684 17.5909238,51.84375 C17.5909238,52.6959316 18.2818652,53.3867188 19.1338926,53.3867188 L41.0440488,53.3867188 C41.8960762,53.3867188 42.5870176,52.6959316 42.5870176,51.84375 C42.5870176,50.9915684 41.8960762,50.3007812 41.0440488,50.3007812 Z" id="Shape"></path>
                <path d="M13.6345977,42.1122461 C13.3477598,41.8252539 12.9496738,41.6601562 12.5423301,41.6601562 C12.136375,41.6601562 11.7382891,41.8252539 11.4514512,42.1122461 C11.164459,42.3992383 10.9993613,42.7973242 10.9993613,43.203125 C10.9993613,43.6089258 11.1643047,44.0070117 11.4514512,44.2940039 C11.7399863,44.5809961 12.136375,44.7460938 12.5423301,44.7460938 C12.9496738,44.7460938 13.3462168,44.5809961 13.6345977,44.2940039 C13.9215898,44.0070117 14.0868418,43.6089258 14.0868418,43.203125 C14.0868418,42.7973242 13.9217441,42.3992383 13.6345977,42.1122461 Z" id="Shape"></path>
                <path d="M13.6345977,50.7528711 C13.3462168,50.4658789 12.9496738,50.3007812 12.5423301,50.3007812 C12.136375,50.3007812 11.7399863,50.4658789 11.4514512,50.7528711 C11.164459,51.0398633 10.9993613,51.4379492 10.9993613,51.84375 C10.9993613,52.2495508 11.1643047,52.6476367 11.4514512,52.9346289 C11.7399863,53.2216211 12.136375,53.3867188 12.5423301,53.3867188 C12.9496738,53.3867188 13.3462168,53.2216211 13.6345977,52.9346289 C13.9215898,52.6476367 14.0868418,52.2495508 14.0868418,51.84375 C14.0868418,51.4379492 13.9217441,51.0398633 13.6345977,50.7528711 Z" id="Shape"></path>
                <path d="M13.6345977,59.3934961 C13.3462168,59.1065039 12.9496738,58.9414062 12.5423301,58.9414062 C12.136375,58.9414062 11.7399863,59.1065039 11.4514512,59.3934961 C11.164459,59.6804883 10.9993613,60.0785742 10.9993613,60.484375 C10.9993613,60.8901758 11.1643047,61.2882617 11.4514512,61.5752539 C11.7382891,61.8622461 12.136375,62.0273438 12.5423301,62.0273438 C12.9496738,62.0273438 13.3477598,61.8622461 13.6345977,61.5752539 C13.9215898,61.2882617 14.0868418,60.8901758 14.0868418,60.484375 C14.0868418,60.0785742 13.9217441,59.6804883 13.6345977,59.3934961 Z" id="Shape"></path>
                <path d="M41.0440488,41.6601562 L19.1338926,41.6601562 C18.2818652,41.6601562 17.5909238,42.3509434 17.5909238,43.203125 C17.5909238,44.0553066 18.2818652,44.7460938 19.1338926,44.7460938 L41.0440488,44.7460938 C41.8960762,44.7460938 42.5870176,44.0553066 42.5870176,43.203125 C42.5870176,42.3509434 41.8960762,41.6601562 41.0440488,41.6601562 Z" id="Shape"></path>
                <path d="M75.7600742,20.1079687 C74.2610801,19.2425176 72.514748,19.0126152 70.8424785,19.4605391 C69.1705176,19.9086172 67.7728965,20.9809805 66.9075996,22.4799746 L47.4905723,56.1109844 C47.3842617,56.2953691 47.3169883,56.4998125 47.2933809,56.7113535 L45.9266191,68.9538848 C45.8587285,69.5630488 46.1577559,70.1547773 46.6885371,70.4613652 C46.9281602,70.5996152 47.1943223,70.668123 47.4598672,70.668123 C47.7826563,70.668123 48.1042109,70.5670586 48.375002,70.3675527 L58.2938223,63.0625215 C58.4652461,62.9363066 58.6087422,62.7759922 58.7150527,62.5916074 L78.1319258,28.9605977 C79.9186836,25.8660195 78.8546523,21.8947266 75.7600742,20.1079687 Z M49.3847207,65.7912617 L50.098498,59.3984336 L54.5641582,61.9767344 L49.3847207,65.7912617 Z M56.8141152,59.7122734 L50.9346328,56.3177422 L66.5163027,29.3296758 L72.3957852,32.724207 L56.8141152,59.7122734 Z M75.4595039,27.4174746 L73.9385996,30.0517852 L68.0591172,26.6572539 L69.5800215,24.0229434 C70.0333457,23.2377266 70.7653301,22.6760859 71.6411191,22.4414004 C72.5172168,22.2065605 73.4318887,22.3272207 74.2169512,22.7805449 C75.002168,23.2338691 75.5638086,23.9658535 75.7984941,24.8416426 C76.0331797,25.7174316 75.9128281,26.6322578 75.4595039,27.4174746 Z" id="Shape"></path>
            </g>
        </g>
    </g>
</svg>