<?xml version="1.0" encoding="UTF-8"?>
<svg width="236px" height="130px" viewBox="0 0 236 130" version="1.1" xmlns="http://www.w3.org/2000/svg" xmlns:xlink="http://www.w3.org/1999/xlink">
    <!-- Generator: sketchtool 54 (76480) - https://sketchapp.com -->
    <title>91A114C8-E0C2-4226-8B03-EBFB03579BEB</title>
    <desc>Created with sketchtool.</desc>
    <g id="adax" stroke="none" stroke-width="1" fill="none" fill-rule="evenodd">
        <g id="landing" transform="translate(-534.000000, -1874.000000)">
            <g id="adax360-logo" transform="translate(534.000000, 1874.000000)">
                <rect id="Rectangle" fill="#1D1D1D" x="0" y="0" width="236" height="130" rx="2"></rect>
                <g transform="translate(18.000000, 42.000000)" fill="#FFB600">
                    <path d="M26.0843067,35.8065605 L17.9310805,17.4702202 L9.80793999,35.8065605 L5.44551269,45.8026257 L1.42108547e-13,45.8026257 L17.9310805,5.23577236 L36.0426752,45.8026257 L30.5670768,45.8026257 L26.0843067,35.8065605 Z" id="Combined-Shape-Copy-24" fill-rule="nonzero"></path>
                    <path d="M90.8464391,35.8065605 L82.6932129,17.4702202 L74.5700724,35.8065605 L70.2076451,45.8026257 L64.7621324,45.8026257 L82.6932129,5.23577236 L100.804808,45.8026257 L95.3292092,45.8026257 L90.8464391,35.8065605 Z" id="Combined-Shape-Copy-27" fill-rule="nonzero"></path>
                    <path d="M46.1307332,45.8026257 L43.8658184,40.5219503 C44.0134072,40.4988338 44.1565063,40.4748988 44.2951159,40.4501452 C46.3910508,40.075843 48.3800203,39.2577378 50.2620843,37.9958048 C52.1441482,36.7338718 53.6412221,35.0602316 54.7533508,32.974834 C55.8654795,30.8894363 56.4215355,28.5955332 56.4215355,26.093056 C56.4215355,22.948918 55.5339846,20.1042643 53.7588561,17.5590097 C51.9837276,15.0137551 49.8610907,13.3026853 47.3908818,12.4257488 C44.9206728,11.5488123 41.6003769,11.1103507 37.4298943,11.1103507 L34.6068125,11.1103507 L34.6068125,18.9344699 L29.0248098,5.91996549 L29.0248098,5.65626096 L38.9376766,5.65626096 C46.7867387,5.65626096 52.6253268,7.73093317 56.453616,11.8803398 C60.2819051,16.0297465 62.196021,20.7672712 62.196021,26.093056 C62.196021,31.4616183 60.2177448,36.2098371 56.2611331,40.3378551 C53.6604726,43.0511801 50.2836889,44.8727644 46.1307332,45.8026257 Z M29.0248098,31.4188142 L29.0248098,31.4188142 L34.6068125,31.4188142 L34.6068125,31.4188142 L29.0248098,31.4188142 Z" id="Combined-Shape-Copy-25" fill-rule="nonzero"></path>
                    <g id="Group" transform="translate(106.908917, 5.235772)" fill-rule="nonzero">
                        <polygon id="x-copy-15" transform="translate(11.699390, 20.073182) scale(-1, 1) translate(-11.699390, -20.073182) " points="4.71416591 12.9905043 12.9381488 1.59872116e-13 22.2804557 1.59872116e-13 9.46274179 19.2675697 23.3987797 40.1463647 14.0564728 40.1463647 4.71416591 25.5110679 2.59348099e-13 19.2675697"></polygon>
                        <path d="M23.8847327,5.16469883 L27.1543821,1.49213975e-13 L36.496689,1.49213975e-13 L28.3591185,12.2323847 L23.8847327,5.16469883 Z M28.3537785,26.2713008 L37.6150131,40.1463647 L28.2727062,40.1463647 L23.8847327,33.2723352 L28.3537785,26.2713008 Z M17.9686702,24.2373423 L14.2162334,19.2675697 L17.9768792,14.2601474 L21.0441546,19.2675697 L17.9686702,24.2373423 Z" id="Combined-Shape-Copy-26"></path>
                    </g>
                    <polygon id="Rectangle-Copy-6" points="4.1464014 39.463726 18.6588063 39.463726 20.732007 45.8026257 4.1464014 45.8026257"></polygon>
                    <polygon id="Rectangle-Copy-7" points="68.9085338 39.463726 83.4209387 39.463726 85.4941394 45.8026257 68.9085338 45.8026257"></polygon>
                    <path d="M171.39578,5.76570263 L177.403734,3.90798505e-14 L181.755578,3.90798505e-14 L177.008112,4.55604051 L176.822772,4.64497385 C180.51386,5.1978853 183.338067,8.2622301 183.338067,11.9596063 C183.338067,16.0484828 179.884108,19.3631722 175.623434,19.3631722 C171.36276,19.3631722 167.908801,16.0484828 167.908801,11.9596063 C167.908801,9.36866285 169.295637,7.0885715 171.39578,5.76570263 Z M175.623434,16.7054819 C178.354635,16.7054819 180.568711,14.580681 180.568711,11.9596063 C180.568711,9.33853165 178.354635,7.2137308 175.623434,7.2137308 C172.892232,7.2137308 170.678156,9.33853165 170.678156,11.9596063 C170.678156,14.580681 172.892232,16.7054819 175.623434,16.7054819 Z" id="Combined-Shape"></path>
                    <path d="M191.707716,23.1869919 C187.326457,23.1869919 183.774744,19.8176648 183.774744,15.6613892 C183.774744,11.5051137 187.326457,8.13578662 191.707716,8.13578662 C196.088975,8.13578662 199.640688,11.5051137 199.640688,15.6613892 C199.640688,19.8176648 196.088975,23.1869919 191.707716,23.1869919 Z M191.707716,20.7852038 C194.65836,20.7852038 197.05033,18.4911939 197.05033,15.6613892 C197.05033,12.8315846 194.65836,10.5375747 191.707716,10.5375747 C188.757072,10.5375747 186.365102,12.8315846 186.365102,15.6613892 C186.365102,18.4911939 188.757072,20.7852038 191.707716,20.7852038 Z" id="Combined-Shape"></path>
                    <path d="M157.443147,9.76294395 L157.331505,9.76294395 L157.414962,9.7011905 L157.362002,9.58515585 C157.491106,9.53663356 157.621875,9.49161601 157.754161,9.45020158 L161.399696,6.7527029 L152.856495,7.15949223 L155.230229,4.88147197 L166.688344,4.88147197 L161.563147,9.27417621 C165.408422,10.0802077 167.966322,13.6736479 167.306603,17.4150981 C166.632989,21.235355 162.859866,23.7632691 158.879098,23.0613522 C155.503029,22.4660602 153.061854,19.7388469 152.80901,16.5936531 L155.587604,17.0835941 C155.922149,18.9394363 157.433805,20.4933456 159.469478,20.8522897 C162.051598,21.3075872 164.499029,19.6678591 164.935968,17.1898546 C165.372907,14.7118501 163.633894,12.3339391 161.051774,11.8786417 C160.163279,11.721976 159.290731,11.8133646 158.510553,12.1016058 L157.443147,9.76294395 Z" id="Combined-Shape"></path>
                </g>
            </g>
        </g>
    </g>
</svg>