<?xml version="1.0" encoding="UTF-8"?>
<svg width="150px" height="44px" viewBox="0 0 150 44" version="1.1" xmlns="http://www.w3.org/2000/svg" xmlns:xlink="http://www.w3.org/1999/xlink">
    <!-- Generator: Sketch 54 (76480) - https://sketchapp.com -->
    <title>logo</title>
    <desc>Created with Sketch.</desc>
    <g id="adax" stroke="none" stroke-width="1" fill="none" fill-rule="evenodd">
        <g id="post-log-in-screen" transform="translate(-60.000000, -18.000000)" fill="#FFB600">
            <g id="Group-16">
                <g id="logo" transform="translate(60.000000, 18.000000)">
                    <path d="M26.9837655,32.8171865 L18.5493936,13.3292885 L10.1461448,32.8171865 L5.63328899,43.4410239 L1.42108547e-13,43.4410239 L18.5493936,0.326493741 L37.285526,43.4410239 L31.6211139,43.4410239 L26.9837655,32.8171865 Z" id="Combined-Shape-Copy-24" fill-rule="nonzero"></path>
                    <path d="M93.9790749,32.8171865 L85.544703,13.3292885 L77.1414542,32.8171865 L72.6285984,43.4410239 L66.9953094,43.4410239 L85.544703,0.326493741 L104.280835,43.4410239 L98.6164233,43.4410239 L93.9790749,32.8171865 Z" id="Combined-Shape-Copy-27" fill-rule="nonzero"></path>
                    <path d="M47.7214481,43.4410239 L45.3784328,37.8287119 C45.5311108,37.8041436 45.6791445,37.7787054 45.8225337,37.7523972 C47.9907422,37.3545882 50.0482969,36.4851043 51.9952596,35.1439195 C53.9422223,33.8027347 55.4909194,32.0239867 56.6413974,29.807622 C57.7918753,27.5912573 58.3671057,25.1532927 58.3671057,22.4936551 C58.3671057,19.1520591 57.4489496,16.1287557 55.6126097,13.4236542 C53.7762699,10.7185527 51.5804387,8.90002437 49.0250501,7.9680146 C46.4696616,7.03600484 43.0348726,6.57000695 38.7205803,6.57000695 L35.8001508,6.57000695 L35.8001508,14.8854959 L30.0256653,1.05365552 L30.0256653,0.773389838 L40.2803551,0.773389838 C48.4000746,0.773389838 54.4399933,2.97835547 58.4002924,7.38835289 C62.3605915,11.7983503 64.3407114,16.8334007 64.3407114,22.4936551 C64.3407114,28.1993734 62.2942188,33.2457896 58.2011722,37.6330551 C55.5108337,40.5167822 52.0176093,42.4527655 47.7214481,43.4410239 Z M30.0256653,28.1538812 L30.0256653,28.1538812 L35.8001508,28.1538812 L35.8001508,28.1538812 L30.0256653,28.1538812 Z" id="Combined-Shape-Copy-25" fill-rule="nonzero"></path>
                    <g id="Group" transform="translate(110.595431, 0.326494)" fill-rule="nonzero">
                        <polygon id="x-copy-15" transform="translate(12.102817, 21.333817) scale(-1, 1) translate(-12.102817, -21.333817) " points="4.87672335 13.8063331 13.3842918 1.59872116e-13 23.0487472 1.59872116e-13 9.78904323 20.4776103 24.2056342 42.667634 14.5411788 42.667634 4.87672335 27.1132122 2.59348099e-13 20.4776103"></polygon>
                        <path d="M24.7083442,5.4890519 L28.0907402,1.49213975e-13 L37.7551956,1.49213975e-13 L29.3370191,13.0006021 L24.7083442,5.4890519 Z M29.331495,27.9211892 L38.9120825,42.667634 L29.2476271,42.667634 L24.7083442,35.3619021 L29.331495,27.9211892 Z M18.5882795,25.7594943 L14.7064483,20.4776103 L18.5967715,15.1557122 L21.7698151,20.4776103 L18.5882795,25.7594943 Z" id="Combined-Shape-Copy-26"></path>
                    </g>
                    <polygon id="Rectangle-Copy-6" points="4.28938076 36.704029 19.3022134 36.704029 21.4469038 43.4410239 4.28938076 43.4410239"></polygon>
                    <polygon id="Rectangle-Copy-7" points="71.2846902 36.704029 86.2975228 36.704029 88.4422132 43.4410239 71.2846902 43.4410239"></polygon>
                </g>
            </g>
        </g>
    </g>
</svg>