<?xml version="1.0" encoding="UTF-8"?>
<svg width="236px" height="130px" viewBox="0 0 236 130" version="1.1" xmlns="http://www.w3.org/2000/svg" xmlns:xlink="http://www.w3.org/1999/xlink">
    <!-- Generator: sketchtool 54 (76480) - https://sketchapp.com -->
    <title>1AB1BBC4-1DDB-4EF9-8ECF-85C145853B5F</title>
    <desc>Created with sketchtool.</desc>
    <g id="adax" stroke="none" stroke-width="1" fill="none" fill-rule="evenodd">
        <g id="landing" transform="translate(-534.000000, -2124.000000)">
            <g id="adax-logo" transform="translate(534.000000, 2124.000000)">
                <rect id="Rectangle-Copy-3" fill="#FFFFFF" x="0" y="0" width="236" height="130" rx="2"></rect>
                <g transform="translate(33.000000, 41.000000)" fill="#FFB600">
                    <path d="M30.5934542,35.247253 L21.0307944,14.1059719 L11.5034211,35.247253 L6.38686876,46.772433 L4.26325641e-14,46.772433 L21.0307944,2.48689958e-14 L42.2733082,46.772433 L35.8511528,46.772433 L30.5934542,35.247253 Z" id="Combined-Shape-Copy-24" fill-rule="nonzero"></path>
                    <path d="M106.550901,35.247253 L96.9882412,14.1059719 L87.4608679,35.247253 L82.3443156,46.772433 L75.9574468,46.772433 L96.9882412,2.48689958e-14 L118.230755,46.772433 L111.8086,46.772433 L106.550901,35.247253 Z" id="Combined-Shape-Copy-27" fill-rule="nonzero"></path>
                    <path d="M54.1052708,46.772433 L51.4488242,40.6839639 C51.6219264,40.6573112 51.7897628,40.6297147 51.9523337,40.6011746 C54.410589,40.1696148 56.7433882,39.2263626 58.9508012,37.7713896 C61.1582142,36.3164167 62.9140845,34.3867569 64.2184649,31.9823524 C65.5228453,29.577948 66.1750258,26.9331427 66.1750258,24.0478574 C66.1750258,20.4227553 65.1340455,17.1429502 63.0520537,14.2083437 C60.9700619,11.2737372 58.4804886,9.30092212 55.583259,8.28983922 C52.6860295,7.27875632 48.7917599,6.77322245 43.9003334,6.77322245 L40.5892304,6.77322245 L40.5892304,15.7942103 L34.0422769,0.788855304 L34.0422769,0.484811447 L45.6687633,0.484811447 C54.8746789,0.484811447 61.7225732,2.87684975 66.2126519,7.66099812 C70.7027306,12.4451465 72.9477363,17.9073783 72.9477363,24.0478574 C72.9477363,30.2376576 70.627479,35.7122195 65.9868949,40.4717073 C62.9366628,43.6000942 58.9761406,45.7003293 54.1052708,46.772433 Z M34.0422769,30.1883058 L34.0422769,30.1883058 L40.5892304,30.1883058 L40.5892304,30.1883058 L34.0422769,30.1883058 Z" id="Combined-Shape-Copy-25" fill-rule="nonzero"></path>
                    <g id="Group" transform="translate(125.390071, 0.000000)" fill-rule="nonzero">
                        <polygon id="x-copy-15" transform="translate(13.721843, 23.143811) scale(-1, 1) translate(-13.721843, -23.143811) " points="5.52909536 14.9776836 15.1747435 1.59872116e-13 26.1320383 1.59872116e-13 11.0985491 22.2149622 27.443685 46.2876216 16.4863902 46.2876216 5.52909536 29.4135388 2.59348099e-13 22.2149622"></polygon>
                        <path d="M28.0136439,5.95475149 L31.8485118,1.49213975e-13 L42.8058066,1.49213975e-13 L33.2615088,14.1035932 L28.0136439,5.95475149 Z M33.2552457,30.2900658 L44.1174533,46.2876216 L33.1601585,46.2876216 L28.0136439,38.3620602 L33.2552457,30.2900658 Z M21.0748822,27.9449693 L16.6737683,22.2149622 L21.0845102,16.4415461 L24.6820201,22.2149622 L21.0748822,27.9449693 Z" id="Combined-Shape-Copy-26"></path>
                    </g>
                    <polygon id="Rectangle-Copy-6" points="4.86318242 39.4638612 21.8843209 39.4638612 24.3159121 46.772433 4.86318242 46.772433"></polygon>
                    <polygon id="Rectangle-Copy-7" points="80.8206292 39.4638612 97.8417677 39.4638612 100.273359 46.772433 80.8206292 46.772433"></polygon>
                </g>
            </g>
        </g>
    </g>
</svg>