<?xml version="1.0" encoding="UTF-8"?>
<svg width="236px" height="130px" viewBox="0 0 236 130" version="1.1" xmlns="http://www.w3.org/2000/svg" xmlns:xlink="http://www.w3.org/1999/xlink">
    <!-- Generator: sketchtool 54 (76480) - https://sketchapp.com -->
    <title>39AFFEA5-D24D-4B1A-8698-D4B86460E3D9</title>
    <desc>Created with sketchtool.</desc>
    <g id="adax" stroke="none" stroke-width="1" fill="none" fill-rule="evenodd">
        <g id="landing" transform="translate(-534.000000, -2394.000000)">
            <g id="Group-4" transform="translate(534.000000, 2394.000000)">
                <rect id="Rectangle-Copy-5" fill="#FFFFFF" x="0" y="0" width="236" height="130" rx="2"></rect>
                <g id="bt-black" transform="translate(13.000000, 30.000000)">
                    <g id="Group-2" transform="translate(74.008715, 23.287671)" fill="#121212">
                        <path d="M12.262963,9.40821918 C13.98575,8.6184513 15.1003306,6.91622149 15.1296296,5.03013699 C15.1296296,1.88164384 12.7875817,2.55795385e-13 8.50631808,2.55795385e-13 L4.26325641e-14,2.55795385e-13 L4.26325641e-14,20.5816438 L8.66089325,20.5816438 C12.6517429,20.5816438 15.9961874,18.2854795 15.9961874,14.4057534 C16.0102397,11.7323288 14.366122,10.2326027 12.262963,9.40821918 Z M3.90185185,3.4139726 L8.21590414,3.4139726 C10.4033769,3.4139726 11.3495643,4.14520548 11.3495643,5.70547945 C11.3495643,7.26575342 10.4127451,7.9969863 8.21590414,7.9969863 L3.90185185,7.9969863 L3.90185185,3.4139726 Z M8.42668845,17.1210959 L3.90185185,17.1210959 L3.90185185,11.4063014 L8.42668845,11.4063014 C10.9373638,11.4063014 12.0896514,12.4356164 12.0896514,14.2613699 C12.0896514,16.0871233 10.9373638,17.1210959 8.42668845,17.1210959 Z" id="Shape" fill-rule="nonzero"></path>
                        <path d="M31.2757081,10.88 C31.2757081,7.32164384 28.9664488,5.5890411 24.8584967,5.5890411 C20.9238562,5.5890411 18.6801743,7.79205479 18.6801743,10.0556164 C18.6808573,10.4806391 18.7701742,10.9009029 18.9424837,11.289863 L22.2869281,10.1720548 C22.2415366,10.0613444 22.2207639,9.9421818 22.2260349,9.82273973 C22.2260349,8.89123288 23.162854,8.1739726 24.8584967,8.1739726 C26.6618736,8.1739726 27.5471678,8.96575342 27.5471678,10.3769863 L27.5471678,10.9405479 L23.1441176,11.6158904 C20.3617647,12.0257534 17.9119826,13.4789041 17.9119826,16.4364384 C17.9119826,19.1983562 19.9495643,20.9915068 22.8490196,20.9915068 C24.8719321,21.0745919 26.7692211,20.0169098 27.753268,18.2575342 C27.7217271,19.0911528 27.9724378,19.9111824 28.4652505,20.5863014 L32.25,20.5863014 C31.5380174,19.5569863 31.2757081,18.6441096 31.2757081,16.9673973 L31.2757081,10.88 Z M27.5284314,13.7583562 C27.5284314,16.5808219 25.8749455,17.9920548 23.7155773,17.9920548 C22.4133987,17.9920548 21.5281046,17.4052055 21.5281046,16.2268493 C21.5281046,15.0484932 22.3852941,14.3638356 23.9825708,14.0843836 L27.5284314,13.4975342 L27.5284314,13.7583562 Z" id="Shape" fill-rule="nonzero"></path>
                        <path d="M41.5291939,11.6438356 C39.2199346,11.1780822 38.0676471,10.5260274 38.0676471,9.58520548 C38.0676471,8.64438356 39.0747277,8.27178082 40.2879085,8.27178082 C41.7961874,8.27178082 42.9765795,9.24520548 43.5995643,10.8287671 L46.2882353,9.24520548 C45.1078431,6.77205479 43.4215686,5.57041096 40.2270153,5.57041096 C37.3603486,5.57041096 34.7559913,7.06547945 34.7559913,9.80410959 C34.7559913,12.4449315 37.0043573,13.800274 39.871024,14.3591781 C42.0303922,14.7690411 43.0046841,15.2906849 43.0046841,16.2221918 C43.0046841,17.2794521 41.8523965,17.8383562 40.7001089,17.8383562 C38.8264706,17.8383562 37.5383442,16.5156164 36.9153595,14.6945205 L33.9269063,16.5575342 C35.005131,19.2838602 37.6947624,21.0381637 40.6392157,20.9356164 C44.2787582,20.9356164 46.4381264,18.8210959 46.4381264,16.0871233 C46.4568627,13.7024658 44.9579521,12.3471233 41.5291939,11.6438356 Z" id="Path"></path>
                        <path d="M56.2185185,5.5890411 C51.9606754,5.5890411 48.4991285,8.67232877 48.4991285,13.2879452 C48.4991285,17.9035616 51.9606754,20.9915068 56.0405229,20.9915068 C59.3521786,20.9915068 61.5396514,19.5942466 62.9308279,16.729863 L60.1484749,15.1416438 C59.31939,16.790411 58.1389978,17.8150685 56.1014161,17.8150685 C53.9840921,17.8996272 52.1913746,16.2768619 52.0777778,14.1728767 L63.3711329,14.1728767 L63.3711329,12.8780822 C63.3711329,8.61643836 60.4154684,5.5890411 56.2185185,5.5890411 Z M52.0777778,11.4668493 C52.5861748,9.67184601 54.2260154,8.42663598 56.1014161,8.41150685 C58.1998911,8.41150685 59.5863834,9.58520548 59.9423747,11.4668493 L52.0777778,11.4668493 Z" id="Shape" fill-rule="nonzero"></path>
                        <polygon id="Path" points="81.4938998 2.48689958e-13 64.9356209 2.48689958e-13 64.9356209 3.58630137 71.2638344 3.58630137 71.2638344 20.5816438 75.1656863 20.5816438 75.1656863 3.58630137 81.4938998 3.58630137"></polygon>
                        <path d="M84.7727669,8.3230137 L84.7727669,5.99424658 L81.0254902,5.99424658 L81.0254902,20.5769863 L84.7727669,20.5769863 L84.7727669,13.3950685 C84.7727669,10.9265753 86.098366,9.07753425 88.3186275,9.07753425 C88.7320131,9.07414446 89.1427402,9.14352482 89.5318083,9.28246575 L90.1220044,5.78 C89.7083404,5.65966401 89.2788905,5.60157745 88.8479303,5.60767123 C86.9602397,5.5890411 85.5971678,6.64630137 84.7727669,8.3230137 Z" id="Path"></path>
                        <path d="M104.488126,10.88 C104.488126,7.32164384 102.178867,5.5890411 98.070915,5.5890411 C94.1409586,5.5890411 91.8925926,7.8060274 91.8925926,10.0556164 C91.8926627,10.4811921 91.9836699,10.9018963 92.1595861,11.289863 L95.4993464,10.1720548 C95.4574034,10.0604999 95.4382931,9.94173812 95.4431373,9.82273973 C95.4431373,8.89123288 96.3565359,8.1739726 98.070915,8.1739726 C99.8742919,8.1739726 100.759586,8.96575342 100.759586,10.3769863 L100.759586,10.9405479 L96.3565359,11.6158904 C93.5788671,12.0257534 91.1244009,13.4789041 91.1244009,16.4364384 C91.1244009,19.1983562 93.1619826,20.9915068 96.0614379,20.9915068 C98.0852161,21.0731006 99.9831519,20.0160674 100.97037,18.2575342 C100.937474,19.0906109 101.18652,19.9105891 101.677669,20.5863014 L105.476471,20.5863014 C104.769172,19.5569863 104.502179,18.6441096 104.502179,16.9673973 L104.488126,10.88 Z M100.74085,13.7583562 C100.74085,16.5808219 99.0873638,17.9920548 96.9279956,17.9920548 C95.6305011,17.9920548 94.7405229,17.4052055 94.7405229,16.2268493 C94.7405229,15.0484932 95.5977124,14.3638356 97.1949891,14.0843836 L100.74085,13.4975342 L100.74085,13.7583562 Z" id="Shape" fill-rule="nonzero"></path>
                        <path d="M119.294553,7.8060274 C118.465468,6.45534247 116.868192,5.6030137 114.680719,5.6030137 C111.073965,5.6030137 107.467211,8.45342466 107.467211,13.3019178 C107.467211,18.150411 110.689869,21.0054795 114.680719,21.0054795 C116.556021,21.0795778 118.323519,20.133931 119.294553,18.5369863 L119.294553,20.5956164 L123.01841,20.5956164 L123.01841,3.62376795e-13 L119.294553,3.62376795e-13 L119.294553,7.8060274 Z M115.392702,17.5356164 C113.660703,17.5829988 112.072563,16.5820746 111.376476,15.004393 C110.680388,13.4267114 111.015196,11.5869597 112.223167,10.3518704 C113.431138,9.11678101 115.271328,8.73270718 116.876797,9.38059137 C118.482267,10.0284756 119.532787,11.5790896 119.533442,13.3019178 C119.580038,14.4167516 119.16224,15.5013543 118.378565,16.299978 C117.59489,17.0986017 116.5147,17.5405615 115.392702,17.5216438 L115.392702,17.5356164 Z" id="Shape" fill-rule="nonzero"></path>
                        <path d="M140.780501,12.8780822 C140.780501,8.61643836 137.829521,5.5890411 133.627887,5.5890411 C129.426253,5.5890411 125.913181,8.67232877 125.913181,13.2879452 C125.913181,17.9035616 129.370044,20.9915068 133.449891,20.9915068 C136.761547,20.9915068 138.94902,19.5942466 140.340196,16.729863 L137.562527,15.1416438 C136.733442,16.790411 135.548366,17.8150685 133.510784,17.8150685 C131.394394,17.89708 129.603206,16.2756991 129.487146,14.1728767 L140.780501,14.1728767 L140.780501,12.8780822 Z M129.487146,11.4808219 C129.995543,9.68581861 131.635384,8.44060858 133.510784,8.42547945 C135.609259,8.42547945 137.000436,9.59917808 137.356427,11.4808219 L129.487146,11.4808219 Z" id="Shape" fill-rule="nonzero"></path>
                    </g>
                    <g id="Group-3" fill="#01FDFE">
                        <path d="M29.5098039,67.8142231 L29.5098039,59.6655102 L29.5379085,59.6816438 L51.9934641,46.7989041 L51.9934641,46.7942466 L51.9934641,21.0287671 L29.5332244,8.1460274 L29.5098039,8.15947493 L29.5098039,0.0188214009 L29.5425926,5.1159077e-13 L59.0805011,16.9580822 L59.0711329,16.9534247 L59.0711329,50.869589 L29.5332244,67.8276712 L29.5098039,67.8142231 Z M-6.31088724e-30,50.8336595 L-6.31088724e-30,16.9580822 L0.0415189312,16.9342494 L7.13776241,21.0050207 L7.09640523,21.0287671 L7.09640523,46.7989041 L7.09873524,46.8002417 L8.8817842e-16,50.8336595 Z" id="Combined-Shape" fill-rule="nonzero"></path>
                        <polygon id="Path" points="28.5729847 34.4657534 21.3220044 30.2739726 21.3220044 38.6575342 28.6198257 42.8493151"></polygon>
                        <polygon id="Path" points="38.016122 30.2739726 30.6948802 34.4657534 30.6948802 42.8493151 38.016122 38.6575342"></polygon>
                        <polygon id="Path" points="37.0043573 28.2805479 29.6924837 24.0887671 22.3759259 28.2805479 29.6924837 32.4723288"></polygon>
                    </g>
                </g>
            </g>
        </g>
    </g>
</svg>