<?xml version="1.0" encoding="UTF-8"?>
<svg width="18px" height="15px" viewBox="0 0 18 15" version="1.1" xmlns="http://www.w3.org/2000/svg" xmlns:xlink="http://www.w3.org/1999/xlink">
    <!-- Generator: sketchtool 52 (66869) - http://www.bohemiancoding.com/sketch -->
    <title>31F70353-2730-4251-93E8-B14C858823F7</title>
    <desc>Created with sketchtool.</desc>
    <g id="Main-pages" stroke="none" stroke-width="1" fill="none" fill-rule="evenodd">
        <g id="Prices-Buy" transform="translate(-121.000000, -959.000000)" fill="#FFFFFF">
            <g id="sidebar">
                <g id="Group-9" transform="translate(22.000000, 959.000000)">
                    <path d="M115.988195,6.08380725 L116.016293,6.08997387 L103.971515,6.08997387 L107.757953,2.28267572 C107.943368,2.0967963 108.045075,1.84499281 108.045075,1.58070926 C108.045075,1.31642571 107.943368,1.06638411 107.757953,0.880064211 L107.168783,0.288656363 C106.983514,0.102776935 106.736636,0 106.473368,0 C106.209954,0 105.962929,0.102042814 105.777661,0.287922242 L99.2869795,6.79942836 C99.1009795,6.98604191 98.9992722,7.23461527 99.0000039,7.49904564 C98.9992722,7.76494426 99.1009795,8.01366444 99.2869795,8.19998434 L105.777661,14.7120778 C105.962929,14.8978104 106.209807,15 106.473368,15 C106.736636,15 106.983514,14.8976635 107.168783,14.7120778 L107.757953,14.1206699 C107.943368,13.9350841 108.045075,13.6872449 108.045075,13.4229613 C108.045075,13.1588246 107.943368,12.9240527 107.757953,12.7383201 L103.928783,8.90973249 L116.001659,8.90973249 C116.544146,8.90973249 117,8.44062919 117,7.89664556 L117,7.06018813 C117,6.5162045 116.530683,6.08380725 115.988195,6.08380725 Z" id="Path" transform="translate(108.000000, 7.500000) scale(-1, 1) translate(-108.000000, -7.500000) "></path>
                </g>
            </g>
        </g>
    </g>
</svg>