<?xml version="1.0" encoding="UTF-8"?>
<svg width="13px" height="21px" viewBox="0 0 13 21" version="1.1" xmlns="http://www.w3.org/2000/svg" xmlns:xlink="http://www.w3.org/1999/xlink">
    <!-- Generator: sketchtool 54 (76480) - https://sketchapp.com -->
    <title>0C9119CE-4980-4AD4-9E40-CC97B5670080</title>
    <desc>Created with sketchtool.</desc>
    <g id="adax" stroke="none" stroke-width="1" fill="none" fill-rule="evenodd">
        <g id="post-log-in-screen" transform="translate(-1467.000000, -1253.000000)" fill="#000000">
            <g id="footer" transform="translate(0.000000, 683.000000)">
                <g transform="translate(0.000000, 303.000000)" id="Group-14">
                    <g transform="translate(1266.000000, 267.000000)">
                        <g id="facebook-logo-copy-4" transform="translate(201.000000, 0.000000)">
                            <path d="M11.607336,0.00430218014 L8.714322,-3.78364007e-13 C5.464119,-3.78364007e-13 3.363695,1.99728713 3.363695,5.08861867 L3.363695,7.43481261 L0.454898,7.43481261 C0.203544,7.43481261 0,7.62367832 0,7.85664137 L0,11.256009 C0,11.4889721 0.203776,11.6776227 0.454898,11.6776227 L3.363695,11.6776227 L3.363695,20.2553094 C3.363695,20.4882725 3.567239,20.6769231 3.818594,20.6769231 L7.613746,20.6769231 C7.865101,20.6769231 8.068644,20.4880574 8.068644,20.2553094 L8.068644,11.6776227 L11.469706,11.6776227 C11.721061,11.6776227 11.924605,11.4889721 11.924605,11.256009 L11.925997,7.85664137 C11.925997,7.74478469 11.877954,7.6376604 11.792777,7.55850029 C11.7076,7.47934017 11.591554,7.43481261 11.470867,7.43481261 L8.068644,7.43481261 L8.068644,5.44591473 C8.068644,4.4899703 8.314429,4.00468438 9.658004,4.00468438 L11.606872,4.00403906 C11.857995,4.00403906 12.061538,3.81517335 12.061538,3.5824254 L12.061538,0.425915834 C12.061538,0.193382997 11.858227,0.00473239815 11.607336,0.00430218014 Z"></path>
                        </g>
                    </g>
                </g>
            </g>
        </g>
    </g>
</svg>