<?xml version="1.0" encoding="UTF-8"?>
<svg width="22px" height="20px" viewBox="0 0 22 20" version="1.1" xmlns="http://www.w3.org/2000/svg" xmlns:xlink="http://www.w3.org/1999/xlink">
    <!-- Generator: sketchtool 54 (76480) - https://sketchapp.com -->
    <title>EE9174BE-FBF5-4DB9-8E9B-3685F1179F70</title>
    <desc>Created with sketchtool.</desc>
    <g id="adax" stroke="none" stroke-width="1" fill="none" fill-rule="evenodd">
        <g id="post-log-in-screen" transform="translate(-1366.000000, -1254.000000)" fill="#FFFFFF">
            <g id="footer" transform="translate(0.000000, 683.000000)">
                <g transform="translate(0.000000, 303.000000)" id="Group-14">
                    <g transform="translate(1266.000000, 267.000000)">
                        <g id="medium-icon-copy-5" transform="translate(100.000000, 1.000000)">
                            <path d="M15.3872188,16.2782934 L21.9532298,19.6438915 C21.964869,19.6498361 21.9754102,19.6543846 21.9845459,19.6580775 C21.9856439,19.6483499 21.9863906,19.6364157 21.9863906,19.6229952 L21.9863906,5.28228615 L15.3872188,16.2782934 Z" id="Shape"></path>
                            <polygon id="Shape" points="14.9742682 0.449989371 10.3153757 8.1789351 14.7958588 15.6450568 21.8118902 3.95528587"></polygon>
                            <polygon id="Shape" points="7.60497569 12.2928341 13.6841161 15.4090285 7.60497569 5.2808"></polygon>
                            <path d="M8.78431373e-05,15.9706145 C8.78431373e-05,16.0759513 0.100975686,16.2432112 0.192727843,16.2902277 L6.74450824,19.6491606 C6.75654275,19.6551052 6.76708392,19.6603743 6.77617569,19.6633466 C6.77731765,19.653619 6.77802039,19.6416848 6.77802039,19.6282193 L6.77802039,4.04486042 L0.000439215686,0.570187692 L8.78431373e-05,15.9706145 Z" id="Shape"></path>
                        </g>
                    </g>
                </g>
            </g>
        </g>
    </g>
</svg>