<?xml version="1.0" encoding="UTF-8"?>
<svg width="23px" height="19px" viewBox="0 0 23 19" version="1.1" xmlns="http://www.w3.org/2000/svg" xmlns:xlink="http://www.w3.org/1999/xlink">
    <!-- Generator: sketchtool 54 (76480) - https://sketchapp.com -->
    <title>EC9F6A07-C992-4366-B76D-6FCDFCB74533</title>
    <desc>Created with sketchtool.</desc>
    <g id="adax" stroke="none" stroke-width="1" fill="none" fill-rule="evenodd">
        <g id="post-log-in-screen" transform="translate(-1559.000000, -1253.000000)" fill="#000000">
            <g id="footer" transform="translate(0.000000, 683.000000)">
                <g transform="translate(0.000000, 303.000000)" id="Group-14">
                    <g transform="translate(1266.000000, 267.000000)">
                        <g id="twitter-copy-5" transform="translate(293.000000, 0.000000)">
                            <path d="M22.4,2.14185089 C21.567,2.50508876 20.6794,2.74585562 19.754,2.86275976 C20.706,2.29772308 21.4326,1.40980828 21.7742,0.3395787 C20.8866,0.86564734 19.9066,1.2372355 18.8622,1.44460118 C18.0194,0.55251124 16.8182,0 15.5078,0 C12.9654,0 10.9186,2.05138935 10.9186,4.56622012 C10.9186,4.92806627 10.9494,5.27599527 11.025,5.60722367 C7.2072,5.42212544 3.829,3.60315266 1.5596,0.83224615 C1.1634,1.5155787 0.931,2.29772308 0.931,3.13971124 C0.931,4.72070059 1.75,6.12215858 2.9708,6.93352899 C2.233,6.91961183 1.5092,6.70667929 0.896,6.37127574 C0.896,6.3851929 0.896,6.40328521 0.896,6.42137751 C0.896,8.63977278 2.4878,10.4824047 4.5752,10.9068781 C4.2014,11.0084734 3.794,11.0571834 3.3712,11.0571834 C3.0772,11.0571834 2.7804,11.0404828 2.5018,10.9792473 C3.0968,12.7870864 4.7852,14.1161751 6.7928,14.1593183 C5.2304,15.3742864 3.2466,16.106329 1.099,16.106329 C0.7224,16.106329 0.3612,16.0896284 0,16.0437018 C2.0342,17.3477396 4.445,18.0923077 7.0448,18.0923077 C15.4952,18.0923077 20.1152,11.1337278 20.1152,5.10203077 C20.1152,4.90023195 20.1082,4.70539172 20.0984,4.5119432 C21.0098,3.86897041 21.7756,3.0659503 22.4,2.14185089 Z"></path>
                        </g>
                    </g>
                </g>
            </g>
        </g>
    </g>
</svg>