<?xml version="1.0" encoding="UTF-8"?>
<svg width="21px" height="19px" viewBox="0 0 21 19" version="1.1" xmlns="http://www.w3.org/2000/svg" xmlns:xlink="http://www.w3.org/1999/xlink">
    <!-- Generator: sketchtool 52 (66869) - http://www.bohemiancoding.com/sketch -->
    <title>1E9D3E7F-F956-4F99-BA38-47DEB9742C87</title>
    <desc>Created with sketchtool.</desc>
    <g id="1080" stroke="none" stroke-width="1" fill="none" fill-rule="evenodd">
        <g id="landing-dark" transform="translate(-1569.000000, -5209.000000)" fill="#FFFFFF" fill-rule="nonzero">
            <g id="Group-20" transform="translate(1488.000000, 5208.000000)">
                <path d="M81.3652159,9.67519581 L86.1295988,11.4622613 L87.973707,17.4224016 C88.0917035,17.8041271 88.5561767,17.9452221 88.8644701,17.691916 L91.5202175,15.5161292 C91.7985982,15.2881744 92.1951132,15.2768148 92.4860379,15.4890461 L97.2760601,18.9840058 C97.6058575,19.2249133 98.0730876,19.0432976 98.1557954,18.642801 L101.664743,1.68015595 C101.755032,1.24267125 101.327295,0.877708155 100.912791,1.03882111 L81.3596331,8.61937261 C80.8771021,8.80639109 80.8813064,9.4929567 81.3652159,9.67519581 Z M87.6765103,10.5109606 L96.9878924,4.74753603 C97.1552378,4.64426027 97.3274079,4.87166088 97.1837031,5.00562152 L89.4991146,12.1843604 C89.2290047,12.4370431 89.0547669,12.7752002 89.0054179,13.1422413 L88.7436477,15.091805 C88.7089794,15.352107 88.345134,15.3779433 88.2736607,15.1260225 L87.2669,11.5709398 C87.1515915,11.165456 87.3196262,10.7323351 87.6765103,10.5109606 Z" id="telegram-copy-5"></path>
            </g>
        </g>
    </g>
</svg>