<?xml version="1.0" encoding="UTF-8"?>
<svg width="76px" height="76px" viewBox="0 0 76px 76" version="1.1" xmlns="http://www.w3.org/2000/svg" xmlns:xlink="http://www.w3.org/1999/xlink">
    <!-- Generator: sketchtool 54 (76480) - https://sketchapp.com -->
    <title>1E5DC624-0B8D-4682-9358-8BDDD0CB0702</title>
    <desc>Created with sketchtool.</desc>
    <g id="Assets" stroke="none" stroke-width="1" fill="none" fill-rule="evenodd">
        <g id="kyc" transform="translate(-895.000000, -204.000000)" fill="#FFFFFF" fill-rule="nonzero">
            <g id="Group-4" transform="translate(902.000000, 204.000000)">
                <path d="M2.57645283,25.2239844 C2.29584906,24.9477422 1.90641509,24.7890625 1.50943396,24.7890625 C1.11245283,24.7890625 0.723169811,24.9478906 0.442264151,25.2239844 C0.161358491,25.5000781 8.9928065e-14,25.8830469 8.9928065e-14,26.2734375 C8.9928065e-14,26.6638281 0.161358491,27.0467969 0.442264151,27.3227422 C0.723018868,27.5989844 1.11245283,27.7578125 1.50943396,27.7578125 C1.90641509,27.7578125 2.29584906,27.5989844 2.57645283,27.3227422 C2.85735849,27.0467969 3.01886792,26.6638281 3.01886792,26.2734375 C3.01886792,25.8830469 2.85735849,25.5000781 2.57645283,25.2239844 Z" id="Path"></path>
                <path d="M59.4716981,0 L28.9308679,0 C28.0973585,0 27.421434,0.664703125 27.421434,1.484375 C27.421434,2.30404688 28.0973585,2.96875 28.9308679,2.96875 L59.4716981,2.96875 C60.304,2.96875 60.9811321,3.63464063 60.9811321,4.453125 L60.9811321,71.546875 C60.9811321,72.3653594 60.304,73.03125 59.4716981,73.03125 L4.52830189,73.03125 C3.696,73.03125 3.01886792,72.3653594 3.01886792,71.546875 L3.01886792,31.8150547 C3.01886792,30.9953828 2.3429434,30.3306797 1.50943396,30.3306797 C0.675924528,30.3306797 0,30.9953828 0,31.8150547 L0,71.546875 C0,74.0023281 2.03139623,76 4.52830189,76 L59.4716981,76 C61.9686038,76 64,74.0023281 64,71.546875 L64,4.453125 C64,1.99767187 61.9686038,0 59.4716981,0 Z" id="Path"></path>
                <path d="M32,5.9375 C30.9729811,5.9375 29.9408302,6.0146875 28.9322264,6.1666875 C28.1082264,6.29107812 27.5426415,7.04855469 27.6689811,7.858875 C27.7953208,8.66919531 28.5660377,9.22464844 29.3897358,9.10114844 C30.2475472,8.97171094 31.1257358,8.90625 32,8.90625 C41.4051321,8.90625 49.0567547,16.4308437 49.0567547,25.6798359 C49.0567547,29.7871016 47.5470189,33.5534062 45.0455849,36.4727266 C43.938717,34.6009297 42.4268679,32.986375 40.5918491,31.7340078 C39.5209057,31.0031016 38.3702642,30.4197422 37.1657358,29.9879375 C38.5405283,28.6663984 39.3962264,26.8247344 39.3962264,24.7893594 L39.3962264,23.3420937 C39.3962264,19.3313125 36.0783396,16.0685078 32,16.0685078 C27.9216604,16.0685078 24.6037736,19.3313125 24.6037736,23.3420937 L24.6037736,24.7893594 C24.6037736,26.8247344 25.4593208,28.6663984 26.8342642,29.9879375 C25.6298868,30.4197422 24.4792453,31.0031016 23.4081509,31.7340078 C21.5643774,32.9924609 20.0464906,34.6160703 18.9382642,36.4991484 C17.0323019,34.2718437 15.7000755,31.5322812 15.1788679,28.4761016 C15.0410566,27.6678594 14.2620377,27.1225 13.4406038,27.2577266 C12.6184151,27.39325 12.0636981,28.1585937 12.2015094,28.9671328 C12.9776604,33.5182266 15.3802264,37.6839766 18.9667925,40.6968125 C22.5941132,43.7440859 27.2227925,45.4223203 31.9998491,45.4223203 C43.0695849,45.4223203 52.0754717,36.5659453 52.0754717,25.6799844 C52.0754717,14.7940234 43.0697358,5.9375 32,5.9375 Z M27.6226415,23.3419453 C27.6226415,20.9682812 29.5864151,19.0371094 32,19.0371094 C34.4135849,19.0371094 36.3773585,20.9682812 36.3773585,23.3419453 L36.3773585,24.7892109 C36.3773585,27.1627266 34.4135849,29.0938984 32,29.0938984 C29.5864151,29.0938984 27.6226415,27.1627266 27.6226415,24.7892109 L27.6226415,23.3419453 Z M32,42.4534219 C27.9133585,42.4534219 24.1352453,41.0500937 21.1782642,38.6709375 C23.2051321,34.6257187 27.3486792,32.0626484 32,32.0626484 C36.6416604,32.0626484 40.7773585,34.6151797 42.8087547,38.6457031 C39.8643019,41.0238203 36.098717,42.4534219 32,42.4534219 Z" id="Shape"></path>
                <path d="M45.9406792,59.0784219 L24.506717,59.0784219 C23.6732075,59.0784219 22.997283,59.743125 22.997283,60.5627969 C22.997283,61.3824688 23.6732075,62.0471719 24.506717,62.0471719 L45.9406792,62.0471719 C46.7743396,62.0471719 47.4501132,61.3824688 47.4501132,60.5627969 C47.4501132,59.743125 46.7741887,59.0784219 45.9406792,59.0784219 Z" id="Path"></path>
                <path d="M19.1260377,51.2005469 C18.845283,50.9243047 18.4558491,50.765625 18.0588679,50.765625 C17.6618868,50.765625 17.2724528,50.9244531 16.9916981,51.2005469 C16.7109434,51.4766406 16.549434,51.8596094 16.549434,52.25 C16.549434,52.6417266 16.7110943,53.0233594 16.9916981,53.2993047 C17.2724528,53.5755469 17.6618868,53.734375 18.0588679,53.734375 C18.4558491,53.734375 18.845283,53.5755469 19.1260377,53.2993047 C19.4083019,53.0233594 19.5683019,52.6403906 19.5683019,52.25 C19.5683019,51.8596094 19.4083019,51.4766406 19.1260377,51.2005469 Z" id="Path"></path>
                <path d="M19.1260377,59.5130469 C18.845283,59.2368047 18.4573585,59.078125 18.0588679,59.078125 C17.6618868,59.078125 17.2724528,59.2369531 16.9916981,59.5130469 C16.7109434,59.7891406 16.549434,60.1721094 16.549434,60.5625 C16.549434,60.9542266 16.7110943,61.3358594 16.9916981,61.6118047 C17.2724528,61.8880469 17.6618868,62.046875 18.0588679,62.046875 C18.4558491,62.046875 18.845283,61.8880469 19.1260377,61.6118047 C19.4083019,61.3358594 19.5683019,60.954375 19.5683019,60.5625 C19.5683019,60.1721094 19.4083019,59.7891406 19.1260377,59.5130469 Z" id="Path"></path>
                <path d="M45.9406792,50.7659219 L24.506717,50.7659219 C23.6732075,50.7659219 22.997283,51.430625 22.997283,52.2502969 C22.997283,53.0699688 23.6732075,53.7346719 24.506717,53.7346719 L45.9406792,53.7346719 C46.7743396,53.7346719 47.4501132,53.0699688 47.4501132,52.2502969 C47.4501132,51.430625 46.7741887,50.7659219 45.9406792,50.7659219 Z" id="Path"></path>
                <path d="M17.7548679,8.55430469 C17.1651321,7.97480469 16.2096604,7.97480469 15.6200755,8.55430469 L10.7044528,13.3883203 L9.02460377,11.7363594 C8.43486792,11.1568594 7.47939623,11.1568594 6.88981132,11.7363594 C6.30037736,12.3161562 6.30037736,13.2560625 6.88981132,13.8357109 L9.63698113,16.5372734 C9.93177358,16.8270234 10.3178868,16.9720469 10.7043019,16.9720469 C11.090717,16.9720469 11.4768302,16.8270234 11.7717736,16.5374219 L17.7548679,10.6536562 C18.3443019,10.0738594 18.3443019,9.13395312 17.7548679,8.55430469 Z" id="Path"></path>
                <path d="M12.3773585,-1.77635684e-15 C5.55245283,-1.77635684e-15 -3.55271368e-14,5.46027344 -3.55271368e-14,12.171875 C-3.55271368e-14,18.8834766 5.55245283,24.34375 12.3773585,24.34375 C19.2022642,24.34375 24.754717,18.8834766 24.754717,12.171875 C24.754717,5.46027344 19.2022642,-1.77635684e-15 12.3773585,-1.77635684e-15 Z M12.3773585,21.375 C7.2170566,21.375 3.01886792,17.2465078 3.01886792,12.171875 C3.01886792,7.09724219 7.2170566,2.96875 12.3773585,2.96875 C17.5376604,2.96875 21.7358491,7.09724219 21.7358491,12.171875 C21.7358491,17.2465078 17.5376604,21.375 12.3773585,21.375 Z" id="Shape"></path>
            </g>
        </g>
    </g>
</svg>