<?xml version="1.0" encoding="UTF-8"?>
<svg width="76px" height="76px" viewBox="0 0 76px 76px" version="1.1" xmlns="http://www.w3.org/2000/svg" xmlns:xlink="http://www.w3.org/1999/xlink">
    <!-- Generator: sketchtool 54 (76480) - https://sketchapp.com -->
    <title>F76D1C04-3585-428E-A103-C396CA7938EE</title>
    <desc>Created with sketchtool.</desc>
    <g id="Assets" stroke="none" stroke-width="1" fill="none" fill-rule="evenodd">
        <g id="kyc" transform="translate(-551.000000, -205.000000)" fill="#FFFFFF" fill-rule="nonzero">
            <g id="create" transform="translate(551.000000, 205.000000)">
                <path d="M59.8359375,21.4990234 C60.6340391,21.4990234 61.28125,20.851957 61.28125,20.0537109 L61.28125,4.3359375 C61.28125,1.94510156 59.3361484,0 56.9453125,0 L4.3359375,0 C1.94510156,0 -3.55271368e-15,1.94510156 -3.55271368e-15,4.3359375 L-3.55271368e-15,69.6640625 C-3.55271368e-15,72.0548984 1.94510156,74 4.3359375,74 L56.9453125,74 C59.3361484,74 61.28125,72.0548984 61.28125,69.6640625 L61.28125,59.0161562 C61.28125,58.2179102 60.6340391,57.5708437 59.8359375,57.5708437 C59.0378359,57.5708437 58.390625,58.2179102 58.390625,59.0161562 L58.390625,69.6640625 C58.390625,70.4610078 57.7422578,71.109375 56.9453125,71.109375 L4.3359375,71.109375 C3.53899219,71.109375 2.890625,70.4610078 2.890625,69.6640625 L2.890625,4.3359375 C2.890625,3.53899219 3.53899219,2.890625 4.3359375,2.890625 L56.9453125,2.890625 C57.7422578,2.890625 58.390625,3.53899219 58.390625,4.3359375 L58.390625,20.0537109 C58.390625,20.851957 59.0378359,21.4990234 59.8359375,21.4990234 Z" id="Path"></path>
                <path d="M30.640625,7.8046875 C23.3086992,7.8046875 17.34375,13.7696367 17.34375,21.1015625 C17.34375,24.9051914 18.9494922,28.3404102 21.5181016,30.7662227 C21.5662305,30.8176758 21.6173945,30.8663828 21.6733281,30.9107539 C24.0394492,33.0756875 27.1883516,34.398293 30.6404805,34.398293 C34.0926094,34.398293 37.2415117,33.075543 39.6076328,30.9107539 C39.6635664,30.8663828 39.7147305,30.8175312 39.7628594,30.7662227 C42.3317578,28.3404102 43.9375,24.9051914 43.9375,21.1015625 C43.9375,13.7696367 37.9725508,7.8046875 30.640625,7.8046875 Z M30.640625,31.5078125 C28.2805742,31.5078125 26.1024883,30.7169375 24.3548164,29.3878281 C25.6251016,27.1353086 27.9955586,25.7265625 30.640625,25.7265625 C33.2856914,25.7265625 35.6561484,27.1353086 36.9264336,29.3878281 C35.1786172,30.7169375 33.0006758,31.5078125 30.640625,31.5078125 Z M28.328125,20.5234375 L28.328125,19.5839844 C28.328125,18.3089297 29.3655703,17.2714844 30.640625,17.2714844 C31.9156797,17.2714844 32.953125,18.3089297 32.953125,19.5839844 L32.953125,20.5234375 C32.953125,21.7984922 31.9156797,22.8359375 30.640625,22.8359375 C29.3655703,22.8359375 28.328125,21.7984922 28.328125,20.5234375 Z M39.0147656,27.2705898 C37.9488477,25.689707 36.4715937,24.4601797 34.7564414,23.7011016 C35.4371836,22.8213398 35.84375,21.7192891 35.84375,20.5234375 L35.84375,19.5839844 C35.84375,16.7148945 33.5097148,14.3808594 30.640625,14.3808594 C27.7715352,14.3808594 25.4375,16.7148945 25.4375,19.5839844 L25.4375,20.5234375 C25.4375,21.7192891 25.8440664,22.8213398 26.5248086,23.7011016 C24.8096562,24.4601797 23.3324023,25.689707 22.2664844,27.2705898 C20.990418,25.5430078 20.234375,23.409293 20.234375,21.1015625 C20.234375,15.3635273 24.9025898,10.6953125 30.640625,10.6953125 C36.3786602,10.6953125 41.046875,15.3635273 41.046875,21.1015625 C41.046875,23.409293 40.290832,25.5430078 39.0147656,27.2705898 Z" id="Shape"></path>
                <path d="M38.4453125,63.3046875 L30.640625,63.3046875 C29.8425234,63.3046875 29.1953125,63.9517539 29.1953125,64.75 C29.1953125,65.5482461 29.8425234,66.1953125 30.640625,66.1953125 L38.4453125,66.1953125 C39.2434141,66.1953125 39.890625,65.5482461 39.890625,64.75 C39.890625,63.9517539 39.2434141,63.3046875 38.4453125,63.3046875 Z" id="Path"></path>
                <path d="M38.4453125,55.2109375 L17.921875,55.2109375 C17.1237734,55.2109375 16.4765625,55.8580039 16.4765625,56.65625 C16.4765625,57.4544961 17.1237734,58.1015625 17.921875,58.1015625 L38.4453125,58.1015625 C39.2434141,58.1015625 39.890625,57.4544961 39.890625,56.65625 C39.890625,55.8580039 39.2434141,55.2109375 38.4453125,55.2109375 Z" id="Path"></path>
                <path d="M38.4453125,47.1171875 L17.921875,47.1171875 C17.1237734,47.1171875 16.4765625,47.7642539 16.4765625,48.5625 C16.4765625,49.3607461 17.1237734,50.0078125 17.921875,50.0078125 L38.4453125,50.0078125 C39.2434141,50.0078125 39.890625,49.3607461 39.890625,48.5625 C39.890625,47.7642539 39.2434141,47.1171875 38.4453125,47.1171875 Z" id="Path"></path>
                <path d="M12.7706367,39.4469141 C12.5019531,39.1780859 12.1290625,39.0234375 11.7475,39.0234375 C11.3672383,39.0234375 10.9943477,39.1780859 10.7256641,39.4469141 C10.4568359,39.7157422 10.3021875,40.0886328 10.3021875,40.46875 C10.3021875,40.8488672 10.4566914,41.2217578 10.7256641,41.4905859 C10.9959375,41.7594141 11.3672383,41.9140625 11.7475,41.9140625 C12.1290625,41.9140625 12.5005078,41.7594141 12.7706367,41.4905859 C13.0394648,41.2217578 13.1942578,40.8488672 13.1942578,40.46875 C13.1942578,40.0886328 13.0396094,39.7157422 12.7706367,39.4469141 Z" id="Path"></path>
                <path d="M12.7706367,47.5406641 C12.5005078,47.2718359 12.1290625,47.1171875 11.7475,47.1171875 C11.3672383,47.1171875 10.9959375,47.2718359 10.7256641,47.5406641 C10.4568359,47.8094922 10.3021875,48.1823828 10.3021875,48.5625 C10.3021875,48.9426172 10.4566914,49.3155078 10.7256641,49.5843359 C10.9959375,49.8531641 11.3672383,50.0078125 11.7475,50.0078125 C12.1290625,50.0078125 12.5005078,49.8531641 12.7706367,49.5843359 C13.0394648,49.3155078 13.1942578,48.9426172 13.1942578,48.5625 C13.1942578,48.1823828 13.0396094,47.8094922 12.7706367,47.5406641 Z" id="Path"></path>
                <path d="M12.7706367,55.6344141 C12.5005078,55.3655859 12.1290625,55.2109375 11.7475,55.2109375 C11.3672383,55.2109375 10.9959375,55.3655859 10.7256641,55.6344141 C10.4568359,55.9032422 10.3021875,56.2761328 10.3021875,56.65625 C10.3021875,57.0363672 10.4566914,57.4092578 10.7256641,57.6780859 C10.9943477,57.9469141 11.3672383,58.1015625 11.7475,58.1015625 C12.1290625,58.1015625 12.5019531,57.9469141 12.7706367,57.6780859 C13.0394648,57.4092578 13.1942578,57.0363672 13.1942578,56.65625 C13.1942578,56.2761328 13.0396094,55.9032422 12.7706367,55.6344141 Z" id="Path"></path>
                <path d="M38.4453125,39.0234375 L17.921875,39.0234375 C17.1237734,39.0234375 16.4765625,39.6705039 16.4765625,40.46875 C16.4765625,41.2669961 17.1237734,41.9140625 17.921875,41.9140625 L38.4453125,41.9140625 C39.2434141,41.9140625 39.890625,41.2669961 39.890625,40.46875 C39.890625,39.6705039 39.2434141,39.0234375 38.4453125,39.0234375 Z" id="Path"></path>
                <path d="M70.9641211,18.8353125 C69.56,18.0246367 67.9241953,17.8092852 66.3577656,18.2288594 C64.791625,18.6485781 63.4824609,19.6530703 62.6719297,21.0571914 L44.4838281,52.5596562 C44.3842461,52.7323711 44.3212305,52.923875 44.2991172,53.1220273 L43.0188594,64.5897148 C42.9552656,65.1603242 43.2353672,65.7146016 43.7325547,66.0017852 C43.9570117,66.1312852 44.2063281,66.195457 44.4550664,66.195457 C44.7574258,66.195457 45.0586289,66.1007891 45.3122813,65.9139102 L54.6033281,59.0712227 C54.7639023,58.9529961 54.8983164,58.8028281 54.9978984,58.6301133 L73.1858555,27.1276484 C74.8595273,24.2289297 73.8628398,20.5089844 70.9641211,18.8353125 Z M46.2580938,61.6272578 L46.9266953,55.6390391 L51.1097188,58.0541562 L46.2580938,61.6272578 Z M53.2172734,55.9330156 L47.7099102,52.7533281 L62.3053984,27.4733672 L67.8127617,30.6530547 L53.2172734,55.9330156 Z M70.6825742,25.6821914 L69.2579297,28.1497734 L63.7505664,24.9700859 L65.1752109,22.5025039 C65.5998438,21.7669844 66.2855,21.2408906 67.1058594,21.0210586 C67.9265078,20.801082 68.7832891,20.9141055 69.5186641,21.3387383 C70.2541836,21.7633711 70.7802773,22.4490273 71.0001094,23.2693867 C71.2199414,24.0897461 71.107207,24.9466719 70.6825742,25.6821914 Z" id="Shape"></path>
            </g>
        </g>
    </g>
</svg>