<?xml version="1.0" encoding="UTF-8"?>
<svg width="71px" height="91px" viewBox="0 0 71 91" version="1.1" xmlns="http://www.w3.org/2000/svg" xmlns:xlink="http://www.w3.org/1999/xlink">
    <!-- Generator: sketchtool 54 (76480) - https://sketchapp.com -->
    <title>975334AA-9947-46E9-9AE4-51D7E8E5C0F6</title>
    <desc>Created with sketchtool.</desc>
    <g id="Assets" stroke="none" stroke-width="1" fill="none" fill-rule="evenodd">
        <g id="kyc" transform="translate(-592.000000, -480.000000)">
            <g id="Group-13" transform="translate(592.000000, 480.000000)">
                <g id="Group-5" transform="translate(13.000000, 0.000000)">
                    <path d="M45,85.0389437 L45,52.6505381 C45,51.749829 44.3499672,51.0292618 43.5374261,51.0292618 C42.7248851,51.0292618 42.0748523,51.749829 42.0748523,52.6505381 L42.0748523,85.0553203 C42.0748523,86.5455843 40.9816152,87.7574474 39.6372292,87.7574474 L5.36277085,87.7574474 C4.01838477,87.7574474 2.92514773,86.5455843 2.92514773,85.0553203 L2.92514773,5.94467973 C2.92514773,4.45441566 4.01838477,3.25892911 5.36277085,3.25892911 L39.6372292,3.25892911 C40.9816152,3.25892911 42.0748523,4.47079219 42.0748523,5.94467973 L42.0748523,56.2397272 C42.0748523,57.1404362 42.7248851,57.8610035 43.5374261,57.8610035 C44.3499672,57.8610035 45,57.1404362 45,56.2397272 L45,5.94467973 C45,2.66937409 42.5919238,7.10542736e-15 39.6372292,7.10542736e-15 L5.36277085,7.10542736e-15 C2.40807617,7.10542736e-15 0,2.66937409 0,5.94467973 L0,85.0553203 C0,88.3306259 2.40807617,91 5.36277085,91 L39.6372292,91 C42.6066973,90.9836235 45,88.3142494 45,85.0389437 Z" id="Path" fill="#FFFFFF" fill-rule="nonzero"></path>
                    <polyline id="Path-2" stroke="#FFFFFF" stroke-width="3.21428571" points="9.64285714 2.14117647 12.8571429 8.56470588 30.5357143 8.56470588 34.8214286 2.14117647"></polyline>
                </g>
                <g id="Group-7" transform="translate(22.000000, 32.000000)" fill="#FFFFFF">
                    <rect id="Rectangle" x="2.7" y="2.7" width="2.7" height="2.7"></rect>
                    <path d="M18.9,0 L18.9,1.35 L17.55,1.35 L17.55,2.7 L18.9,2.7 L18.9,8.1 L20.25,8.1 L20.25,9.45 L18.9,9.45 L18.9,10.8 L20.25,10.8 L21.6,10.8 L21.6,8.1 L25.65,8.1 L25.65,9.45 L27,9.45 L27,8.1 L27,0 L18.9,0 Z M25.65,6.75 L20.25,6.75 L20.25,1.35 L25.65,1.35 L25.65,6.75 Z" id="Shape" fill-rule="nonzero"></path>
                    <rect id="Rectangle" x="21.6" y="2.7" width="2.7" height="2.7"></rect>
                    <rect id="Rectangle" x="2.7" y="21.6" width="2.7" height="2.7"></rect>
                    <rect id="Rectangle" x="18.9" y="18.9" width="1.35" height="1.35"></rect>
                    <rect id="Rectangle" x="12.15" y="25.65" width="1.35" height="1.35"></rect>
                    <rect id="Rectangle" x="13.5" y="20.25" width="1.35" height="1.35"></rect>
                    <rect id="Rectangle" x="13.5" y="22.95" width="1.35" height="1.35"></rect>
                    <rect id="Rectangle" x="25.65" y="16.2" width="1.35" height="1.35"></rect>
                    <rect id="Rectangle" x="0" y="16.2" width="1.35" height="1.35"></rect>
                    <rect id="Rectangle" x="0" y="9.45" width="1.35" height="1.35"></rect>
                    <polygon id="Path" points="14.85 1.35 14.85 2.7 12.15 2.7 12.15 4.05 16.2 4.05 16.2 2.7 16.2 1.35"></polygon>
                    <path d="M25.65,10.8 L25.65,12.15 L22.95,12.15 L22.95,13.5 L18.9,13.5 L18.9,12.15 L17.55,12.15 L17.55,13.5 L14.85,13.5 L14.85,14.85 L18.9,14.85 L18.9,16.2 L16.2,16.2 L14.85,16.2 L14.85,14.85 L13.5,14.85 L13.5,16.2 L12.15,16.2 L12.15,14.85 L10.8,14.85 L10.8,16.2 L9.45,16.2 L9.45,17.55 L12.15,17.55 L12.15,18.9 L13.5,18.9 L13.5,17.55 L16.2,17.55 L16.2,18.9 L14.85,18.9 L14.85,20.25 L16.2,20.25 L16.2,22.95 L17.55,22.95 L17.55,24.3 L18.9,24.3 L18.9,22.95 L22.95,22.95 L22.95,20.25 L24.3,20.25 L24.3,18.9 L22.95,18.9 L22.95,16.2 L20.25,16.2 L20.25,14.85 L22.95,14.85 L22.95,16.2 L24.3,16.2 L24.3,14.85 L25.65,14.85 L25.65,13.5 L27,13.5 L27,12.15 L27,10.8 L25.65,10.8 Z M21.6,17.55 L21.6,21.6 L17.55,21.6 L17.55,17.55 L21.6,17.55 Z" id="Shape" fill-rule="nonzero"></path>
                    <polygon id="Path" points="17.55 8.1 16.2 8.1 16.2 9.45 14.85 9.45 14.85 10.8 14.85 12.15 16.2 12.15 16.2 10.8 17.55 10.8 17.55 9.45 18.9 9.45 18.9 8.1"></polygon>
                    <rect id="Rectangle" x="14.85" y="25.65" width="2.7" height="1.35"></rect>
                    <rect id="Rectangle" x="10.8" y="1.35" width="1.35" height="1.35"></rect>
                    <rect id="Rectangle" x="21.6" y="10.8" width="1.35" height="1.35"></rect>
                    <rect id="Rectangle" x="22.95" y="9.45" width="1.35" height="1.35"></rect>
                    <rect id="Rectangle" x="5.4" y="16.2" width="1.35" height="1.35"></rect>
                    <path d="M8.1,25.65 L8.1,20.25 L9.45,20.25 L9.45,18.9 L9.45,17.55 L8.1,17.55 L8.1,18.9 L4.05,18.9 L4.05,17.55 L2.7,17.55 L1.35,17.55 L1.35,18.9 L0,18.9 L0,27 L8.1,27 L10.8,27 L10.8,25.65 L8.1,25.65 Z M6.75,25.65 L1.35,25.65 L1.35,20.25 L6.75,20.25 L6.75,25.65 Z" id="Shape" fill-rule="nonzero"></path>
                    <rect id="Rectangle" x="8.1" y="8.1" width="1.35" height="1.35"></rect>
                    <path d="M9.45,0 L8.1,0 L0,0 L0,8.1 L1.35,8.1 L1.35,9.45 L2.7,9.45 L2.7,8.1 L4.05,8.1 L4.05,9.45 L5.4,9.45 L5.4,8.1 L8.1,8.1 L8.1,5.4 L9.45,5.4 L9.45,4.05 L8.1,4.05 L8.1,1.35 L9.45,1.35 L10.8,1.35 L10.8,0 L9.45,0 Z M6.75,6.75 L1.35,6.75 L1.35,1.35 L6.75,1.35 L6.75,6.75 Z" id="Shape" fill-rule="nonzero"></path>
                    <rect id="Rectangle" x="16.2" y="4.05" width="1.35" height="1.35"></rect>
                    <rect id="Rectangle" x="13.5" y="0" width="1.35" height="1.35"></rect>
                    <path d="M16.2,8.1 L16.2,6.75 L14.85,6.75 L14.85,5.4 L13.5,5.4 L13.5,6.75 L10.8,6.75 L10.8,5.4 L9.45,5.4 L9.45,6.75 L9.45,8.1 L10.8,8.1 L10.8,10.8 L6.75,10.8 L6.75,9.45 L5.4,9.45 L5.4,10.8 L1.35,10.8 L1.35,12.15 L4.05,12.15 L4.05,13.5 L0,13.5 L0,14.85 L4.05,14.85 L4.05,16.2 L5.4,16.2 L5.4,14.85 L6.75,14.85 L6.75,16.2 L8.1,16.2 L8.1,14.85 L10.8,14.85 L10.8,13.5 L9.45,13.5 L9.45,12.15 L10.8,12.15 L12.15,12.15 L12.15,13.5 L13.5,13.5 L14.85,13.5 L14.85,12.15 L13.5,12.15 L13.5,10.8 L12.15,10.8 L12.15,8.1 L16.2,8.1 Z M8.1,13.5 L5.4,13.5 L5.4,12.15 L8.1,12.15 L8.1,13.5 Z" id="Shape" fill-rule="nonzero"></path>
                    <polygon id="Path" points="12.15 21.6 12.15 20.25 12.15 18.9 10.8 18.9 10.8 20.25 9.45 20.25 9.45 21.6 10.8 21.6 10.8 22.95 9.45 22.95 9.45 24.3 12.15 24.3 12.15 22.95 13.5 22.95 13.5 21.6"></polygon>
                    <polygon id="Path" points="24.3 24.3 24.3 22.95 22.95 22.95 22.95 24.3 18.9 24.3 18.9 25.65 21.6 25.65 21.6 27 22.95 27 22.95 25.65 25.65 25.65 25.65 27 27 27 27 25.65 27 24.3"></polygon>
                    <polygon id="Path" points="25.65 18.9 25.65 20.25 24.3 20.25 24.3 21.6 27 21.6 27 20.25 27 18.9"></polygon>
                </g>
            </g>
        </g>
    </g>
</svg>