<?xml version="1.0" encoding="UTF-8"?>
<svg width="81px" height="95px" viewBox="0 0 81 95" version="1.1" xmlns="http://www.w3.org/2000/svg" xmlns:xlink="http://www.w3.org/1999/xlink">
    <!-- Generator: Sketch 54 (76480) - https://sketchapp.com -->
    <title>withdra</title>
    <desc>Created with Sketch.</desc>
    <g id="adax" stroke="none" stroke-width="1" fill="none" fill-rule="evenodd">
        <g id="post-log-in-screen" transform="translate(-1420.000000, -603.000000)">
            <g id="withdra" transform="translate(1420.000000, 604.000000)">
                <g id="money-(5)" transform="translate(-0.000000, 37.062500)" fill="#000000" fill-rule="nonzero">
                    <path d="M79.3620924,26.9911685 C78.5563859,26.185462 77.3572623,25.7601502 75.7647217,25.7152331 L80.1775143,21.3222438 C80.7006373,20.8013017 80.7006373,19.9568552 80.1775143,19.4359131 L62.7568327,2.09341046 C62.2335423,1.57263512 61.3852891,1.57263512 60.8619986,2.09341046 L43.7187079,19.1597671 L25.2353648,0.759371793 C24.7120743,0.238596448 23.8638211,0.238596448 23.3405307,0.759371793 L5.9198491,18.1018745 C5.39672614,18.6228166 5.39672614,19.467263 5.9198491,19.9882051 L15.6928515,29.7173491 L0.167004034,29.7173491 L0.167004034,32.3854265 L17.5876856,32.3854265 C17.7692627,32.3859267 17.9489972,32.3490739 18.1156662,32.2773693 L27.2427633,28.3833105 L47.068839,28.3833105 C48.1864427,29.6037665 48.7452446,30.6168478 48.7452446,31.4225543 C48.7452446,32.2282609 48.1864427,32.9938978 47.068839,33.7194651 L32.3282623,33.7194651 C31.5882183,33.7194651 30.9882099,34.3166142 30.9882099,35.0535038 C30.9882099,35.5739456 31.2922342,36.0468624 31.7667803,36.2648109 L49.1874619,44.2690429 C49.6258265,44.4674812 50.1373915,44.4166209 50.5275143,44.1356391 L73.7358823,27.4628238 C75.6067071,26.8798181 76.9449728,27.1254529 77.7506793,28.1997283 C78.5563859,29.2740036 78.3942395,30.1992101 77.2642403,30.9753476 L50.5931769,53.7300451 L43.2885511,53.7300451 L18.0513437,44.4744849 C17.9029329,44.419956 17.7459793,44.3919412 17.5876856,44.3917745 L0.167004034,44.3917745 L0.167004034,47.0598518 L17.3478162,47.0598518 L42.5850236,56.3154121 C42.7334344,56.3701077 42.890388,56.3979557 43.0486817,56.3981225 L51.0889963,56.3981225 C51.4087663,56.398456 51.7178159,56.2843957 51.9600303,56.0766192 L80.1011313,32.0639232 C80.6631158,31.584503 80.5706522,28.1997283 79.3620924,26.9911685 Z M26.4400719,25.8232903 L26.1144392,25.9566941 C27.4375734,22.5385536 31.2937418,20.8353197 34.7272911,22.1525161 C36.3986715,22.7936885 37.7402315,24.0778674 38.4496218,25.7152331 L26.9680526,25.7152331 C26.7864755,25.7147329 26.6067409,25.7514189 26.4400719,25.8232903 Z M41.3133138,25.7152331 C40.1400979,21.7511372 36.4794097,19.0337005 32.3282623,19.0450398 C27.5861518,19.0733881 23.6011709,22.5992523 23.016238,27.2840626 L18.8312542,29.0690063 L8.7621003,19.0450398 L24.2879477,3.58886781 L46.5140573,25.7152331 L41.3133138,25.7152331 Z M49.600198,41.5195892 L38.429521,36.3875425 L48.4088914,36.3875425 C49.1489354,36.3875425 49.7489438,35.7902267 49.7489438,35.0535038 C50.691224,33.975715 51.1623641,33.0339674 51.1623641,32.2282609 C51.1623641,31.1539855 50.691224,30.0564327 49.7489438,28.9356025 L57.0254285,36.1794324 L49.600198,41.5195892 Z M49.8749088,25.2883408 C50.3824536,22.4406685 52.8739461,20.3689064 55.7791798,20.3790785 C59.1021748,20.3730753 61.8008728,23.0498239 61.8070706,26.3579063 C61.8124308,29.2524367 59.7376946,31.7365834 56.8780227,32.2600268 L49.8749088,25.2883408 Z M59.0529278,34.4225035 C59.5906239,34.2053887 60.104534,33.9345789 60.5881254,33.6155769 L59.2257946,34.5945945 L59.0529278,34.4225035 Z M73.0001935,24.6946936 L61.1916515,33.1858497 C64.9536812,30.2012717 65.5731204,24.7455538 62.5749206,21.000407 C59.5768883,17.2552602 54.0965764,16.6386008 50.3345467,19.6233456 C49.1702087,20.5470006 48.2631607,21.7524713 47.6998362,23.12453 L45.6133745,21.0460978 L61.8092482,4.92290647 L77.3350956,20.3790785 L73.0001935,24.6946936 Z" id="Shape"></path>
                </g>
                <circle id="Oval" fill="#FFFFFF" cx="42.7024457" cy="20.142663" r="19.3369565"></circle>
                <path d="M57.5194442,5.84366122 C53.7405618,2.07536483 48.7163018,-6.75015599e-14 43.3721593,-6.75015599e-14 C38.0280167,-6.75015599e-14 33.0037567,2.07536483 29.2247961,5.84366122 C25.9369527,9.12243993 23.8872185,13.4662956 23.4529971,18.0750567 C23.0246373,22.6231834 24.178575,27.210512 26.7025453,30.9918238 C26.9417734,31.3502527 27.4271072,31.4471274 27.7861448,31.2087983 C28.145495,30.9703134 28.2428744,30.486485 28.0036463,30.1281341 C23.1594522,22.8704752 24.137857,13.1208821 30.3301224,6.94591383 C37.5215033,-0.225547554 49.2228153,-0.225547554 56.4141961,6.94591383 C59.8978925,10.4198449 61.8164068,15.0387378 61.8164068,19.9516841 C61.8164068,24.8646304 59.8978925,29.4835232 56.4141961,32.9574543 C49.9707451,39.3830657 39.9450461,40.1865106 32.5757095,34.8677502 C32.2260504,34.6154705 31.7373559,34.6934067 31.4843728,35.0421715 C31.2313114,35.3908584 31.3096213,35.8781159 31.6592024,36.1304735 C35.0641199,38.5878819 39.1752332,39.9032902 43.3764577,39.9031344 C43.8765625,39.9031344 44.3786212,39.8844297 44.8802891,39.8468644 C49.646564,39.4896825 54.1352374,37.4343473 57.5194442,34.059629 C61.2983267,30.2912547 63.3794005,25.280966 63.3794005,19.9516061 C63.3794005,14.6222463 61.2983267,9.61211349 57.5194442,5.84366122 Z" id="Path" stroke="#000000" stroke-width="0.671422101" fill="#000000" fill-rule="nonzero"></path>
                <circle id="Oval" fill="#FFB600" cx="43.1524343" cy="20.2812437" r="11.9748083"></circle>
                <path d="M43.1374283,19.0637607 C41.9476793,19.0637607 40.9797762,18.2265192 40.9797762,17.197463 C40.9797762,16.1683088 41.9476793,15.3310674 43.1374283,15.3310674 C44.3271773,15.3310674 45.2950804,16.1683088 45.2950804,17.197463 C45.2950804,17.7387001 45.7342607,18.1776099 46.2758314,18.1776099 C46.817402,18.1776099 47.2565823,17.7387001 47.2565823,17.197463 C47.2565823,15.4013439 45.917465,13.8911336 44.1181793,13.4812362 L44.1181793,12.9714618 C44.1181793,12.4302247 43.678999,11.991315 43.1374283,11.991315 C42.5958576,11.991315 42.1566774,12.4302247 42.1566774,12.9714618 L42.1566774,13.4812362 C40.3573917,13.8911336 39.0182743,15.4013439 39.0182743,17.197463 C39.0182743,19.3074252 40.8661072,21.0240544 43.1374283,21.0240544 C44.3271773,21.0240544 45.2950804,21.8612958 45.2950804,22.89045 C45.2950804,23.9196043 44.3271773,24.7568457 43.1374283,24.7568457 C41.9476793,24.7568457 40.9797762,23.9196043 40.9797762,22.89045 C40.9797762,22.349213 40.5405959,21.9103032 39.9990253,21.9103032 C39.4574546,21.9103032 39.0182743,22.349213 39.0182743,22.89045 C39.0182743,24.6865692 40.3573917,26.1967795 42.1566774,26.6066769 L42.1566774,27.0301003 C42.1566774,27.5713374 42.5958576,28.0102472 43.1374283,28.0102472 C43.678999,28.0102472 44.1181793,27.5713374 44.1181793,27.0301003 L44.1181793,26.6066769 C45.917465,26.1967795 47.2565823,24.6865692 47.2565823,22.89045 C47.2565823,20.7803899 45.4087494,19.0637607 43.1374283,19.0637607 Z" id="Path" fill="#000000" fill-rule="nonzero"></path>
                <path d="M53.7224832,13.7644815 C53.5526597,13.4805437 53.1847386,13.3879944 52.9008607,13.5579976 C52.6169828,13.7278212 52.5245533,14.0956824 52.6944367,14.3796202 C55.2617376,18.6702557 54.582024,24.139832 51.0413078,27.6804884 C46.7905673,31.9312887 39.8739266,31.9312887 35.6231861,27.6804884 C31.3723858,23.429748 31.3723858,16.5131671 35.6231861,12.2623667 C39.161686,8.72374707 44.6291059,8.04277558 48.9187829,10.6061228 C49.2027806,10.7757667 49.570522,10.6831574 49.7402856,10.3991598 C49.9099894,10.1151621 49.8173202,9.74742068 49.5333825,9.57771693 C47.26194,8.22038646 44.5554258,7.64394482 41.913187,7.9541199 C39.1882228,8.27417889 36.7203002,9.4709707 34.7760451,11.4152258 C30.0581851,16.1331457 30.0581851,23.8097094 34.7760451,28.5276294 C37.1350051,30.8865894 40.233641,32.0660693 43.3322769,32.0660693 C46.4309128,32.0660693 49.5295487,30.8865894 51.8885087,28.5276294 C53.8336024,26.5825357 55.030514,24.113415 55.349914,21.3871929 C55.6597297,18.7432768 55.0817306,16.0361037 53.7224832,13.7644815 Z" id="Path" stroke="#000000" stroke-width="0.671422101" fill="#000000" fill-rule="nonzero"></path>
                <path d="M29.8597941,32.8644764 L29.8322059,32.8368869 C29.5281884,32.5312209 29.0333198,32.5292725 28.7268796,32.8322887 C28.4204394,33.1353828 28.4184074,33.6288753 28.7222685,33.9344634 L28.7498568,33.9620528 C28.9027252,34.1156652 29.1037362,34.1925883 29.3048254,34.1925883 C29.5038045,34.1925883 29.7027835,34.1173018 29.855183,33.966651 C30.1616232,33.6635569 30.1636552,33.1700645 29.8597941,32.8644764 Z" id="Path" fill="#000000" fill-rule="nonzero"></path>
            </g>
        </g>
    </g>
</svg>