<?xml version="1.0" encoding="UTF-8"?>
<svg width="12px" height="12px" viewBox="0 0 12 12" version="1.1" xmlns="http://www.w3.org/2000/svg" xmlns:xlink="http://www.w3.org/1999/xlink">
    <!-- Generator: sketchtool 52 (66869) - http://www.bohemiancoding.com/sketch -->
    <title>A741CBFC-9A7A-4FFF-9CE7-F6D6389611F1</title>
    <desc>Created with sketchtool.</desc>
    <g id="Page-1" stroke="none" stroke-width="1" fill="none" fill-rule="evenodd">
        <g id="Exchange-sidebar" transform="translate(-15.000000, -23.000000)" fill="#FFFFFF">
            <path d="M22.0612662,29.0001251 L26.7801172,24.2810774 C27.0732943,23.9881382 27.0732943,23.5128312 26.7801172,23.219892 C26.48694,22.9267027 26.0121532,22.9267027 25.718976,23.219892 L21.0001251,27.9389397 L16.281024,23.219892 C15.9878468,22.9267027 15.51306,22.9267027 15.2198828,23.219892 C14.9267057,23.5128312 14.9267057,23.9881382 15.2198828,24.2810774 L19.938984,29.0001251 L15.2198828,33.7191728 C14.9267057,34.012112 14.9267057,34.487419 15.2198828,34.7803581 C15.3664714,34.9267027 15.5585875,35 15.7504534,35 C15.9423193,35 16.1344354,34.9267027 16.281024,34.780108 L21.0001251,30.0610603 L25.718976,34.780108 C25.8655646,34.9267027 26.0576807,35 26.2495466,35 C26.4414125,35 26.6335286,34.9267027 26.7801172,34.780108 C27.0732943,34.4871688 27.0732943,34.0118618 26.7801172,33.7189226 L22.0612662,29.0001251 Z" id="Path"></path>
        </g>
    </g>
</svg>