<?xml version="1.0" encoding="UTF-8"?>
<svg width="21px" height="21px" viewBox="0 0 21 21" version="1.1" xmlns="http://www.w3.org/2000/svg" xmlns:xlink="http://www.w3.org/1999/xlink">
    <!-- Generator: Sketch 52 (66869) - http://www.bohemiancoding.com/sketch -->
    <title>logout-gray</title>
    <desc>Created with Sketch.</desc>
    <g id="main-screens" stroke="none" stroke-width="1" fill="none" fill-rule="evenodd">
        <g id="Exchange" transform="translate(-1805.000000, -32.000000)" fill="#939598" stroke="#939598">
            <path d="M1814.90623,50.8125278 C1815.23394,50.8125278 1815.49996,51.0784998 1815.49991,51.4062639 C1815.49991,51.7339786 1815.23394,52 1814.90618,52 L1806.59373,52 C1806.26602,52 1806,51.7340279 1806,51.4062639 L1806,33.5937361 C1806,33.2659721 1806.26602,33 1806.59373,33 L1814.90623,33 C1815.23394,33 1815.49996,33.2660214 1815.49996,33.5937361 C1815.49996,33.9214508 1815.23399,34.1874722 1814.90623,34.1874722 L1807.18751,34.1874722 L1807.18751,50.8125278 L1814.90623,50.8125278 Z M1824.82773,42.0855446 C1825.05871,42.3159319 1825.05634,42.7024773 1824.82713,42.933457 L1820.73088,47.0891163 C1820.49931,47.3236494 1820.12347,47.3236494 1819.89131,47.0891163 C1819.65915,46.8551754 1819.65915,46.4757864 1819.89131,46.2412532 L1822.97882,43.1092088 L1810.75178,43.1092088 C1810.42407,43.1092088 1810.15805,42.8408184 1810.15805,42.5095008 C1810.15805,42.1781832 1810.42402,41.9097927 1810.75178,41.9097927 L1822.97882,41.9097927 L1819.89131,38.7777483 C1819.65915,38.5438074 1819.65915,38.1638262 1819.89131,37.9298853 C1820.12288,37.6959443 1820.49871,37.6953521 1820.73088,37.9298853 L1824.82773,42.0855446 Z" id="logout-gray"></path>
        </g>
    </g>
</svg>